<?xml version="1.0" encoding="UTF-8"?>
<svg width="1200pt" height="1200pt" version="1.1" viewBox="0 0 1200 1200" xmlns="http://www.w3.org/2000/svg">
 <g>
  <path d="m507.76 606h318.79c6.625 0 12-5.375 12-12l-0.003906-123.27c0-6.625-5.375-12-12-12h-318.79c-6.625 0-12 5.375-12 12v123.27c0 6.625 5.375 12 12 12zm306.79-24h-135.39v-99.266h135.39zm-294.79-99.266h135.39v99.266h-135.39z"/>
  <path d="m131.51 988.07h166.29v79.934c0 6.625 5.375 12 12 12h714.7c6.625 0 12-5.375 12-12v-437.52l21.395 40.211c2.1602 4.0547 6.3125 6.3594 10.609 6.3594 1.8945 0 3.8281-0.45703 5.6289-1.4023 5.8438-3.1094 8.0625-10.379 4.957-16.234l-43.992-82.691c-0.023438-0.046875-0.058594-0.058594-0.085938-0.10938-0.035156-0.058593-0.046875-0.13281-0.070312-0.19141l-105.57-185.65c-1.2344-2.1836-3.1328-3.9258-5.3984-4.9688l-251.77-116.12c-3.1914-1.4648-6.8633-1.4648-10.055 0l-232.87 107.41v-102.21c-0.003906-85.391-69.473-154.87-154.88-154.87-85.391 0-154.87 69.48-154.87 154.87v701.2c0 6.6367 5.375 12 12 12zm12-393.7h143.24l-38.004 64.609c-3.3594 5.7109-1.4531 13.066 4.2617 16.43 1.9062 1.1289 3.9961 1.6562 6.0703 1.6562 4.1172 0 8.125-2.1133 10.355-5.9141l28.367-48.227v153.32l-154.29-0.007812zm157.33-24h-157.33v-172.51h257.33zm-157.33 393.7v-163.84h154.29v163.84zm432.53-49.344-56.281 103.52 0.003906-207.93zm13.598 25.238 62.555 116.04h-125.64zm90.863-123.58 50.316 100.44-50.316 95.578zm-24 197.03-53.172-98.641 53.172-97.812zm87.539-70.199 56.496 112.79h-115.86zm70.512 87.18-56.762-113.3 56.762-107.83zm-69.984-139.7-59.461-118.69h121.92zm-154.84-1.1406-63.359-117.54h127.26zm248.82 166.45v-296c0-6.625-5.375-12-12-12h-318.79c-6.625 0-12 5.375-12 12v296h-173.95v-368.06h690.7v368.06zm-171.39-762.2 243.25 112.2 102.1 179.54v78.395l-690.7 0.003906v-81.863l102.05-176.05zm-392.77-149.8c72.168 0 130.87 58.715 130.87 130.87v98.988h-261.74v-98.988c0-72.156 58.715-130.87 130.87-130.87z"/>
 </g>
</svg>
