<?xml version="1.0" encoding="UTF-8"?>
<svg width="1200pt" height="1200pt" version="1.1" viewBox="0 0 1200 1200" xmlns="http://www.w3.org/2000/svg">
 <g fill-rule="evenodd">
  <path d="m650 375c0 27.613-22.387 50-50 50s-50-22.387-50-50 22.387-50 50-50 50 22.387 50 50"/>
  <path d="m1100 987.5h-1e3c-20.699 0-37.5 16.801-37.5 37.5s16.801 37.5 37.5 37.5h1e3c20.699 0 37.5-16.801 37.5-37.5s-16.801-37.5-37.5-37.5z"/>
  <path d="m912.5 550c0-20.699-16.801-37.5-37.5-37.5h-550c-20.699 0-37.5 16.801-37.5 37.5v475c0 20.699 16.801 37.5 37.5 37.5h550c20.699 0 37.5-16.801 37.5-37.5zm-75 37.5v400h-475v-400z"/>
  <path d="m137.5 425v600c0 20.699 16.801 37.5 37.5 37.5h850c20.699 0 37.5-16.801 37.5-37.5v-600c0-20.699-16.801-37.5-37.5-37.5s-37.5 16.801-37.5 37.5v562.5h-775v-562.5c0-20.699-16.801-37.5-37.5-37.5s-37.5 16.801-37.5 37.5z"/>
  <path d="m131.75 544.95 139.25-221.45 329-109 329 109 139.25 221.45c11.051 17.551 34.199 22.801 51.699 11.801 17.551-11.051 22.801-34.199 11.801-51.699l-146.45-232.85c-4.6484-7.3984-11.699-12.898-19.949-15.648l-353.55-117.15c-7.6484-2.5508-15.949-2.5508-23.602 0l-353.55 117.15c-8.25 2.75-15.301 8.25-19.949 15.648l-146.45 232.85c-11 17.5-5.75 40.648 11.801 51.699 17.5 11 40.648 5.75 51.699-11.801z"/>
  <path d="m850.5 521.6-550 475c-15.648 13.551-17.398 37.25-3.8984 52.898 13.551 15.648 37.25 17.398 52.898 3.8984l550-475c15.648-13.551 17.398-37.25 3.8984-52.898-13.551-15.648-37.25-17.398-52.898-3.8984z"/>
  <path d="m300.5 578.4 550 475c15.648 13.5 39.352 11.75 52.898-3.8984 13.5-15.648 11.75-39.352-3.8984-52.898l-550-475c-15.648-13.5-39.352-11.75-52.898 3.8984-13.5 15.648-11.75 39.352 3.8984 52.898z"/>
 </g>
</svg>
