<?xml version="1.0" encoding="UTF-8"?>
<svg width="1200pt" height="1200pt" version="1.1" viewBox="0 0 1200 1200" xmlns="http://www.w3.org/2000/svg">
 <g>
  <path d="m600 167.4c-318 0-575.76 157.2-576 350.88v163.2c0 193.68 257.76 351.12 576 351.12 68.879 0 135.36-7.4414 196.56-21.121 51.84-11.52 88.801-51.84 84-96-0.23828-3.8398-0.48047-7.6797-0.48047-11.52 0-71.281 69.121-128.64 154.32-128.64 4.3203 0 8.6406 0 12.961 0.48047 67.199 4.5586 127.92-35.52 128.64-91.441v-165.84c0-193.91-257.76-351.12-576-351.12zm504 353.76c0 5.5195-17.52 19.922-45.84 19.922-1.9219 0-3.8398-0.23828-5.7617-0.23828-5.7617-0.48047-12-0.71875-18-0.71875-124.8 0-226.32 90-226.32 200.64 0 6.4805 0.23828 12.719 0.96094 19.199-0.23828 3.3594-9.3594 14.16-27.84 18.238-57.84 12.719-118.8 19.199-181.2 19.199-273.12 0-504-127.68-504-278.88 0-151.2 230.88-279.12 504-279.12s504 127.92 504 279.12l-0.003906 2.6367z"/>
  <path d="m752.16 647.4c0 42.945-68.125 77.762-152.16 77.762s-152.16-34.816-152.16-77.762c0-42.945 68.125-77.758 152.16-77.758s152.16 34.812 152.16 77.758"/>
 </g>
</svg>
