<?xml version="1.0" encoding="UTF-8"?>
<svg width="1200pt" height="1200pt" version="1.1" viewBox="0 0 1200 1200" xmlns="http://www.w3.org/2000/svg">
 <path d="m911.02 421.64h-622.03c0 140.16 92.812 258.75 220.08 297.66l-194.06 318.05 20.859 12.656 53.203-87.188c0.46875-1.4062 144.61-237.19 144.61-237.19 21.328 4.6875 43.594 7.0312 66.328 7.0312 33.281 0 65.625-5.3906 95.625-15l192.66 332.58 20.859-12.656-190.31-328.36c112.97-46.875 192.19-157.97 192.19-287.58zm-175.78 215.16c10.312-5.3906 24.141-14.766 36.562-29.531 13.125-15.938 19.688-32.344 22.969-44.062 1.4062-5.1562 7.5-7.0312 11.719-3.75 1.875 1.6406 3.0469 3.9844 2.5781 6.5625-1.6406 11.953-6.7969 36.797-27.656 58.359-14.531 15-30.469 22.266-40.312 25.781-2.3438 0.70312-4.9219 0.23438-7.0312-1.1719-3.9844-3.2812-3.5156-9.6094 1.1719-12.188z"/>
 <path transform="scale(2.3438)" d="m198.2 88.3c3.5 5.1 7.2 12.2 5.7 19.7-2.1 10.1-11.9 12.5-14 21.4-1.3 5.6 0.2 14.1 13.1 26.9" fill="none" stroke="#000" stroke-linecap="round" stroke-miterlimit="10" stroke-width="6"/>
 <path transform="scale(2.3438)" d="m256.2 88.3c3.5 5.1 7.2 12.2 5.7 19.7-2.1 10.1-11.9 12.5-14 21.4-1.3 5.6 0.2 14.1 13.1 26.9" fill="none" stroke="#000" stroke-linecap="round" stroke-miterlimit="10" stroke-width="6"/>
 <path transform="scale(2.3438)" d="m316.2 88.3c3.5 5.1 7.2 12.2 5.7 19.7-2.1 10.1-11.9 12.5-14 21.4-1.3 5.6 0.2 14.1 13.1 26.9" fill="none" stroke="#000" stroke-linecap="round" stroke-miterlimit="10" stroke-width="6"/>
 <path transform="matrix(2.3438 -.0032161 .0032161 2.3438 -1.4346 .8243)" d="m64.001 441.9 384 2.66e-4 -4.09e-4 8.8-384-2.66e-4z" stroke="#000" stroke-miterlimit="10"/>
</svg>
