<?xml version="1.0" encoding="UTF-8"?>
<svg width="1200pt" height="1200pt" version="1.1" viewBox="0 0 1200 1200" xmlns="http://www.w3.org/2000/svg">
 <g>
  <path d="m685.1 551.91c-3.2188 0.19141-6.3984-0.75-8.9961-2.6602-32.695-26.613-36.496-62.73-10.137-96.695h-0.003906c6.4805-8.1914 10.832-17.855 12.676-28.133 1.6797-9.4062 0.66797-19.098-2.918-27.957-3.5859-8.8555-9.6055-16.52-17.359-22.102-3.1602-1.8984-5.4102-5-6.2344-8.5938s-0.14844-7.3633 1.8672-10.449c2.0156-3.0859 5.1992-5.2188 8.8203-5.9062 3.6211-0.68359 7.3672 0.13281 10.375 2.2656 12.129 8.4844 21.598 20.25 27.297 33.914 5.7031 13.664 7.3984 28.668 4.8906 43.262-2.4961 14.754-8.6406 28.648-17.867 40.426-17.109 21.926-15.207 41.82 5.8281 58.93 5.7891 4.7031 6.6914 13.195 2.0273 19.012-2.4961 3.082-6.2969 4.8164-10.266 4.6875z"/>
  <path d="m792.31 570.41c-3.0977-0.007812-6.0977-1.082-8.4922-3.043-32.824-26.613-36.625-63.363-10.266-96.695 6.5352-8.1562 10.895-17.836 12.676-28.133 1.6953-9.3945 0.70312-19.078-2.8633-27.934-3.5625-8.8555-9.5586-16.523-17.289-22.125-6.2969-4.0586-8.1133-12.457-4.0547-18.754 4.0586-6.3008 12.457-8.1172 18.758-4.0586 12.129 8.5234 21.602 20.309 27.32 33.988s7.4492 28.695 4.9922 43.316c-2.5742 14.715-8.7578 28.562-17.992 40.301-17.109 22.051-15.082 41.949 5.957 59.055l-0.003906 0.003906c2.793 2.2539 4.5625 5.5352 4.9219 9.1055 0.35547 3.5703-0.73047 7.1367-3.0195 9.9023-2.5898 3.2227-6.5078 5.0898-10.645 5.0703z"/>
  <path d="m904.21 551.91c-3.1094 0.0625-6.1289-1.0195-8.4922-3.043-32.824-26.613-36.625-62.73-10.266-96.695v0.003906c6.4805-8.1914 10.832-17.855 12.672-28.137 1.6836-9.4062 0.67188-19.098-2.9141-27.953-3.5898-8.8555-9.6055-16.52-17.359-22.105-5.9453-4.2148-7.4961-12.375-3.5078-18.477 3.9883-6.1016 12.086-7.9609 18.332-4.207 12.133 8.4883 21.602 20.25 27.301 33.918 5.6992 13.664 7.3945 28.668 4.8906 43.262-2.4961 14.754-8.6406 28.648-17.871 40.426-17.109 21.926-15.207 41.82 5.8281 58.93h0.003906c5.7852 4.6992 6.6914 13.191 2.0273 19.008-2.5 3.3398-6.4805 5.2344-10.645 5.0703z"/>
  <path d="m1154.2 725.27c-4.5273 7.1016-9.6562 13.801-15.332 20.023 34.977 11.914 37.258 21.543 37.258 21.672 0 0.125-4.6875 20.531-109.24 39.031-94.473 14.848-190.02 21.84-285.65 20.91-95.586 0.92969-191.09-6.0625-285.52-20.91-104.55-18.504-109.24-38.777-109.24-39.031s2.5352-11.66 48.031-25.348c-5.4766-6.3984-10.434-13.219-14.828-20.406-49.805 16.223-57.156 33.078-57.156 45.621 0 17.109 13.434 42.199 129.01 62.605v0.003906c95.812 15.09 192.71 22.211 289.7 21.289 96.988 0.97656 193.89-6.1016 289.7-21.164 115.7-20.402 129.14-45.496 129.14-62.605 0-11.531-6.207-26.738-45.875-41.691z"/>
  <path d="m1088.1 596.13h-601.08c-11.043 0-21.797 3.5547-30.668 10.141-6.1133-8.4414-15.148-14.312-25.344-16.477l-376.77-80.852c-11.086-2.332-22.648-0.17187-32.148 6.0039s-16.168 15.863-18.543 26.945l-2.4062 11.277c-2.3008 11.07-0.14062 22.598 6 32.086 6.1445 9.4922 15.781 16.176 26.824 18.609l376 80.977c2.9609 0.60547 5.9766 0.90234 9 0.88672 6.9766 0.003906 13.848-1.6914 20.023-4.9414 7.5859 30.215 25.078 57.016 49.68 76.125 24.602 19.113 54.895 29.434 86.047 29.316h426.32c36.707-0.20312 71.855-14.871 97.812-40.828 25.957-25.957 40.629-61.105 40.828-97.816-0.03125-13.656-5.4805-26.742-15.152-36.391-9.668-9.6445-22.77-15.062-36.426-15.062zm-650.75 38.02c0.058594 0.25 0.058594 0.51172 0 0.76172l-1.1406 5.5742-1.2656 5.7031h-0.003906c-0.76562 4.1641-3.168 7.8477-6.668 10.227-3.5 2.3828-7.8047 3.2617-11.961 2.4492l-376.77-81.363c-4.0273-0.9375-7.5352-3.4062-9.7812-6.8828-2.2461-3.4727-3.0547-7.6836-2.2578-11.746l2.2812-11.277c0.72656-3.5664 2.6641-6.7773 5.4805-9.082 2.8164-2.3086 6.3398-3.5781 9.9805-3.5898 1.0508-0.125 2.1172-0.125 3.168 0l376.77 81.359c3.9453 0.82812 7.418 3.1523 9.6836 6.4844 2.2695 3.3281 3.1602 7.4102 2.4844 11.383z"/>
 </g>
</svg>
