<?xml version="1.0" encoding="UTF-8"?>
<svg width="1200pt" height="1200pt" version="1.1" viewBox="0 0 1200 1200" xmlns="http://www.w3.org/2000/svg">
 <path d="m906.8 481.92c-0.59766 0.003906-1.1992 0-1.7734 0.24219-1.8203 0.24219-3.5703 0.89063-5.1016 1.9258 0 0-57.203 37.586-84.875 61.152-25.859 22.027-64.539 64.445-68.969 69.285-154.8-0.24219-309.99 0-464.9 0 17.031 55.879 68.211 103.55 129.48 103.55h183.51c52.012 0 97.125-36.551 119.96-79.539h36.918c3.2969 0 6.4258-1.4688 8.6562-3.9023 0 0 46.441-50.371 70.746-71.07 24.656-21.004 82.582-59.18 82.582-59.18 10.371-6.3164 5.9062-22.34-6.2227-22.324z"/>
</svg>
