<svg width="1043" height="1044" viewBox="0 0 1043 1044" fill="none" xmlns="http://www.w3.org/2000/svg">
<path d="M926.018 456.432H351.778V300.592L382.496 158.672C383.59 153.698 382.809 148.5 380.298 144.068C377.788 139.636 373.725 136.292 368.897 134.672L212.897 82.3549C208.168 80.7612 203.022 80.933 198.408 82.8393C193.799 84.7455 190.033 88.2612 187.814 92.7352C185.595 97.204 185.069 102.329 186.34 107.151L236.258 300.911V394.51L157.539 394.515C141.299 394.557 125.736 401.025 114.252 412.51C102.773 423.989 96.2989 439.551 96.2576 455.791V614.511C95.7472 620.318 97.7002 626.079 101.638 630.38C105.581 634.683 111.143 637.13 116.977 637.13C122.81 637.13 128.378 634.683 132.32 630.38C136.258 626.078 138.211 620.318 137.701 614.511V455.791C137.701 450.531 139.789 445.484 143.508 441.764C147.232 438.04 152.279 435.952 157.539 435.952H236.257V456.43H181.7C176.184 456.43 170.893 458.623 166.992 462.524C163.091 466.425 160.898 471.717 160.898 477.232V941.232C160.94 946.722 163.154 951.972 167.049 955.836C170.945 959.701 176.211 961.873 181.7 961.873H926.02C931.51 961.873 936.775 959.701 940.671 955.836C944.566 951.972 946.78 946.722 946.822 941.232V477.232C946.822 471.717 944.629 466.425 940.728 462.524C936.827 458.624 931.535 456.43 926.02 456.43L926.018 456.432ZM905.539 497.875V563.953C901.612 562.521 897.341 562.302 893.289 563.328C889.237 564.355 885.586 566.584 882.82 569.714C869.331 585.058 849.888 593.854 829.46 593.854C809.028 593.854 789.585 585.057 776.1 569.714V568.912H752.439L745.538 569.714C732.079 585.053 712.663 593.85 692.256 593.85C671.85 593.85 652.434 585.053 638.975 569.714V568.912H614.991V569.714H614.975C601.522 585.053 582.106 593.85 561.699 593.85C541.293 593.85 521.877 585.053 508.418 569.714V568.912H473.058V569.714C459.599 585.053 440.183 593.85 419.777 593.85C399.37 593.85 379.954 585.053 366.495 569.714C363.579 566.443 359.725 564.151 355.459 563.151V497.875L905.539 497.875ZM277.859 497.875H309.859V804.275H277.859V497.875ZM338.182 168.115L314.343 277.552H273.062L235.942 133.552L338.182 168.115ZM277.703 318.995H309.703V456.435H277.703V318.995ZM202.343 920.755V497.875H236.264L236.259 825.715C236.259 831.189 238.436 836.439 242.306 840.308C246.176 844.178 251.426 846.355 256.899 846.355H331.139C336.613 846.355 341.863 844.178 345.733 840.308C349.608 836.438 351.78 831.188 351.78 825.715V614.995C371.425 628.792 394.977 635.912 418.973 635.307C442.973 634.697 466.14 626.401 485.061 611.635C504.728 626.941 528.936 635.255 553.858 635.255C578.785 635.255 602.994 626.942 622.661 611.635C642.344 626.984 666.582 635.317 691.541 635.317C716.5 635.317 740.738 626.984 760.421 611.635C781.369 628.051 807.478 636.468 834.072 635.384C860.66 634.301 885.998 623.78 905.541 605.712V920.752L202.343 920.755Z" fill="black"/>
<path d="M264.868 477.236L186.967 482.167V938.392H916.285V600.567L343.889 606.476L327.642 813.091H251.224L264.868 477.236Z" fill="black"/>
</svg>
