<?xml version="1.0" encoding="utf-8"?>
<!-- Generator: Adobe Illustrator 22.0.0, SVG Export Plug-In . SVG Version: 6.00 Build 0)  -->
<svg version="1.1" id="Layer_1" xmlns="http://www.w3.org/2000/svg" xmlns:xlink="http://www.w3.org/1999/xlink" x="0px" y="0px"
	 viewBox="0 0 300 300" style="enable-background:new 0 0 300 300;" xml:space="preserve">
<style type="text/css">
	.st0{fill:#E08086;}
	.st1{fill:#B73E1D;}
	.st2{fill:#DD9225;}
	.st3{fill:#E27E3B;}
	.st4{fill:#2581A4;}
	.st5{fill:#3C9656;}
	.st6{fill:#B7533B;}
	.st7{fill:#9B5829;}
	.st8{fill:#F2E044;}
	.st9{fill:#5C3E6D;}
	.st10{fill:#CCA44C;}
	.st11{fill:#C16938;}
	.st12{fill:#2E7B45;}
	.st13{fill:#DD7258;}
	.st14{fill:#EF8379;}
	.st15{fill:#895E40;}
	.st16{fill:#90777A;}
	.st17{fill:#F9FAEB;}
	.st18{fill:#E2DCC4;}
	.st19{fill:#FFFEFE;}
	.st20{fill:#907F77;}
	.st21{fill:#51683C;}
	.st22{fill:#B8AFAC;}
	.st23{fill:#96806C;}
	.st24{fill:#C5BBB3;}
	.st25{fill:#7B6453;}
	.st26{fill:#634B36;}
	.st27{fill:#4F2E18;}
	.st28{fill:#93847E;}
	.st29{fill:#715338;}
	.st30{fill:#CABEB5;}
	.st31{fill:#6E5542;}
	.st32{fill:#BBA999;}
	.st33{fill:#7F6E68;}
	.st34{fill:#A29590;}
	.st35{fill:#513B2D;}
	.st36{fill:#637550;}
	.st37{fill:#847146;}
	.st38{fill:#6D5D3C;}
	.st39{fill:#729289;}
	.st40{fill:#359182;}
	.st41{fill:#46AC9D;}
	.st42{fill:#298777;}
	.st43{fill:#296355;}
	.st44{fill:#0E3329;}
	.st45{fill:#3F9687;}
	.st46{fill:#E48555;}
	.st47{fill:#F59159;}
	.st48{fill:#DADADA;}
	.st49{fill:#921428;}
	.st50{fill:#A8122E;}
	.st51{fill:#B21530;}
	.st52{fill:#B2B294;}
	.st53{fill:#DBD9C1;}
	.st54{fill:#D5D8BA;}
	.st55{fill:#EFEED8;}
	.st56{fill:#59AD6D;}
	.st57{fill:#83B967;}
	.st58{fill:#8FC07C;}
	.st59{fill:#86C95D;}
	.st60{fill:#94D07A;}
	.st61{fill:#9CD47C;}
	.st62{fill:#72B452;}
	.st63{fill:#7CB461;}
	.st64{fill:#419155;}
	.st65{fill:#2C8245;}
	.st66{fill:#4CA664;}
	.st67{fill:#7E4545;}
	.st68{fill:#8B4A48;}
	.st69{fill:#864646;}
	.st70{fill:#964D4D;}
	.st71{fill:#BB9F93;}
	.st72{fill:#E0B15C;}
	.st73{fill:#BB9248;}
	.st74{fill:#D3A54A;}
	.st75{fill:#F4C55F;}
	.st76{fill:#D8A745;}
	.st77{fill:#E9B94E;}
	.st78{fill:#F0CC84;}
	.st79{fill:#DDB366;}
	.st80{fill:#EBC169;}
	.st81{fill:#E2B864;}
	.st82{fill:#CDA55D;}
	.st83{fill:#ECCA8E;}
	.st84{fill:#ECDEC4;}
	.st85{fill:#D0C392;}
	.st86{fill:#EEE4D3;}
	.st87{fill:#DDCCAF;}
	.st88{fill:#7FAA52;}
	.st89{fill:#90C161;}
	.st90{fill:#AACF81;}
	.st91{fill:#E0CB90;}
	.st92{fill:#F3DF9D;}
	.st93{fill:#F7F1D6;}
	.st94{fill:#F6E8BF;}
	.st95{fill:#1E1E1E;}
	.st96{fill:#E9E6E2;}
	.st97{fill:#CB564A;}
	.st98{fill:#D86C6A;}
	.st99{fill:#CB4634;}
	.st100{fill:#CA4634;}
	.st101{fill:#9E3022;}
	.st102{fill:#DF7B60;}
	.st103{fill:#C94533;}
	.st104{fill:#9F3021;}
	.st105{fill:#E0785E;}
	.st106{fill:#E17A60;}
	.st107{fill:#E27A60;}
	.st108{fill:#CA4735;}
	.st109{fill:#DD8675;}
	.st110{fill:#DC7C6D;}
	.st111{fill:#C94A36;}
	.st112{fill:#C94634;}
	.st113{fill:#CA4633;}
	.st114{fill:#C94834;}
	.st115{fill:#DF765C;}
	.st116{fill:#9D3122;}
	.st117{fill:#E07B60;}
	.st118{fill:#B53A2A;}
	.st119{fill:#C94734;}
	.st120{fill:#A03021;}
	.st121{fill:#DD806B;}
	.st122{fill:#DE8170;}
	.st123{fill:#EAA7A4;}
	.st124{fill:#E5D6D2;}
	.st125{fill:#F0A7B4;}
	.st126{fill:#A06267;}
	.st127{fill:#9F6467;}
	.st128{fill:#BA544F;}
	.st129{fill:#D69578;}
	.st130{fill:#DDA792;}
	.st131{fill:#91443A;}
	.st132{fill:#9B5148;}
	.st133{fill:#E7A2A9;}
	.st134{fill:#8C411D;}
	.st135{fill:#9E5029;}
	.st136{fill:#6F2913;}
	.st137{fill:#A9594A;}
	.st138{fill:#C07161;}
	.st139{fill:#5F801B;}
	.st140{fill:#409658;}
	.st141{fill:#AF665A;}
	.st142{fill:#712912;}
	.st143{fill:#CE847C;}
	.st144{fill:#B05932;}
	.st145{fill:#C97D71;}
	.st146{fill:#DF8551;}
	.st147{fill:#E58751;}
	.st148{fill:#834023;}
	.st149{fill:#8B431F;}
	.st150{fill:#E68751;}
	.st151{fill:#9E5A51;}
	.st152{fill:#EED4C6;}
	.st153{fill:#E1C5B0;}
	.st154{fill:#CDB3A1;}
	.st155{fill:#ECC0A2;}
	.st156{fill:#F4DECE;}
	.st157{fill:#F1D3BF;}
	.st158{fill:#DFBE94;}
	.st159{fill:#F1B6A8;}
	.st160{fill:#D36A74;}
	.st161{fill:#F5AEAD;}
	.st162{fill:#F1B1AE;}
	.st163{fill:#CC404E;}
	.st164{fill:#D55E66;}
	.st165{fill:#CB6A6C;}
	.st166{fill:#F4D8C3;}
	.st167{fill:#F5AEAB;}
	.st168{fill:#F27F89;}
	.st169{fill:#F4CCC0;}
	.st170{fill:#EE5A6D;}
	.st171{fill:#EDC8B4;}
	.st172{fill:#CD968B;}
	.st173{fill:#D29F93;}
	.st174{fill:#F2DCC5;}
	.st175{fill:#E2C5C5;}
	.st176{fill:#EE7D79;}
	.st177{fill:#EB6765;}
	.st178{fill:#DB4144;}
	.st179{fill:#F39E96;}
	.st180{fill:#F58A84;}
	.st181{fill:#EC6967;}
	.st182{fill:#E05656;}
	.st183{fill:#D42C2C;}
	.st184{fill:#D93435;}
	.st185{fill:#F2A19A;}
	.st186{fill:#F3AFA9;}
	.st187{fill:#E47875;}
	.st188{fill:#C94442;}
	.st189{fill:#E45F56;}
	.st190{fill:#F2E6E0;}
	.st191{fill:#F0E0D3;}
	.st192{fill:#F3D7CF;}
	.st193{fill:#F2D5CB;}
	.st194{fill:#F1D2C5;}
	.st195{fill:#EFE4DD;}
	.st196{fill:#F2DBD4;}
	.st197{fill:#F5D5C5;}
	.st198{fill:#F3C8B8;}
	.st199{fill:#F1C3B8;}
	.st200{fill:#F4CFBC;}
	.st201{fill:#F3C9BD;}
	.st202{fill:#F4C9BD;}
	.st203{fill:#F4D1C5;}
	.st204{fill:#F2B7A9;}
	.st205{fill:#F4D2C6;}
	.st206{fill:#F4CFBD;}
	.st207{fill:#F2C5B9;}
	.st208{fill:#F3C7B8;}
	.st209{fill:#F4CCBF;}
	.st210{fill:#F2CEBE;}
	.st211{fill:#F3BDAD;}
	.st212{fill:#F2B2A2;}
	.st213{fill:#F4B8A7;}
	.st214{fill:#F5B3A1;}
	.st215{fill:#F0B6A8;}
	.st216{fill:#F3B7AD;}
	.st217{fill:#F19787;}
	.st218{fill:#F28F7C;}
	.st219{fill:#F2C9B5;}
	.st220{fill:#EEAE9A;}
	.st221{fill:#F5928B;}
	.st222{fill:#F5968C;}
	.st223{fill:#F6B5A5;}
	.st224{fill:#F38F85;}
	.st225{fill:#F5988B;}
	.st226{fill:#F2B39C;}
	.st227{fill:#F0BA9D;}
	.st228{fill:#F1B39C;}
	.st229{fill:#EF9189;}
	.st230{fill:#EF9A90;}
	.st231{fill:#E59489;}
	.st232{fill:#EEAB9A;}
	.st233{fill:#F1A195;}
	.st234{fill:#A2C5C5;}
	.st235{fill:#8AADAC;}
	.st236{fill:#B17139;}
	.st237{fill:#AB6B4B;}
	.st238{fill:#BF7D60;}
	.st239{fill:#C98426;}
	.st240{fill:#C6743C;}
	.st241{fill:#CEAA83;}
	.st242{fill:#C8662A;}
	.st243{fill:#AA6B4B;}
	.st244{fill:#EEE166;}
	.st245{fill:#CC5A40;}
	.st246{fill:#CEAA82;}
	.st247{fill:#C1573E;}
	.st248{fill:#3A9656;}
	.st249{fill:#46A35F;}
	.st250{fill:#44A160;}
	.st251{fill:#288245;}
	.st252{fill:#4C345B;}
	.st253{fill:#6F5182;}
	.st254{fill:#382447;}
	.st255{fill:#482D59;}
	.st256{fill:#56386B;}
	.st257{fill:#A85C36;}
	.st258{fill:#FAE19C;}
	.st259{fill:#B5DAD7;}
	.st260{fill:#F2E3C1;}
	.st261{fill:#F6E2AF;}
	.st262{fill:#F7D989;}
	.st263{fill:#E5A045;}
	.st264{fill:#F8E28F;}
	.st265{fill:#F9E198;}
	.st266{fill:#F2B22C;}
	.st267{fill:#F3B124;}
	.st268{fill:#C68226;}
	.st269{fill:#E09E46;}
	.st270{fill:#E2C888;}
	.st271{fill:#D3CA23;}
	.st272{fill:#DDB3B1;}
	.st273{fill:#165229;}
	.st274{fill:#E4E4E4;}
	.st275{fill:#DCDEBD;}
	.st276{fill:#DABBB4;}
	.st277{fill:#BAAF24;}
	.st278{fill:#BA5138;}
	.st279{fill:#9B3C2C;}
	.st280{fill:#D86F6A;}
	.st281{fill:#B4B3B3;}
	.st282{fill:#C8B167;}
	.st283{fill:#F8D776;}
	.st284{fill:#E34340;}
	.st285{fill:#A36720;}
	.st286{fill:#F0E3C5;}
	.st287{fill:#C17B1B;}
	.st288{fill:#E5A65C;}
	.st289{fill:#E2A14B;}
	.st290{fill:#CAE4E1;}
	.st291{fill:#97C4BF;}
	.st292{fill:#80AAA4;}
	.st293{fill:#C5DFDB;}
	.st294{fill:#ABC9C4;}
	.st295{fill:#A8453C;}
	.st296{fill:#35180D;}
	.st297{fill:#F76253;}
	.st298{fill:#69210D;}
	.st299{fill:#8E2614;}
	.st300{fill:#822914;}
	.st301{fill:#F1E99F;}
	.st302{fill:#CEBB31;}
	.st303{fill:#F7F8DB;}
	.st304{fill:#D3E8E5;}
	.st305{fill:#BFDCD6;}
	.st306{fill:#441D11;}
	.st307{fill:#726933;}
	.st308{fill:none;stroke:#726933;stroke-width:0.5;stroke-miterlimit:10;}
	.st309{fill:none;stroke:#726933;stroke-width:2;stroke-miterlimit:10;}
	.st310{fill:#736933;}
	.st311{fill:#E4955E;}
	.st312{fill:#CE763A;}
	.st313{fill:#F5AC79;}
	.st314{fill:#D3C4C1;}
	.st315{fill:#E9D8D4;}
	.st316{fill:#A8112E;}
	.st317{fill:#5E5655;}
	.st318{fill:#F2EDD3;}
	.st319{fill:#D6C7C4;}
	.st320{fill:#EBDFDC;}
</style>
<g>
	<path class="st0" d="M274.7,167.9c8.1,4.1,11.6,11.9,14.6,19.6c3.1,7.7,5.7,15.7,6.2,24.3c0.8,14.1-3.9,12.1-14.2,19.1
		c-25.9,17.6-128.1,43-141.4,44.4c-8,0.9-15.7,5.1-23.4,7.9c-12.7,4.7-25.3,9.4-39.3,9.8c-18.4,0.5-33.5-5.9-45.6-19.4
		c-8.7-9.7-16.3-20.3-23.1-31.6c-6.2-10.3-3.9-19.9-1.9-30.2c2.2-11.3,11.3-11.9,19.5-13.7c21.9-4.6,43.9-9.1,65.9-13.3
		c13.1-2.5,23.9-9,35.3-14.4c15.1-7.2,30.9-11,47.3-13.8c15.1-2.6,30.3-4.8,45.3-6.1c11.5-1,24.2-6.1,35.5,2.1
		C256.6,153.6,268.1,164.5,274.7,167.9z"/>
	<path class="st160" d="M282.8,174.8l2.7,22.8c0,0-13.7,19.7-16.5,20.6c-7.4,2.5-18.1-0.6-18.1-0.6l-40.3,8.5L163,245.5l-28.8,1.3
		l-47.3,9.8l-26.4,3.2l-28-17.9l-22.3-31.6l-2.8-1.6c-0.3,0.9-0.6,1.9-0.9,3c-2,10.3-4.3,19.8,1.9,30.2
		c6.8,11.3,14.4,21.9,23.1,31.6c12.1,13.5,27.2,19.8,45.6,19.4c14-0.3,26.6-5,39.3-9.8c7.8-2.9,15.4-7.1,23.4-7.9
		c13.3-1.4,115.4-26.9,141.4-44.4c10.3-7,15-5,14.2-19.1c-0.5-8.5-3.1-16.5-6.2-24.3c-0.3-0.8-0.7-1.7-1-2.5l0,0L282.8,174.8z"/>
	<g>
		<path class="st169" d="M145.4,236.2c-4.4,5.1-10.4,4.6-15,8.6c15.4-0.3,30.4,1.9,44.1-4.9c12.8-6.3,23.5-16,35.8-23.4
			c-2.2,2.3-4.4,4.6-7.1,7.6c14.1,0.7,27.2-0.9,39.9-4.7c6.5-1.9,12.6-3.2,19.2-0.8c2.3,0.9,4.3-0.3,6-2.1c1.8-2,3.8-3.9,5.6-6
			c-0.2,6.5-2.6,11.3-9.6,10.9c-8.6-0.5-16.7,1-24.3,4.4c-9.9,4.3-20.4,4.3-30.8,5.1c-6.7,0.5-12.5,2.1-17.1,6.9
			c-10.5,10.9-23.3,15.8-38.3,15.3c-8.2-0.3-16.5,0.5-24.7-0.2c-13.7-1.1-25.9,5.2-38.9,7.3c-4,0.6-8,2.2-12,2.3
			c-5.8,0.2-7.6,3.4-7.6,8.3c0,3.7-0.4,7-4.1,9.9c0-3.8,0.5-7.1-0.1-10.1c-1.2-5.7-3.7-9.9-9.6-13.3c-11.5-6.7-16.8-19.4-24.3-30
			c7.7,3.6,12.2,10.7,17.1,16.9c7.7,9.7,19.5,14.3,31.5,11.1C102.3,249.8,123.1,243,145.4,236.2z"/>
		<path class="st169" d="M263.8,183.6c-10.4-2.1-16.5,7.9-26.2,9.2c2.5-4.2,6.6-5.3,11.1-9.2c-8.6,3-15.8,2.3-22.7,4.8
			c-7.1,2.6-10.9,9.7-18.6,12.9c0.8-5.1,5.5-6.2,6.9-10.4c-11.9,2.6-23.7,3.4-34.3,10.4c-9.6,6.4-20.8,9-32.6,8.6
			c6.6-2.2,13.5-3.8,19.7-6.7c6.2-2.9,12.9-5.5,19.4-10.6c-3.8,0-6.4,0-9,0c15.5-5.6,32.4-3.4,48.6-9.7c-5.6-2.2-11.3-2.5-15.5-6.5
			C228.1,181.5,246,181.5,263.8,183.6z"/>
		<path class="st169" d="M281.7,181c13.2,20.1,10.9,36.9-7.9,41.4c4.6-3.9,9.4-7.6,9.7-14.3c0.1-1.1,0.7-1.9,0.3-3.4
			C281.9,197.3,282.4,189.5,281.7,181z"/>
		<path class="st169" d="M13.1,214.9c9.8,11,20.3,21.6,27.1,34.9C29.5,239.6,17.3,230.4,13.1,214.9z"/>
		<path class="st169" d="M241,230.5c-3,5.5-8.1,4.5-12,5.8c-2.5,0.9-5.5,0.7-8.3,1.4c-4.7,1.2-9.9-1.4-14.5,1.2
			c-3.9,2.2-7.5,4.9-12.1,7.9c6.8-10.5,11.4-13.3,22.3-13C224.6,234.1,232.6,233,241,230.5z"/>
		<path class="st169" d="M142,180.5c14.7,2.5,27.8-5.6,41.9-7.3C159.6,185,166.3,184.4,142,180.5z"/>
		<path class="st169" d="M134.2,174.8c-9.4,11.9-21.6,15.2-34.7,16.4c-0.4,0-1.3-0.6-1.3-1c-0.1-0.5,0.5-1.6,0.8-1.6
			C111.7,187.7,121.9,179.8,134.2,174.8z"/>
		<path class="st169" d="M45.9,203.3c-6.4,1.5-12.8,2.7-19.1,4.4c-2.8,0.8-7.7,1.3-2.6,6.8c-3.9-0.2-5.7-2.1-5.8-4.8
			c-0.1-2.7,2.1-4.1,4.6-4.8C30.5,202.7,38,201.5,45.9,203.3z"/>
		<path class="st169" d="M144.7,260.2c-13.1-1.1-24.3,0.1-36,3C115.2,256,133.4,254.3,144.7,260.2z"/>
	</g>
</g>
</svg>
