<svg id="Layer_1" data-name="Layer 1" xmlns="http://www.w3.org/2000/svg" viewBox="0 0 300 300"><defs><style>.cls-1{fill:#eaa7a4;}.cls-2{fill:#a53d36;}.cls-3{fill:#cb564a;}.cls-4{fill:#f18279;}.cls-5{fill:#cb5b51;}.cls-6{fill:#bc3f39;}.cls-7{fill:#f1837c;}.cls-8{fill:#d2564f;}.cls-9{fill:#d86c6a;}.cls-10{fill:#d14d46;}.cls-11{fill:#efa9a0;}.cls-12{fill:#ba544f;}.cls-13{fill:#c02e2a;}.cls-14{fill:#ba312e;}.cls-15{fill:#ea7571;}.cls-16{fill:#f3b7b0;}.cls-17{fill:#db5951;}.cls-18{fill:#f29e95;}.cls-19{fill:#c24941;}.cls-20{fill:#b93a34;}.cls-21{fill:#b2302c;}.cls-22{fill:#b64d42;}.cls-23{fill:#b24444;}.cls-24{fill:#eadcd5;}.cls-25{fill:#cc6156;}.cls-26{fill:#d06c5f;}</style></defs><title>-</title><path class="cls-1" d="M86.54,82.86c-137.83,35.83-35.05,150.44,99.71,48.27C186.25,131.13,178.93,75.13,86.54,82.86Z"/><path class="cls-2" d="M143.13,177.4c1.53,0,10.73,14.28,12.76,13.15,0,12.5-28.2,17.62-38.32,19.16C118.84,204.9,106.1,176.42,143.13,177.4Z"/><path class="cls-3" d="M175.6,133.56c1.18-5.9-11.43-2.66-13.1-1.15-2.14-1,11.46-9.48,13.22-10.38a7.25,7.25,0,0,1-4-4c-.41,4.94-10,.85-13.19,1.8,2.41-4.83,14.18-4.86,19.16-9.25,2.62,5.78,19.82,33.24,16.29,38.39"/><path class="cls-4" d="M107.4,97.86c3.24-10.81-25.9-12.2-26.09-4.56-.15-.06-14-3.65-15.27-4.5C60.48,91.36,124.92,79.58,107.4,97.86Z"/><path class="cls-3" d="M31.91,113.78c-4.58,33.37-22.06,70.74-10.73,77.86C-2.81,176.56-6,133.05,31.91,113.78Z"/><path class="cls-3" d="M194,149c-21.75,70.21-52.7,35.65-55.85,35.65-5.29,0,28.68-19.72,28.67-19.74-2.66-4-33.38.83-32.75-2.09-3-1.76,5,13.6-21.79,2-.21-.09,63.49-18,50-28.89,1.49,1.2-4,4.88-2.1,7-2.13-2.31,7.77-2.62,6.41-1.62A11,11,0,0,0,164,134.6c7.16-1.91,11.35,5.82,19.37-.8C181.94,136.5,191.56,148.62,194,149Z"/><path class="cls-5" d="M14.5,181.3c0,.15,0-11.19.12-11.17a14.68,14.68,0,0,1-1.32,1.71c-1.42-.86,0-7.42,1.32-7,.13,1,.26,2.07.38,3.1-4.25-1.28,13.13-24.17,14.11-13.12,11.58-6.45,7.32-7.09,21.08-5.87a25.3,25.3,0,0,0-5.83,3.16c4.61-.82-25,27-21.77,37.47-9-1.66-1.51-8.92-3-10.07A29.39,29.39,0,0,1,14.5,181.3Z"/><path class="cls-3" d="M126.16,85.5c1.12,1.31,12.23,9.81,12.93,8.87-12.74,17-76.66,14.76-75.62,1.74-.19,2.43.58-.9,2.9-1.44-.23-2,4.07-2.06,2.06-2.52C73.37,79.83,118.67,80.62,126.16,85.5Z"/><path class="cls-6" d="M105.68,165.44c.41,4,6.68,2.17,8.59,1.32-.23.16-12.3,10.54-10.49,10.5-1.92,0-2-6.3-6.73-6.1a7.44,7.44,0,0,1,3.06,4.86c-2.76-1-18.42,4.42-13.66-6.46-5.18-.29-22.39-3.58-26.27,1.94,1-8.37,1.22-1.77,6.26-3.67,2.38,0,33,2,33.35,1.79C98.3,170.91,105.68,158.59,105.68,165.44Z"/><path class="cls-7" d="M163.82,99.38c6.64,1.66,11.84,8.29,13.87,11.23-3.92,2.92-14-.14-13.81-.77.51,2.61,2.25,4.4,5.22,5.39-10.68,1.37-12.22,5.44-9-.62,0,0,7-1-4.07-8.4.15-.12,13.11-4.19,4.85-5.93C161.89,98.88,163,99.61,163.82,99.38Z"/><path class="cls-8" d="M81.23,166.76c.55-.6-14.7,1.21-14.59,1.2,5.85-22-19.83,15.87-25-2.52,3.43.05,11.41-11.58,12.83-1.11,5.18-10.58,16.86-1.9,26.37-5.92-1.27,2.3-9.1,4.39-1.93,4.39C78,164.82,78.89,166.41,81.23,166.76Z"/><path class="cls-9" d="M174.23,139.11c-8-23-27.16-21.59-25.54-17.75,9.22-3.64,19.92-7.28,7.51-15.08,8.32-20.82-20.68-25.14-35.08-13.7,2.16,0-52.85,16.83-57.4,3.67q11.69,3.19,6.85-7.5C49.16,89.9,19.11,124,15,142.68c13-15.16,1.62,17.25,2.23,19.48.27-1,6.58,57.05,135.44-10.77,4-2.09,13.57-11,14-10.64C167,139.27,173.57,137.2,174.23,139.11Z"/><path class="cls-7" d="M160.45,142.75c0-.14-.07-.26-.11-.39C160.16,142.52,160.15,142.65,160.45,142.75Z"/><path class="cls-7" d="M81.41,166.61a1.07,1.07,0,0,0-.48.31C81.44,167.05,81.56,166.91,81.41,166.61Z"/><path class="cls-7" d="M75.49,162.12l.21-.13C75.57,162,75.48,162,75.49,162.12Z"/><path class="cls-7" d="M166.71,140.75a.51.51,0,0,1-.17.34C166.75,140.93,166.78,140.82,166.71,140.75Z"/><path class="cls-7" d="M15,143a.85.85,0,0,1,0-.34C14.91,142.82,14.89,142.94,15,143Z"/><path class="cls-8" d="M99.07,166.76c-.54.78-16.94,4.78-17.83-3.61C82.11,162.7,96.6,166,99.07,166.76Z"/><path class="cls-5" d="M27.4,144c1.29,3.43-6.57,10.14-6.87,9.18C18.31,146.11,26.45,147.55,27.4,144Z"/><path class="cls-10" d="M79.91,106.64c0-3.12,6.49-5.51,6.61-3.81C86.83,107.24,81.12,106.37,79.91,106.64Z"/><path class="cls-11" d="M136,123.45c1.18,0,7.47,7.18,7.46,7.61C143.44,132.27,132.63,126.33,136,123.45Z"/><path class="cls-12" d="M17.26,162.16s69.72,19.2,98.95,7.26c9.93-4.06,9.22,38.42,5.1,40.29C105,217.1,35.48,210,19.38,189.63,15.11,184.23,17.26,162.16,17.26,162.16Z"/><path class="cls-13" d="M25.07,124.48a16.35,16.35,0,0,0,5.67-3.24C36.55,126.14,18.55,126.27,25.07,124.48Z"/><path class="cls-14" d="M62.73,146.28c-2.37.49-2.69-1.37-3.54-3.25C61.43,143.66,69.23,146.28,62.73,146.28Z"/><path class="cls-4" d="M128.69,88.71c1.95-2.35,3.59-1.39,5.23,0Z"/><path class="cls-15" d="M153.91,121.18c-.08.35,18.5,1.44,18.5,3.3C151.72,122.65,168.13,131.88,153.91,121.18Z"/><path class="cls-7" d="M164.48,128.45c-2.14-3.06,7.36-4.87,8.35-2.94C173.11,126.07,164.15,128.44,164.48,128.45Z"/><path class="cls-16" d="M169.1,115.23a8.82,8.82,0,0,1-5.25-5.44C165,107.18,170.42,113,169.1,115.23Z"/><path class="cls-17" d="M194.21,148.93c0,.48-9.32-.22,0,0"/><path class="cls-18" d="M81.23,93.43c-1.93,3.24-6.35-.22-5-1.88Q80.07,89.87,81.23,93.43Z"/><path class="cls-19" d="M134.09,162.8c2.66-1.2,38.18-6.76,35.66.7-1.74,5.18,9.87,33.05-30.35,41.14C141,204.32,136,163.16,134.09,162.8Z"/><path class="cls-20" d="M134.09,162.8q39.39,12.1,19.11,23.76c-4.83-7.61-49.67-7.06-49.67-14C111.83,170.32,125.66,164.5,134.09,162.8Z"/><path class="cls-21" d="M175.94,148c.05-.12-2.31,16.23-7.35,6.61C167.76,153,175.48,148.08,175.94,148Z"/><path class="cls-19" d="M179.1,176.64c1.67-1.57,2.59,6-3.07,4.52C177,181.41,175.26,175.25,179.1,176.64Z"/><path class="cls-22" d="M45.08,201.39c-12.39-3.45-19.35-8.95-17.36-8.86q-18.58-7.72-6.26-22.6C44.75,160.35,41.61,187.22,45.08,201.39Z"/><path class="cls-23" d="M118.23,196.5c-1.81-1.11-10.86-.82-7.11-6.35,6.47-5.57-18.81-1.91-21.3-12.81,5.53.57,27.57-9.65,26.39-7.92.14.18,17.27,9.05,19.29,9.22,0,0,13.46-.95,17.29,12.14C150.11,191.86,139.09,198.66,118.23,196.5Z"/><path class="cls-24" d="M166.46,100.7c.06,1,.81.59,1.32.66C166.78,103.19,160.76,100.74,166.46,100.7Z"/><path class="cls-23" d="M27.72,192.53c-2.25-.91-.74-19.79.57-21.13C34.06,179.24,27.14,189.9,27.72,192.53Z"/><path class="cls-23" d="M40.27,173.37c3.16,1.65-4,27.74,1.32,25.11C41.59,192.18,40.32,181,40.27,173.37Z"/><path class="cls-23" d="M77.87,206.89q-31.19-2.74-15.41-16.43c-.25-.11,6,.27,8.38,9.94C75.25,192.44,79,200.06,77.87,206.89Z"/><path class="cls-10" d="M118,135.86c0-3.13,6.49-5.52,6.61-3.81C124.94,136.45,119.22,135.59,118,135.86Z"/><path class="cls-10" d="M53.85,120.06c0-3.13,6.49-5.52,6.61-3.82C60.77,120.65,55.05,119.79,53.85,120.06Z"/><path class="cls-10" d="M128.5,104.45c0-3.12,6.49-5.51,6.61-3.81C135.42,105.05,129.7,104.18,128.5,104.45Z"/><path class="cls-8" d="M97.74,124c-.54.77-16.94,4.78-17.83-3.62"/><path class="cls-8" d="M112.89,149.72c-.54.77-16.94,4.78-17.83-3.62"/><path class="cls-14" d="M41.26,154.64c-2.38.49-2.69-1.37-3.55-3.25C40,152,47.76,154.64,41.26,154.64Z"/><path class="cls-10" d="M96.54,144.22c0-3.13,6.49-5.52,6.61-3.81C103.46,144.81,97.74,144,96.54,144.22Z"/><path class="cls-8" d="M76.26,132.34c-.54.77-16.94,4.78-17.83-3.62"/><path class="cls-14" d="M106.77,163.29c-1.49,1.9-2.74,1-4.4.46C104.36,162.61,111.55,158.89,106.77,163.29Z"/><path class="cls-10" d="M141.7,119.62c-1.72-1.87,1.74-7.69,2.77-6.76C147.12,115.28,142.44,118.64,141.7,119.62Z"/><path class="cls-8" d="M120.25,126.27c0,.82-9.83,14.32-15.1,9.91"/><path class="cls-14" d="M78,151.28c-1.49,1.89-2.74,1-4.4.45C75.6,150.59,82.79,146.87,78,151.28Z"/><path class="cls-10" d="M112.94,107.6c-1.72-1.86,1.74-7.69,2.77-6.75C118.36,103.26,113.68,106.62,112.94,107.6Z"/><path class="cls-8" d="M91.49,114.25c0,.82-9.83,14.33-15.1,9.91"/><path class="cls-7" d="M137.08,169.17c0-.13-.07-.26-.11-.39C136.79,168.94,136.78,169.08,137.08,169.17Z"/><path class="cls-7" d="M143.35,167.18a.57.57,0,0,1-.18.33C143.38,167.35,143.42,167.24,143.35,167.18Z"/><path class="cls-17" d="M170.84,175.35c0,.48-9.32-.22,0,0"/><path class="cls-19" d="M155.73,203.06c1.67-1.57,2.59,6-3.07,4.52C153.66,207.84,151.9,201.68,155.73,203.06Z"/><path class="cls-25" d="M132.52,217c-9.31,5.72,2.71-8.35,2.68-8C134.64,214.36,146.94,199.65,132.52,217Z"/><path class="cls-26" d="M122,216.31c-1.07,3.76-3.56,6.53-6.14,9.29,4.33-6-.65-9.54,5.48-16.56A11.56,11.56,0,0,1,122,216.31Z"/><path class="cls-2" d="M122,216.31c-.07-1.76,1-3.52,0-5.29C125.27,214.42,125.27,214.52,122,216.31Z"/><path class="cls-1" d="M188.82,170.3c-137.82,35.83-35,150.44,99.72,48.27C288.54,218.57,281.22,162.57,188.82,170.3Z"/><path class="cls-2" d="M245.42,264.84c1.53,0,10.72,14.28,12.76,13.15,0,12.5-28.2,17.62-38.32,19.16C221.13,292.34,208.39,263.86,245.42,264.84Z"/><path class="cls-3" d="M277.89,221c1.18-5.9-11.43-2.66-13.11-1.15-2.13-1,11.46-9.48,13.23-10.38a7.27,7.27,0,0,1-4-4c-.4,4.94-10,.85-13.18,1.8,2.41-4.83,14.18-4.86,19.16-9.25,2.62,5.78,19.81,33.24,16.29,38.39"/><path class="cls-4" d="M209.68,185.3c3.25-10.81-25.9-12.2-26.08-4.56-.16-.06-14-3.65-15.28-4.5C162.77,178.8,227.21,167,209.68,185.3Z"/><path class="cls-3" d="M134.2,201.22c-4.58,33.37-22.06,70.74-10.73,77.86C99.48,264,96.32,220.49,134.2,201.22Z"/><path class="cls-3" d="M296.27,236.44c-21.75,70.21-52.7,35.65-55.85,35.65-5.29,0,28.68-19.72,28.67-19.74-2.66-4-33.38.83-32.76-2.09-3-1.76,5,13.6-21.79,2-.21-.09,63.49-18,50-28.89,1.49,1.2-4,4.89-2.11,7-2.13-2.31,7.78-2.62,6.42-1.62a11,11,0,0,0-2.56-6.63c7.16-1.91,11.35,5.82,19.36-.8C284.23,223.94,293.85,236.06,296.27,236.44Z"/><path class="cls-5" d="M116.79,268.74c0,.15,0-11.19.12-11.17a13.88,13.88,0,0,1-1.32,1.71c-1.42-.86,0-7.42,1.32-6.95.13,1,.25,2.07.37,3.11-4.24-1.29,13.14-24.18,14.12-13.12,11.57-6.46,7.32-7.1,21.08-5.88a25.37,25.37,0,0,0-5.84,3.16c4.61-.82-25,27-21.76,37.47-9-1.66-1.52-8.92-3-10.07A28.57,28.57,0,0,1,116.79,268.74Z"/><path class="cls-3" d="M228.45,172.94c1.12,1.31,12.22,9.81,12.93,8.87-12.74,17-76.66,14.76-75.62,1.74-.2,2.43.58-.9,2.9-1.43-.23-2,4.07-2.07,2.06-2.53C175.66,167.27,221,168.06,228.45,172.94Z"/><path class="cls-6" d="M208,252.88c.42,4,6.69,2.17,8.59,1.33-.22.15-12.29,10.53-10.49,10.49-1.91,0-2-6.3-6.73-6.1a7.42,7.42,0,0,1,3.07,4.86c-2.76-1-18.43,4.42-13.66-6.46-5.18-.29-22.39-3.58-26.28,1.94,1-8.37,1.23-1.77,6.27-3.67,2.38,0,33,2,33.35,1.79C200.58,258.35,208,246,208,252.88Z"/><path class="cls-7" d="M266.1,186.82c6.65,1.66,11.85,8.3,13.88,11.23-3.92,2.92-14-.14-13.81-.77.51,2.61,2.25,4.4,5.22,5.39-10.68,1.37-12.23,5.44-9-.62,0,0,7-1-4.07-8.4.15-.12,13.1-4.19,4.85-5.93C264.18,186.32,265.26,187.05,266.1,186.82Z"/><path class="cls-8" d="M183.52,254.21c.55-.61-14.7,1.2-14.59,1.19,5.85-22-19.83,15.87-25.05-2.52,3.43.05,11.4-11.58,12.83-1.11,5.17-10.58,16.86-1.9,26.36-5.92-1.27,2.3-9.09,4.39-1.92,4.39C180.25,252.26,181.17,253.86,183.52,254.21Z"/><path class="cls-9" d="M276.52,226.55c-8-23-27.17-21.59-25.54-17.75,9.22-3.64,19.92-7.27,7.51-15.08,8.32-20.82-20.69-25.14-35.08-13.7,2.16,0-52.85,16.83-57.4,3.67q11.67,3.19,6.85-7.5c-21.41,1.15-51.46,35.21-55.54,53.93,13-15.16,1.62,17.25,2.23,19.48.27-1,6.58,57,135.43-10.77,4-2.09,13.58-11.05,14-10.64C269.27,226.71,275.86,224.64,276.52,226.55Z"/><path class="cls-7" d="M262.74,230.19c-.05-.13-.08-.26-.12-.39C262.45,230,262.44,230.1,262.74,230.19Z"/><path class="cls-7" d="M183.7,254.05a1.07,1.07,0,0,0-.48.31C183.73,254.49,183.84,254.35,183.7,254.05Z"/><path class="cls-7" d="M177.78,249.56l.2-.13C177.85,249.41,177.77,249.44,177.78,249.56Z"/><path class="cls-7" d="M269,228.19a.51.51,0,0,1-.17.34C269,228.37,269.07,228.26,269,228.19Z"/><path class="cls-7" d="M117.28,230.46a.85.85,0,0,1,0-.34C117.2,230.26,117.17,230.38,117.28,230.46Z"/><path class="cls-8" d="M201.36,254.21c-.54.77-16.94,4.77-17.83-3.62C184.4,250.14,198.88,253.39,201.36,254.21Z"/><path class="cls-5" d="M129.69,231.42c1.29,3.43-6.57,10.14-6.87,9.18C120.59,233.55,128.73,235,129.69,231.42Z"/><path class="cls-10" d="M182.2,194.08c0-3.12,6.49-5.51,6.61-3.81C189.12,194.68,183.4,193.81,182.2,194.08Z"/><path class="cls-11" d="M238.28,210.89c1.17,0,7.46,7.18,7.46,7.61C245.73,219.71,234.92,213.77,238.28,210.89Z"/><path class="cls-12" d="M119.55,249.6s69.72,19.2,99,7.26c9.93-4.06,9.21,38.42,5.09,40.29-16.28,7.39-85.82.3-101.92-20.08C117.39,271.67,119.55,249.6,119.55,249.6Z"/><path class="cls-13" d="M127.36,211.92a16.31,16.31,0,0,0,5.66-3.24C138.84,213.58,120.83,213.71,127.36,211.92Z"/><path class="cls-14" d="M165,233.72c-2.38.49-2.69-1.37-3.54-3.25C163.71,231.1,171.52,233.72,165,233.72Z"/><path class="cls-4" d="M231,176.15c2-2.35,3.58-1.39,5.23,0Z"/><path class="cls-15" d="M256.19,208.62c-.08.35,18.5,1.44,18.5,3.3C254,210.09,270.42,219.32,256.19,208.62Z"/><path class="cls-7" d="M266.76,215.89c-2.13-3.06,7.37-4.87,8.35-2.94C275.4,213.51,266.44,215.88,266.76,215.89Z"/><path class="cls-16" d="M271.39,202.67a8.79,8.79,0,0,1-5.25-5.44C267.32,194.62,272.71,200.39,271.39,202.67Z"/><path class="cls-17" d="M296.5,236.37c0,.48-9.33-.22,0,0"/><path class="cls-18" d="M183.52,180.87c-1.93,3.24-6.35-.22-5-1.88Q182.36,177.31,183.52,180.87Z"/><path class="cls-19" d="M236.37,250.24c2.66-1.2,38.18-6.76,35.67.7-1.74,5.18,9.87,33.05-30.35,41.14C243.23,291.76,238.24,250.6,236.37,250.24Z"/><path class="cls-20" d="M236.37,250.24q39.39,12.11,19.12,23.76c-4.83-7.61-49.68-7.06-49.68-14C214.12,257.76,227.94,252,236.37,250.24Z"/><path class="cls-21" d="M278.22,235.39c0-.12-2.3,16.23-7.34,6.61C270.05,240.42,277.76,235.52,278.22,235.39Z"/><path class="cls-19" d="M281.39,264.08c1.66-1.57,2.59,6-3.07,4.52C279.31,268.85,277.55,262.7,281.39,264.08Z"/><path class="cls-22" d="M147.37,288.83C135,285.38,128,279.88,130,280q-18.57-7.73-6.25-22.6C147,247.79,143.9,274.66,147.37,288.83Z"/><path class="cls-23" d="M220.52,283.94c-1.82-1.11-10.86-.82-7.11-6.35,6.47-5.57-18.81-1.91-21.3-12.81,5.52.57,27.57-9.65,26.39-7.92.13.18,17.27,9.05,19.29,9.22,0,0,13.46-.95,17.29,12.14C252.39,279.3,241.38,286.1,220.52,283.94Z"/><path class="cls-24" d="M268.75,188.14c.06,1,.8.59,1.32.66C269.07,190.63,263.05,188.18,268.75,188.14Z"/><path class="cls-23" d="M130,280c-2.24-.91-.73-19.79.58-21.13C136.35,266.68,129.43,277.34,130,280Z"/><path class="cls-23" d="M142.56,260.81c3.16,1.65-4,27.74,1.32,25.11C143.88,279.62,142.61,268.44,142.56,260.81Z"/><path class="cls-23" d="M180.15,294.33Q149,291.6,164.75,277.9c-.25-.11,6,.27,8.37,9.94C177.53,279.88,181.31,287.5,180.15,294.33Z"/><path class="cls-10" d="M220.3,223.3c0-3.13,6.5-5.52,6.62-3.81C227.23,223.89,221.51,223,220.3,223.3Z"/><path class="cls-10" d="M156.13,207.5c0-3.13,6.5-5.52,6.62-3.82C163.06,208.09,157.34,207.23,156.13,207.5Z"/><path class="cls-10" d="M230.78,191.89c0-3.12,6.5-5.51,6.62-3.81C237.71,192.49,232,191.63,230.78,191.89Z"/><path class="cls-8" d="M200,211.42c-.53.77-16.94,4.78-17.82-3.62"/><path class="cls-8" d="M215.18,237.16c-.54.77-16.94,4.78-17.83-3.62"/><path class="cls-14" d="M143.54,242.08c-2.37.49-2.69-1.37-3.54-3.25C142.24,239.46,150,242.08,143.54,242.08Z"/><path class="cls-10" d="M198.83,231.66c0-3.13,6.49-5.52,6.61-3.81C205.75,232.25,200,231.39,198.83,231.66Z"/><path class="cls-8" d="M178.55,219.78c-.54.77-16.94,4.78-17.83-3.62"/><path class="cls-14" d="M209.05,250.74c-1.48,1.89-2.73,1-4.39.45C206.65,250.05,213.84,246.33,209.05,250.74Z"/><path class="cls-10" d="M244,207.06c-1.72-1.87,1.74-7.69,2.77-6.76C249.41,202.72,244.73,206.08,244,207.06Z"/><path class="cls-8" d="M222.54,213.71c0,.82-9.83,14.33-15.1,9.91"/><path class="cls-14" d="M180.29,238.72c-1.48,1.89-2.73,1-4.39.46C177.89,238,185.08,234.31,180.29,238.72Z"/><path class="cls-10" d="M215.23,195c-1.72-1.86,1.74-7.69,2.77-6.75C220.65,190.71,216,194.06,215.23,195Z"/><path class="cls-8" d="M193.78,201.69c0,.82-9.83,14.33-15.1,9.91"/><path class="cls-8" d="M215.29,216.29c.86-.45,15.35,2.81,17.82,3.62"/><path class="cls-8" d="M215.29,216.29c.86-.45,15.35,2.81,17.82,3.62"/></svg>