<?xml version="1.0" encoding="utf-8"?>
<!-- Generator: Adobe Illustrator 22.0.0, SVG Export Plug-In . SVG Version: 6.00 Build 0)  -->
<svg version="1.1" id="Layer_1" xmlns="http://www.w3.org/2000/svg" xmlns:xlink="http://www.w3.org/1999/xlink" x="0px" y="0px"
	 viewBox="0 0 300 300" style="enable-background:new 0 0 300 300;" xml:space="preserve">
<style type="text/css">
	.st0{fill:#E08086;}
	.st1{fill:#B73E1D;}
	.st2{fill:#DD9225;}
	.st3{fill:#E27E3B;}
	.st4{fill:#2581A4;}
	.st5{fill:#3C9656;}
	.st6{fill:#B7533B;}
	.st7{fill:#9B5829;}
	.st8{fill:#F2E044;}
	.st9{fill:#5C3E6D;}
	.st10{fill:#CCA44C;}
	.st11{fill:#C16938;}
	.st12{fill:#2E7B45;}
	.st13{fill:#DD7258;}
	.st14{fill:#EF8379;}
	.st15{fill:#895E40;}
	.st16{fill:#90777A;}
	.st17{fill:#F9FAEB;}
	.st18{fill:#E2DCC4;}
	.st19{fill:#FFFEFE;}
	.st20{fill:#907F77;}
	.st21{fill:#51683C;}
	.st22{fill:#B8AFAC;}
	.st23{fill:#96806C;}
	.st24{fill:#C5BBB3;}
	.st25{fill:#7B6453;}
	.st26{fill:#634B36;}
	.st27{fill:#4F2E18;}
	.st28{fill:#93847E;}
	.st29{fill:#715338;}
	.st30{fill:#CABEB5;}
	.st31{fill:#6E5542;}
	.st32{fill:#BBA999;}
	.st33{fill:#7F6E68;}
	.st34{fill:#A29590;}
	.st35{fill:#513B2D;}
	.st36{fill:#637550;}
	.st37{fill:#847146;}
	.st38{fill:#6D5D3C;}
	.st39{fill:#729289;}
	.st40{fill:#359182;}
	.st41{fill:#46AC9D;}
	.st42{fill:#298777;}
	.st43{fill:#296355;}
	.st44{fill:#0E3329;}
	.st45{fill:#3F9687;}
	.st46{fill:#E48555;}
	.st47{fill:#F59159;}
	.st48{fill:#DADADA;}
	.st49{fill:#921428;}
	.st50{fill:#A8122E;}
	.st51{fill:#B21530;}
	.st52{fill:#B2B294;}
	.st53{fill:#DBD9C1;}
	.st54{fill:#D5D8BA;}
	.st55{fill:#EFEED8;}
	.st56{fill:#59AD6D;}
	.st57{fill:#83B967;}
	.st58{fill:#8FC07C;}
	.st59{fill:#86C95D;}
	.st60{fill:#94D07A;}
	.st61{fill:#9CD47C;}
	.st62{fill:#72B452;}
	.st63{fill:#7CB461;}
	.st64{fill:#419155;}
	.st65{fill:#2C8245;}
	.st66{fill:#4CA664;}
	.st67{fill:#7E4545;}
	.st68{fill:#8B4A48;}
	.st69{fill:#864646;}
	.st70{fill:#964D4D;}
	.st71{fill:#BB9F93;}
	.st72{fill:#E0B15C;}
	.st73{fill:#BB9248;}
	.st74{fill:#D3A54A;}
	.st75{fill:#F4C55F;}
	.st76{fill:#D8A745;}
	.st77{fill:#E9B94E;}
	.st78{fill:#F0CC84;}
	.st79{fill:#DDB366;}
	.st80{fill:#EBC169;}
	.st81{fill:#E2B864;}
	.st82{fill:#CDA55D;}
	.st83{fill:#ECCA8E;}
	.st84{fill:#ECDEC4;}
	.st85{fill:#D0C392;}
	.st86{fill:#EEE4D3;}
	.st87{fill:#DDCCAF;}
	.st88{fill:#7FAA52;}
	.st89{fill:#90C161;}
	.st90{fill:#AACF81;}
	.st91{fill:#E0CB90;}
	.st92{fill:#F3DF9D;}
	.st93{fill:#F7F1D6;}
	.st94{fill:#F6E8BF;}
	.st95{fill:#1E1E1E;}
	.st96{fill:#E9E6E2;}
	.st97{fill:#CB564A;}
	.st98{fill:#D86C6A;}
	.st99{fill:#CB4634;}
	.st100{fill:#CA4634;}
	.st101{fill:#9E3022;}
	.st102{fill:#DF7B60;}
	.st103{fill:#C94533;}
	.st104{fill:#9F3021;}
	.st105{fill:#E0785E;}
	.st106{fill:#E17A60;}
	.st107{fill:#E27A60;}
	.st108{fill:#CA4735;}
	.st109{fill:#DD8675;}
	.st110{fill:#DC7C6D;}
	.st111{fill:#C94A36;}
	.st112{fill:#C94634;}
	.st113{fill:#CA4633;}
	.st114{fill:#C94834;}
	.st115{fill:#DF765C;}
	.st116{fill:#9D3122;}
	.st117{fill:#E07B60;}
	.st118{fill:#B53A2A;}
	.st119{fill:#C94734;}
	.st120{fill:#A03021;}
	.st121{fill:#DD806B;}
	.st122{fill:#DE8170;}
	.st123{fill:#EAA7A4;}
	.st124{fill:#E5D6D2;}
	.st125{fill:#F0A7B4;}
	.st126{fill:#A06267;}
	.st127{fill:#9F6467;}
	.st128{fill:#BA544F;}
	.st129{fill:#D69578;}
	.st130{fill:#DDA792;}
	.st131{fill:#91443A;}
	.st132{fill:#9B5148;}
	.st133{fill:#E7A2A9;}
	.st134{fill:#8C411D;}
	.st135{fill:#9E5029;}
	.st136{fill:#6F2913;}
	.st137{fill:#A9594A;}
	.st138{fill:#C07161;}
	.st139{fill:#5F801B;}
	.st140{fill:#409658;}
	.st141{fill:#AF665A;}
	.st142{fill:#712912;}
	.st143{fill:#CE847C;}
	.st144{fill:#B05932;}
	.st145{fill:#C97D71;}
	.st146{fill:#DF8551;}
	.st147{fill:#E58751;}
	.st148{fill:#834023;}
	.st149{fill:#8B431F;}
	.st150{fill:#E68751;}
	.st151{fill:#9E5A51;}
	.st152{fill:#EED4C6;}
	.st153{fill:#E1C5B0;}
	.st154{fill:#CDB3A1;}
	.st155{fill:#ECC0A2;}
	.st156{fill:#F4DECE;}
	.st157{fill:#F1D3BF;}
	.st158{fill:#DFBE94;}
	.st159{fill:#F1B6A8;}
	.st160{fill:#D36A74;}
	.st161{fill:#F5AEAD;}
	.st162{fill:#F1B1AE;}
	.st163{fill:#CC404E;}
	.st164{fill:#D55E66;}
	.st165{fill:#CB6A6C;}
	.st166{fill:#F4D8C3;}
	.st167{fill:#F5AEAB;}
	.st168{fill:#F27F89;}
	.st169{fill:#F4CCC0;}
	.st170{fill:#EE5A6D;}
	.st171{fill:#EDC8B4;}
	.st172{fill:#CD968B;}
	.st173{fill:#D29F93;}
	.st174{fill:#F2DCC5;}
	.st175{fill:#E2C5C5;}
	.st176{fill:#EE7D79;}
	.st177{fill:#EB6765;}
	.st178{fill:#DB4144;}
	.st179{fill:#F39E96;}
	.st180{fill:#F58A84;}
	.st181{fill:#EC6967;}
	.st182{fill:#E05656;}
	.st183{fill:#D42C2C;}
	.st184{fill:#D93435;}
	.st185{fill:#F2A19A;}
	.st186{fill:#F3AFA9;}
	.st187{fill:#E47875;}
	.st188{fill:#C94442;}
	.st189{fill:#E45F56;}
	.st190{fill:#F2E6E0;}
	.st191{fill:#F0E0D3;}
	.st192{fill:#F3D7CF;}
	.st193{fill:#F2D5CB;}
	.st194{fill:#F1D2C5;}
	.st195{fill:#EFE4DD;}
	.st196{fill:#F2DBD4;}
	.st197{fill:#F5D5C5;}
	.st198{fill:#F3C8B8;}
	.st199{fill:#F1C3B8;}
	.st200{fill:#F4CFBC;}
	.st201{fill:#F3C9BD;}
	.st202{fill:#F4C9BD;}
	.st203{fill:#F4D1C5;}
	.st204{fill:#F2B7A9;}
	.st205{fill:#F4D2C6;}
	.st206{fill:#F4CFBD;}
	.st207{fill:#F2C5B9;}
	.st208{fill:#F3C7B8;}
	.st209{fill:#F4CCBF;}
	.st210{fill:#F2CEBE;}
	.st211{fill:#F3BDAD;}
	.st212{fill:#F2B2A2;}
	.st213{fill:#F4B8A7;}
	.st214{fill:#F5B3A1;}
	.st215{fill:#F0B6A8;}
	.st216{fill:#F3B7AD;}
	.st217{fill:#F19787;}
	.st218{fill:#F28F7C;}
	.st219{fill:#F2C9B5;}
	.st220{fill:#EEAE9A;}
	.st221{fill:#F5928B;}
	.st222{fill:#F5968C;}
	.st223{fill:#F6B5A5;}
	.st224{fill:#F38F85;}
	.st225{fill:#F5988B;}
	.st226{fill:#F2B39C;}
	.st227{fill:#F0BA9D;}
	.st228{fill:#F1B39C;}
	.st229{fill:#EF9189;}
	.st230{fill:#EF9A90;}
	.st231{fill:#E59489;}
	.st232{fill:#EEAB9A;}
	.st233{fill:#F1A195;}
	.st234{fill:#A2C5C5;}
	.st235{fill:#8AADAC;}
	.st236{fill:#B17139;}
	.st237{fill:#AB6B4B;}
	.st238{fill:#BF7D60;}
	.st239{fill:#C98426;}
	.st240{fill:#C6743C;}
	.st241{fill:#CEAA83;}
	.st242{fill:#C8662A;}
	.st243{fill:#AA6B4B;}
	.st244{fill:#EEE166;}
	.st245{fill:#CC5A40;}
	.st246{fill:#CEAA82;}
	.st247{fill:#C1573E;}
	.st248{fill:#3A9656;}
	.st249{fill:#46A35F;}
	.st250{fill:#44A160;}
	.st251{fill:#288245;}
	.st252{fill:#4C345B;}
	.st253{fill:#6F5182;}
	.st254{fill:#382447;}
	.st255{fill:#482D59;}
	.st256{fill:#56386B;}
	.st257{fill:#A85C36;}
	.st258{fill:#FAE19C;}
	.st259{fill:#B5DAD7;}
	.st260{fill:#F2E3C1;}
	.st261{fill:#F6E2AF;}
	.st262{fill:#F7D989;}
	.st263{fill:#E5A045;}
	.st264{fill:#F8E28F;}
	.st265{fill:#F9E198;}
	.st266{fill:#F2B22C;}
	.st267{fill:#F3B124;}
	.st268{fill:#C68226;}
	.st269{fill:#E09E46;}
	.st270{fill:#E2C888;}
	.st271{fill:#D3CA23;}
	.st272{fill:#DDB3B1;}
	.st273{fill:#165229;}
	.st274{fill:#E4E4E4;}
	.st275{fill:#DCDEBD;}
	.st276{fill:#DABBB4;}
	.st277{fill:#BAAF24;}
	.st278{fill:#BA5138;}
	.st279{fill:#9B3C2C;}
	.st280{fill:#D86F6A;}
	.st281{fill:#B4B3B3;}
	.st282{fill:#C8B167;}
	.st283{fill:#F8D776;}
	.st284{fill:#E34340;}
	.st285{fill:#A36720;}
	.st286{fill:#F0E3C5;}
	.st287{fill:#C17B1B;}
	.st288{fill:#E5A65C;}
	.st289{fill:#E2A14B;}
	.st290{fill:#CAE4E1;}
	.st291{fill:#97C4BF;}
	.st292{fill:#80AAA4;}
	.st293{fill:#C5DFDB;}
	.st294{fill:#ABC9C4;}
	.st295{fill:#A8453C;}
	.st296{fill:#35180D;}
	.st297{fill:#F76253;}
	.st298{fill:#69210D;}
	.st299{fill:#8E2614;}
	.st300{fill:#822914;}
	.st301{fill:#F1E99F;}
	.st302{fill:#CEBB31;}
	.st303{fill:#F7F8DB;}
	.st304{fill:#D3E8E5;}
	.st305{fill:#BFDCD6;}
	.st306{fill:#441D11;}
	.st307{fill:#726933;}
	.st308{fill:none;stroke:#726933;stroke-width:0.5;stroke-miterlimit:10;}
	.st309{fill:none;stroke:#726933;stroke-width:2;stroke-miterlimit:10;}
	.st310{fill:#736933;}
	.st311{fill:#E4955E;}
	.st312{fill:#CE763A;}
	.st313{fill:#F5AC79;}
	.st314{fill:#D3C4C1;}
	.st315{fill:#E9D8D4;}
	.st316{fill:#A8112E;}
	.st317{fill:#5E5655;}
	.st318{fill:#F2EDD3;}
	.st319{fill:#D6C7C4;}
	.st320{fill:#EBDFDC;}
</style>
<g>
	<path class="st160" d="M39.1,219.9c17.7-11.8,39-14.2,58-22.6c1.1,5.5-3.5,6.4-6.7,8.3c-4.4,2.7-9.9,3.1-15.6,6.3
		c9.1,7.3,17,14.5,17.1,26.7c2.5-4.4,1.9-8.5-0.2-12.3c-4.9-8.8-2-15.3,5.2-20.9c2.9-2.3,5.8-4.5,8-8c-2.8,0.1-5.5,2.8-8,0.1
		c2.9-5.5,8.1-7.3,13.7-8.5c5.5-1.2,11.7-1.3,16.3-4.2c22.4-14.1,47.8-17.3,72.8-22.3c7.1-1.4,14-3.9,21-5.9
		c2.9-0.2,8.7-1.8,5.9,3.6c-5.5,10.4,0.7,17,5,24.7c0.3,1.6-0.3,2.8-1.3,3.9c-8.5,3.4-13.7,1.3-18.2-7.3c-1.4-2.7-1-7-6.4-6.5
		c-0.2,4.7,4.2,6.4,6,9.7c1.5,6.2-2.9,5.9-6.7,6.1c-3.8-0.4-6.5-4.6-10.9-3.3c-6.8,1.1-13.3-3.4-20.3-0.2c-7.4,3.4-8.4,6.1-2.9,12.2
		c3.4,3.7,8.2,7.3,0.3,11.3c-6.7,1-9.7-4.9-14.4-7.8c-3.7-2.2-6.3-6-10.5-7.5c-23.1-4.3-27.3-1.8-39.5,17.4
		c-4.3,6.8-6.4,12.2-3.7,19.9c1.8,5,0.7,10.6-1.6,15.6c-1.6,4.5-0.8,9-0.4,13.5c0.7,6.7-1.7,10.7-8.8,10.7c-2.8-1.9-4.9-5.6-8.7-0.1
		c-2.6,3.7-8.4,5.9-11.5,0.1c-2.6-5-1-10.6,3.4-14.4c1.3-1.1,2.7,1.2,3.7,2.3c2.3-2.8,0.2-4-1.7-5.3c-3.3,0.7-4.6-6.8-7.5-2.9
		c-3,4.1-12.2,5.8-7.3,14.2c1.5,2.5,2.1,5.1-0.7,7.1c-2.9,2.2-4.8-0.3-6.9-1.9c-3.7-3.7-4.1-8-2.7-12.9c5.8-21.7,5.7-21.7-11.8-35.1
		C39.7,222.7,38.8,221.6,39.1,219.9z"/>
	<path class="st0" d="M39.1,219.9c0.9,0.8,1.8,1.6,2.8,2.3c-1.2,3.9-4.9,4.2-7.9,5.3c-12.5,4.6-17.9,16.4-26.2,25.3
		c2.5-5.1,5.1-9.9,12.3-9.3c4.9,0.4,7.4,3.2,7.8,7.2c-1.5-6.1,0.6-11.1,7.8-12.5c6.5-1.3,14.3,4.3,16.9,11.4c1.4,4,0.7,7.9,0.1,11.9
		c-0.6,3.8-0.7,7.4,3.9,8.7c1.9-0.1,2.7,3.8,4.9,1.9c2.2-1.9,0.2-3.3-1.4-4.7c-4.7-4.4-3.6-7.9,1.7-11c4.3-2.4,7.3-6.2,8-10.9
		c5.7-0.1,3.7,8.9,10,6.8c2.1,5.3,1.6,10.5-0.6,15.6c-3.3-1.8-1-5.7-4-9.2c1.3,5.8-6.2,12.1,1,14.3c6.2,1.8,10-4.5,10.6-11.8
		c2.1,3.6,4.1,7.1,6.2,10.7c1.7,2.1,1.8,4.3,0.4,6.7c-7.4,3.4-15.2,4.3-23.2,4.5c-4.7,0.1-9.4-0.2-14,0.3
		c-18.8,2.3-35.2-2.6-49.5-15.2c-5.5-6.2-5-12.7-1-19.4C13.9,235.6,22.5,223.1,39.1,219.9z"/>
	<path class="st160" d="M297.1,205.5c-0.6-0.8-1.4-1-2.3-0.6c-2.4,2.5-3.9,5.9-7.7,6.6c-20.5,2.1-39.3,12.6-60.1,13.5
		c-11.2,5-22.9,4.5-34.6,2.6c-7.7,3.3-7.7,3.3-0.1,12.3c-5.8,2.9-11.9,6.6-17.6,4c-8.3-3.9-10.4-0.2-11.7,6.7
		c-0.4,2.1-0.5,4.4-2,6.1c-2.1,2.2-4.1,4.4-4.6,7.7c-4-3-6.1-7.4-11.2-6.8c-0.8,0.6-1.4,1.3-1.8,2.2c-1.9,8.5-6.4,13-15.6,10.3
		c-2.9-0.8-27.9,4.3-35.7,8.2c-18.6,2.8-37.4,1.7-56.1,1.8c-4.5,0-8-0.4-12-4.4c-3.9-3.8-10.3-7-16.8-7.5
		c6.1,9.4,14.8,15.4,25.4,17.8c17.6,4.1,35.5,5.1,53.4,4.1c1.3-0.1,2.6-0.1,3.9-0.2c3,0.1,44.5-7.3,47.4-8.2
		c24.3-5.5,30.2-7.1,44.9-14.1c22.2-10.5,45.1-19.2,68.7-26.1c12.4-3.6,24.7-7.6,36.9-11.9C297.3,226.3,301,216.3,297.1,205.5z"/>
	<path class="st154" d="M294.7,205.8c-7.3-5.8-15.4-10.2-23.6-14.5l0.1,0.1c-7.3-5.5-17.2-7.4-22.1-16.3c-0.7-1.9-2.1-3-4-3.7
		c-3.5-4.1-5.1-9.6-9.9-12.6c-5,2.4-9.7,5.5-7.1,12.1c2.6,6.6,7.7,7.4,13.5,4c0,0,0,0,0,0c0,0,0,0,0,0c1.2,1.4,2.4,2.8,3.6,4.1
		c0,3,1.9,4.9,4,6.5c10.7,8.2,23.1,14.1,31.8,24.9c2,2.5,5.3,2.2,8.2,2.9C294.3,213.1,295.8,210.4,294.7,205.8z"/>
	<path class="st226" d="M141.4,231.4c-3.4-4.9-7.2-9.5-10.3-14.6c-3.9-6.4-1.6-10,5.6-10.7c1.3-0.1,2.6,0,3.9,0
		c4.4-0.3,10.4,3.5,12.8-1.5c2.3-4.8-4.7-7.1-6.4-11.2c6.7,1.2,9.9,7.3,15.1,10.7c3,1.9,5,5.5,9,5.7c12.3,13.6,27.9,17.7,45.4,16.7
		c4-0.2,8.4-2.5,12.2,1.1c-12.3,4.9-24.7,6.6-37.5,2.1c-5.3-0.5-10.2-2-14.2-5.8c-6.2-5.9-13.2-5.7-20.2-2.2
		c-4.9,2.5-9.4,2.7-15.4-0.1c6.7,6.8,11.6,13.6,17.6,19.4c3.2,3.1,5.1,6.8,6,11.1c0.9,2.6,0,4.6-1.8,6.4
		C152.9,251.9,147.1,241.7,141.4,231.4z"/>
	<path class="st0" d="M245.7,179.4c0.2-2.8-1.4-4.3-3.8-5.2c-12.7-1.7-13.4-3.1-6.9-14.4c0.2-0.3,0.1-0.6,0.2-1
		c-4.2-4.9-9.1-4.6-14.4-2.2c1,1.3,5.9-0.9,3.6,3c-6.6,11.2-1.9,18.9,6.6,25.9c-0.7,0.7-1.3,1.4-2,2.1c0,0,0,0,0,0
		c-8.6,2.2-15.7-2.8-15-11.5c0.3-4.2-0.2-4.9-3.8-3.6c-3.3,1.3-4.8-3.6-8.8-1.9c0.1,6.9,2.5,12.2,9.5,14.9c0,0,0,0,0,0c0,0,0,0,0,0
		c0.1,4.5-4.3,1.9-5.8,3.9c-3.5-0.9-5-7.2-10-3.7c0,0,0,0,0,0c-3.9-0.5-7.7-1.4-11.5-2.1c-6.6-1.2-14-0.2-18.5,6.1
		c-4.9,7.1,1.1,10.1,5.9,13.1c3.9,2.4,2.2,4.7,0,7c-0.8,2.6,0.4,4.8,2.2,6.2c8.5,6.6,17.4,12.2,28.7,12.8c9,0.5,17.7-1.7,26.7-1.3
		c4.2-3.2,9.2-0.3,13.2-1.4c15.7-4.3,31.2-9.7,47.3-12.8C276.1,200.2,260.3,190.6,245.7,179.4z M226.4,195.8
		c0.4-0.5,0.9-0.8,1.5-0.9c0.1,0.5,0.4,1.1,0.7,1.6c3.8,4.6,8.6,8.3,11.9,14.1C236.2,204.7,232,199.5,226.4,195.8z"/>
	<path class="st227" d="M56.7,270.3c-5.6-0.9-5.8-1-5.4-8.5c0.5-8.2-0.5-15.6-8.5-19.8c-3.1-1.6-6.6-3.8-10.2-0.9
		c-3.1,2.6-3.5,6.2-3.1,10.1c0.3,3.2,2.7,6.2,1.5,9.7c-4,0-3.2-3.3-3.5-5.4c-0.6-4.4-1.1-8.8-6.5-10c-5.6-1.2-8.6,2.2-11,6.6
		c-1.1,2-2.4,4-3.7,6.2c1.6-14.8,16-29.3,35.5-36c8,2.7,12.4,9.9,17.5,15.6c4.8,5.5-1.1,11.9-2.8,17.8
		C55.1,260.7,51.5,265.4,56.7,270.3z"/>
	<path class="st228" d="M97,197.4c4.5,0,6.7-5.4,11.9-4.9c0.7,7.7-5.4,10.8-9.9,14.7c-6,5.3-11.9,10.3-4.1,18.8
		c1.2,1.3,1.6,3.8,1.6,5.7c0.1,4.6,0.5,11.4-4.2,12.1c-4.6,0.7-3.3-6.2-3.9-9.7c-1.3-7.9-5.2-13.5-12-17.3c-2.5-1.4-6.3-2.7-6-6
		c0.3-4.1,4.7-2.4,7.3-3.2c7.2-2.2,14.6-3.8,19.6-10.3C97.2,197.3,97,197.4,97,197.4z"/>
	<path class="st229" d="M70.9,227.1c9.3,3.9,8.6,9.7,6.4,16.1C75.5,238.6,73.7,233.9,70.9,227.1z"/>
	<path class="st230" d="M79.2,268.1c-0.2-5.2-1.6-10.5,0.6-15.6C85.4,257.9,84.1,263.1,79.2,268.1z"/>
	<path class="st231" d="M67.5,241.6c-1.8-5-2.9-8-4.5-12.6C69.4,231.8,70,235,67.5,241.6z"/>
	<path class="st0" d="M165,252c-9.6-11-19.2-22.1-30.7-35.2c9.2,0.6,14.5,9.4,20.7,2.8c2.5-2.7,4.9-1.8,7.2-2.6
		c9-3.2,14.2,2.6,19.7,7.3c2.9,2.5,6.7,2.7,9.3,5.3c-2.1,0.7-5.5,1.4-1.4,3.9c2.7,1.7,6.1,2.2,8.4,4.9c-11.4,9.9-22,11.7-30.4,5
		C166.8,246.4,165.9,249.2,165,252z"/>
	<path class="st0" d="M142.6,232.5c0.1-0.3,0.2-0.5,0.2-0.8c-0.6-3.8-3-6.6-5-9.7c-2.1-3.2-6.2-6.2-4.1-10.5
		c2.2-4.5,6.9-2.8,10.7-2.5c4.1,0.4,8.5,0.5,10.5-3.6c2.3-4.6-2.2-7.1-4.8-9.9c-0.9-1-2.2-1.5-3.2-2.3c-3.5-7.5-8.5,1.6-12.8-1.3
		c-6.5-4.4-11.6,0.2-17.2,3.3c-8.4,4.6-8.8,14.7-15.1,20.2c-4.3,3.8-5.4,6.9-2.8,12c3.3,6.6,3.3,13.6,0.1,20.4c0,0,0,0,0,0
		c-2.3,1.8-0.8,4.2-1.2,6.2c-1.1,6.1,4.9,14.3-4.7,18c0,2,0,4.1,0,6.1c-1,1-1.7,2.1-1.7,3.6c0.1,0.9,0.3,1.8,0.7,2.6
		c0.8,1.2,58.4-6.9,53.1-26.2c0.6,0.3,1.2,0.5,1.6,0.9c8.6,7.5,8.6,7.5,14.1,1.2c0.6-0.7,1.5-1.2,2.3-1.7
		C157,249.3,150.7,240.1,142.6,232.5z M118.6,237.4c0.9,1.5,0.8,3.3,0.6,5.2c-0.1-1.8-0.5-3.6-0.8-5.4c-0.1-0.4-0.2-0.6-0.3-0.7
		C118.3,236.6,118.5,236.8,118.6,237.4z M118,236.4c0,0-0.1,0-0.1,0C117,236.7,117.5,236.2,118,236.4z M117.4,249.5
		c1-1.4,1.5-2.8,1.7-4.3c0.1,1,0.3,2.1,0.8,3C119.2,248.8,118.3,249.1,117.4,249.5z"/>
	<path class="st232" d="M117.4,249.5c1.3-7.3-2-13.6-2.9-20.7c8.6,4.7,6.2,13.4,6.8,21C119.8,251.9,118.6,250.6,117.4,249.5z"/>
	<path class="st233" d="M224.8,197.5c-0.2-3.9,2.2-3,4.4-2.4c6.5,5.7,13.9,10.8,15.6,23.1C235.9,210.9,233,201.5,224.8,197.5z"/>
</g>
</svg>
