<svg width="300" height="300" viewBox="0 0 300 300" fill="none" xmlns="http://www.w3.org/2000/svg">
<path d="M165.066 260.919C165.786 264.539 163.028 266.159 160.593 266.605C152.12 268.093 146.927 274.186 141.089 279.446C139.564 280.848 139.355 282.345 139.09 284.137C137.602 294.04 129.613 302.313 120.535 299.413C108.073 295.404 95.9804 296.892 83.6702 296.731C83.6189 295.983 83.8459 295.242 84.3077 294.65C84.7695 294.059 85.4335 293.659 86.1721 293.528C94.7959 291.822 102.766 287.34 111.807 287.453C117.824 287.387 123.975 288.231 129.537 285.084C123.927 281.294 117.218 281.294 111.048 279.73C108.205 279.01 105.059 279.332 102.102 278.574C98.9846 277.285 94.7959 278.517 92.3224 273.94C97.8284 271.589 103.363 273.314 107.959 272.755C104.017 270.86 95.3455 273.902 91.2611 268.585C92.8437 266.264 98.1411 267.827 100.586 267.638C107.476 267.659 114.358 268.083 121.198 268.908C125.614 269.391 127.386 270.244 130.874 264.254C131.423 261.516 133.631 260.198 136.967 258.189C141.999 257.602 146.908 258.72 151.855 259.279C156.072 261.25 160.81 259.137 165.066 260.919Z" fill="#A9594A"/>
<path d="M113.133 289.519C102.908 290.268 93.4597 294.163 83.6702 296.721C56.6522 291.386 26.0709 280.279 6.83321 256.048C6.02769 253.081 0.663886 248.134 5.59177 248.078C17.6651 254.882 36.7132 273.248 50.8051 276.385C68.4222 286.174 87.6504 286.193 106.964 285.729C109.57 286.098 112.261 286.345 113.133 289.519Z" fill="#BA5656"/>
<path d="M13.0405 235.492C12.7183 231.768 9.30665 227.579 14.6799 224.717C21.977 231.872 26.2131 223.95 31.52 221.296C32.1898 220.8 32.9705 220.475 33.7944 220.349C34.5807 220.56 35.2579 221.061 35.6898 221.751C36.8459 226.906 38.5328 231.73 43.7734 234.241C49.0171 237.786 54.3873 241.103 59.8838 244.192C63.1627 246.04 67.0955 247.983 65.2665 253.091C60.9925 257.279 55.6287 255.829 50.5776 255.934C42.0486 254.474 35.8319 248.845 29.1224 244.107C25.5213 241.548 22.2139 238.563 18.1863 236.649C17.0941 236.438 15.979 236.371 14.8695 236.45C14.5114 236.442 14.16 236.351 13.8427 236.185C13.5254 236.019 13.2509 235.782 13.0405 235.492V235.492Z" fill="#E7A2A9"/>
<path d="M152.385 260.918L136.057 259.203C123.804 262.918 111.645 264.586 99.8372 257.706C99.8372 252.626 104.007 253.365 106.897 253.043C111.332 252.55 115.834 253.043 120.307 252.92C125.254 252.569 130.267 253.517 135.176 252.19C141.023 250.958 147.069 251.555 152.499 250.295C148.291 248.286 144.719 244.77 145.373 239.871C145.799 236.686 149.865 238.534 152.395 238.705C153.565 238.885 154.679 239.326 155.655 239.995C156.631 240.665 157.444 241.545 158.034 242.572C160.393 244.467 164.023 244.874 164.942 248.457C162.867 254.711 162.544 262.766 152.385 260.918Z" fill="#ECDAD1"/>
<path d="M32.6477 221.211C30.3923 228.944 22.9247 229.361 17.1533 231.019C13.628 232.033 15.3054 227.03 14.6799 224.717L27.4071 219.24C28.7244 221.05 31.3968 219.24 32.6477 221.211Z" fill="#E6CFC6"/>
<path d="M152.386 260.918C160.033 260.236 161.73 253.574 164.942 248.428C164.98 252.591 165.021 256.755 165.066 260.918C160.811 262.766 156.612 264.225 152.386 260.918Z" fill="#B87B73"/>
<path d="M32.6476 221.211C30.7523 220.879 28.5726 221.458 27.407 219.24C29.7762 219.145 31.8421 219.24 32.9888 216.16C34.7798 211.365 39.1676 210.285 43.8301 210.152C41.1482 214.028 33.4721 213.649 34.7325 220.87L32.6476 221.211Z" fill="#CAB0AB"/>
<path d="M103.59 277.426C113.569 275.133 122.335 281.748 132.285 281.217C137.156 280.961 134.105 284.458 132.57 286.372C129.006 284.913 126.239 287.32 122.515 287.235C105.632 288.138 88.7007 287.446 71.9472 285.169C69.4454 283.416 66.2612 280.639 63.4182 281.795C62.3764 281.927 61.3184 281.783 60.3491 281.379C59.3799 280.975 58.5333 280.325 57.8933 279.492C58.1587 268.651 67.0478 274.403 71.8335 272.224C82.6559 272.593 92.4358 279.17 103.59 277.426Z" fill="#E08086"/>
<path d="M94.4737 270.348C82.9974 270.547 71.6443 270.414 61.836 264.207C59.8553 262.956 58.4338 260.994 56.3869 261.117C55.7096 260.816 55.0728 260.431 54.4915 259.971C52.8331 257.782 48.597 257.772 49.1656 253.697C54.7095 253.223 60.5377 254.891 65.7404 251.707C72.0803 249.812 77.1124 251.394 80.4482 257.298C79.093 262.037 93.0806 264.122 103.78 266.159C106.822 266.51 110.139 265.543 112.735 268.054C109.399 270.443 105.306 267.893 101.884 269.713L94.4737 270.348Z" fill="#E7A2A9"/>
<path d="M101.856 269.674C105.097 266.642 109.144 268.916 112.707 268.016C120.61 268.632 128.135 264.889 136.086 266.045C141.904 271.2 135.83 271.342 133.385 271.295C122.904 271.077 112.366 270.272 101.856 269.674Z" fill="#EFDBCD"/>
<path d="M123.406 282.696L122.515 286.42C117.72 286.42 113.825 283.577 109.125 283.748C96.3881 284.336 83.4808 286.591 70.8389 282.687C68.8583 280.488 48.256 273.684 46.7302 272.973C35.4435 267.732 25.8247 260.009 15.8836 252.74C14.9305 251.951 13.8283 251.361 12.6426 251.006C15.6467 249.594 19.0772 248.646 19.0583 244.098C17.8453 241.074 17.542 237.559 14.3199 235.654L13.0216 235.493C12.9364 238.952 10.1786 240.155 7.84737 241.833C5.00436 243.851 1.90548 246.126 5.58244 250.087C6.42587 250.968 11.7612 255.678 12.8795 257.308C24.4505 264.804 29.8901 274.281 52.4257 281.142C52.4257 281.142 85.9258 290.969 107.154 287.975L113.105 289.519C119.739 289.33 126.647 290.998 132.551 286.383C131.547 280.109 126.552 283.682 123.406 282.696Z" fill="#EBCDBF"/>
<path d="M41.6318 254.076C33.5671 246.883 22.6784 243.187 16.3669 233.824C27.1609 237.397 34.0694 247.092 44.2758 251.593L49.1373 253.744C50.8147 256.587 55.1645 256.142 56.2922 259.629C49.8291 261.904 45.5267 258.511 41.6318 254.076Z" fill="#E7A2A9"/>
<path d="M136.057 259.204C111.219 254.617 93.9241 254.854 71.1326 244.249C63.3523 240.629 44.8632 220.368 34.7042 220.994C21.778 228.973 64.66 255.11 78.3728 260.654C91.1379 265.818 135.887 275.703 136.057 259.204Z" fill="#BA5656"/>
<path d="M37.7083 224.358C30.3543 214.341 70.526 226.253 71.7296 226.84C75.6245 228.868 94.3315 249.272 93.526 249.499C91.3274 250.077 88.3801 208.01 88.5317 210.048C90.7303 211.829 140.805 213.033 112.963 248.988C111.238 251.215 122.25 251.613 121.643 256.806C88.1242 261.364 62.4519 245.168 37.7083 224.358Z" fill="#E7A2A9"/>
<path d="M121.615 255.403C120.872 254.447 119.94 253.656 118.877 253.078C117.813 252.501 116.642 252.15 115.436 252.048C110.262 251.556 109.115 248.002 108.992 243.87C108.802 237.312 108.698 230.735 108.992 224.187C109.134 221.344 109.636 217.023 111.38 216.132C114.024 214.796 128.627 226.31 130.523 229.93C133.11 237.682 132.882 246.116 136.209 253.716C131.679 257.109 126.476 254.768 121.615 255.403Z" fill="#E08086"/>
<path d="M136.218 253.716C127.424 247.831 132.001 237.767 128.836 230.119C129.189 229.755 129.612 229.466 130.079 229.268C130.546 229.071 131.049 228.969 131.556 228.969C132.063 228.969 132.565 229.071 133.032 229.268C133.499 229.466 133.922 229.755 134.276 230.119C139.431 235.407 148.007 234.857 152.708 240.951L146.662 239.861C146.709 240.524 146.557 241.197 146.823 241.51C149.306 244.457 154.044 248.693 152.348 250.987C148.614 255.971 141.762 253.128 136.218 253.716Z" fill="#E7A2A9"/>
<path d="M98.0275 214.274C98.0275 224.793 97.8948 235.312 98.2644 245.812C98.3781 249.063 99.212 252.398 94.7296 252.019C91.2421 251.726 86.5986 252.161 85.6414 246.883C83.9072 237.406 68.8677 230.526 67.3988 230.27C59.9785 229 43.5744 229.768 41.4232 219.846L40.0964 214.274C51.8286 210.957 72.8479 216.169 84.7411 216.595C88.655 216.719 93.1849 218.993 96.189 214.283L98.0275 214.274Z" fill="#E08086"/>
<path d="M96.189 213.895C95.791 219.581 91.4507 219.95 87.66 219.078C74.876 216.169 56.6618 214.463 43.8303 213.809C46.8534 210.076 55.0886 211.156 59.3058 211.175C71.1801 211.232 84.7033 202.826 96.189 213.895Z" fill="#E7A2A9"/>
<path d="M18.2905 244.685C25.2938 249.31 31.2357 255.782 40.0869 257.156C41.5842 257.479 43.5649 258.72 43.2142 259.63C41.2525 264.69 47.8768 260.075 49.0708 261.828C57.6472 262.88 62.6794 271.561 70.763 273.797C53.0889 288.098 22.9341 259.762 9.354 251.821C10.6144 247.282 17.0301 249.205 18.2905 244.685Z" fill="#E7A2A9"/>
<path d="M93.526 273.408C99.4868 273.408 106.556 274.441 112.726 271.305C106.667 270.617 100.571 270.3 94.4736 270.357C91.9054 270.357 86.5606 270.357 84.2009 270.291C76.3258 270.082 73.1132 266.746 65.7971 264.216C55.9603 260.823 42.5508 253.972 42.5413 253.792C34.6188 246.087 24.7536 240.941 16.3857 233.824L14.3577 235.72C14.6894 239.16 15.656 242.353 18.3094 244.751C23.3795 252.721 61.9022 273.503 70.7819 273.873C75.0559 274.906 79.3109 276.005 83.5944 276.953C90.2281 278.403 103.609 277.493 103.609 277.493C103.609 277.493 97.0797 276.763 93.526 273.408Z" fill="#BA5656"/>
<path d="M83.1015 207.536C74.2787 206.977 65.3801 208.531 56.5668 206.693C51.5536 205.063 48.1989 209.536 43.8112 210.152C40.0205 213.118 31.5578 212.047 34.7041 220.87V220.993C34.8875 221.187 35.0982 221.353 35.3295 221.486C37.6134 228.489 47.2607 231.967 51.1556 235.435L58.3863 239.131C58.7085 238.392 47.1091 225.248 40.5038 220.519C42.4091 219.934 44.1149 218.831 45.4317 217.335C45.2611 216.103 40.9871 214.824 46.0287 213.677C54.3493 211.782 62.6793 212.037 71.0377 212.047C78.4769 212.047 83.6701 210.957 95.317 210.824C91.4596 209.048 87.3296 207.936 83.1015 207.536V207.536Z" fill="#F0DAD1"/>
<path d="M136.574 102.234C131.628 101.655 126.507 103.325 121.429 101.295C124.555 98.5607 128.567 97.0552 132.719 97.058C132.512 90.5066 124.366 98.2154 124.093 91.9261C130.83 85.6804 140.406 93.7823 149.873 94.1098C147.591 101.753 137.458 94.0225 136.53 102.321L136.574 102.234Z" fill="#B46F6F"/>
<path d="M66.3103 104.592C66.1028 106.273 83.2128 192.347 83.4858 192.456C28.2686 171.11 42.092 92.6243 66.3103 104.592Z" fill="#C6AFA8"/>
<path d="M218.881 90.9322C230.826 84.905 280.376 110.685 255.055 111.602C248.525 111.842 216.096 95.3435 218.881 90.9322Z" fill="#B46F6F"/>
<path d="M258.2 93.0067C263.364 87.9294 284.973 99.9184 279.437 107.431C273.006 116.166 253.963 98.7829 258.2 93.0067Z" fill="#B46F6F"/>
<path d="M293.272 127.161C293.272 125.131 293.217 123.1 293.184 121.069C296.569 107.966 296.154 91.5875 277.898 89.9824C273.912 89.633 271.761 89.8623 270.768 90.4956C269.628 88.9542 268.333 87.5345 266.902 86.259C267.253 86.067 267.573 85.8241 267.852 85.5384C247.401 65.1745 226.884 66.6049 200.384 73.1563C178.415 78.6158 151.402 80.2973 130.372 87.3509C114.561 88.1043 84.9162 96.0097 82.3284 96.3263C81.3347 96.7522 55.708 100.694 62.0846 105.182C73.7461 105.618 87.5695 109.702 99.7113 108.938C118.972 118.525 147.471 128.592 148.748 128.592C148.061 136.716 168.239 155.584 168.239 168.992C170.816 180.664 162.113 199.128 150.692 206.87C163.86 205.996 237.072 181.844 237.072 181.844C236.843 181.844 280.518 160.759 280.518 160.759C290.214 150.168 300.183 142.295 293.272 127.161ZM194.433 112.967V112.901H194.532L194.433 112.967ZM242.957 106.415C237.126 104.232 227.015 98.3354 223.696 90.6048C228.184 93.8805 238.109 97.6912 243.066 99.9187C248.024 102.146 253.898 102.102 258.866 105.618C269.206 112.912 246.691 107.813 242.957 106.426V106.415ZM276.577 106.634C272.056 111.078 260.821 95.7913 258.866 94.0333C259.127 94.007 259.386 93.9632 259.641 93.9023C264.195 94.481 279.295 103.97 276.577 106.645V106.634Z" fill="#A9594A"/>
<path d="M128.155 112.76C138.659 112.596 148.901 113.72 159.482 119.224C155.758 120.632 117.214 125.753 128.155 112.76Z" fill="#B46F6F"/>
<path d="M153.64 133.32C146.346 123.711 116.035 111.241 116.057 110.881C110.073 103.893 77.644 101.393 69.6732 103.533C51.8971 108.315 48.0537 124.475 53.0764 142.426C53.7861 145.09 61.1892 170.87 61.1127 171.11C62.4012 174.986 67.9152 192.457 113.993 202.349C116.226 202.813 118.519 202.916 120.785 202.655C127.402 206.051 138.572 207.383 144.228 207.023C150.19 208.311 157.636 205.417 161.578 202.415C175.871 194.488 168.937 148.191 153.64 133.32ZM115.686 195.121C115.601 195.479 115.553 195.845 115.544 196.213C115.031 195.361 114.323 194.643 113.48 194.116C109.112 192.074 106.274 187.336 101.819 185.589C99.5256 184.682 67.9043 169.21 68.8433 167.682C74.3028 158.87 59.5404 137.938 61.2001 127.369C65.4475 100.366 99.4164 115.183 111.646 114.179C114.233 121.058 137.152 131.649 148.159 133.625C150.255 140.526 152.526 154 152.526 167.343C150.583 175.063 153.542 184.453 146.63 190.185C138.026 197.337 123.995 188.275 115.686 195.121Z" fill="#EED4C6"/>
<path d="M211.718 96.1733C219.143 98.3571 227.005 99.3289 233.447 104.559C226.35 111.438 214.666 104.384 211.664 104.384C208.05 101.622 204.73 98.8594 211.718 96.1733Z" fill="#B46F6F"/>
<path d="M179.234 119.289C164.821 119.671 158.958 113.011 146.75 107.278C154.175 106.59 175.26 112.224 179.234 119.289Z" fill="#B46F6F"/>
<path d="M181.876 114.714C178.906 114.714 169.188 108.381 166.404 107.322C178.251 101.666 187.259 107.944 196.562 112.618C197.472 117.48 192.577 118.179 181.876 114.714Z" fill="#B46F6F"/>
<path d="M257.588 89.7312C257.217 102.113 237.934 89.3053 230.804 90.3536C241.079 80.4719 249.104 90.9541 257.588 89.7312Z" fill="#B46F6F"/>
<path d="M211.663 104.385C211.663 105.739 211.663 107.092 211.609 108.446C202.335 109.23 193.006 107.835 184.366 104.374C195.787 97.178 197.403 106.033 211.663 104.385Z" fill="#B46F6F"/>
<path d="M220.638 88.803C217.068 88.803 204.937 94.5245 203.234 90.419C199.696 81.9131 215.779 91.5109 207.328 81.9022C219.241 72.8285 219.71 87.6565 220.638 88.803Z" fill="#B46F6F"/>
<path d="M131.518 110.674C126.714 113.949 121.276 106.208 115.238 105.345C121.986 100.082 125.698 97.8003 130.907 104.581C132.293 106.383 133.778 109.123 131.518 110.674Z" fill="#B46F6F"/>
<path d="M201.258 89.6438L203.321 95.9878C197.098 98.7539 192.21 97.1343 188.657 91.1288C193.429 90.0915 196.563 85.5383 201.258 89.6438Z" fill="#B46F6F"/>
<path d="M152.723 99.514C161.283 95.4304 161.283 95.4304 168.326 100.835C159.766 104.919 159.766 104.919 152.723 99.514Z" fill="#B46F6F"/>
<path d="M172.585 98.2697C178.59 91.7183 188.33 96.8175 186.954 98.0295C182.273 101.101 177.484 101.181 172.585 98.2697Z" fill="#B46F6F"/>
<path d="M238.775 79.2812C232.311 88.2457 225.213 83.6488 218.127 79.2812H238.818H238.775Z" fill="#B46F6F"/>
<path d="M234.636 76.9669C234.975 75.4164 230.029 74.9251 233.73 72.7304C239.43 69.3455 244.311 72.1626 249.17 74.9142C249.781 75.34 249.999 75.7877 249.803 76.2244C249.606 76.6612 249.41 76.9014 249.213 76.9014C244.343 79.4674 239.474 77.1853 234.593 76.9014L234.636 76.9669Z" fill="#B46F6F"/>
<path d="M253.385 79.2597C253.385 78.5937 253.385 77.9385 253.385 77.2725C258.211 79.1505 260.111 85.4835 266.095 85.5927C266.455 91.347 263.736 87.1323 257.611 89.7638C257.196 86.6082 252.642 82.4044 253.385 79.2597Z" fill="#B46F6F"/>
<path d="M171.951 93.0503C165.498 93.1267 158.794 95.6818 150.736 90.7355C159.373 89.9166 165.902 89.0212 171.951 93.0503Z" fill="#B46F6F"/>
<path d="M185.108 81.7931C190.655 77.9933 194.521 83.7039 198.834 81.5311C194.641 85.6148 190.415 86.5538 185.108 81.7931Z" fill="#B46F6F"/>
<path d="M171.82 89.9605C177.575 85.309 181.298 84.8613 186.113 87.1106C182.292 91.4018 177.968 89.1634 171.82 89.9605Z" fill="#B46F6F"/>
<path d="M110.215 113.862C124.814 123.896 150.31 127.423 156.512 146.619C158.324 152.242 151.795 187.019 150.026 185.403C144.13 180.085 139.26 170.706 132.25 166.841C130.634 165.945 109.8 164.362 108.599 162.375C107.617 160.748 108.042 115.521 110.215 113.862Z" fill="#E06C6D"/>
<path d="M115.62 196.29C89.1199 190.361 100.334 161.6 124.792 169.473C131.234 171.547 140.723 177.345 140.079 185.523C138.823 203.398 125.764 190.644 115.62 196.29Z" fill="#E08086"/>
<path d="M132.588 195.918C134.532 184.617 119.66 173.109 124.017 162.67C132.119 161.655 151.02 179.376 152.581 178.644C152.821 189.159 140.101 196.126 132.588 195.918Z" fill="#CD8088"/>
<path d="M124.246 159.416C126.932 161.054 133.899 164.209 132.25 166.885C120.741 185.447 112.126 170.804 103.861 183.984C100.934 188.624 116.406 188.351 113.797 195.995C84.9271 195.383 68.3958 174.44 67.1947 169.855C62.0082 150.146 116.505 154.666 124.246 159.416Z" fill="#E7A2A9"/>
<path d="M119.879 160.671C88.8578 192.183 47.9881 167.135 59.8243 124.835C65.9498 102.997 71.8351 103.849 96.2063 109.832C112.519 113.829 113.556 111.732 120.501 123.885C123.22 128.679 124.05 156.413 119.879 160.671Z" fill="#E08086"/>
<path d="M147.099 101.13C146.733 100.333 146.275 99.582 145.735 98.8917C140.515 92.111 134.084 101.075 135.995 102.167C139.696 107.943 143.791 108.064 150.19 102.659C149.261 101.966 148.214 101.448 147.099 101.13V101.13Z" fill="#B46F6F"/>
<path d="M191.496 101.982L191.551 102.049L191.496 101.982Z" fill="#895E40"/>
<path d="M291.929 97.5923C291.96 101.822 291.412 106.035 290.302 110.116L290.4 116.209C297.301 131.343 287.976 139.892 277.68 149.818C257.534 169.243 197.535 179.037 171.82 185.85C168.61 191.615 155.551 203.648 150.736 206.913C163.904 206.039 216.02 189.683 237.116 181.887C248.439 177.705 275.07 165.738 286.666 157.264C305.119 143.747 295.871 103.936 291.929 97.5923Z" fill="#994C42"/>
<path d="M221.534 70.2736C225.41 70.7322 229.287 71.2891 232.988 69.9023C229.199 70.9724 225.367 70.6667 221.534 70.2736Z" fill="#B46F6F"/>
<path d="M115.97 104.821C111.166 108.097 105.728 100.355 99.6897 99.4927C106.438 94.2298 110.15 91.9477 115.358 98.7284C116.734 100.454 118.23 103.227 115.97 104.821Z" fill="#B46F6F"/>
<path d="M133.768 99.6898C128.963 102.965 123.526 95.2239 117.488 94.3504C124.235 89.0984 127.948 86.8163 133.156 93.597C134.532 95.3986 136.028 98.1393 133.768 99.6898Z" fill="#B46F6F"/>
</svg>
