<?xml version="1.0" encoding="utf-8"?>
<!-- Generator: Adobe Illustrator 22.0.0, SVG Export Plug-In . SVG Version: 6.00 Build 0)  -->
<svg version="1.1" id="Layer_1" xmlns="http://www.w3.org/2000/svg" xmlns:xlink="http://www.w3.org/1999/xlink" x="0px" y="0px"
	 viewBox="0 0 300 300" style="enable-background:new 0 0 300 300;" xml:space="preserve">
<style type="text/css">
	.st0{fill:#E08086;}
	.st1{fill:#B73E1D;}
	.st2{fill:#DD9225;}
	.st3{fill:#E27E3B;}
	.st4{fill:#2581A4;}
	.st5{fill:#3C9656;}
	.st6{fill:#B7533B;}
	.st7{fill:#9B5829;}
	.st8{fill:#F2E044;}
	.st9{fill:#5C3E6D;}
	.st10{fill:#CCA44C;}
	.st11{fill:#C16938;}
	.st12{fill:#2E7B45;}
	.st13{fill:#DD7258;}
	.st14{fill:#EF8379;}
	.st15{fill:#895E40;}
	.st16{fill:#90777A;}
	.st17{fill:#F9FAEB;}
	.st18{fill:#E2DCC4;}
	.st19{fill:#FFFEFE;}
	.st20{fill:#907F77;}
	.st21{fill:#51683C;}
	.st22{fill:#B8AFAC;}
	.st23{fill:#96806C;}
	.st24{fill:#C5BBB3;}
	.st25{fill:#7B6453;}
	.st26{fill:#634B36;}
	.st27{fill:#4F2E18;}
	.st28{fill:#93847E;}
	.st29{fill:#715338;}
	.st30{fill:#CABEB5;}
	.st31{fill:#6E5542;}
	.st32{fill:#BBA999;}
	.st33{fill:#7F6E68;}
	.st34{fill:#A29590;}
	.st35{fill:#513B2D;}
	.st36{fill:#637550;}
	.st37{fill:#847146;}
	.st38{fill:#6D5D3C;}
	.st39{fill:#729289;}
	.st40{fill:#359182;}
	.st41{fill:#46AC9D;}
	.st42{fill:#298777;}
	.st43{fill:#296355;}
	.st44{fill:#0E3329;}
	.st45{fill:#3F9687;}
	.st46{fill:#E48555;}
	.st47{fill:#F59159;}
	.st48{fill:#DADADA;}
	.st49{fill:#921428;}
	.st50{fill:#A8122E;}
	.st51{fill:#B21530;}
	.st52{fill:#B2B294;}
	.st53{fill:#DBD9C1;}
	.st54{fill:#D5D8BA;}
	.st55{fill:#EFEED8;}
	.st56{fill:#59AD6D;}
	.st57{fill:#83B967;}
	.st58{fill:#8FC07C;}
	.st59{fill:#86C95D;}
	.st60{fill:#94D07A;}
	.st61{fill:#9CD47C;}
	.st62{fill:#72B452;}
	.st63{fill:#7CB461;}
	.st64{fill:#419155;}
	.st65{fill:#2C8245;}
	.st66{fill:#4CA664;}
	.st67{fill:#7E4545;}
	.st68{fill:#8B4A48;}
	.st69{fill:#864646;}
	.st70{fill:#964D4D;}
	.st71{fill:#BB9F93;}
	.st72{fill:#E0B15C;}
	.st73{fill:#BB9248;}
	.st74{fill:#D3A54A;}
	.st75{fill:#F4C55F;}
	.st76{fill:#D8A745;}
	.st77{fill:#E9B94E;}
	.st78{fill:#F0CC84;}
	.st79{fill:#DDB366;}
	.st80{fill:#EBC169;}
	.st81{fill:#E2B864;}
	.st82{fill:#CDA55D;}
	.st83{fill:#ECCA8E;}
	.st84{fill:#ECDEC4;}
	.st85{fill:#D0C392;}
	.st86{fill:#EEE4D3;}
	.st87{fill:#DDCCAF;}
	.st88{fill:#7FAA52;}
	.st89{fill:#90C161;}
	.st90{fill:#AACF81;}
	.st91{fill:#E0CB90;}
	.st92{fill:#F3DF9D;}
	.st93{fill:#F7F1D6;}
	.st94{fill:#F6E8BF;}
	.st95{fill:#1E1E1E;}
	.st96{fill:#E9E6E2;}
	.st97{fill:#CB564A;}
	.st98{fill:#D86C6A;}
	.st99{fill:#CB4634;}
	.st100{fill:#CA4634;}
	.st101{fill:#9E3022;}
	.st102{fill:#DF7B60;}
	.st103{fill:#C94533;}
	.st104{fill:#9F3021;}
	.st105{fill:#E0785E;}
	.st106{fill:#E17A60;}
	.st107{fill:#E27A60;}
	.st108{fill:#CA4735;}
	.st109{fill:#DD8675;}
	.st110{fill:#DC7C6D;}
	.st111{fill:#C94A36;}
	.st112{fill:#C94634;}
	.st113{fill:#CA4633;}
	.st114{fill:#C94834;}
	.st115{fill:#DF765C;}
	.st116{fill:#9D3122;}
	.st117{fill:#E07B60;}
	.st118{fill:#B53A2A;}
	.st119{fill:#C94734;}
	.st120{fill:#A03021;}
	.st121{fill:#DD806B;}
	.st122{fill:#DE8170;}
	.st123{fill:#EAA7A4;}
	.st124{fill:#E5D6D2;}
	.st125{fill:#F0A7B4;}
	.st126{fill:#A06267;}
	.st127{fill:#9F6467;}
	.st128{fill:#BA544F;}
	.st129{fill:#D69578;}
	.st130{fill:#DDA792;}
	.st131{fill:#91443A;}
	.st132{fill:#9B5148;}
	.st133{fill:#E7A2A9;}
	.st134{fill:#8C411D;}
	.st135{fill:#9E5029;}
	.st136{fill:#6F2913;}
	.st137{fill:#A9594A;}
	.st138{fill:#C07161;}
	.st139{fill:#5F801B;}
	.st140{fill:#409658;}
	.st141{fill:#AF665A;}
	.st142{fill:#712912;}
	.st143{fill:#CE847C;}
	.st144{fill:#B05932;}
	.st145{fill:#C97D71;}
	.st146{fill:#DF8551;}
	.st147{fill:#E58751;}
	.st148{fill:#834023;}
	.st149{fill:#8B431F;}
	.st150{fill:#E68751;}
	.st151{fill:#9E5A51;}
	.st152{fill:#EED4C6;}
	.st153{fill:#E1C5B0;}
	.st154{fill:#CDB3A1;}
	.st155{fill:#ECC0A2;}
	.st156{fill:#F4DECE;}
	.st157{fill:#F1D3BF;}
	.st158{fill:#DFBE94;}
	.st159{fill:#F1B6A8;}
	.st160{fill:#D36A74;}
	.st161{fill:#F5AEAD;}
	.st162{fill:#F1B1AE;}
	.st163{fill:#CC404E;}
	.st164{fill:#D55E66;}
	.st165{fill:#CB6A6C;}
	.st166{fill:#F4D8C3;}
	.st167{fill:#F5AEAB;}
	.st168{fill:#F27F89;}
	.st169{fill:#F4CCC0;}
	.st170{fill:#EE5A6D;}
	.st171{fill:#EDC8B4;}
	.st172{fill:#CD968B;}
	.st173{fill:#D29F93;}
	.st174{fill:#F2DCC5;}
	.st175{fill:#E2C5C5;}
	.st176{fill:#EE7D79;}
	.st177{fill:#EB6765;}
	.st178{fill:#DB4144;}
	.st179{fill:#F39E96;}
	.st180{fill:#F58A84;}
	.st181{fill:#EC6967;}
	.st182{fill:#E05656;}
	.st183{fill:#D42C2C;}
	.st184{fill:#D93435;}
	.st185{fill:#F2A19A;}
	.st186{fill:#F3AFA9;}
	.st187{fill:#E47875;}
	.st188{fill:#C94442;}
	.st189{fill:#E45F56;}
	.st190{fill:#F2E6E0;}
	.st191{fill:#F0E0D3;}
	.st192{fill:#F3D7CF;}
	.st193{fill:#F2D5CB;}
	.st194{fill:#F1D2C5;}
	.st195{fill:#EFE4DD;}
	.st196{fill:#F2DBD4;}
	.st197{fill:#F5D5C5;}
	.st198{fill:#F3C8B8;}
	.st199{fill:#F1C3B8;}
	.st200{fill:#F4CFBC;}
	.st201{fill:#F3C9BD;}
	.st202{fill:#F4C9BD;}
	.st203{fill:#F4D1C5;}
	.st204{fill:#F2B7A9;}
	.st205{fill:#F4D2C6;}
	.st206{fill:#F4CFBD;}
	.st207{fill:#F2C5B9;}
	.st208{fill:#F3C7B8;}
	.st209{fill:#F4CCBF;}
	.st210{fill:#F2CEBE;}
	.st211{fill:#F3BDAD;}
	.st212{fill:#F2B2A2;}
	.st213{fill:#F4B8A7;}
	.st214{fill:#F5B3A1;}
	.st215{fill:#F0B6A8;}
	.st216{fill:#F3B7AD;}
	.st217{fill:#F19787;}
	.st218{fill:#F28F7C;}
	.st219{fill:#F2C9B5;}
	.st220{fill:#EEAE9A;}
	.st221{fill:#F5928B;}
	.st222{fill:#F5968C;}
	.st223{fill:#F6B5A5;}
	.st224{fill:#F38F85;}
	.st225{fill:#F5988B;}
	.st226{fill:#F2B39C;}
	.st227{fill:#F0BA9D;}
	.st228{fill:#F1B39C;}
	.st229{fill:#EF9189;}
	.st230{fill:#EF9A90;}
	.st231{fill:#E59489;}
	.st232{fill:#EEAB9A;}
	.st233{fill:#F1A195;}
	.st234{fill:#A2C5C5;}
	.st235{fill:#8AADAC;}
	.st236{fill:#B17139;}
	.st237{fill:#AB6B4B;}
	.st238{fill:#BF7D60;}
	.st239{fill:#C98426;}
	.st240{fill:#C6743C;}
	.st241{fill:#CEAA83;}
	.st242{fill:#C8662A;}
	.st243{fill:#AA6B4B;}
	.st244{fill:#EEE166;}
	.st245{fill:#CC5A40;}
	.st246{fill:#CEAA82;}
	.st247{fill:#C1573E;}
	.st248{fill:#3A9656;}
	.st249{fill:#46A35F;}
	.st250{fill:#44A160;}
	.st251{fill:#288245;}
	.st252{fill:#4C345B;}
	.st253{fill:#6F5182;}
	.st254{fill:#382447;}
	.st255{fill:#482D59;}
	.st256{fill:#56386B;}
	.st257{fill:#A85C36;}
	.st258{fill:#FAE19C;}
	.st259{fill:#B5DAD7;}
	.st260{fill:#F2E3C1;}
	.st261{fill:#F6E2AF;}
	.st262{fill:#F7D989;}
	.st263{fill:#E5A045;}
	.st264{fill:#F8E28F;}
	.st265{fill:#F9E198;}
	.st266{fill:#F2B22C;}
	.st267{fill:#F3B124;}
	.st268{fill:#C68226;}
	.st269{fill:#E09E46;}
	.st270{fill:#E2C888;}
	.st271{fill:#D3CA23;}
	.st272{fill:#DDB3B1;}
	.st273{fill:#165229;}
	.st274{fill:#E4E4E4;}
	.st275{fill:#DCDEBD;}
	.st276{fill:#DABBB4;}
	.st277{fill:#BAAF24;}
	.st278{fill:#BA5138;}
	.st279{fill:#9B3C2C;}
	.st280{fill:#D86F6A;}
	.st281{fill:#B4B3B3;}
	.st282{fill:#C8B167;}
	.st283{fill:#F8D776;}
	.st284{fill:#E34340;}
	.st285{fill:#A36720;}
	.st286{fill:#F0E3C5;}
	.st287{fill:#C17B1B;}
	.st288{fill:#E5A65C;}
	.st289{fill:#E2A14B;}
	.st290{fill:#CAE4E1;}
	.st291{fill:#97C4BF;}
	.st292{fill:#80AAA4;}
	.st293{fill:#C5DFDB;}
	.st294{fill:#ABC9C4;}
	.st295{fill:#A8453C;}
	.st296{fill:#35180D;}
	.st297{fill:#F76253;}
	.st298{fill:#69210D;}
	.st299{fill:#8E2614;}
	.st300{fill:#822914;}
	.st301{fill:#F1E99F;}
	.st302{fill:#CEBB31;}
	.st303{fill:#F7F8DB;}
	.st304{fill:#D3E8E5;}
	.st305{fill:#BFDCD6;}
	.st306{fill:#441D11;}
	.st307{fill:#726933;}
	.st308{fill:none;stroke:#726933;stroke-width:0.5;stroke-miterlimit:10;}
	.st309{fill:none;stroke:#726933;stroke-width:2;stroke-miterlimit:10;}
	.st310{fill:#736933;}
	.st311{fill:#E4955E;}
	.st312{fill:#CE763A;}
	.st313{fill:#F5AC79;}
	.st314{fill:#D3C4C1;}
	.st315{fill:#E9D8D4;}
	.st316{fill:#A8112E;}
	.st317{fill:#5E5655;}
	.st318{fill:#F2EDD3;}
	.st319{fill:#D6C7C4;}
	.st320{fill:#EBDFDC;}
</style>
<g>
	<g>
		<g>
			<path class="st97" d="M157.8,152l-2.3-5.2c0.2-8.4,2.4-16.7,10.2-24.2l-28.2-16c0,0-9.9-7.2-50.4-2c-7.2,0.9-19.8-1.5-27.1,4.5
				c-3.2,2.6-9.7,3.9-16.9,5.1C39,115.2,34.9,116,32,119c0,0-15.8,1.7-16.3,5.6c0.3,0.1,0.6,0.2,0.9,0.3l-0.9,6.6l0.7,7.8
				c0.6,12.6,0.7,72-0.1,86.8c-0.5,10.2,2.9,16.9,10.3,20.7l0,0l13.6,7.4l18.1,3.7l16.1,3.5l7.8-0.3c-0.7,0.3-1.7,0.5-2.9,0.3
				c3.1,5.5,8.2,0.9,12.1,2.4c6.4,1.2,9.8,0.1,11.4-3.6l29.7-1.2l14.5-16.9c4.2-4.2,7.3-9.1,9.7-14.5c-0.4-0.1-0.8-0.3-1.1-0.5
				l7.9-13.7L157.8,152z"/>
		</g>
		<path class="st98" d="M137.5,106.5c0,0-9.9-7.2-50.4-2c-7.2,0.9-19.8-1.5-27.1,4.5c-3.2,2.6-9.7,3.9-16.9,5.1
			C39,115.2,34.9,116,32,119c0,0-12.9,1.4-15.7,4.5c0,0,3.1,11,4.8,14.4c2.1,4.2,8.2,12,12.4,14c2.6,1.2,11.3,0.3,11.3,0.3l10.1,4.2
			l11.1,8.8c0,0,18.2-4.1,21.5-1.2c6.3,5.6,23.9,7.6,23.9,7.6s11.5,5.4,21.2-2c3.8-2.9,15.6-10.7,15.6-10.7l7.4-13
			c0.3-7.6,2.4-15.1,8.9-22l0.6-1.7L137.5,106.5z"/>
		<g>
			<path class="st99" d="M52.8,155.1c5.9,0.2,12.9-1.6,14.5,7.2c0.5,20.5-4.4,40.8-2.3,61.3c1,9.9,4,19.6,0.1,29.6
				c-1.1,2.9-2.3,4.7-5,5.8c-6.1,0.1-12.1-0.2-16.9-4.8c4.7-11.9,3-23.4,0.9-35.9c-3-17.2-0.8-35.1-0.8-54.5
				c5.8,9.1,4.5,17.7,4.8,25.9c0.1,3.1-1.3,6.5,1.5,9.1c1.1,1,2,2.6,4,1.8c2-0.7,2.1-2.6,1.6-3.9C50.4,183.1,53.8,169,52.8,155.1z"
				/>
			<path class="st100" d="M72.1,164.8c13.7-5.7,19.5-2.2,16.6,12c-3.1,15.1-2.2,30-1.7,45c0.4,12.4-4,24.2-2.6,36.5
				c0.4,3.7-2.7,3.1-4.9,3.3c-1.6,0-3.2,0-4.8,0c0.1-3.1-5.8-1.9-4.4-5.9c4.5-12.9,0.3-26.3,2.2-39.2C74.7,199.1,72,182,72.1,164.8z
				"/>
			<path class="st101" d="M156.7,227.6c-6.6-7.3-1.1-16.2-3.3-24.5c-3.5-12.8-7.5-26-6.3-39.8c0.2-2.1-1.5-5.3,2.3-5.7
				c3-0.3,2.5,2.2,2.5,4.1c0,1.9,0.7,3.2,2.7,2.8c3.5-0.8,2.5-4.1,2-5.8c-4-12.2,0.4-22.9,5.3-33.6c0.3-0.6,1.1-1,3.9-3.4
				c2,29.1-1.5,56.8,3.1,84C164.7,213.1,160.7,220.4,156.7,227.6z"/>
			<path class="st102" d="M91.4,263.9c9.4,1.7,12.8-1,12.4-11.6c-1-24-0.3-48.1-0.3-72.1c0-7.9-0.6-15.7,11.1-8.3
				c2,1.3,5.5,0.2,8.3,0.2c0,30.6,0,61.2,0,91.8C112.4,267.8,101.9,267.8,91.4,263.9z"/>
			<path class="st103" d="M122.9,263.9c0-30.6,0-61.2,0-91.8c3.5,0.4,6.8-0.3,9.7-2.4c0.8,8-2.4,16.5,4.4,23.7c1.9,2,1,6.4,0.4,9.4
				c-3.3,15.3-2.3,30.8-2.1,46.2c0.1,3.8-3.4,6.4-2.6,10.2C130,262.1,127,264,122.9,263.9z"/>
			<path class="st104" d="M132.5,259c2.7-6.2,2.3-12.8,2.5-19.4c0.3-11.3-1.1-22.5,2.1-33.8c2-7.1-0.9-14-4.2-20.9
				c-2-4.2-0.4-10.2-0.3-15.4c14.5-6.5,10.1,7.2,11.7,12.1c6.4,19.7,2.9,40.2,2.8,60.4c-7,2-4.6,10.3-9.4,14.3
				C135.9,257.9,134.6,258.8,132.5,259z"/>
			<path class="st105" d="M52.8,155.1c1.3,13.7-2.8,27.6,2.3,41.1c0.6,1.6,0.9,4.1-1.9,4.7c-2.5,0.4-4.1-1.7-4.4-3.2
				c-0.7-3.8-0.8-7.8-0.7-11.7c0.1-7.3,0.4-14.6-5.4-22.9c2.2,25.1-3,48.5,5.2,71.5c2.4,6.7-4.4,12.7-4.6,19.6
				c-4.1,0.2-7.2-1.8-9.7-4.8c10.3-1.8,10.4-10,8.3-16.7c-2.7-8.5-4-16.8-3.4-25.4c0.8-11.9-4.2-23.3-2.5-35.2c0-2.8,0-5.6,0-8.4
				C35.9,151.2,39.5,149.3,52.8,155.1z"/>
			<path class="st107" d="M72.1,164.8c2.9,27.2-1.1,54.5,0.1,81.7c0.2,5-5.2,11.1,2.3,15c-4.7-1.3-10.4,2.6-14.5-2.4
				c8.4-6.7,8.5-16.4,7-25.1c-3-16.4-3.1-32.4,0-48.8c1.4-7.3,0.3-15.1,0.3-22.7C70,160.9,73.2,158.6,72.1,164.8z"/>
			<path class="st108" d="M35.9,172c3.5,20.5-0.6,41.7,6.7,62c1.7,4.6,1,14.5-9.2,15.3c-3.2-4.4-4.9-8.9-5.1-14.9
				c-1.2-31.9-6.8-63.5-7.3-96.5c8.4,5.8,11.6,13.3,12.6,22.5C34,164.3,30.6,169.1,35.9,172z"/>
			<path class="st109" d="M87.1,135.1c3.1-1.7,5.2-4.7,8.7-4.3c-0.3-4.5-9.8-0.5-5.5-5.7c2.3-2.8,0.5-12.9,9-8.5
				c3.4,1.7,6.6,3.2,9.8,2c5.9-2.1,1.2-4.6-1.3-8.2c9.6,4.9,17.8-5.5,26.9,0.9c2.5,1.7-0.4,12.8-9.1,15.7c-1.7,4.6,8.8,1.1,5,6.9
				c-2.8,4.3-5.3,4.8-10.4,1.1c-5.7-4.1-14-2.8-20.4-0.8C95.3,135.7,91.4,135.2,87.1,135.1z"/>
			<path class="st110" d="M16.5,128.5c0-0.8-0.9-3.1-0.9-3.9c11-7.7,24.8-15.6,41.5-11.3c-7.1,6.3-24-1.2-27.9,9.8
				c14.9,3.9,27.6-6.8,44.5-7.3c-3.9,2.6-5.6,4.2-7.7,5.1c-3.5,1.6-3.3,1.5-4.2,6.3c-0.3,1.4-2.9,3.8-3.9,3.5
				C44.3,127.3,30.2,131.5,16.5,128.5z"/>
			<path class="st111" d="M113.3,182.3c0.1,15.2,5.6,30.2,4.5,45.5c-0.8,10,3.2,19.3,2.7,29.2c-0.2,4.4,0.1,7.3-6,7.2
				c-5.7-0.1-7.5-2.2-6.1-6.9c5.1-15.9,0-32.7,4.5-48.9C115.2,200.2,113.3,191,113.3,182.3z"/>
		</g>
	</g>
	<path class="st112" d="M152.8,276.9c-6.3-16.8-6.2-33.5-8.4-50.8c-2.1-16.6,2.4-33.7-0.8-50.2c-0.4-2-5.8-10.3-2.8-11.5
		c2.9-1.2,9,6.7,9.6,8.4c1.5,4.4,5.2,7.1,7.6,10.8c2.1,26,5.9,53.2,7.1,77.9c0.3,7,0,15.6-3.5,21.4
		C159.7,282.6,153,280.5,152.8,276.9z"/>
	<path class="st100" d="M177.3,183.6c6.5-1,13.7,0.3,17.4,4.9c0,15.8-2.2,30.5-4,44.4c-1.5,11.8-0.1,23.8-1.3,36.1
		c-0.3,3.5,0.8,8.6,0.5,12.3c-0.6,8.3-5.8,7.8-12.6,6.2c-3.5,0.4-14.8-3.3-14.6-3.5c8-14.6,4.6-30.6,2.9-45.1
		c-1.6-13.7-0.3-27.7-0.4-43.8c13.5,10.3,1,24.3,11.7,35.3C178,213,177,199.3,177.3,183.6z"/>
	<path class="st113" d="M213.5,195.7c0,32.1-5.9,57.3-4.6,86.1c0.4,8.9-1.1,9.4-7,9.7c-9.6,0.4-10.9-6.1-10.2-10.1
		c5.2-28.9,3.5-60.8,4.9-89.8C203.1,186.8,208,194.3,213.5,195.7z"/>
	<path class="st97" d="M243.6,134.9c0,0-83.1-12.1-101.1,19.5c-6.3,11-4.5,89.2-3.9,92.6c1.9,12.5,0.5,29,16.8,33.4
		c-1-7.3-4.5-16.6-4.5-23.9c0.2-24.3-5.8-48.2-4.8-72.5c0.2-4.8-6.8-11.4-0.3-13.6c5-1.7,5.6,8.4,8.6,12.8c0.4,0.6,2.7,4.5,3.3,5
		c6.4-6.9,12.4-3.9,18.9-4.7c6.7-1,11.9,0.7,15.4,5.9c0.6-1.5,0.8-1.4,2.8-1c2.8,0.6,1.5,1.3,2,3c6.6-4.8,11.1,3.1,16.9,4.2
		c4.3-0.7-1.6,22,27.8,5.6c3.5-2,3.5,4.2,3.6,7.2c0,14.7-1.8,29.7-2.2,44.4c-0.3,8.8,1.8,16.1-1.7,24.8c-3.6,3.7,5.1,15.5-8.3,12.3
		c-1.3,0.6,0.1,3.3,0.2,4.7c5.6-1.1,11.9,2.5,16.9-2.4c-1-0.5-2.3-0.7-2.3-2.3c-0.2-27.2,0-54.4-0.1-81.6c0-4,1.1-7.1,5.6-7.8
		c4.5-0.8,11.2-6.5,12.3,2.3c2,15.6,9,30.2,6.7,46.7c-1.1,7.7-3.6,15.4-2.8,23.3c4-5.6,8.1-11.3,12.1-16.9c-6,0.7-5.1-3.7-4.8-7.1
		c1.6-15.3-3.7-29.8-5.9-44.5c-1.1-7.4-1.1-13.3,2.5-19.5c5.2,2,2,7.2,5.4,11.6c1.5-12.5-2.4-24.2,5-33.8c3.6-11.9-2.1-17-13.2-18.4
		c-1.3-0.2-2.4-2-4.1-0.9c0,8-8.1,7.2-12.1,10.9c-1.4,1.4-5.6,1.1-2.8,4.2c2.1,2.3,4.5,3.7,1.3,6.4c-3.1,2.7-6.9,2.7-9.9,0.2
		c-5.8-4.8-11.5-3.2-18-1.9c-5.1,1-10.4,4.9-16.6,2.5c4-4.9,10.7-2.8,13.5-7.8c-2.5-2.4-6.7,1.1-8.6-2.6c2.1-6.4,6.5-7.9,12.9-8.1
		C236,146.8,244.7,140.4,243.6,134.9"/>
	<path class="st114" d="M228.1,201.2c0,30.6-2.5,63-2.5,93.6c-2.4,0-4.8,0-7.2,0c-9.6-8.3-6-20.2-4.2-28.8c3-14.2-0.2-28.5,3.7-42.6
		c1.9-7,1.5-18.2,2.8-25.8C222.6,197.8,227.9,197.6,228.1,201.2z"/>
	<path class="st115" d="M177.3,287.5c11.1,2.2,11.8-6.2,11.8-13c0-11.3,0.2-22.5-1.5-34c-1.8-11.9,0.7-24.8,3-37
		c0.8-4.3,0.4-8.5,1.2-12.7c0.2-1.8,1-2.9,3-2.4c2.7,0.7,1.6,3,1.9,4.8c0,18.1,0,36.1,0,54.2c0,11.5,1.1,23.1-2.5,34.3
		c-1.8,5.5-1.2,8.5,5.3,8.1c4.3-0.3,10.3,2.2,9.4-6.3c-0.5-4.8,0-9.6-0.1-14.4c-0.4-24.6,1.7-49.1,4.8-73.4c3.3,0.3,8.2-1.8,7.2,4.8
		c-0.7,19.8-4.2,37.6-5.3,56.5c-0.5,9-1.4,18-2.2,27.1c-0.4,5.1,2,7.8,5,10.7C204.9,291.1,190.4,293.5,177.3,287.5z"/>
	<path class="st116" d="M281.2,256.1c-4.5,0.6-5.1-1.7-4.9-5.6c1-17.1-3.3-33.6-7.2-50c-1.4-5.9,2.1-11.2,3.2-16.5
		c6.4,1.4,2.4,8.2,6,12.5c1.7-12.3-2.6-26,5.2-36.2c2.2,0.4,2.7-1.2,4.9-0.9c-0.2,23.9,1.6,47.7,4.6,71.5
		C294.3,240.9,284.5,247.3,281.2,256.1z"/>
	<path class="st117" d="M225.6,202.9c4.3-8,10.9-2.1,16.2-2.1c6.6,0,2.9,6.2,2.9,9.3c0.4,21.1,0.3,42.3,0.1,63.4
		c0,2.3,2.3,5.8-2.3,6.7c0.8-19.5-4.2-38.7-2.4-58.3c0.2-1.9,0.5-4.3-2.4-4.3c-2.9,0-2.5,2.5-2.4,4.4c1.7,23.5-3.6,46.8-2.4,70.3
		c0,0.8,0,1.6,0,2.4c-2.4,0-4.8,0-7.2,0C225.6,264.1,225.6,233.5,225.6,202.9z"/>
	<path class="st118" d="M261.8,137c0,0,22.6,5.3,26.6,11.3c2.2,3.3,0.9,11.1,0.1,11.1c-1.6,0.8-5,2.7-6.6,3.5
		c3.5-6.2,2.1-9.8-0.8-12.3c-10.4-8.8-24.8-5-19.2-13.8"/>
	<path class="st119" d="M249.8,292.3c-4.6-0.9-2.3-4.5-2.3-6.7c-0.2-24.8-0.1-49.7-0.1-74.5c-2.7-5.7,0.5-11.5,8.3-11.2
		c-0.5,7.2-1.3,14.8,4,20.6c1.9,2.1,3,5,2.2,7.8c-5.1,18.5-0.2,38-5.8,56.5c-1.1,3.5,1.9,2.3,3.4,2.7
		C258.1,292.8,254,292.6,249.8,292.3z"/>
	<path class="st105" d="M160.4,280.2c4.7-7.8,6.8-15.5,2.5-24.7c-3.6-7.8-3-16.7-2.5-25.2c0.9-15.7-4.4-31.1-2.5-46.8
		c6.4-7.4,12.9,1.6,19.3,0c0,15.9,0,31.9,0,48.6c-13.2-9.6,1.2-27.4-12.2-36.8c0.8,21.8-1.5,42.9,4.7,63.8
		c1.8,5.9,2.1,13.8-2.4,19.1c-2.8,3.3,0.3,4.6,0.2,6.8C163.8,285.6,161.5,283.9,160.4,280.2z"/>
	<path class="st120" d="M256.9,291.4c-8.3-3-0.1-13.9,0.8-16.8c3-10.6-4.2-21.5-0.7-30.9c5.9-16-8.1-28-2.3-43.1
		c8.7-5.7,10.6-2.7,12.1,4.6c7.3,22.4,8.2,45.8,2.4,67.9C267.8,282.3,261.1,287.3,256.9,291.4z"/>
	<path class="st121" d="M261.8,137c-0.1,4,0.7,6,4.9,5.5c6.7,10.3-19.9,8.3-10.2,19.3c2,2.3-10.2,8.4-12.7,6.5
		c-10.9-8.5-19.5-5.1-29.9-1.7c-2.1,0.7-7.6,1.8-7.5-1.3c0.3-5.9,5.3-2,11.6-5.9c5-3.1-2.4-2.4-6.3-2.7c1.8-10.8,18-11,23.9-11.9
		c2-0.3,5.9-5.8,6.2-10.1L261.8,137z"/>
	<path class="st122" d="M186.8,136.5c-11.4,8.1-26.5,3-33.6,15.4c15.2,2.2,28.8-3.5,43.4-5.3c-6.3,3-12.7,6-19.5,9.2
		c3.9,3.1,8.8-1,13.1,3.9c-10.3-1.6-19.4,2.1-28.5-2.3c-5.1-2.4-10,4.5-15.7,1.8c-1.9-0.9-2.9,5.1-4.9,0.6c-0.8-1.7-0.5-3.8,1.3-5.4
		c9.1-8.4,17.3-18.1,31.6-16.8C177.5,137.9,181,137.1,186.8,136.5z"/>
	<path class="st119" d="M232.9,292.3c-1.2-23.3,4.2-46.4,2.5-69.7c-0.2-2.2-1-5.3,2.9-4.9c2.7,0.3,2,3,1.8,4.8
		c-1.7,19.4,3.3,38.4,2.5,57.7C242.7,287,244.5,295,232.9,292.3z"/>
</g>
</svg>
