<?xml version="1.0" encoding="utf-8"?>
<!-- Generator: Adobe Illustrator 22.0.0, SVG Export Plug-In . SVG Version: 6.00 Build 0)  -->
<svg version="1.1" id="Layer_1" xmlns="http://www.w3.org/2000/svg" xmlns:xlink="http://www.w3.org/1999/xlink" x="0px" y="0px"
	 viewBox="0 0 300 300" style="enable-background:new 0 0 300 300;" xml:space="preserve">
<style type="text/css">
	.st0{fill:#E08086;}
	.st1{fill:#B73E1D;}
	.st2{fill:#DD9225;}
	.st3{fill:#E27E3B;}
	.st4{fill:#2581A4;}
	.st5{fill:#3C9656;}
	.st6{fill:#B7533B;}
	.st7{fill:#9B5829;}
	.st8{fill:#F2E044;}
	.st9{fill:#5C3E6D;}
	.st10{fill:#CCA44C;}
	.st11{fill:#C16938;}
	.st12{fill:#2E7B45;}
	.st13{fill:#DD7258;}
	.st14{fill:#EF8379;}
	.st15{fill:#895E40;}
	.st16{fill:#90777A;}
	.st17{fill:#F9FAEB;}
	.st18{fill:#E2DCC4;}
	.st19{fill:#FFFEFE;}
	.st20{fill:#907F77;}
	.st21{fill:#51683C;}
	.st22{fill:#B8AFAC;}
	.st23{fill:#96806C;}
	.st24{fill:#C5BBB3;}
	.st25{fill:#7B6453;}
	.st26{fill:#634B36;}
	.st27{fill:#4F2E18;}
	.st28{fill:#93847E;}
	.st29{fill:#715338;}
	.st30{fill:#CABEB5;}
	.st31{fill:#6E5542;}
	.st32{fill:#BBA999;}
	.st33{fill:#7F6E68;}
	.st34{fill:#A29590;}
	.st35{fill:#513B2D;}
	.st36{fill:#637550;}
	.st37{fill:#847146;}
	.st38{fill:#6D5D3C;}
	.st39{fill:#729289;}
	.st40{fill:#359182;}
	.st41{fill:#46AC9D;}
	.st42{fill:#298777;}
	.st43{fill:#296355;}
	.st44{fill:#0E3329;}
	.st45{fill:#3F9687;}
	.st46{fill:#E48555;}
	.st47{fill:#F59159;}
	.st48{fill:#DADADA;}
	.st49{fill:#921428;}
	.st50{fill:#A8122E;}
	.st51{fill:#B21530;}
	.st52{fill:#B2B294;}
	.st53{fill:#DBD9C1;}
	.st54{fill:#D5D8BA;}
	.st55{fill:#EFEED8;}
	.st56{fill:#59AD6D;}
	.st57{fill:#83B967;}
	.st58{fill:#8FC07C;}
	.st59{fill:#86C95D;}
	.st60{fill:#94D07A;}
	.st61{fill:#9CD47C;}
	.st62{fill:#72B452;}
	.st63{fill:#7CB461;}
	.st64{fill:#419155;}
	.st65{fill:#2C8245;}
	.st66{fill:#4CA664;}
	.st67{fill:#7E4545;}
	.st68{fill:#8B4A48;}
	.st69{fill:#864646;}
	.st70{fill:#964D4D;}
	.st71{fill:#BB9F93;}
	.st72{fill:#E0B15C;}
	.st73{fill:#BB9248;}
	.st74{fill:#D3A54A;}
	.st75{fill:#F4C55F;}
	.st76{fill:#D8A745;}
	.st77{fill:#E9B94E;}
	.st78{fill:#F0CC84;}
	.st79{fill:#DDB366;}
	.st80{fill:#EBC169;}
	.st81{fill:#E2B864;}
	.st82{fill:#CDA55D;}
	.st83{fill:#ECCA8E;}
	.st84{fill:#ECDEC4;}
	.st85{fill:#D0C392;}
	.st86{fill:#EEE4D3;}
	.st87{fill:#DDCCAF;}
	.st88{fill:#7FAA52;}
	.st89{fill:#90C161;}
	.st90{fill:#AACF81;}
	.st91{fill:#E0CB90;}
	.st92{fill:#F3DF9D;}
	.st93{fill:#F7F1D6;}
	.st94{fill:#F6E8BF;}
	.st95{fill:#1E1E1E;}
	.st96{fill:#E9E6E2;}
	.st97{fill:#CB564A;}
	.st98{fill:#D86C6A;}
	.st99{fill:#CB4634;}
	.st100{fill:#CA4634;}
	.st101{fill:#9E3022;}
	.st102{fill:#DF7B60;}
	.st103{fill:#C94533;}
	.st104{fill:#9F3021;}
	.st105{fill:#E0785E;}
	.st106{fill:#E17A60;}
	.st107{fill:#E27A60;}
	.st108{fill:#CA4735;}
	.st109{fill:#DD8675;}
	.st110{fill:#DC7C6D;}
	.st111{fill:#C94A36;}
	.st112{fill:#C94634;}
	.st113{fill:#CA4633;}
	.st114{fill:#C94834;}
	.st115{fill:#DF765C;}
	.st116{fill:#9D3122;}
	.st117{fill:#E07B60;}
	.st118{fill:#B53A2A;}
	.st119{fill:#C94734;}
	.st120{fill:#A03021;}
	.st121{fill:#DD806B;}
	.st122{fill:#DE8170;}
	.st123{fill:#EAA7A4;}
	.st124{fill:#E5D6D2;}
	.st125{fill:#F0A7B4;}
	.st126{fill:#A06267;}
	.st127{fill:#9F6467;}
	.st128{fill:#BA544F;}
	.st129{fill:#D69578;}
	.st130{fill:#DDA792;}
	.st131{fill:#91443A;}
	.st132{fill:#9B5148;}
	.st133{fill:#E7A2A9;}
	.st134{fill:#8C411D;}
	.st135{fill:#9E5029;}
	.st136{fill:#6F2913;}
	.st137{fill:#A9594A;}
	.st138{fill:#C07161;}
	.st139{fill:#5F801B;}
	.st140{fill:#409658;}
	.st141{fill:#AF665A;}
	.st142{fill:#712912;}
	.st143{fill:#CE847C;}
	.st144{fill:#B05932;}
	.st145{fill:#C97D71;}
	.st146{fill:#DF8551;}
	.st147{fill:#E58751;}
	.st148{fill:#834023;}
	.st149{fill:#8B431F;}
	.st150{fill:#E68751;}
	.st151{fill:#9E5A51;}
	.st152{fill:#EED4C6;}
	.st153{fill:#E1C5B0;}
	.st154{fill:#CDB3A1;}
	.st155{fill:#ECC0A2;}
	.st156{fill:#F4DECE;}
	.st157{fill:#F1D3BF;}
	.st158{fill:#DFBE94;}
	.st159{fill:#F1B6A8;}
	.st160{fill:#D36A74;}
	.st161{fill:#F5AEAD;}
	.st162{fill:#F1B1AE;}
	.st163{fill:#CC404E;}
	.st164{fill:#D55E66;}
	.st165{fill:#CB6A6C;}
	.st166{fill:#F4D8C3;}
	.st167{fill:#F5AEAB;}
	.st168{fill:#F27F89;}
	.st169{fill:#F4CCC0;}
	.st170{fill:#EE5A6D;}
	.st171{fill:#EDC8B4;}
	.st172{fill:#CD968B;}
	.st173{fill:#D29F93;}
	.st174{fill:#F2DCC5;}
	.st175{fill:#E2C5C5;}
	.st176{fill:#EE7D79;}
	.st177{fill:#EB6765;}
	.st178{fill:#DB4144;}
	.st179{fill:#F39E96;}
	.st180{fill:#F58A84;}
	.st181{fill:#EC6967;}
	.st182{fill:#E05656;}
	.st183{fill:#D42C2C;}
	.st184{fill:#D93435;}
	.st185{fill:#F2A19A;}
	.st186{fill:#F3AFA9;}
	.st187{fill:#E47875;}
	.st188{fill:#C94442;}
	.st189{fill:#E45F56;}
	.st190{fill:#F2E6E0;}
	.st191{fill:#F0E0D3;}
	.st192{fill:#F3D7CF;}
	.st193{fill:#F2D5CB;}
	.st194{fill:#F1D2C5;}
	.st195{fill:#EFE4DD;}
	.st196{fill:#F2DBD4;}
	.st197{fill:#F5D5C5;}
	.st198{fill:#F3C8B8;}
	.st199{fill:#F1C3B8;}
	.st200{fill:#F4CFBC;}
	.st201{fill:#F3C9BD;}
	.st202{fill:#F4C9BD;}
	.st203{fill:#F4D1C5;}
	.st204{fill:#F2B7A9;}
	.st205{fill:#F4D2C6;}
	.st206{fill:#F4CFBD;}
	.st207{fill:#F2C5B9;}
	.st208{fill:#F3C7B8;}
	.st209{fill:#F4CCBF;}
	.st210{fill:#F2CEBE;}
	.st211{fill:#F3BDAD;}
	.st212{fill:#F2B2A2;}
	.st213{fill:#F4B8A7;}
	.st214{fill:#F5B3A1;}
	.st215{fill:#F0B6A8;}
	.st216{fill:#F3B7AD;}
	.st217{fill:#F19787;}
	.st218{fill:#F28F7C;}
	.st219{fill:#F2C9B5;}
	.st220{fill:#EEAE9A;}
	.st221{fill:#F5928B;}
	.st222{fill:#F5968C;}
	.st223{fill:#F6B5A5;}
	.st224{fill:#F38F85;}
	.st225{fill:#F5988B;}
	.st226{fill:#F2B39C;}
	.st227{fill:#F0BA9D;}
	.st228{fill:#F1B39C;}
	.st229{fill:#EF9189;}
	.st230{fill:#EF9A90;}
	.st231{fill:#E59489;}
	.st232{fill:#EEAB9A;}
	.st233{fill:#F1A195;}
	.st234{fill:#A2C5C5;}
	.st235{fill:#8AADAC;}
	.st236{fill:#B17139;}
	.st237{fill:#AB6B4B;}
	.st238{fill:#BF7D60;}
	.st239{fill:#C98426;}
	.st240{fill:#C6743C;}
	.st241{fill:#CEAA83;}
	.st242{fill:#C8662A;}
	.st243{fill:#AA6B4B;}
	.st244{fill:#EEE166;}
	.st245{fill:#CC5A40;}
	.st246{fill:#CEAA82;}
	.st247{fill:#C1573E;}
	.st248{fill:#3A9656;}
	.st249{fill:#46A35F;}
	.st250{fill:#44A160;}
	.st251{fill:#288245;}
	.st252{fill:#4C345B;}
	.st253{fill:#6F5182;}
	.st254{fill:#382447;}
	.st255{fill:#482D59;}
	.st256{fill:#56386B;}
	.st257{fill:#A85C36;}
	.st258{fill:#FAE19C;}
	.st259{fill:#B5DAD7;}
	.st260{fill:#F2E3C1;}
	.st261{fill:#F6E2AF;}
	.st262{fill:#F7D989;}
	.st263{fill:#E5A045;}
	.st264{fill:#F8E28F;}
	.st265{fill:#F9E198;}
	.st266{fill:#F2B22C;}
	.st267{fill:#F3B124;}
	.st268{fill:#C68226;}
	.st269{fill:#E09E46;}
	.st270{fill:#E2C888;}
	.st271{fill:#D3CA23;}
	.st272{fill:#DDB3B1;}
	.st273{fill:#165229;}
	.st274{fill:#E4E4E4;}
	.st275{fill:#DCDEBD;}
	.st276{fill:#DABBB4;}
	.st277{fill:#BAAF24;}
	.st278{fill:#BA5138;}
	.st279{fill:#9B3C2C;}
	.st280{fill:#D86F6A;}
	.st281{fill:#B4B3B3;}
	.st282{fill:#C8B167;}
	.st283{fill:#F8D776;}
	.st284{fill:#E34340;}
	.st285{fill:#A36720;}
	.st286{fill:#F0E3C5;}
	.st287{fill:#C17B1B;}
	.st288{fill:#E5A65C;}
	.st289{fill:#E2A14B;}
	.st290{fill:#CAE4E1;}
	.st291{fill:#97C4BF;}
	.st292{fill:#80AAA4;}
	.st293{fill:#C5DFDB;}
	.st294{fill:#ABC9C4;}
	.st295{fill:#A8453C;}
	.st296{fill:#35180D;}
	.st297{fill:#F76253;}
	.st298{fill:#69210D;}
	.st299{fill:#8E2614;}
	.st300{fill:#822914;}
	.st301{fill:#F1E99F;}
	.st302{fill:#CEBB31;}
	.st303{fill:#F7F8DB;}
	.st304{fill:#D3E8E5;}
	.st305{fill:#BFDCD6;}
	.st306{fill:#441D11;}
	.st307{fill:#726933;}
	.st308{fill:none;stroke:#726933;stroke-width:0.5;stroke-miterlimit:10;}
	.st309{fill:none;stroke:#726933;stroke-width:2;stroke-miterlimit:10;}
	.st310{fill:#736933;}
	.st311{fill:#E4955E;}
	.st312{fill:#CE763A;}
	.st313{fill:#F5AC79;}
	.st314{fill:#D3C4C1;}
	.st315{fill:#E9D8D4;}
	.st316{fill:#A8112E;}
	.st317{fill:#5E5655;}
	.st318{fill:#F2EDD3;}
	.st319{fill:#D6C7C4;}
	.st320{fill:#EBDFDC;}
</style>
<path class="st0" d="M288.9,168.6c0.1-7.9-1.7-15.5-4.8-22.8c-7.6-17.7-23-22.6-40.1-23.7c-12.3-0.8-24.4,2.1-36.6,3.7
	c-22.3,2.9-44.4,7.1-66.5,11.1c-23,4.2-46,7.5-69.2,8.8c-15.8,0.9-31.7,2.8-47.6,1.5c-4.8-0.4-7.5,1.8-9.5,5.5
	c-2.6,4.7-3,9.9-4.2,15c-2.3,9.7,0.4,19,0.2,28.4c-0.1,4.3,1.4,8.3,2.9,12.2c5.5,13.6,16.2,23,27.5,31.3
	c18.6,13.5,39.5,22.9,61.1,30.5c9.9,3.5,20,6.7,30.3,8.9v0l0.4,0.1c2.1,0.5,4.2,0.9,6.4,1.3l16.9,3.3l16.3,2.9l13,0.6l0,0
	c3,0.3,6,0.6,9,0.7c11.1,0.3,22.2-0.9,33-2.8c14.4-2.6,28.1-7.5,38.8-17.9c16-15.6,22.5-41.6,22.9-64.1c0.3-3.2,1.3-6.3,1.5-9.6
	C291,185.1,288.8,176.9,288.9,168.6z"/>
<path class="st160" d="M291.1,193.5c0.1-3.8-0.1-7.5-0.6-11.2c-16.5,34.6-30.1,49.8-70.8,57.4c-32.4,6-66.2,5.6-97.9-3.1
	c-28.4-7.8-130.2-46.7-101.2-87.4c-0.7-0.2-1.3-0.4-2-0.6c-13.9,9-10,44.3-5.7,56.9c8.6,25.1,35.5,40.6,58,51.7
	c25.9,12.7,53.3,20.4,81.4,25.8c16.7,3.2,33.8,5.4,50.9,4.9C262.5,286.1,288.5,251.2,291.1,193.5z"/>
<g>
	<path class="st169" d="M150.6,285.5c-1.7,7.2-35.3-3.1-49.5-8.7c-18.8-7.5-36.8-16.7-53.1-29c-1.1-0.8-2-1.8-2.8-2.8
		c-0.3-0.4-0.3-1.1-0.5-2.1c17.1,10.1,34.4,18.6,52.6,25.4c7.1,2.7,6.9-2,7.5-5.5c0.7-3.9,0.3-8,0.2-12c-0.2-5.2-5.5-3.7-8.1-5.1
		c-6.4-3.7-13.8-5.5-20.1-9.7c-0.9-0.6-2.5-3-3.7-0.6c-0.5,1-1.5,2.3-0.4,4.4c1.7,3.1,1.9,7,1.9,10.9c-1.5-5.4-11.3-5.7-7.6-14.9
		c0.8-2-5.6-7.3-9.2-10.5c-7.2-6.4-15.6-11.3-21.8-19c5.2,3.4,10.3,6.8,15.5,10.2c3.2,2.1,6.6,3.8,9.5,6.2
		c6.7,5.4,11.6,0.6,16.8-2.7c0.2,0.6,0.6,1.1,0.5,1.4c-4,8-4,8,4.7,11.9c5.1,2.3,10.2,4.6,15.4,6.7c3.5,1.4,6.1,1.2,9.6-1.8
		c9.3-8.1,17.7-17.2,30.1-21.6c12.6-4.5,25.1-7.3,38.4-5.9c5.2,0.5,9.3-3,14.8-2.7c-7.8,5.8-15.3,8.2-24.7,5.6c-4-1.1-9,0.9-14,3.2
		c8.7,1.1,16.4,2.6,24.2,3.1c15.6,1,30.1-2.2,42.3-12.7c1-0.9,2.1-3.3,3.6-1.2c1,1.5-1,2.3-2.2,3.3c-6.8,5.5-13.7,10.5-21.7,14.2
		c-8,3.7-16.3,5.8-25.1,5.9c-6.7,0-13.4,0-20.1,0c-9.5,0-21,9.3-23.6,18.5c-0.9,3,1,1.3,1.8,1.6c8.9,3,18.2,3.9,27.3,5.2
		c12.9,1.8,25.9,1.7,38.9,1.6c3.8,0,6.8-0.6,9.2-3.8c7-9,16.5-12,27.6-11c-4.6,5.6-15.1,2.6-17,12.2c22.9-3.3,44.5-8.9,59.1-28.8
		c2.2,2.6-1.7,3.7-0.5,5.7c-10.3,18.1-28.1,24.5-46.6,29.4c-9.1,2.4-18.3,4.3-27.8,4.1c-3.8-0.1-4,1.1-2.5,4.2
		c3.7,7.4,11.1,10,17.4,13.9c-9.7,3.5-18.8-3.6-22.7-11.2c-2.6-5-5.7-7.5-11.8-7c-15.8,1.2-54.9,4.4-52.2,9.1
		C128.4,286.9,150.6,282.5,150.6,285.5z"/>
	<path class="st169" d="M253.2,208c-6.7,12.9-18.3,18.5-32.7,22.6c7.5-7.4,14.9-13.1,19.9-20.8c11.2-17.2,12.4-34.2,2.6-49.7
		c-3.4-5.4-8.2-9.4-13-13.3c6.4-0.2,15.7,5.1,20.2,15.9c8.1,19.2,15.9,39.1,2.1,60.1c0-2.9,0.4-5.5-0.1-7.8
		C251.8,212.4,255.1,210.8,253.2,208z"/>
	<path class="st169" d="M46,206.5c-20.9-6.7-27.1-13.9-24.5-27.8c0.4,0,1-0.2,1.2,0c3.7,3.7,6.3,7.6,9.6-1.1c2-5.3,9.2-6.6,14.8-7
		c7.4-0.6,14.9-0.6,22.2,1.2c1,0.3,2.4-0.1,2.2,1.6c-0.2,1.6-1.6,1.2-2.6,1.1c-5.2-0.1-10.4,0.7-15.5,1.2
		c-13.9,1.3-18.4,8.3-12.6,21C42.2,199.9,44.1,203,46,206.5z"/>
	<path class="st169" d="M149.7,159.9c6.6-5.4,14.2-7.9,22-10c9.4-2.5,18.9-4,28.6-3.7c1.2,0,2.3-0.1,2.3,1.5c0,1.1-1,1-1.9,1.2
		C183.8,152.6,166.7,156.3,149.7,159.9z"/>
	<path class="st169" d="M106.7,217.2c1.3-4.4,3.5-9.9,6.9-10.1c7.3-0.3,8.6-6.2,12-10c2.4-2.7,4-0.2,5.7,0.2
		c7.7,1.9,15.3,1.2,24.1-0.9c-7.7,6.8-15.8,6.2-23.8,6.1c-3.4-0.1-6.9-0.6-6.6,4.7c0.1,2.2-1.4,3.4-3.8,3.3
		c-5.4-0.3-10.5,0-12.6,6.4C108.6,217.2,107.5,217.1,106.7,217.2z"/>
	<path class="st169" d="M271.9,175.7c2.2,2.7,4.7,5.2,6.5,8.1c2.4,4-2,5.9-3.1,8.9c-1,2.7-2.3,5.6-0.3,8.9c4,6.8-0.9,9.9-6.3,12.9
		c5.4-4.9,3.9-10.1,1-15.2c-1.8-3.2-2.7-5.6,1.9-7.5c3.2-1.4,2.6-4.8,1.7-7.5c-0.8-2.3-2.2-4.3-3.3-6.5
		C270.7,177,271.3,176.3,271.9,175.7z"/>
	<path class="st169" d="M101.3,170.3c15.6-7.6,31,2.4,46.5-1.6C132.3,176.7,116.7,169.5,101.3,170.3z"/>
	<path class="st169" d="M67.6,182.4c8.7,0.4,17.2-1.1,25.8-2.6c0.5-0.1,3.4,0.6,3.6,2.5c-10.6,6.2-22.2,3.9-33.4,4.1
		C64.1,184.3,67.5,185.1,67.6,182.4z"/>
	<path class="st169" d="M48.3,190.6c2.1,5.3,4.1,10.6,6.5,15.7c0.7,1.5,1.4,3.1,0,4c-1.6,1-3.6,0.1-4.3-1.6c-1.3-3.2-3.7-6.1-3.1-10
		c0.4-2.6,0.1-5.3,0.1-7.9C47.7,190.7,48,190.7,48.3,190.6z"/>
	<path class="st154" d="M236.3,275.8c2.8-3.8,7.1-5.5,10.4-8.8c-2.8,0-5.7,0-8.5,0c13.7-5.4,25.9-13.1,37.8-21.5
		c0,17.3-11,33.2-26.4,37.9c-3.2,1-6.7,0.7-11.2,1.1c3.3-3.5,5.8-6.2,9.2-9.8C243.2,274.4,239.9,277.4,236.3,275.8z"/>
</g>
</svg>
