<?xml version="1.0" encoding="utf-8"?>
<!-- Generator: Adobe Illustrator 22.0.0, SVG Export Plug-In . SVG Version: 6.00 Build 0)  -->
<svg version="1.1" id="Layer_1" xmlns="http://www.w3.org/2000/svg" xmlns:xlink="http://www.w3.org/1999/xlink" x="0px" y="0px"
	 viewBox="0 0 300 300" style="enable-background:new 0 0 300 300;" xml:space="preserve">
<style type="text/css">
	.st0{fill:#E08086;}
	.st1{fill:#B73E1D;}
	.st2{fill:#DD9225;}
	.st3{fill:#E27E3B;}
	.st4{fill:#2581A4;}
	.st5{fill:#3C9656;}
	.st6{fill:#B7533B;}
	.st7{fill:#9B5829;}
	.st8{fill:#F2E044;}
	.st9{fill:#5C3E6D;}
	.st10{fill:#CCA44C;}
	.st11{fill:#C16938;}
	.st12{fill:#2E7B45;}
	.st13{fill:#DD7258;}
	.st14{fill:#EF8379;}
	.st15{fill:#895E40;}
	.st16{fill:#90777A;}
	.st17{fill:#F9FAEB;}
	.st18{fill:#E2DCC4;}
	.st19{fill:#FFFEFE;}
	.st20{fill:#907F77;}
	.st21{fill:#51683C;}
	.st22{fill:#B8AFAC;}
	.st23{fill:#96806C;}
	.st24{fill:#C5BBB3;}
	.st25{fill:#7B6453;}
	.st26{fill:#634B36;}
	.st27{fill:#4F2E18;}
	.st28{fill:#93847E;}
	.st29{fill:#715338;}
	.st30{fill:#CABEB5;}
	.st31{fill:#6E5542;}
	.st32{fill:#BBA999;}
	.st33{fill:#7F6E68;}
	.st34{fill:#A29590;}
	.st35{fill:#513B2D;}
	.st36{fill:#637550;}
	.st37{fill:#847146;}
	.st38{fill:#6D5D3C;}
	.st39{fill:#729289;}
	.st40{fill:#359182;}
	.st41{fill:#46AC9D;}
	.st42{fill:#298777;}
	.st43{fill:#296355;}
	.st44{fill:#0E3329;}
	.st45{fill:#3F9687;}
	.st46{fill:#E48555;}
	.st47{fill:#F59159;}
	.st48{fill:#DADADA;}
	.st49{fill:#921428;}
	.st50{fill:#A8122E;}
	.st51{fill:#B21530;}
	.st52{fill:#B2B294;}
	.st53{fill:#DBD9C1;}
	.st54{fill:#D5D8BA;}
	.st55{fill:#EFEED8;}
	.st56{fill:#59AD6D;}
	.st57{fill:#83B967;}
	.st58{fill:#8FC07C;}
	.st59{fill:#86C95D;}
	.st60{fill:#94D07A;}
	.st61{fill:#9CD47C;}
	.st62{fill:#72B452;}
	.st63{fill:#7CB461;}
	.st64{fill:#419155;}
	.st65{fill:#2C8245;}
	.st66{fill:#4CA664;}
	.st67{fill:#7E4545;}
	.st68{fill:#8B4A48;}
	.st69{fill:#864646;}
	.st70{fill:#964D4D;}
	.st71{fill:#BB9F93;}
	.st72{fill:#E0B15C;}
	.st73{fill:#BB9248;}
	.st74{fill:#D3A54A;}
	.st75{fill:#F4C55F;}
	.st76{fill:#D8A745;}
	.st77{fill:#E9B94E;}
	.st78{fill:#F0CC84;}
	.st79{fill:#DDB366;}
	.st80{fill:#EBC169;}
	.st81{fill:#E2B864;}
	.st82{fill:#CDA55D;}
	.st83{fill:#ECCA8E;}
	.st84{fill:#ECDEC4;}
	.st85{fill:#D0C392;}
	.st86{fill:#EEE4D3;}
	.st87{fill:#DDCCAF;}
	.st88{fill:#7FAA52;}
	.st89{fill:#90C161;}
	.st90{fill:#AACF81;}
	.st91{fill:#E0CB90;}
	.st92{fill:#F3DF9D;}
	.st93{fill:#F7F1D6;}
	.st94{fill:#F6E8BF;}
	.st95{fill:#1E1E1E;}
	.st96{fill:#E9E6E2;}
	.st97{fill:#CB564A;}
	.st98{fill:#D86C6A;}
	.st99{fill:#CB4634;}
	.st100{fill:#CA4634;}
	.st101{fill:#9E3022;}
	.st102{fill:#DF7B60;}
	.st103{fill:#C94533;}
	.st104{fill:#9F3021;}
	.st105{fill:#E0785E;}
	.st106{fill:#E17A60;}
	.st107{fill:#E27A60;}
	.st108{fill:#CA4735;}
	.st109{fill:#DD8675;}
	.st110{fill:#DC7C6D;}
	.st111{fill:#C94A36;}
	.st112{fill:#C94634;}
	.st113{fill:#CA4633;}
	.st114{fill:#C94834;}
	.st115{fill:#DF765C;}
	.st116{fill:#9D3122;}
	.st117{fill:#E07B60;}
	.st118{fill:#B53A2A;}
	.st119{fill:#C94734;}
	.st120{fill:#A03021;}
	.st121{fill:#DD806B;}
	.st122{fill:#DE8170;}
	.st123{fill:#EAA7A4;}
	.st124{fill:#E5D6D2;}
	.st125{fill:#F0A7B4;}
	.st126{fill:#A06267;}
	.st127{fill:#9F6467;}
	.st128{fill:#BA544F;}
	.st129{fill:#D69578;}
	.st130{fill:#DDA792;}
	.st131{fill:#91443A;}
	.st132{fill:#9B5148;}
	.st133{fill:#E7A2A9;}
	.st134{fill:#8C411D;}
	.st135{fill:#9E5029;}
	.st136{fill:#6F2913;}
	.st137{fill:#A9594A;}
	.st138{fill:#C07161;}
	.st139{fill:#5F801B;}
	.st140{fill:#409658;}
	.st141{fill:#AF665A;}
	.st142{fill:#712912;}
	.st143{fill:#CE847C;}
	.st144{fill:#B05932;}
	.st145{fill:#C97D71;}
	.st146{fill:#DF8551;}
	.st147{fill:#E58751;}
	.st148{fill:#834023;}
	.st149{fill:#8B431F;}
	.st150{fill:#E68751;}
	.st151{fill:#9E5A51;}
	.st152{fill:#EED4C6;}
	.st153{fill:#E1C5B0;}
	.st154{fill:#CDB3A1;}
	.st155{fill:#ECC0A2;}
	.st156{fill:#F4DECE;}
	.st157{fill:#F1D3BF;}
	.st158{fill:#DFBE94;}
	.st159{fill:#F1B6A8;}
	.st160{fill:#D36A74;}
	.st161{fill:#F5AEAD;}
	.st162{fill:#F1B1AE;}
	.st163{fill:#CC404E;}
	.st164{fill:#D55E66;}
	.st165{fill:#CB6A6C;}
	.st166{fill:#F4D8C3;}
	.st167{fill:#F5AEAB;}
	.st168{fill:#F27F89;}
	.st169{fill:#F4CCC0;}
	.st170{fill:#EE5A6D;}
	.st171{fill:#EDC8B4;}
	.st172{fill:#CD968B;}
	.st173{fill:#D29F93;}
	.st174{fill:#F2DCC5;}
	.st175{fill:#E2C5C5;}
	.st176{fill:#EE7D79;}
	.st177{fill:#EB6765;}
	.st178{fill:#DB4144;}
	.st179{fill:#F39E96;}
	.st180{fill:#F58A84;}
	.st181{fill:#EC6967;}
	.st182{fill:#E05656;}
	.st183{fill:#D42C2C;}
	.st184{fill:#D93435;}
	.st185{fill:#F2A19A;}
	.st186{fill:#F3AFA9;}
	.st187{fill:#E47875;}
	.st188{fill:#C94442;}
	.st189{fill:#E45F56;}
	.st190{fill:#F2E6E0;}
	.st191{fill:#F0E0D3;}
	.st192{fill:#F3D7CF;}
	.st193{fill:#F2D5CB;}
	.st194{fill:#F1D2C5;}
	.st195{fill:#EFE4DD;}
	.st196{fill:#F2DBD4;}
	.st197{fill:#F5D5C5;}
	.st198{fill:#F3C8B8;}
	.st199{fill:#F1C3B8;}
	.st200{fill:#F4CFBC;}
	.st201{fill:#F3C9BD;}
	.st202{fill:#F4C9BD;}
	.st203{fill:#F4D1C5;}
	.st204{fill:#F2B7A9;}
	.st205{fill:#F4D2C6;}
	.st206{fill:#F4CFBD;}
	.st207{fill:#F2C5B9;}
	.st208{fill:#F3C7B8;}
	.st209{fill:#F4CCBF;}
	.st210{fill:#F2CEBE;}
	.st211{fill:#F3BDAD;}
	.st212{fill:#F2B2A2;}
	.st213{fill:#F4B8A7;}
	.st214{fill:#F5B3A1;}
	.st215{fill:#F0B6A8;}
	.st216{fill:#F3B7AD;}
	.st217{fill:#F19787;}
	.st218{fill:#F28F7C;}
	.st219{fill:#F2C9B5;}
	.st220{fill:#EEAE9A;}
	.st221{fill:#F5928B;}
	.st222{fill:#F5968C;}
	.st223{fill:#F6B5A5;}
	.st224{fill:#F38F85;}
	.st225{fill:#F5988B;}
	.st226{fill:#F2B39C;}
	.st227{fill:#F0BA9D;}
	.st228{fill:#F1B39C;}
	.st229{fill:#EF9189;}
	.st230{fill:#EF9A90;}
	.st231{fill:#E59489;}
	.st232{fill:#EEAB9A;}
	.st233{fill:#F1A195;}
	.st234{fill:#A2C5C5;}
	.st235{fill:#8AADAC;}
	.st236{fill:#B17139;}
	.st237{fill:#AB6B4B;}
	.st238{fill:#BF7D60;}
	.st239{fill:#C98426;}
	.st240{fill:#C6743C;}
	.st241{fill:#CEAA83;}
	.st242{fill:#C8662A;}
	.st243{fill:#AA6B4B;}
	.st244{fill:#EEE166;}
	.st245{fill:#CC5A40;}
	.st246{fill:#CEAA82;}
	.st247{fill:#C1573E;}
	.st248{fill:#3A9656;}
	.st249{fill:#46A35F;}
	.st250{fill:#44A160;}
	.st251{fill:#288245;}
	.st252{fill:#4C345B;}
	.st253{fill:#6F5182;}
	.st254{fill:#382447;}
	.st255{fill:#482D59;}
	.st256{fill:#56386B;}
	.st257{fill:#A85C36;}
	.st258{fill:#FAE19C;}
	.st259{fill:#B5DAD7;}
	.st260{fill:#F2E3C1;}
	.st261{fill:#F6E2AF;}
	.st262{fill:#F7D989;}
	.st263{fill:#E5A045;}
	.st264{fill:#F8E28F;}
	.st265{fill:#F9E198;}
	.st266{fill:#F2B22C;}
	.st267{fill:#F3B124;}
	.st268{fill:#C68226;}
	.st269{fill:#E09E46;}
	.st270{fill:#E2C888;}
	.st271{fill:#D3CA23;}
	.st272{fill:#DDB3B1;}
	.st273{fill:#165229;}
	.st274{fill:#E4E4E4;}
	.st275{fill:#DCDEBD;}
	.st276{fill:#DABBB4;}
	.st277{fill:#BAAF24;}
	.st278{fill:#BA5138;}
	.st279{fill:#9B3C2C;}
	.st280{fill:#D86F6A;}
	.st281{fill:#B4B3B3;}
	.st282{fill:#C8B167;}
	.st283{fill:#F8D776;}
	.st284{fill:#E34340;}
	.st285{fill:#A36720;}
	.st286{fill:#F0E3C5;}
	.st287{fill:#C17B1B;}
	.st288{fill:#E5A65C;}
	.st289{fill:#E2A14B;}
	.st290{fill:#CAE4E1;}
	.st291{fill:#97C4BF;}
	.st292{fill:#80AAA4;}
	.st293{fill:#C5DFDB;}
	.st294{fill:#ABC9C4;}
	.st295{fill:#A8453C;}
	.st296{fill:#35180D;}
	.st297{fill:#F76253;}
	.st298{fill:#69210D;}
	.st299{fill:#8E2614;}
	.st300{fill:#822914;}
	.st301{fill:#F1E99F;}
	.st302{fill:#CEBB31;}
	.st303{fill:#F7F8DB;}
	.st304{fill:#D3E8E5;}
	.st305{fill:#BFDCD6;}
	.st306{fill:#441D11;}
	.st307{fill:#726933;}
	.st308{fill:none;stroke:#726933;stroke-width:0.5;stroke-miterlimit:10;}
	.st309{fill:none;stroke:#726933;stroke-width:2;stroke-miterlimit:10;}
	.st310{fill:#736933;}
	.st311{fill:#E4955E;}
	.st312{fill:#CE763A;}
	.st313{fill:#F5AC79;}
	.st314{fill:#D3C4C1;}
	.st315{fill:#E9D8D4;}
	.st316{fill:#A8112E;}
	.st317{fill:#5E5655;}
	.st318{fill:#F2EDD3;}
	.st319{fill:#D6C7C4;}
	.st320{fill:#EBDFDC;}
</style>
<g>
	<path class="st138" d="M121.7,220.5c0.6-1.3,2.2-0.6,2.9-1.5c0.1,0.8,14-0.3,19.9-2.3c-0.6,9.7-2,19.2-2.2,28.8
		c-4.2,0.1-7.9-1.9-11.9-2.7c-0.7-0.1-1.4-0.2-2.1-0.2c-7.3-1.7-14.6-3.8-22.1-5c-3.7-0.6-1.8-1.6-0.6-3.3c-6.4,3.3-7.4,3.1-7.6-1.3
		C106.6,229,123,221.1,121.7,220.5z"/>
	<path class="st141" d="M285.4,218.3l-9.4-0.7c3.9,17.9-23,26.5-23,26.5c-12.6,2.1-27,2.4-42,1.5c-0.1-0.5-0.1-1.1,0-1.5
		c-1.3,0-1.9,0.4-2.1,1.4c-14.8-0.9-30.1-3-44.9-5.6c-0.6-0.1-1.2-0.3-1.7-0.4c-4-1.1-8.9-0.9-11.7-5c-0.6,0.9-0.8,1.8-0.9,2.8
		c-23.3-4.7-44.1-10.2-57.6-14c0.1-1.4-3.2-3.1-5-3.5c-6.2-1.3-12.5-1.7-18.8-2.4c-19.3-3.8-39-15.3-39-15.3
		c-12.5-5.3-10.6-23.6-10.6-23.6c-11.5,3.8-14,22.3-14,22.3l10.3,26l164.7,42.8l102.3-7.4l8-28.1L285.4,218.3z"/>
	<path class="st142" d="M202.8,174c0.5,0,1.5,1.5,0.4,1.5c-7.1-0.1-14.1,1.3-21.2,2.3c-6.5,0.9-13.1,2.4-19.6,2.9
		c-5.7,0.5-7,3.2-7.8,8.1c-0.6,4-0.1,8-1.1,11.9c-0.5,1.8-0.5,3.8-0.8,5.7c-0.5,2.8,0.2,3.3,2.9,2.5c10.4-3.2,20.8-6.2,31.4-8.7
		c5.1-1.2,10.2-2.7,15.5-3.4c1.9-0.3,2.6-1,2.5-2.8c-0.3-6.2,1.3-12.4,0.7-18.6c2.6,0.1,4.7,1.4,6.6,2.9c-1.6,5.5,0.2,11.2-2,16.9
		c12.9-2,25-4.2,37.4-4.3c3.5,0.8,6.7,2.3,9.6,4.4c0.9,8.2,0.7,16.5,0.7,24.7c0,1-0.2,2,1.5,1.5c8-2.4,16.4-3.5,24.3-6.3
		c0.2,1.2,1.9,1.5,1.5,2.9c-0.2,0-0.4,0-0.6,0c-7.7,1.8-15.2,4.2-22.7,6.4c-2.4,0.7-3.2,1.7-3.2,4.3c-0.3,7.7,1.2,15.3,0.8,22.9
		c0.9,3.4-1.8,3.6-3.9,4.5c-2.7,1.1-1.6-2.1-2.9-2.4c0.5-3.2,0.1-6.3,0.2-9.5c0-5.4,0-10.8,0-16.7c-14.6,4.9-28.5,10.3-42.3,16.3
		c-1.8,0.1-2,1.3-2,2.7c0.1,2.3-0.7,9.7-0.6,11.1c0.1,2.3-0.4,3.5-3,3.1c-0.9-0.2-2,0.4-2.8-0.3c-0.8-3.1,0.7-11.4,0.2-13.2
		c-6.8,3.5-13.6,6.5-20.1,10.3c-1.8,1.2-3.3,1.4-4-1.2c5.6-3.6,11.3-6.9,17.3-9.8c1.4-0.7,3-1.1,4-2.5c1.9-0.5,3.4-1.4,3.1-3.8
		c-0.2-1.4,0.8-2.5,0.7-3.9c-0.5-9.9,1.7-33.4,1.3-35.5c-4.8,0.2-9.3,1.8-13.9,2.9c-12.1,3-24.1,6.2-36,9.8c-2,0.6,0.1,0.6-0.1,2.9
		c-0.5,5.7-5.7,28.1-5.9,29.5c-0.1,0.8-0.2,1.8-1,1.5c-1.9-0.8-4.4-0.1-5.6-2.3c0.3-9.4,1.4-18.7,2.2-28.2
		c-5.1,0.6-17.4,5.5-22.2,6.8c-4,1.2-1.4-0.7-2.8-4.4c6.2-1.7,17.1-4.7,23.3-6.5c1.9-0.6,2.5-1.6,2.6-3.6c0.5-6.7,1.4-13.5,2.6-20.1
		c0-0.2,0.2-0.5,0.2-0.7c1-5.4,0.8-5.6-4.6-4.4c-13,3-26,6-39,8.8c-2,0.4-2.1,1.9-2.5,3.2c-1.4,4.3-1.7,8.8-2.4,13.2
		c-0.8,5.8-1.5,11.6-1.6,17.4c0,0.6-0.2,1.2,0.4,1.9c7.6-2.7,15.1-5.7,22.8-8.4c0.2,0,0.5,0,0.7,0.1c0.9,0.7,2.4,1.4,2.2,2.5
		c-0.1,0.8-1.8,0.8-2.8,1.2c-7.8,3-15.9,4.9-23.3,8.8c-1.1,2.8-1.1,2.8-5.8,2.1c-1.8-0.2-4,0.8-5-1.7c3.3-0.4,4.7-2,4.3-5.5
		c-0.4-2.9,1.2-5.9,0.7-8.9c0.4-6,1.7-11.8,2.7-17.7c0.3-1.9-0.2-3.9,1.4-6.1c-11.5,3-22.4,5.8-33.2,8.8c-3.9,1.1-7.8,2.2-11.8,3.1
		c-2.3,0.5-3.8,1.7-3.2,4.3c-0.9,5-0.8,10.1-1.7,15.1c-1.1,0-2.2-0.3-3.2-0.9c-0.8,0-1.1-0.4-1-1.2c0.1-3.6-0.1-7.2,0.6-10.8
		c0.8-3.7,0.1-3.9-3.5-2.9c-5.3,1.4-10.5,3.2-15.8,4.5c-1.3,0.2-1.2-0.6-1.1-1.5c6.5-1.9,8.9-6.7,15.4-8.5c1.6-0.5,3.3-0.6,3.5-1.8
		c1.5-9.1,7.4-16.6,10.6-25.2c0.1-0.4,0.2-0.7,0-1.1c-9.8,2.1-19.4,5.5-29.1,8.1c-1,0.3-2.1,0.7-2.6,1.9c-2.4,6.3-4.6,12.6-5,19.4
		c-2.2-0.3-3.2-1.4-4.6-4.8c1.4-4,2.4-8.1,3.9-12.1c0.8-2.2-0.4-1.6-1.5-1.4c-1.3,0.2-2.4,1.8-4,0.5c0.1-0.6-0.4-1.4,0.7-1.5
		c5.7-0.2,7.8-4,8.8-8.8c2.2-1.5,4.1-3.4,6.6-4.4c1.2,0.4,0.6,0.9,0.3,1.6c-1,2.2-2.2,4.3-3.3,6.8c2.7-0.3,4.9-1.3,7.2-2.1
		c7.3-2.3,12.6-6.9,20.1-8.7c1.7-0.4,2.3-0.8,3.1-2.5c1.7-3.7,4.9-5.6,6.7-9.2c1.5-1.1,4.8-1.4,6.6-1.5c-1.2,4.6-4.5,8.2-5.6,13.2
		c9.7-2.5,19.4-4.3,29.1-6.1c3.9-0.7,7.7-1.4,11.6-1.9c1.9-0.3,3.4-0.7,4.2-3.2c1-3.1,2.7-6.1,3.5-9.4c1,0,2,0,2.9,0
		c2.3-0.3,3.3,0.2,2.2,2.7c-1.1,2.6-2,5.3-2.6,8.1c5.6-0.6,11.1-1.3,16.5-2c5.6-0.7,11.2-1.2,16.8-2c2.1-0.3,4.1,0,6.2-0.2
		c1-0.1,2.2,0.7,2.9-0.7c1.7,1.5,4.6-0.2,5.9,2.2c-0.6,5.7-1.8,11.3-2.6,17c-0.3,2.3-0.8,2.9,2.5,2.5c6.3-0.7,12.5-2,18.8-2.7
		C186.3,175.3,194.5,173.9,202.8,174z"/>
	<path class="st138" d="M205.8,175.5c0.6,6.3-1.1,12.5-0.7,18.8c0.1,1.6-0.4,2.3-2.2,2.6c-11.6,1.9-22.7,6.5-34,9.4
		c-4.5,1.1-9.1,1.6-13.6,3c-2,0.6-2.9-0.1-2.6-2.3c1-7.9-0.3-16.3,0.8-24.2c0.2-1.4,3.9-1.2,5.2-1.4c7.4-1.2,14.7-2.2,22.1-3.6
		c7-1.3,14.1-1.6,21.2-2.3C202.9,175.4,204.6,175.7,205.8,175.5z"/>
	<path class="st143" d="M108.5,151.2c-1.2,3.5-2.4,7.1-3.8,10.6c-0.5,1.3-2.1,1.7-3.6,1.9c-10.3,1.6-20.6,3.3-30.8,5.8
		c-3.3,0.8-6.7,1.6-10.3,2.3c1-4.8,4.4-8.6,5.7-13.2c5-1.7,10.1-2.7,15.2-3.7c5.4-1.1,10.8-1.5,16.2-2.7
		C100.8,151.3,104.7,151.5,108.5,151.2z"/>
	<path class="st143" d="M202.8,174c-10.2-0.1-20.3,1.4-30.4,2.9c-4.8,0.7-9.7,1.5-14.5,2.3c-2.5,0.4-1.5-1.6-1.4-2.6
		c0.9-5.8,1.8-11.5,2.8-17.2c6,1.1,11.5,3.7,17.2,5.7c7.4,2.7,14.8,5.3,22.1,8.1C200,173.7,201.8,172.3,202.8,174z"/>
	<path class="st143" d="M283.9,215.3c-6.4,2.5-13.4,3.2-19.9,5.1c-1.8,0.6-3.7,1-5.9,1.5c0.2-9,0-17.8-0.7-26.5
		c5.5,1.6,10,5.2,14.6,8.4C276.5,207.1,280.4,211,283.9,215.3z"/>
	<path class="st143" d="M60.5,160c-1.5,2.8-3.4,5.6-4.3,8.6c-1.2,3.8-3.8,5.5-7.3,6.2c-9,1.9-17.7,5.1-26.9,8c1.3-2.6,2.4-5,3.6-7.2
		c0.4-0.8,0.8-1.3-0.4-1.5c10.1-6.3,21.4-9.9,32.6-13.7C58.6,160,59.6,160.1,60.5,160z"/>
	<path class="st143" d="M247.8,191c-10.7,0.2-21.2,1.4-31.6,3.7c-1.4,0.3-2.7,0.1-4.2,0.5c-2,0.5-1.1-1.9-0.9-2.6
		c1.3-4.7-0.1-9.5,1.4-14.2c6.7,1.5,13,4.1,19.4,6.4C237.2,186.8,242.8,188.1,247.8,191z"/>
	<path class="st143" d="M153.4,157.1c-0.3,1.4-1.4,0.7-2.1,0.7c-9.5,0.2-18.9,1.7-28.3,2.9c-4,0.5-8.1,1-12.3,1.4
		c1-2.7,1.8-5.4,2.9-8c1-2.5,0.3-3.3-2.3-2.9c0.1-0.8,0.7-0.7,1.3-0.8c12.9-0.9,25.3,1.2,37.4,5.4
		C151.2,156.3,152.9,155.3,153.4,157.1z"/>
	<path class="st144" d="M18.5,178.5c-1.1,4.8-3.1,8.7-8.8,8.8C11.5,183.2,15,180.9,18.5,178.5z"/>
	<path class="st138" d="M150.5,234.5c-0.2-6.2,1-12.4,1.4-18.6c0.1-1.7,1.5-1.8,2-2c10.4-2.9,24.2-9,35.6-12.4
		c5.8-1.7,10.9-3.8,14.7-2.2c6.7,2.8-0.9,27-0.8,37.2c0,3.1,0.4,7.2-4.3,8.2c-11.5,0.1-24.2-1.8-35.3-3.9c-3.6-0.7-6.6-2.1-10.2-3
		C151.8,237.4,151.3,236.3,150.5,234.5z"/>
	<path class="st138" d="M252.2,201.8c-0.3,6,1.2,12.2,0.8,18.5c-0.2,2.2-0.2,3.1-3.1,4c-9.3,2.9-18.6,6.1-27.6,10.1
		c-3.7,1.7-7.6,3.1-11.3,4.8c-0.7,0.3-1.5,0.7-2,0.4c-0.9-0.5-0.1-1.2,0.2-1.8c0.2-0.4,0.2-0.9,0.1-1.4c-0.5-8.1,1.1-16.2,0.7-24.3
		c-0.2-3.9,0.9-7.6,0.8-11.5c0-0.7-0.2-1.3,1-1.5c7-1.2,14-2.5,21-3.6c5.3-0.9,10.6-1.8,16-2.3c3.1-0.3,3.7,1,3.4,3.6
		C252.1,198.3,252.2,199.9,252.2,201.8z"/>
	<path class="st138" d="M121.7,220.5c-7.8,2.8-15.7,5.7-23.7,8.6c0.6-7-0.2-14.9,1-21.9c0.7-4.2,2.3-7.5,3.5-11.7
		c0.3-1.2,0.6-1.9,1.8-2.2c13.9-3.2,27.8-6.4,41.8-9.6c0.8-0.2,3.4-0.1,4.3-0.1c-0.7,4.6-3.1,9-3.6,13.5c-0.6,4.7-1.1,9.4-1.4,14.1
		c-0.1,1.6-1.5,1.7-2.1,1.9c-6.1,2.1-10.3,3.1-16.5,5C126,219,122.3,219.2,121.7,220.5z"/>
	<path class="st138" d="M52.1,204c-3.2,0.6-2.8-1.2-2.6-2.1c2.6-8.4,5.3-16.7,8.1-25.1c0.4-1.3,1.8-1.8,2.8-2
		c7.6-1.9,15.2-3.7,22.9-5.2c5.8-1.1,11.6-2.4,17.5-3.4c2.5-0.4,1.9,0.6,1.8,1.6c-0.3,1.7-1,3.3-1.4,4.9c-1.5,5.8-3,11.6-4.4,17.4
		c-0.2,0.9-0.1,1.3-1.3,1.6c-14.5,3.5-28.8,7.4-43,12.1C52,204.1,51.6,204.2,52.1,204z"/>
	<path class="st138" d="M140.2,160.5c2.5-1.6,6.9,0.5,10.9-1.1c1.9-0.8,2.8,0.7,2.3,2.3c-1.8,5.7-2.6,11.5-3.7,17.3
		c-0.6,3.2-3.9,1.9-5.7,2.2c-9.4,1.8-18.9,3.6-28.3,5.8c-3.7,0.9-7.4,1.7-11.1,2.5c-0.5,0.1-1.1,0.6-0.9-0.9
		c1.3-7.6,4.2-14.8,5.7-22.4c0.6-2.9,3.2-1.9,4.6-2.1C122.2,162.6,130.5,161.7,140.2,160.5z"/>
	<path class="st145" d="M22.2,213.9c-3.9-0.6-5.8-3.5-7.4-6.6c0.7-6.8,2.5-13.3,5.1-19.6c0.7-1.8,2-2.1,3.4-2.5
		c9.5-2.8,19.1-5.5,29.1-8.3c-3.2,8.2-6.3,16.2-7.5,24.5c-0.7,4.9-3.5,6.3-7.5,7.4C32.3,210.3,27.3,212.1,22.2,213.9z"/>
	<path class="st141" d="M285.4,218.3c1.1,3.6,2.6,7,3.2,10.8c0.8,4.6,0.3,8.3-3,11.5c-0.9,0.9-1.6,1.9-2.4,2.8
		c-5.7,4.3-12.1,7.4-18.7,10.1c-1.8,0.8-3.8,1-4.9-1.3c0.4-8.1-1.2-16.2-0.8-24.3c0.1-1.3,0.2-2.3,1.5-2.7
		C268.7,222.8,276.8,219.8,285.4,218.3z"/>
	<path class="st138" d="M92,223.2c-12.1,0.5-23.7-5.6-35.5-8c-2.9-0.6-6-1.6-8.5-3.6c-0.5-2.7,0.9-3.8,3.3-4.4
		c14.8-7.6,46.8-14.1,45-11.9C96.7,204.2,93.1,215.4,92,223.2z"/>
	<path class="st138" d="M253,244.1c-2,1.5-4.3,2.1-6.8,2.3c-8,0.5-16,0.4-24,1c-3.2,0.2-6.1-0.8-9.1-0.3c-2.2,0.3-2.2-1.4-2.1-2.9
		c13.6-6.2,27.7-11.2,42-16.4C253,233.4,253,238.7,253,244.1z"/>
	<path class="st146" d="M162.2,274.2c1-0.5,0.4-2.3,2.3-2.2c1.6,0.1,2.7,1.1,2.8,2.2c0.1,1-1.4,1.4-2.6,1.6
		C163.4,275.9,162.7,275.4,162.2,274.2z"/>
	<path class="st147" d="M253.7,267.5c-0.2-2.4,1.6-4.2,3.1-4c1.9,0.3,5.4,0.3,5.5,3c0.1,2.5-2.5,3.9-5.2,4.2
		C254.6,270.9,253.6,269.8,253.7,267.5z"/>
	<path class="st148" d="M281.8,262.3c-0.1-3.1-0.8-6.2,3.2-8.1c2-0.9,3.5-0.5,4.4,0.5c1.1,1.2-0.9,1.9-1.6,2.7
		c-1.6,1.9-3.4,3.8-5.1,5.6C282.4,262.8,282.1,262.5,281.8,262.3z"/>
	<path class="st149" d="M222,269.8c1.6,0.3,3.3-0.5,2.9,1.4c-0.5,2.4-3.1,2.4-4.9,3.1c-0.8,0.3-1.8-0.7-1.6-1.4
		C219,270.8,220.1,269.1,222,269.8z"/>
	<path class="st150" d="M95.5,248.5c3.1,0,5.5,2.7,5.6,5.1c0.1,2.1-0.6,3.5-2.9,3.7c-2.1,0.2-6.1-3.2-6-5.1
		C92.5,249.9,94.1,248.8,95.5,248.5z"/>
	<path class="st151" d="M291.9,232.2c-0.7-5.3-2.9-10-6.6-14c-0.6,9.8,5.7,14.8-2,24c-3,3.6-44.6,27.3-81.3,18
		c-6.9-1.7-14.2-0.5-21.1-1.9c-7.5-1.6-29.9-12.1-43.5-13.5c-6.8-0.7-87.9-15.8-93.2-17.6c-4.5-1.6-10.8-5-15.6-7.7
		c-4.3-2.4-20.9-23-20.9-23c-10.8,0.7,7.7,41.5,12.9,46.5c12.7,12.2,31.6,17.3,48.3,20.4c27.6,5.2,55.9,8,83.5,14.4
		c38.1,8.9,77.1,25.6,115.5,6.1C288,273.8,297.7,253.9,291.9,232.2z M37.5,228.1c-0.1-0.9-0.2-1.8-0.3-2.7
		C38.4,227.8,38.5,228.7,37.5,228.1z M90.8,239.6c-0.7,0-0.7-0.6,0.2-1.8C90.9,238.4,90.8,239,90.8,239.6z"/>
</g>
</svg>
