<?xml version="1.0" encoding="utf-8"?>
<!-- Generator: Adobe Illustrator 22.0.0, SVG Export Plug-In . SVG Version: 6.00 Build 0)  -->
<svg version="1.1" id="Layer_1" xmlns="http://www.w3.org/2000/svg" xmlns:xlink="http://www.w3.org/1999/xlink" x="0px" y="0px"
	 viewBox="0 0 290.5 312.1" style="enable-background:new 0 0 290.5 312.1;" xml:space="preserve">
<style type="text/css">
	.st0{fill:#E08086;}
	.st1{fill:#B73E1D;}
	.st2{fill:#DD9225;}
	.st3{fill:#E27E3B;}
	.st4{fill:#2581A4;}
	.st5{fill:#3C9656;}
	.st6{fill:#B7533B;}
	.st7{fill:#9B5829;}
	.st8{fill:#F2E044;}
	.st9{fill:#5C3E6D;}
	.st10{fill:#CCA44C;}
	.st11{fill:#C16938;}
	.st12{fill:#2E7B45;}
	.st13{fill:#DD7258;}
	.st14{fill:#EF8379;}
	.st15{fill:#895E40;}
	.st16{fill:#90777A;}
	.st17{fill:#F9FAEB;}
	.st18{fill:#E2DCC4;}
	.st19{fill:#FFFEFE;}
	.st20{fill:#907F77;}
	.st21{fill:#51683C;}
	.st22{fill:#B8AFAC;}
	.st23{fill:#96806C;}
	.st24{fill:#C5BBB3;}
	.st25{fill:#7B6453;}
	.st26{fill:#634B36;}
	.st27{fill:#4F2E18;}
	.st28{fill:#93847E;}
	.st29{fill:#715338;}
	.st30{fill:#CABEB5;}
	.st31{fill:#6E5542;}
	.st32{fill:#BBA999;}
	.st33{fill:#7F6E68;}
	.st34{fill:#A29590;}
	.st35{fill:#513B2D;}
	.st36{fill:#637550;}
	.st37{fill:#847146;}
	.st38{fill:#6D5D3C;}
	.st39{fill:#729289;}
	.st40{fill:#359182;}
	.st41{fill:#46AC9D;}
	.st42{fill:#298777;}
	.st43{fill:#296355;}
	.st44{fill:#0E3329;}
	.st45{fill:#3F9687;}
	.st46{fill:#E48555;}
	.st47{fill:#F59159;}
	.st48{fill:#DADADA;}
	.st49{fill:#921428;}
	.st50{fill:#A8122E;}
	.st51{fill:#B21530;}
	.st52{fill:#B2B294;}
	.st53{fill:#DBD9C1;}
	.st54{fill:#D5D8BA;}
	.st55{fill:#EFEED8;}
	.st56{fill:#59AD6D;}
	.st57{fill:#83B967;}
	.st58{fill:#8FC07C;}
	.st59{fill:#86C95D;}
	.st60{fill:#94D07A;}
	.st61{fill:#9CD47C;}
	.st62{fill:#72B452;}
	.st63{fill:#7CB461;}
	.st64{fill:#419155;}
	.st65{fill:#2C8245;}
	.st66{fill:#4CA664;}
	.st67{fill:#7E4545;}
	.st68{fill:#8B4A48;}
	.st69{fill:#864646;}
	.st70{fill:#964D4D;}
	.st71{fill:#BB9F93;}
	.st72{fill:#E0B15C;}
	.st73{fill:#BB9248;}
	.st74{fill:#D3A54A;}
	.st75{fill:#F4C55F;}
	.st76{fill:#D8A745;}
	.st77{fill:#E9B94E;}
	.st78{fill:#F0CC84;}
	.st79{fill:#DDB366;}
	.st80{fill:#EBC169;}
	.st81{fill:#E2B864;}
	.st82{fill:#CDA55D;}
	.st83{fill:#ECCA8E;}
	.st84{fill:#ECDEC4;}
	.st85{fill:#D0C392;}
	.st86{fill:#EEE4D3;}
	.st87{fill:#DDCCAF;}
	.st88{fill:#7FAA52;}
	.st89{fill:#90C161;}
	.st90{fill:#AACF81;}
	.st91{fill:#E0CB90;}
	.st92{fill:#F3DF9D;}
	.st93{fill:#F7F1D6;}
	.st94{fill:#F6E8BF;}
	.st95{fill:#1E1E1E;}
	.st96{fill:#E9E6E2;}
	.st97{fill:#CB564A;}
	.st98{fill:#D86C6A;}
	.st99{fill:#CB4634;}
	.st100{fill:#CA4634;}
	.st101{fill:#9E3022;}
	.st102{fill:#DF7B60;}
	.st103{fill:#C94533;}
	.st104{fill:#9F3021;}
	.st105{fill:#E0785E;}
	.st106{fill:#E17A60;}
	.st107{fill:#E27A60;}
	.st108{fill:#CA4735;}
	.st109{fill:#DD8675;}
	.st110{fill:#DC7C6D;}
	.st111{fill:#C94A36;}
	.st112{fill:#C94634;}
	.st113{fill:#CA4633;}
	.st114{fill:#C94834;}
	.st115{fill:#DF765C;}
	.st116{fill:#9D3122;}
	.st117{fill:#E07B60;}
	.st118{fill:#B53A2A;}
	.st119{fill:#C94734;}
	.st120{fill:#A03021;}
	.st121{fill:#DD806B;}
	.st122{fill:#DE8170;}
	.st123{fill:#EAA7A4;}
	.st124{fill:#E5D6D2;}
	.st125{fill:#F0A7B4;}
	.st126{fill:#A06267;}
	.st127{fill:#9F6467;}
	.st128{fill:#BA544F;}
	.st129{fill:#D69578;}
	.st130{fill:#DDA792;}
	.st131{fill:#91443A;}
	.st132{fill:#9B5148;}
	.st133{fill:#E7A2A9;}
	.st134{fill:#8C411D;}
	.st135{fill:#9E5029;}
	.st136{fill:#6F2913;}
	.st137{fill:#A9594A;}
	.st138{fill:#C07161;}
	.st139{fill:#5F801B;}
	.st140{fill:#409658;}
	.st141{fill:#AF665A;}
	.st142{fill:#712912;}
	.st143{fill:#CE847C;}
	.st144{fill:#B05932;}
	.st145{fill:#C97D71;}
	.st146{fill:#DF8551;}
	.st147{fill:#E58751;}
	.st148{fill:#834023;}
	.st149{fill:#8B431F;}
	.st150{fill:#E68751;}
	.st151{fill:#9E5A51;}
	.st152{fill:#EED4C6;}
	.st153{fill:#E1C5B0;}
	.st154{fill:#CDB3A1;}
	.st155{fill:#ECC0A2;}
	.st156{fill:#F4DECE;}
	.st157{fill:#F1D3BF;}
	.st158{fill:#DFBE94;}
	.st159{fill:#F1B6A8;}
	.st160{fill:#D36A74;}
	.st161{fill:#F5AEAD;}
	.st162{fill:#F1B1AE;}
	.st163{fill:#CC404E;}
	.st164{fill:#D55E66;}
	.st165{fill:#CB6A6C;}
	.st166{fill:#F4D8C3;}
	.st167{fill:#F5AEAB;}
	.st168{fill:#F27F89;}
	.st169{fill:#F4CCC0;}
	.st170{fill:#EE5A6D;}
	.st171{fill:#EDC8B4;}
	.st172{fill:#CD968B;}
	.st173{fill:#D29F93;}
	.st174{fill:#F2DCC5;}
	.st175{fill:#E2C5C5;}
	.st176{fill:#EE7D79;}
	.st177{fill:#EB6765;}
	.st178{fill:#DB4144;}
	.st179{fill:#F39E96;}
	.st180{fill:#F58A84;}
	.st181{fill:#EC6967;}
	.st182{fill:#E05656;}
	.st183{fill:#D42C2C;}
	.st184{fill:#D93435;}
	.st185{fill:#F2A19A;}
	.st186{fill:#F3AFA9;}
	.st187{fill:#E47875;}
	.st188{fill:#C94442;}
	.st189{fill:#E45F56;}
	.st190{fill:#F2E6E0;}
	.st191{fill:#F0E0D3;}
	.st192{fill:#F3D7CF;}
	.st193{fill:#F2D5CB;}
	.st194{fill:#F1D2C5;}
	.st195{fill:#EFE4DD;}
	.st196{fill:#F2DBD4;}
	.st197{fill:#F5D5C5;}
	.st198{fill:#F3C8B8;}
	.st199{fill:#F1C3B8;}
	.st200{fill:#F4CFBC;}
	.st201{fill:#F3C9BD;}
	.st202{fill:#F4C9BD;}
	.st203{fill:#F4D1C5;}
	.st204{fill:#F2B7A9;}
	.st205{fill:#F4D2C6;}
	.st206{fill:#F4CFBD;}
	.st207{fill:#F2C5B9;}
	.st208{fill:#F3C7B8;}
	.st209{fill:#F4CCBF;}
	.st210{fill:#F2CEBE;}
	.st211{fill:#F3BDAD;}
	.st212{fill:#F2B2A2;}
	.st213{fill:#F4B8A7;}
	.st214{fill:#F5B3A1;}
	.st215{fill:#F0B6A8;}
	.st216{fill:#F3B7AD;}
	.st217{fill:#F19787;}
	.st218{fill:#F28F7C;}
	.st219{fill:#F2C9B5;}
	.st220{fill:#EEAE9A;}
	.st221{fill:#F5928B;}
	.st222{fill:#F5968C;}
	.st223{fill:#F6B5A5;}
	.st224{fill:#F38F85;}
	.st225{fill:#F5988B;}
	.st226{fill:#F2B39C;}
	.st227{fill:#F0BA9D;}
	.st228{fill:#F1B39C;}
	.st229{fill:#EF9189;}
	.st230{fill:#EF9A90;}
	.st231{fill:#E59489;}
	.st232{fill:#EEAB9A;}
	.st233{fill:#F1A195;}
	.st234{fill:#A2C5C5;}
	.st235{fill:#8AADAC;}
	.st236{fill:#B17139;}
	.st237{fill:#AB6B4B;}
	.st238{fill:#BF7D60;}
	.st239{fill:#C98426;}
	.st240{fill:#C6743C;}
	.st241{fill:#CEAA83;}
	.st242{fill:#C8662A;}
	.st243{fill:#AA6B4B;}
	.st244{fill:#EEE166;}
	.st245{fill:#CC5A40;}
	.st246{fill:#CEAA82;}
	.st247{fill:#C1573E;}
	.st248{fill:#3A9656;}
	.st249{fill:#46A35F;}
	.st250{fill:#44A160;}
	.st251{fill:#288245;}
	.st252{fill:#4C345B;}
	.st253{fill:#6F5182;}
	.st254{fill:#382447;}
	.st255{fill:#482D59;}
	.st256{fill:#56386B;}
	.st257{fill:#A85C36;}
	.st258{fill:#FAE19C;}
	.st259{fill:#B5DAD7;}
	.st260{fill:#F2E3C1;}
	.st261{fill:#F6E2AF;}
	.st262{fill:#F7D989;}
	.st263{fill:#E5A045;}
	.st264{fill:#F8E28F;}
	.st265{fill:#F9E198;}
	.st266{fill:#F2B22C;}
	.st267{fill:#F3B124;}
	.st268{fill:#C68226;}
	.st269{fill:#E09E46;}
	.st270{fill:#E2C888;}
	.st271{fill:#D3CA23;}
	.st272{fill:#DDB3B1;}
	.st273{fill:#165229;}
	.st274{fill:#E4E4E4;}
	.st275{fill:#DCDEBD;}
	.st276{fill:#DABBB4;}
	.st277{fill:#BAAF24;}
	.st278{fill:#BA5138;}
	.st279{fill:#9B3C2C;}
	.st280{fill:#D86F6A;}
	.st281{fill:#B4B3B3;}
	.st282{fill:#C8B167;}
	.st283{fill:#F8D776;}
	.st284{fill:#E34340;}
	.st285{fill:#A36720;}
	.st286{fill:#F0E3C5;}
	.st287{fill:#C17B1B;}
	.st288{fill:#E5A65C;}
	.st289{fill:#E2A14B;}
	.st290{fill:#CAE4E1;}
	.st291{fill:#97C4BF;}
	.st292{fill:#80AAA4;}
	.st293{fill:#C5DFDB;}
	.st294{fill:#ABC9C4;}
	.st295{fill:#A8453C;}
	.st296{fill:#35180D;}
	.st297{fill:#F76253;}
	.st298{fill:#69210D;}
	.st299{fill:#8E2614;}
	.st300{fill:#822914;}
	.st301{fill:#F1E99F;}
	.st302{fill:#CEBB31;}
	.st303{fill:#F7F8DB;}
	.st304{fill:#D3E8E5;}
	.st305{fill:#BFDCD6;}
	.st306{fill:#441D11;}
	.st307{fill:#726933;}
	.st308{fill:none;stroke:#726933;stroke-width:0.5;stroke-miterlimit:10;}
	.st309{fill:none;stroke:#726933;stroke-width:2;stroke-miterlimit:10;}
	.st310{fill:#736933;}
	.st311{fill:#E4955E;}
	.st312{fill:#CE763A;}
	.st313{fill:#F5AC79;}
	.st314{fill:#D3C4C1;}
	.st315{fill:#E9D8D4;}
	.st316{fill:#A8112E;}
	.st317{fill:#5E5655;}
	.st318{fill:#F2EDD3;}
	.st319{fill:#D6C7C4;}
	.st320{fill:#EBDFDC;}
</style>
<g>
	<g>
		<path class="st0" d="M279.7,152.5c-1.1-22.9-34.2-27.6-52-28.3c-6.3-0.2-14.7-1.6-20.9-0.1c-3.8,0.9-7.4,0.4-6.7,0
			c-4.5,0.3-11.1-1.2-15.7-2.1c-5.5-1.1-10.9-2.3-16.4-2.9c-12.8-1.4-24.6,0.9-36.7,5c-10.3,3.5-22.1,7.4-30.5,14.6
			c-8.7,7.4-17.5,13-27.7,18.3c-9.8,5.1-21.5,9.5-29.8,16.9c-3.6,3.2-6.1,7.6-9.6,10.9c-3.9,3.6-8.6,5.8-12.3,9.6
			c-6.9,7.1-13.3,17-14.8,26.9c-1.1,7.7-0.8,24.6,6.7,29.4c0.5-2.6,5.4,11.4,8.5,16.3c1.4,2.2,6.4,7.3,9.3,7.5
			c3.4,0.3,3.3,0.7,3.6,0.7c1.4-0.1,2.5,1.2,3.8,1.4c0.8,0.1,1.6-1.6,2.2-1.6c1.6,0.1,1.3,1.8,3.8,1.4c3.4-0.5,1.4-2.9,9.4,0.6
			c4.2,1.9,46.6,13.7,48.4,13.5c5.9-0.8,7.3-2.8,11.6-0.8c18.3,8.7,96.5-58.9,96.5-58.9c3.4-2.3,33.6-17,35.9-21.8
			c1.2-2.5,0.9-2.7,3.1-4.3C266.7,192.7,280.8,174.5,279.7,152.5z"/>
	</g>
	<path class="st160" d="M97.4,288c2.1,2.2,5.6-0.4,7.6,1.9c-0.5,0-0.9,0.2-1.2,0.5c3.3,1.2,6.5,2.8,10.1,2.3
		c2.7-0.3,22.5-1.7,25.7-2.2c16.7-2.5,47.6-40.1,49.2-41c2.5-1.3,6.1-3.3,8.5-4.7c10.6-6.1,13.8-6.1,23.6-13.3
		c9.6-7,17.7-15.5,27-22.8c2.1-1.7,4.4-3.3,6.1-5.5c1.1-1.4-2.7,1,0.6-2.8c3.5-4,8.6-6.5,12.2-10.7c6.8-8.1,10.9-17.5,16.2-26.5
		c5,0.6-10.3,32.5-12.3,35.5c-3.9,5.7-8.4,11.1-13,16.3c-4.8,5.5-11,9.4-15.7,14.9c-0.8-2.1-2.1,0.2-3.4,0.3c-0.6,0.6-1.2,1-1.9,1.4
		c-1.1,0.1-1.8-0.4-2.2-1.5c-3.8,0.7-7.4,7.2-10,10c-4.5,5-10.1,8.6-15.8,12.2c-7.9,5-3.7-1.2-2.4-5.6c-5.7,4.9-11,10.5-13,18
		c3-0.1,4.6-3.6,7.7-3.4c-10.5,13-23,24.5-37.5,33.1c-16.5,9.8-32.7,11.3-51.5,8.3c-8.9-1.4-17.7-3.2-26.5-5.4
		c-4.6-1.1-9.2-2.2-13.8-3.2c-2.2-0.5-12.7,0.2-13.9-1.6c-1.3-1.9,1.6-8.3,2.9-9.4c2.4-2.1,8.4-2.2,11.5-1.9
		c3.8,0.4,7.8,1.9,11.5,2.9C88.3,285.2,92.8,288.1,97.4,288z"/>
	<path class="st190" d="M90.7,286.1c-6-1.7-12.7-4.9-19-5.1c-2.8-0.1-6.8,0.5-9,2.5c-2,1.8-1.4,3.3-2.4,5.5
		c-0.7,1.6-0.5,4.9-3.9,2.8c-0.9-0.6-3.2-6-4.1-7.3c-1.4-1.9-3-4.7-5.1-5.9c-1.9-1.1-4.2,0.9-5.1-2c4.9,0.6,5.3-2,7.1-5.7
		c1.8-3.8,5.1-6.6,7-10.4c0.4,6.9-11.4,13.8-0.4,17c4.5,1.3,9.2,1,13.8,1c4,0,8.3,1.6,11.5-0.3c3-1.8,6.5-7.6,8.9-10.3
		c1.3-1.4,7.6-7.7,2.6-6.9c-3.5,0.6-6.8,5.9-10.3,6.6c-2.2,0.4-5.3-1.9-6.7,0.6c3-2.3,4.1-4.5,8-5.3c1.7-0.4,2.9-0.2,4.5-0.8
		c2.3-0.7,4.8-1.9,7-3c4.2-2.1,7.6-5.3,10.9-8.6c2.7-2.7,6.4-8.2,10.6-8.4c-8.7,8.9-17.1,18.3-23.5,29c2.9-1.7,6-4.3,9.1-5.4
		c2.8-1,2.9,0.3,6.2-0.1c4-0.4,9.4-7.3,13.6-3.8c-4.4,5.8-10.5,9.7-15.7,14.6C102.2,280,96.9,286.9,90.7,286.1z"/>
	<path class="st160" d="M42.1,276.6c1.8,2.6,6.1-0.3,8.6,2.3c2.7,2.8,3.9,9.6,5.7,13c-6-2.4-12.3-1.7-17.9-5.4
		c-4.5-3-7.4-7.5-8.8-12.7C30.8,273.6,36.1,276.3,42.1,276.6z"/>
	<path class="st191" d="M201.2,261.4c-3-0.1-4.8,3.1-7.7,3.6c2.1-7.9,7.8-13.8,13.5-19.3c-0.2,2.7-6.3,8.3-1.5,8.8
		c4.3,0.4,14.9-9.7,17.8-12.6c2.8-2.8,7.3-10.9,11.3-11.9c0.6-0.1,1.2,1.9,1.5,1.8c0.4-0.1,1.4-0.8,1.8-0.8c1.8,0,2.4-3.7,4.3-0.9
		c-7.3,3.8-13.3,10-19.8,15C215.3,250.3,208.2,255.9,201.2,261.4z"/>
	<path class="st192" d="M13.5,250.9c0.7-2.3,1.5-4.6,2.2-6.9c1.2,1.6-0.8,7.8,1.8,8.2c2.3,0.4,3.3-6.2,3.9-7.9c0.5-1.4,1-4.8,2-5.6
		c1.3-1.1,2.5,0,3.7-0.9c3.1-2.4,3.2-6.6,7.3-8.7c-3.3,6-7.2,11.8-9.8,18.2c-1,2.4-3.3,18.2-3.7,18.2
		C19.1,265.1,14.1,252.5,13.5,250.9z"/>
	<path class="st193" d="M206.9,124.2c-9.3,3.4-16.7,10.4-25.6,14.6c-4.1,2-8.1,4.6-12.2,6.5c-2.3,1.1-8.5,3.1-4.4-1.2
		c2.3-2.4,8.2-3.4,11.2-4.9c4.4-2.3,8.5-5.1,12.1-8.5c0.8-0.8,3.1-4.3,4.1-4.8c0.3-0.4,0.6-0.7,0.9-1.1c1.1-0.6,2.1-0.4,2.9,0.8
		C199.6,125.3,202.6,124.2,206.9,124.2z"/>
	<path class="st194" d="M283.1,163.3c-3.2,5.4-4.7,11.9-9.5,16.2c1.8-5.4,4.2-10.5,5.5-16c0.4-1.6,1-13.5,1.2-13.5
		C282.7,153.9,283.5,158.6,283.1,163.3z"/>
	<path class="st195" d="M253.6,202.3c1.1,3.6-12,11.3-14.6,13.6c-6.4,5.8-12.6,11.6-19.6,16.6c-6.8,4.8-13.5,9.7-20.6,14
		c-3.9,2.4-9.2,3.1-12.1,6.8c-45.3,57.4-73.9,38.5-76.6,38.5c0.1-2.5,40.5-6,77.7-43.8c6.7-6.9,14.8-12.1,22.9-17.3
		c6.9-4.4,14.3-8.2,21-12.7C239.2,213.1,246.1,207.5,253.6,202.3z"/>
	<path class="st196" d="M218.5,184.8c4.8-4.4,9-9.3,12.2-15c-2,0.3-9.1,7-7.7,2.1c0.7-2.6,12.5-7.8,15.1-9.8
		c5.1-4,9.1-8.9,14.4-12.7c2.5-1.8,11.9-10.2,14.8-8.5c-8.9,6.9-16.6,12.9-23.5,21.9C237.8,170.6,228.3,181.9,218.5,184.8z"/>
	<path class="st197" d="M64.1,219.9c6.8-9.2,14.9-17.4,23.9-24.5c2.7-2.1,23-18.7,24.9-17.2c1.8,1.5-7.2,6.2-8.4,7.1
		c-4.7,3.4-9.3,7.1-13.7,10.9C81.8,204,73.7,213,64.1,219.9z"/>
	<path class="st198" d="M152.6,223.1c4-7.1,10.5-13.8,17.3-18.2c2.1-1.4,19.6-9.9,19.7-9.6c0.2,1.6-15.4,9.7-17.5,11.3
		c-3.5,2.6-6.8,5.3-9.9,8.2C160.2,216.8,155.3,223.3,152.6,223.1z"/>
	<path class="st199" d="M97.1,229.3c-9.1,9.2-13.9,21.7-22.8,31.1C80,248.7,84.9,236.4,97.1,229.3z"/>
	<path class="st200" d="M217.3,202.3c2.2-4,28.6-20.1,36.2-21.9C241.6,188.9,230.1,196.2,217.3,202.3z"/>
	<path class="st192" d="M34.7,228.9c5.5-11.3,14.9-19.7,24.5-27.5c-0.6,6.2-6.7,9.3-10.9,13.2C43.5,219.1,39.2,224.1,34.7,228.9z"/>
	<path class="st201" d="M142.6,263.5c3.9-10.1,8.2-20.7,19.3-24.6c-5.5,5.7-11.6,11.1-14.9,18.5c1.2,0.1,2.5,0.2,3.7,0.3
		C148.6,260.3,145.9,262.4,142.6,263.5z"/>
	<path class="st202" d="M140,134.1c-8.4,8.6-20,12.1-29.9,19.2C112.2,148.2,130.6,138,140,134.1z"/>
	<path class="st203" d="M148.1,189.3c2.4-5.7,16.6-15,24.5-15.8C164.3,178.3,157.2,185,148.1,189.3z"/>
	<path class="st204" d="M117.4,289.9c-3,6.1-9.4,1.2-14.2,0.8c0.9-1.5,6-2.4,7.9-4.3c2.5-2.4,4.1-6.5,7-8.4
		C118.5,282.5,109.6,287.9,117.4,289.9z"/>
	<path class="st205" d="M112,215.3c2.1-2.7,16.7-18.4,20.4-15.4C134.8,201.8,114.3,214.3,112,215.3z"/>
	<path class="st206" d="M19.6,214.4c4.6-6.7,8.7-13.9,16.5-17.6C32,204,26,209.4,19.6,214.4z"/>
	<path class="st207" d="M205.3,138.9c2-1.8,20.7-9.9,20.5-6.9C225.5,134.7,208.2,139.9,205.3,138.9z"/>
	<path class="st208" d="M166.9,256.6c1.4,0.2,1.1-1.6,2.8-0.5c-1.6,2-20.1,17.7-21.9,15.3C146.6,269.7,164.8,258.1,166.9,256.6z"/>
	<path class="st209" d="M172.8,229.7c1.4-1.5,16.2-13,17.7-9.6C191.7,222.4,175.1,229.2,172.8,229.7z"/>
	<path class="st210" d="M35.4,273.7c-0.6,0-1.3,0-1.9,0c-0.7-7.7,6.6-11.5,10.3-17C43,263,35.6,267.8,35.4,273.7z"/>
	<path class="st211" d="M222.2,149.7c-3.6,1.9-7.3,3.7-10.9,5.6c-0.3,0.2-7.3,3.9-6.2,0.4c0.4-1.4,5-2.4,6.2-2.9
		C213.6,151.8,221,147.4,222.2,149.7z"/>
	<path class="st212" d="M85.8,164.3c-4.6,4.2-10.1,6.9-15.8,9.2C74.2,168.6,79.7,165.9,85.8,164.3z"/>
	<path class="st213" d="M137.2,163.1c-3.4,4.5-8.5,6.7-13.4,9c1.5-1.9,2.5-4.9,4.7-6.1C131.2,164.6,134.4,164.9,137.2,163.1z"/>
	<path class="st214" d="M249.7,137.7c-1.5,1.1-13.1,5.3-13.7,4.2C234.3,139.2,247.7,137.8,249.7,137.7z"/>
	<path class="st215" d="M265.5,167.3c0.7-0.6,10.1-8.9,9-4.5C273.7,165.7,268,167.7,265.5,167.3z"/>
	<path class="st216" d="M46.5,232.1c-2,4.9-5.4,7.1-7.9,10.8C39.2,238.2,41,235.6,46.5,232.1z"/>
	<path class="st217" d="M163.3,125.3c-3,2.9-6.8,3.7-10.4,6C154.9,127.7,158.6,125.7,163.3,125.3z"/>
	<path class="st218" d="M183.3,166.8c3.5-2,7-4.2,11.2-4.8C191.3,164.8,187.4,166,183.3,166.8z"/>
	<path class="st219" d="M133.6,237.5c0.5-1.2,5.1-5.5,6.4-3.2C141.5,236.8,134.8,237.6,133.6,237.5z"/>
	<path class="st220" d="M64.2,225.6c-0.2,1.9-0.7,6.3-3.4,6C57.3,231.1,63.7,226.1,64.2,225.6z"/>
	<path class="st221" d="M137.4,163.3c1.9-3,5-4.4,8.1-5.7C143.8,160.9,140.2,161.5,137.4,163.3z"/>
	<path class="st222" d="M122.8,192.3c-2.6,3.4-5.2,4.8-7.9,6.1C116.5,195.5,119.1,193.9,122.8,192.3z"/>
	<path class="st223" d="M72.7,185.6c-1.3,3-3.8,4.6-6.3,6.3C68.5,189.8,70.6,187.7,72.7,185.6z"/>
	<path class="st224" d="M122.4,193.2c3.6-4.8,3.6-4.8,6.7-4.9C126.7,190.1,124.5,191.6,122.4,193.2z"/>
	<path class="st0" d="M83.9,279.9c2.1-2,8.6-2.8,7.7,1.5C90.8,285.3,86.1,281,83.9,279.9z"/>
</g>
</svg>
