<?xml version="1.0" encoding="utf-8"?>
<!-- Generator: Adobe Illustrator 23.0.3, SVG Export Plug-In . SVG Version: 6.00 Build 0)  -->
<svg version="1.1" id="Layer_1" xmlns="http://www.w3.org/2000/svg" xmlns:xlink="http://www.w3.org/1999/xlink" x="0px" y="0px"
	 viewBox="0 0 300 300" style="enable-background:new 0 0 300 300;" xml:space="preserve">
<style type="text/css">
	.st0{fill:#7C4E2F;}
	.st1{fill:#60402B;}
	.st2{fill:#E06C6C;}
	.st3{fill:#BA5656;}
	.st4{fill:#F9C0B8;}
	.st5{fill:#F5B2A8;}
</style>
<path class="st0" d="M285.3,244.9c-0.5-9.1-2.1-17.9-3.1-24.8c-2.3-14.6-6.1-29.1-6.4-44c-0.1-7.8,0.2-15.6,0.9-23.4
	c0.7-9,1.8-18.1,3.2-27c6.5-28.4,1.3-56.7-19.6-77.7c-6.8-6.8-14.3-12.8-22.5-17.9c-15.1-9.3-31.7-16-49-19.9
	c-18.6-4.3-36.8-5-55.7-4.9c-31.1,0.2-62.5,9.5-86.5,27.4C6,63.1-3.7,128.4,37.4,162.5c21.1,17.5,49.1,29.5,66.7,51.1
	c13.8,17,15.9,35.8,25,55c9.6,20.3,33.3,30.5,55.1,29.2v0.3c15.5,0.4,31.1-0.6,46.6-1.3c21.3-1,46.7-5.9,52.7-30
	C285.2,259.5,285.8,252.2,285.3,244.9z"/>
<path class="st1" d="M283.5,266.7c-5.5,21.8-26.8,27.9-46.6,29.6c14.8-3.5,28-11.2,32.1-28.4c1.7-7.4,2.3-15,1.8-22.6
	c-0.5-9.4-2-18.5-3.1-25.7c-2.3-15.1-6.1-30.1-6.4-45.5c-0.1-8.1,0.2-16.2,0.9-24.3c0.7-9.3,1.8-18.7,3.2-27.9
	c6.5-29.4,1.3-58.7-19.6-80.4c-6.8-7-14.3-13.2-22.5-18.5c-1.8-1.2-3.7-2.3-5.5-3.4c6.9,3,13.6,6.4,20,10.4
	c8.1,5.1,15.7,11.1,22.5,17.9c20.9,21,26.1,49.3,19.6,77.7c-1.5,8.9-2.5,17.9-3.2,27c-0.7,7.8-1,15.6-0.9,23.4
	c0.3,14.9,4.1,29.4,6.4,44c1.5,8.2,2.6,16.5,3.2,24.8C285.8,252.2,285.2,259.5,283.5,266.7z"/>
<path class="st2" d="M37.3,162.5c21.1,17.5,49.1,29.5,66.7,51.1c13.8,17,15.9,35.8,25,55c12.8,27.1,50.6,36.1,75.8,24.1
	c26.1-12.4,43.5-34.2,39-64.6c-5.2-35.2-3.7-68.1,3.5-103.8c8.5-42-6.6-80.4-44.5-101.8C156.2-3.9,89.4,0.6,46.5,32.7
	C5.9,63.1-3.7,128.4,37.3,162.5z"/>
<path class="st3" d="M247.3,124.2c-7.2,35.6-8.6,68.6-3.5,103.8c4.5,30.4-12.8,52.2-38.8,64.6c16.4-12.8,25.8-31.1,22.5-54.6
	c-5.2-35.2-3.7-68.1,3.5-103.8c8.5-42-6.6-80.4-44.5-101.8C145.9,9.5,90.2,9.9,48.1,31.5c43-31.1,108.7-35.2,154.7-9.2
	C240.7,43.8,255.8,82.2,247.3,124.2z"/>
<path class="st4" d="M114.3,83.5c-20.9,8.8-36.4,21.5-31.6,33.2c5.5,13.4,28.8,6,38.5,12.3c14.9,9.6,22.5,42.8,29.2,60.1
	c3.6,9.3,8.6,42.9,21.4,41.9c13.6-1,0.6-43.7-0.8-54.2c-2.2-17.7-7.8-39.7-2.2-57.3c4.7-14.7,36.1-21,22.2-39.1
	C180.6,66.7,142.6,71.5,114.3,83.5z"/>
<path class="st5" d="M168.9,119.5c-5.6,17.5,0,39.5,2.2,57.3c1.3,10.6,14.4,53.2,0.8,54.2c-1.8,0.1-3.5-0.4-4.9-1.5
	c6.2-10.2-4.1-44.6-5.3-54.1c-2.3-18.6-8.2-41.7-2.3-60.1c4.8-15.3,37.2-21.9,23.8-40.5c3.1,1.1,5.9,3,8,5.6
	C205,98.5,173.6,104.8,168.9,119.5z"/>
</svg>
