<?xml version="1.0" encoding="utf-8"?>
<!-- Generator: Adobe Illustrator 22.0.0, SVG Export Plug-In . SVG Version: 6.00 Build 0)  -->
<svg version="1.1" id="Layer_1" xmlns="http://www.w3.org/2000/svg" xmlns:xlink="http://www.w3.org/1999/xlink" x="0px" y="0px"
	 viewBox="0 0 300 300" style="enable-background:new 0 0 300 300;" xml:space="preserve">
<style type="text/css">
	.st0{fill:#E08086;}
	.st1{fill:#B73E1D;}
	.st2{fill:#DD9225;}
	.st3{fill:#E27E3B;}
	.st4{fill:#2581A4;}
	.st5{fill:#3C9656;}
	.st6{fill:#B7533B;}
	.st7{fill:#9B5829;}
	.st8{fill:#F2E044;}
	.st9{fill:#5C3E6D;}
	.st10{fill:#CCA44C;}
	.st11{fill:#C16938;}
	.st12{fill:#2E7B45;}
	.st13{fill:#DD7258;}
	.st14{fill:#EF8379;}
	.st15{fill:#895E40;}
	.st16{fill:#90777A;}
	.st17{fill:#F9FAEB;}
	.st18{fill:#E2DCC4;}
	.st19{fill:#FFFEFE;}
	.st20{fill:#907F77;}
	.st21{fill:#51683C;}
	.st22{fill:#B8AFAC;}
	.st23{fill:#96806C;}
	.st24{fill:#C5BBB3;}
	.st25{fill:#7B6453;}
	.st26{fill:#634B36;}
	.st27{fill:#4F2E18;}
	.st28{fill:#93847E;}
	.st29{fill:#715338;}
	.st30{fill:#CABEB5;}
	.st31{fill:#6E5542;}
	.st32{fill:#BBA999;}
	.st33{fill:#7F6E68;}
	.st34{fill:#A29590;}
	.st35{fill:#513B2D;}
	.st36{fill:#637550;}
	.st37{fill:#847146;}
	.st38{fill:#6D5D3C;}
	.st39{fill:#729289;}
	.st40{fill:#359182;}
	.st41{fill:#46AC9D;}
	.st42{fill:#298777;}
	.st43{fill:#296355;}
	.st44{fill:#0E3329;}
	.st45{fill:#3F9687;}
	.st46{fill:#E48555;}
	.st47{fill:#F59159;}
	.st48{fill:#DADADA;}
	.st49{fill:#921428;}
	.st50{fill:#A8122E;}
	.st51{fill:#B21530;}
	.st52{fill:#B2B294;}
	.st53{fill:#DBD9C1;}
	.st54{fill:#D5D8BA;}
	.st55{fill:#EFEED8;}
	.st56{fill:#59AD6D;}
	.st57{fill:#83B967;}
	.st58{fill:#8FC07C;}
	.st59{fill:#86C95D;}
	.st60{fill:#94D07A;}
	.st61{fill:#9CD47C;}
	.st62{fill:#72B452;}
	.st63{fill:#7CB461;}
	.st64{fill:#419155;}
	.st65{fill:#2C8245;}
	.st66{fill:#4CA664;}
	.st67{fill:#7E4545;}
	.st68{fill:#8B4A48;}
	.st69{fill:#864646;}
	.st70{fill:#964D4D;}
	.st71{fill:#BB9F93;}
	.st72{fill:#E0B15C;}
	.st73{fill:#BB9248;}
	.st74{fill:#D3A54A;}
	.st75{fill:#F4C55F;}
	.st76{fill:#D8A745;}
	.st77{fill:#E9B94E;}
	.st78{fill:#F0CC84;}
	.st79{fill:#DDB366;}
	.st80{fill:#EBC169;}
	.st81{fill:#E2B864;}
	.st82{fill:#CDA55D;}
	.st83{fill:#ECCA8E;}
	.st84{fill:#ECDEC4;}
	.st85{fill:#D0C392;}
	.st86{fill:#EEE4D3;}
	.st87{fill:#DDCCAF;}
	.st88{fill:#7FAA52;}
	.st89{fill:#90C161;}
	.st90{fill:#AACF81;}
	.st91{fill:#E0CB90;}
	.st92{fill:#F3DF9D;}
	.st93{fill:#F7F1D6;}
	.st94{fill:#F6E8BF;}
	.st95{fill:#1E1E1E;}
	.st96{fill:#E9E6E2;}
	.st97{fill:#CB564A;}
	.st98{fill:#D86C6A;}
	.st99{fill:#CB4634;}
	.st100{fill:#CA4634;}
	.st101{fill:#9E3022;}
	.st102{fill:#DF7B60;}
	.st103{fill:#C94533;}
	.st104{fill:#9F3021;}
	.st105{fill:#E0785E;}
	.st106{fill:#E17A60;}
	.st107{fill:#E27A60;}
	.st108{fill:#CA4735;}
	.st109{fill:#DD8675;}
	.st110{fill:#DC7C6D;}
	.st111{fill:#C94A36;}
	.st112{fill:#C94634;}
	.st113{fill:#CA4633;}
	.st114{fill:#C94834;}
	.st115{fill:#DF765C;}
	.st116{fill:#9D3122;}
	.st117{fill:#E07B60;}
	.st118{fill:#B53A2A;}
	.st119{fill:#C94734;}
	.st120{fill:#A03021;}
	.st121{fill:#DD806B;}
	.st122{fill:#DE8170;}
	.st123{fill:#EAA7A4;}
	.st124{fill:#E5D6D2;}
	.st125{fill:#F0A7B4;}
	.st126{fill:#A06267;}
	.st127{fill:#9F6467;}
	.st128{fill:#BA544F;}
	.st129{fill:#D69578;}
	.st130{fill:#DDA792;}
	.st131{fill:#91443A;}
	.st132{fill:#9B5148;}
	.st133{fill:#E7A2A9;}
	.st134{fill:#8C411D;}
	.st135{fill:#9E5029;}
	.st136{fill:#6F2913;}
	.st137{fill:#A9594A;}
	.st138{fill:#C07161;}
	.st139{fill:#5F801B;}
	.st140{fill:#409658;}
	.st141{fill:#AF665A;}
	.st142{fill:#712912;}
	.st143{fill:#CE847C;}
	.st144{fill:#B05932;}
	.st145{fill:#C97D71;}
	.st146{fill:#DF8551;}
	.st147{fill:#E58751;}
	.st148{fill:#834023;}
	.st149{fill:#8B431F;}
	.st150{fill:#E68751;}
	.st151{fill:#9E5A51;}
	.st152{fill:#EED4C6;}
	.st153{fill:#E1C5B0;}
	.st154{fill:#CDB3A1;}
	.st155{fill:#ECC0A2;}
	.st156{fill:#F4DECE;}
	.st157{fill:#F1D3BF;}
	.st158{fill:#DFBE94;}
	.st159{fill:#F1B6A8;}
	.st160{fill:#D36A74;}
	.st161{fill:#F5AEAD;}
	.st162{fill:#F1B1AE;}
	.st163{fill:#CC404E;}
	.st164{fill:#D55E66;}
	.st165{fill:#CB6A6C;}
	.st166{fill:#F4D8C3;}
	.st167{fill:#F5AEAB;}
	.st168{fill:#F27F89;}
	.st169{fill:#F4CCC0;}
	.st170{fill:#EE5A6D;}
	.st171{fill:#EDC8B4;}
	.st172{fill:#CD968B;}
	.st173{fill:#D29F93;}
	.st174{fill:#F2DCC5;}
	.st175{fill:#E2C5C5;}
	.st176{fill:#EE7D79;}
	.st177{fill:#EB6765;}
	.st178{fill:#DB4144;}
	.st179{fill:#F39E96;}
	.st180{fill:#F58A84;}
	.st181{fill:#EC6967;}
	.st182{fill:#E05656;}
	.st183{fill:#D42C2C;}
	.st184{fill:#D93435;}
	.st185{fill:#F2A19A;}
	.st186{fill:#F3AFA9;}
	.st187{fill:#E47875;}
	.st188{fill:#C94442;}
	.st189{fill:#E45F56;}
	.st190{fill:#F2E6E0;}
	.st191{fill:#F0E0D3;}
	.st192{fill:#F3D7CF;}
	.st193{fill:#F2D5CB;}
	.st194{fill:#F1D2C5;}
	.st195{fill:#EFE4DD;}
	.st196{fill:#F2DBD4;}
	.st197{fill:#F5D5C5;}
	.st198{fill:#F3C8B8;}
	.st199{fill:#F1C3B8;}
	.st200{fill:#F4CFBC;}
	.st201{fill:#F3C9BD;}
	.st202{fill:#F4C9BD;}
	.st203{fill:#F4D1C5;}
	.st204{fill:#F2B7A9;}
	.st205{fill:#F4D2C6;}
	.st206{fill:#F4CFBD;}
	.st207{fill:#F2C5B9;}
	.st208{fill:#F3C7B8;}
	.st209{fill:#F4CCBF;}
	.st210{fill:#F2CEBE;}
	.st211{fill:#F3BDAD;}
	.st212{fill:#F2B2A2;}
	.st213{fill:#F4B8A7;}
	.st214{fill:#F5B3A1;}
	.st215{fill:#F0B6A8;}
	.st216{fill:#F3B7AD;}
	.st217{fill:#F19787;}
	.st218{fill:#F28F7C;}
	.st219{fill:#F2C9B5;}
	.st220{fill:#EEAE9A;}
	.st221{fill:#F5928B;}
	.st222{fill:#F5968C;}
	.st223{fill:#F6B5A5;}
	.st224{fill:#F38F85;}
	.st225{fill:#F5988B;}
	.st226{fill:#F2B39C;}
	.st227{fill:#F0BA9D;}
	.st228{fill:#F1B39C;}
	.st229{fill:#EF9189;}
	.st230{fill:#EF9A90;}
	.st231{fill:#E59489;}
	.st232{fill:#EEAB9A;}
	.st233{fill:#F1A195;}
	.st234{fill:#A2C5C5;}
	.st235{fill:#8AADAC;}
	.st236{fill:#B17139;}
	.st237{fill:#AB6B4B;}
	.st238{fill:#BF7D60;}
	.st239{fill:#C98426;}
	.st240{fill:#C6743C;}
	.st241{fill:#CEAA83;}
	.st242{fill:#C8662A;}
	.st243{fill:#AA6B4B;}
	.st244{fill:#EEE166;}
	.st245{fill:#CC5A40;}
	.st246{fill:#CEAA82;}
	.st247{fill:#C1573E;}
	.st248{fill:#3A9656;}
	.st249{fill:#46A35F;}
	.st250{fill:#44A160;}
	.st251{fill:#288245;}
	.st252{fill:#4C345B;}
	.st253{fill:#6F5182;}
	.st254{fill:#382447;}
	.st255{fill:#482D59;}
	.st256{fill:#56386B;}
	.st257{fill:#A85C36;}
	.st258{fill:#FAE19C;}
	.st259{fill:#B5DAD7;}
	.st260{fill:#F2E3C1;}
	.st261{fill:#F6E2AF;}
	.st262{fill:#F7D989;}
	.st263{fill:#E5A045;}
	.st264{fill:#F8E28F;}
	.st265{fill:#F9E198;}
	.st266{fill:#F2B22C;}
	.st267{fill:#F3B124;}
	.st268{fill:#C68226;}
	.st269{fill:#E09E46;}
	.st270{fill:#E2C888;}
	.st271{fill:#D3CA23;}
	.st272{fill:#DDB3B1;}
	.st273{fill:#165229;}
	.st274{fill:#E4E4E4;}
	.st275{fill:#DCDEBD;}
	.st276{fill:#DABBB4;}
	.st277{fill:#BAAF24;}
	.st278{fill:#BA5138;}
	.st279{fill:#9B3C2C;}
	.st280{fill:#D86F6A;}
	.st281{fill:#B4B3B3;}
	.st282{fill:#C8B167;}
	.st283{fill:#F8D776;}
	.st284{fill:#E34340;}
	.st285{fill:#A36720;}
	.st286{fill:#F0E3C5;}
	.st287{fill:#C17B1B;}
	.st288{fill:#E5A65C;}
	.st289{fill:#E2A14B;}
	.st290{fill:#CAE4E1;}
	.st291{fill:#97C4BF;}
	.st292{fill:#80AAA4;}
	.st293{fill:#C5DFDB;}
	.st294{fill:#ABC9C4;}
	.st295{fill:#A8453C;}
	.st296{fill:#35180D;}
	.st297{fill:#F76253;}
	.st298{fill:#69210D;}
	.st299{fill:#8E2614;}
	.st300{fill:#822914;}
	.st301{fill:#F1E99F;}
	.st302{fill:#CEBB31;}
	.st303{fill:#F7F8DB;}
	.st304{fill:#D3E8E5;}
	.st305{fill:#BFDCD6;}
	.st306{fill:#441D11;}
	.st307{fill:#726933;}
	.st308{fill:none;stroke:#726933;stroke-width:0.5;stroke-miterlimit:10;}
	.st309{fill:none;stroke:#726933;stroke-width:2;stroke-miterlimit:10;}
	.st310{fill:#736933;}
	.st311{fill:#E4955E;}
	.st312{fill:#CE763A;}
	.st313{fill:#F5AC79;}
	.st314{fill:#D3C4C1;}
	.st315{fill:#E9D8D4;}
	.st316{fill:#A8112E;}
	.st317{fill:#5E5655;}
	.st318{fill:#F2EDD3;}
	.st319{fill:#D6C7C4;}
	.st320{fill:#EBDFDC;}
</style>
<g>
	<g>
		<g>
			<path class="st97" d="M11.7,138.7c0.4,1,0.8,2,1.3,3c0.1,0.3,0.3,0.7,0.4,1c0.2-0.4,0.5-0.4,0.8-0.3c-0.3-0.1-0.6-0.1-0.8,0.3
				c0.3,0.6,0.5,1.3,0.8,1.9c0.4-0.1,0.3,0.3,0.4,0.5c0.3,0.5,0.3,1.3,0.9,1.7c-0.1-0.2-0.2-0.3-0.2-0.5c0,0.2,0.2,0.3,0.2,0.5
				c1.1,2.3,2.6,4.5,4.1,6.6c1.6,2.3,3.4,4.5,5.4,6.5c2.7,2.9,5.7,5.5,8.9,7.9c2.1,1.5,4.3,2.9,6.5,4.2c1.9,1.1,3.8,2.1,5.8,2.9
				c2.3,0.9,4.6,2,7,2.7c1.5,0.5,3.1,0.9,4.7,1.3c2.6,0.7,5.1-1.1,6.8-1.1c3.5,0,9.3,3.7,13.6,3.6c3-0.1,5.7-0.9,8.7-1.3
				c2.4-0.3,5.1-0.1,7.5-0.8c2-0.6,4-1.2,6-1.9c1.4-0.5,2.7-0.9,4-1.6c2.7-1.4,5.4-2.8,7.9-4.5c2.4-1.6,4.6-3.3,6.8-5.2
				c4.1-3.7,7.7-7.8,10.4-12.7c1.8-3.2,3-6.7,4-10.3c1.3-4.5,0.7-8.5,1.4-13c0.5-3.3,2.9-7.5,3.2-10.7c0.4-3.7-2.4-6.3-2.1-10.1
				c0.2-2.7,0.7-7.1,0.5-9.9c-0.3-2.7,1.2-4.6,0.5-7.3c-0.7-2.5-1.6-5-2.7-7.3c-2.1-4.4-4.8-8.5-8.2-12c-3.8-3.9-8.2-7-13.4-8.8
				c-1.1-0.4-2.2-0.7-3.3-0.9c-0.7-0.1-1.7-3.5-2.1-3.9c-2.1-1.8-9.1-3.5-9.6-3.7c0,0,0,0,0,0c-0.4-0.2-1.6-1-1.9-1.1
				c0,0-3.2-2.7-4.5-3.1c-3.8-1.3-8.3-0.7-12.3-0.1c-0.7,0.1-1.4,0.3-2.1,0.5c-0.6,0.2-1-0.3-1.4-0.5c-3.5-2.2-7.3-3.2-11.4-3.5
				c-2.8-0.2-5.6,0.2-8.3,1c-1.2,0.3-2.5,0.6-3.7,1.2c0,0-0.1-0.1-0.2-0.1c-1.4,0.6-2.8,1.2-4.2,1.8c-0.4,0.6-1.1,0.7-1.6,1.1
				c-1.1,0.8-2.2,1.5-3.1,2.4c-0.3,0.3-0.6,0.4-0.9,0.5c-2,0.8-4,1.6-5.8,2.7c-3.4,2-6.5,4.3-9.2,7.2c-1.3,1.4-2.5,3-3.7,4.5
				c-1.3,1.6-1.7,3.5-2.2,5.4c-0.9,3.5-1.8,7-2.7,10.5c-0.9,3.2-1.6,6.4-2.4,9.6c-1.1,4.3-0.4,8.7-1.4,13.1c-0.7,3-3.1,5.8-3.6,8.8
				c-0.5,2.6-1,5.2-1.4,7.8c-0.3,2.3-0.1,4.7,0.3,7c0.4,2.2,0.9,4.3,1.8,6.3C11.8,138.5,11.8,138.6,11.7,138.7z M96.3,55.2
				c-0.1,0.2-0.1,0.3,0,0.6c0,0,0,0,0,0.1C96.1,55.7,96.1,55.5,96.3,55.2z M96.9,55.9 M97.1,58.1c0.9,0,1.3-0.1,1.6-0.4
				c-0.3,0.4-0.7,0.5-1.4,0.5C97.2,58.1,97.1,58.1,97.1,58.1z M96.8,58.3c0-0.1,0-0.1,0-0.2c0-0.1,0.1-0.1,0.1-0.1
				C96.9,58,96.9,58.1,96.8,58.3C96.8,58.2,96.8,58.2,96.8,58.3z M95.6,55.3c0,0.3,0.1,0.7,0.2,1c0,0,0-0.1-0.1-0.1
				C95.6,55.8,95.6,55.6,95.6,55.3z M96.4,57.6c0,0.1,0.1,0.2,0.1,0.2c0,0.1,0,0.2-0.1,0.3c0,0,0,0,0-0.1
				C96.4,57.9,96.4,57.8,96.4,57.6z M96.5,58.5C96.5,58.5,96.5,58.5,96.5,58.5C96.6,58.6,96.6,58.6,96.5,58.5
				C96.5,58.5,96.5,58.5,96.5,58.5z M15.6,145.1c0-0.1,0-0.2,0.1-0.2c0.1-0.4,0.2-0.7,0.3-1.1C15.8,144.2,15.7,144.7,15.6,145.1z
				 M15.6,145.2c-0.1,0.3-0.2,0.5-0.2,0.8C15.4,145.7,15.5,145.4,15.6,145.2z"/>
			<path class="st123" d="M135.2,87.3c-3.1-6.4-6.4-12-10.6-17c-2.5-3.1-5.2-6-8.1-8.4c-3.7-3.1-7.6-5.7-11.8-6.7
				c-2.1-0.5-4,0.1-5.8,1.2c-2.2,1.4-3.6,3.6-4.3,6.4c-0.6,2.2-0.1,4.5,1.2,6.8c2,3.3,4.6,6,6.8,9c1.9,2.6,3.2,5.3,3.8,8.5
				c0.8,3.9,3,6.8,6,8.8c3.6,2.3,7.2,2.9,10.9,3.3c2.3,0.2,4.5,0.1,6.5-0.8c2.6-1.2,4.2-3.5,5.2-6.7c0.1-0.4,0.2-0.8,0.3-1.1
				C135.8,89.4,135.9,88.2,135.2,87.3z"/>
			<path class="st123" d="M49.7,68.9c6-2.5,11.7-4.1,17.6-4.6c5.5-0.4,9.8-3.1,13.6-6.6c3.2-3,3.5-5.7,2.4-8.3
				c-0.7-1.5-2.1-2.3-4-2.9c-4.2-1.2-8.8-1.5-13.8-0.9c-3,0.3-6,1.1-9,1.9c-4.5,1.2-8.9,3-13.2,5c-3.4,1.6-6.7,3.4-8.4,6.3
				c-1.9,3.2-2.5,6.2-0.9,8.7c2,3.2,4.9,4.5,10.9,3.2C46.6,70.3,48.4,69.7,49.7,68.9z"/>
			<path class="st124" d="M26,73.8c0.3,0.3,0.3,0,0.4-0.2c1.4-1.4,3.1-2.6,4.7-3.7c2.8-1.9,5.8-3.1,8.9-4.4c-0.2-1.4-0.3-2.7,0-4.4
				C34.1,64.2,29.4,68.3,26,73.8z"/>
			<path class="st125" d="M39,80.2c0.1-0.3-0.1-0.5-0.3-0.7c-0.7-0.7-0.8-1.1-0.1-2c0.7-0.9,1.3-1.8,2-2.7c0.2-0.3,0.4-0.7,0.1-0.9
				c-0.2-0.1-0.6,0.1-0.8,0.4c-0.4,0.6-0.9,1.3-1.3,1.9c-0.1,0.1-0.1,0.3-0.3,0.3c-0.1,0-0.2-0.2-0.2-0.4c-0.1-0.7-0.1-1.4-0.2-2.1
				c0-0.4-0.1-0.9-0.6-0.9c-0.6,0-0.3,0.6-0.2,0.9c0.3,1.9,0.2,3.8,0.8,5.6C38.2,79.7,38.3,80.5,39,80.2z"/>
			<path class="st126" d="M115.4,100c0.4,0.1,0.7,0.1,1.1,0.2c-0.4-1.1,0.7-0.7,1.1-1c0.1-0.1,0.6,0.1,0.6-0.2
				c0-0.3-0.5-0.4-0.8-0.3c-0.8,0.2-1.6,0.4-1.8,1.4C115.5,99.9,115.4,100,115.4,100z"/>
			<path class="st127" d="M259.3,227.5c0.3-0.2,0.6-0.4,0.7-0.7c-0.8,0.1-0.6-0.4-0.4-0.8c0.3-0.6,0.9-0.6,1.5-0.7
				c0.1,0,0.4,0.3,0.4-0.2c0-0.4-0.2-0.2-0.3-0.3c-1.3-0.1-2.3,0.5-2.2,1.5C258.9,226.8,259.4,227,259.3,227.5z"/>
			<path class="st98" d="M22,98.6c2.7,4.4,5.8,8.3,8.9,12.4c1.5,1.9,3.4,3.5,4.7,5.6c2.4,2,4.6,4.2,7.2,5.7c1.7,1,3.4,1.9,5.1,2.6
				c0.1,0.2,0.3,0.3,0.4,0.5c0.2,0.3,0.7,0.2,0.7,0.7c2.6,1.2,5,2.7,7.5,4.1c0.3,0.1,0.5,0.3,0.8,0.5c-2.7-1.5-5.4-2.9-8.2-4.4
				c0,1.3,0.7,2.3,1.4,3.3c1.5,2.1,3.3,3.9,5.4,5.4c2.9,2,6,3.4,9.3,4.2c2.1,0.5,4.2,0.5,6.3,0.4c0.5,0,0.4-0.2,0.3-0.5
				c1.6,1,3.4,0.9,5.1,1.3c8.4,3.8,16.4-2.8,16.4-2.8c12-6,19.4-5.6,22.1-4.8c0,0,2.9,2,2.9,2c0.2,0.5,0.4-2.1,0.7-2.2
				c1.4-0.4,2.6,1.1,3.9,0.4c1.5-0.8,3-1.5,4.3-2.5c0.7-0.5,1.4-0.9,2.1-1.4c0.6-0.3,0.8-2.9,0.8-3.7c1.2-1.4,2.2-0.9,3.2-2.4
				c1.5-2.3,2.7-4.7,4.1-7.1c0.4-0.7,0.7-7.9,0.5-10.4c-0.5-4,0.2-7.6-0.6-11.6c-0.1-0.6-1.2-5-1.4-5.6c-1.2,0.4-2.5,4.2-3.8,5.2
				c-1.2,0.8-3.7,0.7-5.6,0.7c-1.3,0-2.7-0.2-4-0.3c-0.4-0.2-0.8,0-1.2-0.2c-2.1-0.4-4.3-0.9-6.2-1.9c-1.7-0.8-3.2-1.8-4.4-3.2
				c-1.8-2.1-2.7-4.6-3-7.3c-0.1-1-0.6-1.9-1.2-2.7c-1.8-2.4-4.3-4.2-6.3-6.4c-2.4-2.6-3.3-5.6-2.4-9.1c0.8-3.3,2.7-5.8,5.3-7.8
				c0.1-0.1,0.1-0.2,0.2-0.2c-0.6-0.8-1.6-1-2.4-1.4c-3.7-1.8-7.6-3-11.7-3.9c-1.9-0.4-3.8-0.5-5.7-0.7c-0.1,1.6-0.2,3.2-0.8,4.8
				c-0.9,2.2-2.4,3.8-4.2,5.3c-1,0.8-2.1,1.5-3.2,2c-2.2,1.1-4.6,1.4-7.1,1.1c-2.3-0.3-4.6-0.3-6.8,0.3c-1.9,0.5-3.7,1.5-5.6,2.3
				c-2.2,1-4.6,1.3-7,0.9c-2.9-0.5-5.2-2.1-7-4.4c-1.4-1.8-2.2-3.8-2.7-5.9c-1.4,0.6-2.7,1.1-4.1,1.7c-3.4,1.5-6.5,3.4-9.3,5.8
				c-0.5,0.4-1.1,0.8-1.5,1.5c-0.1,0.2-0.2,0.2-0.4,0c-0.1,0.4-4,4.6-4.9,7.6c-1.3,4.7-1.8,9.6-1.2,14.7
				C17.9,91.1,19.8,94.9,22,98.6z M64.1,134.3c1.6,0.9,3.1,1.8,4.7,2.7c1,0.6,2,1.3,3,1.9C69.2,137.4,66.7,135.8,64.1,134.3z"/>
			<path class="st117" d="M101.8,122.2c-3.1,0.1-5.8,1.3-8.4,2.7c-2.1,1.1-4.3,1.9-6.4,2.9c0,0-0.1,0-0.1,0
				c-0.3,0.3-1.1-0.1-1.1,0.4c0,0.5,0.7,0.7,1.2,1c1.9,1,4,1.2,6.1,0.8c2.7-0.6,5-1.8,6.8-3.9C100.7,124.9,101.4,123.6,101.8,122.2z
				"/>
			<path class="st117" d="M101,140.8c-2.1-0.5-4.1-0.2-6.1,0.3c-1.8,0.5-3.5,1.3-5,2.3c-0.3,0.2-0.7,0.4-0.7,0.7
				c0,0.2,0.5,0.4,0.8,0.6c3.4,1.3,7.9,0.3,10.1-2.6C100.5,141.7,100.4,141.1,101,140.8z"/>
			<path class="st123" d="M39.6,105.4c-1.5-3.6-3.7-6.8-6.2-9.8c-0.3-0.3-0.6-0.7-0.9,0.1C32,97,32,98.4,32.3,99.8
				c0.8,3.6,3.1,5.9,6.3,7.5c0.5,0.3,1.3,0.6,1.7,0.3c0.5-0.4-0.3-0.9-0.4-1.5C39.9,105.9,39.7,105.6,39.6,105.4z"/>
			<path class="st97" d="M109,76.2c0.3,1,1.2,1.7,1.9,2.4c2.3,2.3,4.4,4.9,6.6,7.3c0.3,0.3,0.6,0.8,0.9,0.7c0.4-0.1,0.5-0.7,0.6-1.2
				c0.7-4.9-3.1-9.3-7.8-9.6C110.4,75.9,109.7,76,109,76.2z"/>
			<path class="st97" d="M65.4,60.4c0.2-0.1,0.3-0.2,0.5-0.2c1.2-0.1,1-0.3,0.3-1.1c-1.4-1.3-3.1-1.5-4.8-1.5
				c-2.5,0.1-4.4,1.3-5.7,3.4c-0.5,0.8-0.4,1,0.5,1.1c2,0.2,3.9-0.1,5.8-0.8C63.1,61,64.3,60.8,65.4,60.4
				C65.4,60.4,65.4,60.4,65.4,60.4z"/>
			<g>
				<path class="st128" d="M15.5,146.8c0-0.2-0.2-0.3-0.2-0.5C15.3,146.4,15.4,146.6,15.5,146.8z"/>
				<path class="st128" d="M13.4,142.7c0.2-0.4,0.5-0.4,0.8-0.3C13.9,142.3,13.6,142.3,13.4,142.7z"/>
				<path class="st128" d="M26.5,107.6c-0.6-0.9-1.2-1.8-1.8-2.7c-0.1,2.1,0,4.2,0.2,6.3C25.8,110.2,26.2,108.9,26.5,107.6z"/>
				<path class="st128" d="M15.7,144.9c0,0.1,0,0.2-0.1,0.2c0.1-0.4,0.2-0.9,0.4-1.3C15.8,144.2,15.7,144.5,15.7,144.9z"/>
				<path class="st128" d="M15.6,145.2c-0.1,0.3-0.2,0.5-0.2,0.8C15.4,145.7,15.5,145.4,15.6,145.2z"/>
				<path class="st128" d="M11.7,138.7c0.4,1,0.8,2,1.3,3c0.1,0.3,0.3,0.7,0.4,1c0.2-0.4,0.5-0.4,0.8-0.3c-0.3-0.1-0.6-0.1-0.8,0.3
					c0.3,0.6,0.5,1.3,0.8,1.9c0.4-0.1,0.3,0.3,0.4,0.5c0.3,0.5,0.3,1.3,0.9,1.7c-0.1-0.2-0.2-0.3-0.2-0.5c0,0.2,0.2,0.3,0.2,0.5
					c1.1,2.3,2.6,4.5,4.1,6.6c1.6,2.3,3.4,4.5,5.4,6.5c0.1,0.1,0.1,0.1,0.2,0.2c0-0.2,0-0.4,0-0.7c-0.4-15,6.6-28.6,10.5-42.9
					c0,0-2.7-3.3-2.7-3.3c-2.1-2.7-3.2-3.6-5.1-6.4c-0.2,1.3-7-8.9-7.4-12.7c-0.3-2.4-2.3-9.2-3.3-8.6c-0.9,0.5-0.6,8.2-1,9.7
					c-0.9,14.2-5.6,15.7-7.8,29.8c0.1,0.3,3.3,13.1,3.4,13.4C11.8,138.5,11.8,138.6,11.7,138.7z M15.6,145.1c0-0.1,0-0.2,0.1-0.2
					c0.1-0.4,0.2-0.7,0.3-1.1C15.8,144.2,15.7,144.7,15.6,145.1z M15.6,145.2c-0.1,0.3-0.2,0.5-0.2,0.8
					C15.4,145.7,15.5,145.4,15.6,145.2z"/>
				<path class="st128" d="M45.4,123.7c-2.3-1.3-6.4-4.3-8.4-6c-4.8,14.9-6.3,33.9-4.5,49c0.5,0.4,1,0.8,1.5,1.1
					c2.1,1.5,4.3,2.9,6.5,4.2c1.2,0.7,2.4,1.4,3.7,2c0.4-7.6,4.2-15.1,2-21.8c-2.9-8.6,3.1-25.9,3-26
					C47.5,125.5,46.9,124.6,45.4,123.7z"/>
			</g>
			<path class="st123" d="M57.1,95.6c-0.4-1.2-0.8-2-1-2.9c-0.4-2-0.3-4,0.5-5.9c1.3-3,3.6-5.1,6.4-6.6c2.8-1.5,5.9-2.6,9.1-3
				c3.4-0.4,6.8-0.1,10,1.1c3.1,1.2,5.7,3,8.1,5.3c1.7,1.7,3.2,3.7,4.1,5.9c0.7,1.5,1,3.2,0.6,5c-0.6,2.7-1.8,5-3.5,6.9
				c-2.3,2.6-5.4,4-8.7,4.8c-2.4,0.6-4.9,0.8-7.4,0.5c-2.2-0.3-4.5-0.6-6.6-1.5c-2.9-1.1-5.5-2.6-7.8-4.9
				C59.2,98.9,57.7,97.4,57.1,95.6z"/>
			<path class="st97" d="M79.8,88.9c-1.1-0.9-2.5-1.3-3.8-1.6c-1.7-0.4-3.4,0-5,0.6c-1.3,0.6-2.6,1.4-3.4,2.8
				c-0.3,0.5-0.3,0.6,0.3,0.6c2,0.2,3.9,0.5,5.9,0.5c2.4,0,8.4-0.1,8.1-0.3c-0.3-0.2-0.5,0-0.6,0.3C81.1,92.2,80.1,89.9,79.8,88.9z"
				/>
			<path class="st123" d="M74.5,166.3c0.1,1.1-0.5,1.9-1,2.8c-0.7,1.4-1.3,2.9-1.9,4.4c-0.5,1.2-1.1,2.4-1.7,3.6
				c1.5,0.5,3.1,0.5,4.7,0.5c2.8,0.1,5.5,0.1,8.3-0.1c3.1-0.2,6.2-0.7,9.2-1.4c2-0.4,3.9-1.2,5.8-1.7c1.6-0.4,1.9-1.3,2.1-2.7
				c0.7-3.3,1.6-6.6,2.4-9.9c0.7-2.8,1.3-5.6,2-8.4c1.3-5.8,2.4-11.6,3.5-17.5c0.6-3.2,1.2-6.4,1.3-9.7c0-2.2-0.3-4.4-1.6-6.4
				c-1.1-1.8-2.3-3.5-3.7-5.1c-1.6-1.8-3-2.5-5.6-1.4c-2,0.9-3.8,2.2-5.7,3.2c-1.5,0.8-3.1,1.4-4.7,1.9c-2.3,0.7-4.7,0.4-7,0.9
				c-2.7,0.6-4.9,1.8-6,4.6c-0.5,1.2-0.3,2.5,0.1,3.7c0.6,2,2,3.5,3.1,5.2c2,3,3.9,6.1,4.3,9.8c0.2,1.7-0.1,3.3-0.7,4.9
				c-0.9,2.7-2,5.4-2.9,8.1c-1.1,3.1-2.5,6-3.7,9C74.8,165.2,74.9,165.9,74.5,166.3z"/>
			<path class="st123" d="M123.4,131.1c-4.2,1.8-5.9,1.7-8.1,1.7c-2.4-0.1-4.3,1.9-3.9,4.3c0.5,2.8-0.1,6.4-0.4,7.9
				c-0.6,2.2-0.9,4.4-1.5,6.5c-0.6,2-1.1,4.1-1.7,6.2c-0.8,2.8-1.7,5.5-2.4,8.3c-0.4,1.6-0.9,3.3-1.6,4.8c-0.2,0.4-0.3,0.8-0.3,1.5
				c1.7-0.9,3.2-1.6,4.7-2.5c1.6-1,3.2-2,4.7-3.1c1.7-1.3,3.4-2.6,5-4.1c1.6-1.6,3.2-3.1,4.6-4.9c0.8-1.1,1.6-2.2,2.4-3.3
				c-0.2-0.6,0.2-1.2,0.3-1.7c0.4-1.9,0.8-3.8,1.2-5.7c0.6-2.6,1.2-5.2,1.6-7.8c0.8-4.5,1.7-9.1,2.1-13.6c-0.4,0.2-0.7,0.5-1,0.8
				C128,127.7,123.6,131,123.4,131.1z"/>
		</g>
		<path class="st123" d="M25.4,77.9c1.1,2.4-2.3,3.2-5,3.9c-1.4,7.9,14.1-0.1,11,9c-0.6,1.9,8.3,2.5,9.3,0.7
			c4.4-7.9,10.4-8.1,17.6-8.7c1.5-0.1,5-0.9,4.2-2.7c-1.7-3.5-3.7,0.1-8.5-0.6c-3.8-0.6,0.9-2.1,3.1-3.2c-3.8-6-13.7-2-17.4-1.1
			c-1.3,0.3-5-2-6.3-4.5L25.4,77.9z"/>
		<path class="st123" d="M59.9,138.3c-4.6-1.1-8.6-2.6-12.4-4.9c-2.3-1.4-4.5-3-6.5-4.9c-2.5-2.4-4.6-5.1-5.7-8.5
			c-0.6-1.7-0.4-3.4,0.1-5.2c0.7-2.2,2-3.9,3.7-5.2c1.4-1,3-1.2,4.6-0.6c2.4,0.9,4.4,2.5,6.7,3.7c1.9,1,3.8,1.5,6,1.2
			c2.7-0.3,4.8,0.9,6.5,3c1.9,2.5,2.7,5.5,3.4,8.5c0.4,1.9,0.6,3.8,0.2,5.7c-0.5,2.5-1.9,4.4-3.8,6c-0.2,0.2-0.5,0.3-0.7,0.5
			C61.3,138.3,60.6,138.6,59.9,138.3z"/>
		<path class="st123" d="M96.9,115.4c-2.4-1-3.9-0.5-6.3,0.9c-6.7-4.5,9.9-10.1,1.2-14.2c-1.8-0.9,4-7.7,6-7.1
			c8.7,2.4,13.1-1.9,18.5-6.6c1.1-1,4.1-3,4.8-1.1c1.3,3.7-2.7,2.6-5.5,6.5c-2.2,3.1,2.1,0.8,4.5,0c1.7,6.9-8,11.2-11.4,13.3
			C107.5,107.7,107.5,119.8,96.9,115.4z"/>
		<path class="st97" d="M42.7,117.4c1.1,0.1,1.9,0.8,2.8,1.3c2.8,1.8,5.7,3.3,8.5,4.9c0.4,0.2,0.9,0.4,0.9,0.7
			c-0.1,0.4-0.6,0.6-1.1,0.8c-4.7,1.7-9.8-1.1-11-5.7C42.6,118.9,42.7,118.2,42.7,117.4z"/>
	</g>
	<g>
		<g>
			<path class="st97" d="M286.3,227c1.5-3.1,2.3-6.5,2.9-9.9c0.7-3.6,1-7.2,0.5-10.8c-0.6-4.1-1.4-8.1-2.2-12.1
				c-0.9-4.6-4.6-9.1-5.7-13.7c-1.6-6.7-0.5-13.6-2.2-20.3c-1.3-5-2.4-10-3.7-14.9c-1.5-5.4-2.8-10.9-4.2-16.4
				c-0.8-3-1.5-5.9-3.5-8.4c-1.9-2.4-3.6-4.8-5.7-7.1c-4.2-4.5-9.1-8-14.4-11.2c-2.9-1.7-6-2.9-9.1-4.2c-0.5-0.2-1-0.4-1.4-0.8
				c-1.4-1.5-3.2-2.6-4.9-3.8c-0.8-0.6-2-0.7-2.6-1.6c-2.2-0.9-4.4-1.8-6.5-2.8c-0.1,0.1-0.3,0.2-0.3,0.2c-1.8-0.9-3.8-1.3-5.7-1.8
				c-4.3-1.2-8.6-1.8-13-1.5c-6.3,0.4-12.3,2-17.7,5.4c-0.6,0.4-1.1,1.2-2.1,0.9c-1.1-0.4-2.2-0.6-3.3-0.8c-6.2-1-13.3-1.9-19.2,0.1
				c-2,0.7-6.9,4.9-7,4.9c-0.5,0.1-2.4,1.3-2.9,1.6c0,0,0,0,0,0c-0.7,0.4-11.6,3-14.9,5.8c-0.8,0.7-2.3,5.9-3.3,6.1
				c-1.8,0.2-3.5,0.8-5.2,1.3c-8.1,2.8-15,7.6-20.9,13.7c-5.3,5.5-9.5,11.8-12.8,18.7c-1.7,3.7-3.2,7.5-4.3,11.4
				c-1.1,4.1,1.1,7,0.7,11.3c-0.4,4.3,0.5,11.1,0.7,15.4c0.4,5.8-3.9,9.8-3.3,15.7c0.6,5.1,4.2,11.6,5,16.7
				c1.1,7.1,0.2,13.3,2.3,20.3c1.6,5.5,3.5,10.9,6.3,16c4.2,7.6,9.8,14,16.2,19.8c3.3,3,6.9,5.6,10.5,8.1c3.9,2.7,8.1,4.9,12.3,7
				c2,1,4.1,1.7,6.2,2.4c3.1,1.1,6.3,2,9.4,3c3.7,1.1,7.9,0.7,11.7,1.3c4.6,0.7,8.8,2,13.5,2.1c6.6,0.1,15.7-5.6,21.2-5.6
				c2.7,0,6.6,2.7,10.6,1.7c2.4-0.6,4.9-1.3,7.3-2c3.8-1.2,7.3-2.8,10.9-4.3c3.1-1.2,6.1-2.8,9-4.5c3.5-2.1,6.9-4.2,10.2-6.6
				c5-3.7,9.6-7.8,13.9-12.2c3.1-3.2,5.8-6.6,8.4-10.2c2.3-3.3,4.6-6.6,6.4-10.3c0.1-0.3,0.2-0.5,0.3-0.8c0,0.3-0.1,0.5-0.3,0.8
				c0.9-0.6,0.9-1.8,1.4-2.6c0.2-0.2,0-0.8,0.6-0.7c0.4-1,0.8-2,1.3-3c-0.4-0.6-0.8-0.6-1.3-0.5c0.5-0.2,0.9-0.1,1.3,0.5
				c0.2-0.5,0.5-1.1,0.7-1.6c0.7-1.5,1.3-3.1,2-4.6C286.2,227.3,286.2,227.2,286.3,227z M154.7,98.5c0,0,0-0.1,0.1-0.1
				c0.2-0.4,0.2-0.7,0-0.9C155.1,97.8,155,98.3,154.7,98.5z M153.7,98.5 M153.2,102c-1,0.1-1.7-0.2-2.2-0.7c0.4,0.4,1.1,0.6,2.5,0.6
				C153.4,101.9,153.3,102,153.2,102z M153.8,102.1c0-0.2-0.1-0.3-0.2-0.3c0.1,0,0.2-0.1,0.2,0.1C153.8,102,153.8,102.1,153.8,102.1
				C153.8,102.1,153.8,102.1,153.8,102.1z M155.5,98.9c0,0.1-0.1,0.1-0.1,0.2c0.2-0.5,0.3-1,0.4-1.5C155.8,98,155.7,98.4,155.5,98.9
				z M154.5,101.9C154.5,101.9,154.6,101.9,154.5,101.9c-0.1-0.1-0.1-0.2-0.1-0.3c0-0.1,0.1-0.3,0.1-0.4
				C154.5,101.4,154.5,101.6,154.5,101.9z M154.4,102.6C154.2,102.7,154.2,102.7,154.4,102.6C154.4,102.6,154.4,102.6,154.4,102.6
				C154.4,102.6,154.4,102.6,154.4,102.6z M279.8,235.4c0.2,0.5,0.4,1.1,0.5,1.6c0,0.1,0.1,0.2,0.1,0.4
				C280.2,236.7,280,236.1,279.8,235.4z M280.8,238.8c-0.1-0.4-0.3-0.8-0.4-1.3C280.5,237.9,280.7,238.3,280.8,238.8z"/>
			<path class="st123" d="M94.1,147.4c4.8-10,10-18.7,16.4-26.5c4-4.8,8.1-9.3,12.6-13.1c5.8-4.9,11.9-8.9,18.4-10.4
				c3.3-0.8,6.2,0.1,9,1.9c3.5,2.2,5.5,5.6,6.7,10c0.9,3.4,0.2,7.1-1.9,10.5c-3.1,5.1-7.2,9.3-10.7,14.1c-2.9,4-5,8.3-6,13.3
				c-1.2,6.1-4.6,10.7-9.3,13.7c-5.6,3.6-11.3,4.6-16.9,5.1c-3.6,0.3-7,0.2-10.1-1.3c-4-1.9-6.6-5.5-8.1-10.4
				c-0.2-0.6-0.2-1.2-0.4-1.7C93.2,150.7,93.1,148.9,94.1,147.4z"/>
			<path class="st123" d="M227.3,118.8c-9.4-3.9-18.2-6.4-27.4-7.1c-8.5-0.6-15.3-4.8-21.2-10.3c-4.9-4.6-5.5-8.8-3.7-13
				c1-2.3,3.3-3.6,6.2-4.5c6.5-1.8,13.7-2.3,21.5-1.5c4.6,0.5,9.3,1.6,14,2.9c7.1,1.9,13.9,4.7,20.5,7.7c5.3,2.5,10.4,5.3,13.1,9.8
				c2.9,4.9,3.9,9.7,1.5,13.6c-3.1,4.9-7.6,7-17,5C232,120.9,229.3,120,227.3,118.8z"/>
			<path class="st124" d="M264.1,126.3c-0.4,0.5-0.5,0-0.7-0.2c-2.2-2.2-4.8-4-7.3-5.7c-4.3-2.9-9.1-4.8-13.8-6.8
				c0.3-2.1,0.4-4.3,0-6.8C251.6,111.4,258.8,117.8,264.1,126.3z"/>
			<path class="st125" d="M243.9,136.3c-0.2-0.5,0.1-0.8,0.5-1.1c1.2-1,1.2-1.8,0.2-3c-1.1-1.4-2.1-2.8-3.1-4.3
				c-0.3-0.4-0.7-1.1-0.1-1.4c0.4-0.2,1,0.1,1.3,0.6c0.7,1,1.4,2,2.1,2.9c0.1,0.2,0.2,0.5,0.5,0.4c0.2-0.1,0.3-0.4,0.3-0.6
				c0.1-1.1,0.2-2.2,0.3-3.3c0.1-0.6,0.2-1.4,0.9-1.4c0.9,0,0.5,0.9,0.4,1.4c-0.5,2.9-0.2,5.9-1.3,8.7
				C245.2,135.6,245,136.7,243.9,136.3z"/>
			<path class="st126" d="M125,167.2c-0.6,0.1-1.1,0.2-1.7,0.2c0.7-1.7-1.1-1.1-1.7-1.6c-0.1-0.2-1,0.2-0.9-0.4
				c0.1-0.5,0.7-0.6,1.3-0.5c1.3,0.3,2.4,0.6,2.8,2.1C124.7,167.1,124.9,167.1,125,167.2z"/>
			<path class="st98" d="M277.6,146.8c0.9-8,0.2-15.7-1.9-22.9c-1.3-4.7-7.4-11.2-7.6-11.9c-0.2,0.3-0.4,0.2-0.6,0
				c-0.6-0.9-1.5-1.6-2.4-2.3c-4.4-3.6-9.2-6.7-14.5-9c-2.1-0.9-4.2-1.8-6.4-2.7c-0.9,3.3-2.1,6.5-4.3,9.2c-2.8,3.7-6.4,6.1-11,6.9
				c-3.7,0.6-7.4,0.1-10.8-1.4c-2.9-1.3-5.7-2.8-8.7-3.6c-3.4-0.9-7-1-10.6-0.5c-3.8,0.5-7.5,0.1-11-1.6c-1.8-0.9-3.5-1.9-5-3.2
				c-2.7-2.3-5.2-4.8-6.5-8.2c-1-2.4-1.2-4.9-1.3-7.4c-3,0.3-5.9,0.5-8.9,1.1c-6.3,1.3-12.4,3.3-18.2,6c-1.3,0.6-2.8,0.9-3.8,2.1
				c0.1,0.1,0.2,0.3,0.3,0.4c4.1,3.1,7,7,8.3,12.1c1.3,5.4,0,10.1-3.8,14.1c-3.2,3.4-7,6.2-9.8,10c-1,1.3-1.7,2.7-1.9,4.3
				c-0.5,4.3-1.9,8.1-4.7,11.4c-1.9,2.2-4.3,3.7-6.9,5c-3.1,1.5-6.4,2.3-9.7,2.9c-0.6,0.3-1.3,0-1.9,0.3c-2.1,0.2-4.2,0.4-6.3,0.4
				c-3,0-7,0.3-8.8-1c-2-1.5-4-7.4-6-8c-0.3,0.9-2,7.8-2.2,8.7c-1.2,6.1-0.2,11.8-0.9,18c-0.4,3.8,0.1,15.1,0.7,16.1
				c2.1,3.7,4,7.5,6.3,11.1c1.5,2.4,3.2,1.5,5,3.7c0,1.2,0.3,5.2,1.2,5.7c1.1,0.7,2.2,1.4,3.3,2.2c2.1,1.5,4.5,2.6,6.7,3.8
				c2,1,3.9-1.4,6-0.7c0.4,0.1,0.9,4.2,1.1,3.4c0,0,4.5-3.1,4.5-3.1c4.2-1.3,15.7-1.9,34.4,7.4c0,0,12.5,10.2,25.6,4.3
				c2.6-0.6,5.5-0.6,7.9-2.1c-0.2,0.5-0.3,0.7,0.5,0.7c3.3,0.1,6.6,0.1,9.8-0.7c5.2-1.2,10.1-3.4,14.5-6.5c3.3-2.3,6-5.2,8.4-8.4
				c1.1-1.5,2.2-3.2,2.2-5.2c-4.3,2.3-8.5,4.5-12.7,6.8c0.4-0.2,0.8-0.5,1.3-0.7c3.9-2.1,7.7-4.4,11.6-6.3c-0.1-0.8,0.7-0.7,1-1.1
				c0.2-0.3,0.4-0.5,0.6-0.7c2.7-1.1,5.3-2.5,8-4.1c4-2.4,7.5-5.8,11.2-8.9c2.1-3.3,5-5.7,7.4-8.7c4.7-6.3,9.7-12.4,13.8-19.3
				C273.8,159.2,276.8,153.4,277.6,146.8z M192.9,227.9c1.6-1,3.1-2.1,4.7-3c2.4-1.4,4.8-2.8,7.3-4.2
				C200.8,223,196.8,225.4,192.9,227.9z"/>
			<path class="st117" d="M146.2,201.7c4.8,0.2,9,2.1,13.1,4.1c3.3,1.7,6.7,2.9,10,4.5c0,0,0.1,0,0.1,0.1c0.5,0.4,1.7-0.2,1.7,0.6
				c0,0.8-1.2,1.1-1.9,1.5c-3,1.6-6.2,1.9-9.4,1.2c-4.1-0.9-7.8-2.8-10.6-6.1C147.8,205.9,146.8,203.9,146.2,201.7z"/>
			<path class="st117" d="M147.3,230.7c3.3-0.7,6.3-0.2,9.4,0.5c2.9,0.7,5.4,2.1,7.8,3.7c0.5,0.3,1.2,0.6,1.1,1.1
				c0,0.3-0.7,0.7-1.2,0.9c-5.3,2-12.3,0.4-15.8-4.1C148.2,232.1,148.2,231.2,147.3,230.7z"/>
			<path class="st123" d="M243,175.5c2.4-5.6,5.7-10.6,9.7-15.2c0.4-0.5,0.9-1,1.3,0.1c0.8,2.1,0.8,4.3,0.4,6.4
				c-1.2,5.6-4.8,9.2-9.8,11.7c-0.8,0.4-2,1-2.7,0.5c-0.7-0.6,0.4-1.5,0.6-2.3C242.6,176.3,242.8,175.9,243,175.5z"/>
			<path class="st97" d="M134.9,130.1c-0.5,1.6-1.8,2.7-2.9,3.8c-3.6,3.7-6.9,7.6-10.2,11.4c-0.4,0.5-1,1.3-1.4,1.1
				c-0.6-0.2-0.8-1.2-0.9-1.9c-1.1-7.6,4.8-14.6,12.2-15C132.7,129.6,133.8,129.8,134.9,130.1z"/>
			<path class="st97" d="M202.8,105.5c-0.3-0.1-0.5-0.3-0.8-0.3c-1.8-0.2-1.6-0.5-0.4-1.6c2.2-2.1,4.8-2.4,7.5-2.3
				c3.9,0.2,6.8,2,8.8,5.3c0.8,1.3,0.7,1.6-0.8,1.8c-3.1,0.4-6.1-0.1-9-1.2C206.4,106.5,204.5,106.1,202.8,105.5
				C202.8,105.5,202.8,105.5,202.8,105.5z"/>
			<g>
				<path class="st128" d="M280.8,239.2c-0.1,0.3-0.2,0.5-0.3,0.8C280.7,239.8,280.8,239.5,280.8,239.2z"/>
				<path class="st128" d="M282.5,233.3c0.5-0.2,0.9-0.1,1.3,0.5C283.4,233.1,282.9,233.1,282.5,233.3z"/>
				<path class="st128" d="M265.9,184.6c0.3-3.2,0.4-6.5,0.3-9.8c-0.9,1.4-1.8,2.8-2.7,4.2C263.8,181,264.4,183,265.9,184.6z"/>
				<path class="st128" d="M279.8,235.4c0.2,0.7,0.4,1.3,0.6,2c0-0.1-0.1-0.2-0.1-0.4C280.1,236.5,280,235.9,279.8,235.4z"/>
				<path class="st128" d="M280.8,238.8c-0.1-0.4-0.2-0.8-0.4-1.3C280.5,237.9,280.6,238.4,280.8,238.8z"/>
				<path class="st128" d="M286.3,227c0.2-0.5,5.1-20.5,5.3-20.9c-3.3-21.9-10.7-24.3-12.1-46.4c-0.6-2.3-0.2-14.3-1.5-15.1
					c-1.5-0.9-4.6,9.6-5.1,13.4c-0.7,6-11.2,21.8-11.5,19.8c-3.1,4.4-4.8,5.7-8,10c0,0-4.2,5.1-4.3,5.2c6,22.2,16.9,43.5,16.3,66.8
					c0,0.4,0,0.7,0,1c0.1-0.1,0.2-0.2,0.2-0.2c3.1-3.2,5.8-6.6,8.4-10.2c2.3-3.3,4.6-6.6,6.4-10.3c0.1-0.3,0.2-0.5,0.3-0.8
					c0,0.3-0.1,0.5-0.3,0.8c0.9-0.6,0.9-1.8,1.4-2.6c0.2-0.2,0-0.8,0.6-0.7c0.4-1,0.8-2,1.3-3c-0.4-0.6-0.8-0.6-1.3-0.5
					c0.5-0.2,0.9-0.1,1.3,0.5c0.2-0.5,0.5-1.1,0.7-1.6c0.7-1.5,1.3-3.1,2-4.6C286.2,227.3,286.2,227.2,286.3,227z M279.8,235.4
					c0.2,0.5,0.4,1.1,0.5,1.6c0,0.1,0.1,0.2,0.1,0.4C280.2,236.7,280,236.1,279.8,235.4z M280.8,238.8c-0.1-0.4-0.3-0.8-0.4-1.3
					C280.5,237.9,280.7,238.3,280.8,238.8z"/>
				<path class="st128" d="M228.2,207.9c-0.2,0.2,9.2,27.1,4.7,40.5c-3.6,10.6,2.4,22.2,3,34c2-0.9,3.9-2,5.8-3.1
					c3.5-2.1,6.9-4.2,10.2-6.6c0.8-0.6,1.5-1.2,2.3-1.8c2.7-23.5,0.5-53-7-76.3c-3.2,2.7-9.6,7.3-13.1,9.4
					C231.5,205.5,230.6,206.9,228.2,207.9z"/>
			</g>
			<path class="st123" d="M215.8,160.3c0.7-1.8,1.3-3.1,1.6-4.5c0.7-3.2,0.5-6.2-0.8-9.2c-2-4.7-5.6-8-9.9-10.3
				c-4.4-2.4-9.1-4.1-14.1-4.7c-5.3-0.7-10.5-0.2-15.6,1.7c-4.8,1.8-8.9,4.7-12.5,8.3c-2.7,2.7-4.9,5.7-6.4,9.2
				c-1,2.4-1.5,4.9-0.9,7.8c0.9,4.2,2.7,7.7,5.5,10.8c3.6,4,8.4,6.2,13.5,7.4c3.8,0.9,7.7,1.2,11.6,0.8c3.5-0.4,7-1,10.3-2.3
				c4.5-1.8,8.6-4.1,12.1-7.6C212.5,165.4,214.8,163.1,215.8,160.3z"/>
			<path class="st97" d="M180.4,149.9c1.7-1.4,3.8-2,5.9-2.5c2.6-0.6,5.3-0.1,7.7,1c2.1,0.9,4.2,2.2,5.3,4.4c3.4,7-7.9,7-10.9,7
				c-3.7,0-11-2.6-11.2-5.7C177.1,152.7,179.9,151.4,180.4,149.9z"/>
			<path class="st123" d="M188.7,270.5c-0.1,1.6,0.8,3,1.5,4.3c1.1,2.2,2,4.5,2.9,6.8c0.8,1.9,1.7,3.8,2.6,5.6
				c-2.4,0.7-4.9,0.7-7.3,0.8c-4.3,0.2-8.6,0.2-12.9-0.2c-4.8-0.4-9.6-1.1-14.3-2.2c-3-0.7-6-1.9-9-2.6c-2.6-0.7-2.9-2.1-3.3-4.2
				c-1.1-5.2-2.5-10.3-3.7-15.5c-1-4.4-2.1-8.8-3.1-13.2c-2-9-3.8-18.1-5.4-27.2c-0.9-5-1.9-10-2-15.1c0-3.4,0.5-6.8,2.4-9.9
				c1.7-2.8,3.6-5.4,5.7-7.9c2.4-2.8,4.7-3.8,8.7-2.1c3.1,1.4,5.9,3.4,8.9,5c2.3,1.2,4.8,2.1,7.3,3c3.6,1.2,7.3,0.6,10.9,1.4
				c4.2,0.9,7.7,2.9,9.3,7.1c0.7,1.9,0.5,3.9-0.1,5.7c-1,3.1-3.1,5.5-4.8,8.1c-3.2,4.7-6.1,9.5-6.6,15.3c-0.3,2.6,0.2,5.2,1,7.7
				c1.4,4.2,3.1,8.4,4.6,12.6c1.6,4.8,4,9.3,5.8,14C188.2,268.8,188,269.7,188.7,270.5z"/>
			<path class="st123" d="M112.4,215.6c6.6,2.8,9.2,2.7,12.6,2.6c3.7-0.1,6.7,3,6.1,6.7c-0.7,4.3,0.1,10,0.7,12.3
				c0.9,3.4,1.4,6.8,2.4,10.1c1,3.2,1.8,6.4,2.7,9.6c1.2,4.3,2.7,8.6,3.8,13c0.7,2.6,1.4,5.1,2.5,7.5c0.3,0.7,0.5,1.3,0.4,2.3
				c-2.6-1.4-5-2.5-7.3-3.9c-2.5-1.5-4.9-3.1-7.3-4.9c-2.7-2-5.3-4-7.7-6.4c-2.5-2.4-5-4.8-7.1-7.6c-1.3-1.7-2.5-3.4-3.8-5.2
				c0.3-1-0.3-1.8-0.5-2.7c-0.5-3-1.3-5.9-1.9-8.8c-0.9-4-1.8-8-2.5-12.1c-1.3-7-2.6-14.1-3.3-21.2c0.7,0.3,1.2,0.8,1.6,1.3
				C105.3,210.4,112.2,215.5,112.4,215.6z"/>
		</g>
		<path class="st123" d="M265,132.8c-1.7,3.7,3.7,4.9,7.8,6.1c2.2,12.4-22-0.1-17.2,14.1c1,3-12.9,3.9-14.5,1.1
			c-6.8-12.3-16.3-12.6-27.4-13.5c-2.3-0.2-7.8-1.4-6.5-4.2c2.6-5.5,5.7,0.2,13.2-0.9c5.9-0.9-1.3-3.2-4.8-5
			c5.9-9.4,21.3-3.2,27.2-1.7c2,0.5,7.8-3.2,9.8-7L265,132.8z"/>
		<path class="st123" d="M211.4,226.8c7.1-1.7,13.4-4.1,19.3-7.7c3.6-2.2,7-4.7,10.1-7.6c3.9-3.8,7.2-8,8.9-13.2
			c0.9-2.7,0.6-5.3-0.2-8.1c-1-3.5-3-6.1-5.8-8.1c-2.1-1.6-4.6-1.8-7.1-0.9c-3.7,1.5-6.9,3.9-10.5,5.7c-3,1.5-6,2.3-9.4,1.9
			c-4.2-0.4-7.5,1.4-10.1,4.7c-3,3.9-4.3,8.5-5.3,13.2c-0.6,3-0.9,5.9-0.3,8.9c0.8,3.9,2.9,6.9,5.9,9.4c0.3,0.3,0.7,0.5,1.1,0.8
			C209.1,226.8,210.4,227.3,211.4,226.8z"/>
		<path class="st123" d="M153.7,191.1c3.8-1.6,6.1-0.8,9.9,1.4c10.4-7-15.4-15.7-1.9-22.2c2.8-1.4-6.2-12-9.3-11.1
			c-13.6,3.7-20.3-2.9-28.7-10.3c-1.7-1.5-6.4-4.7-7.5-1.7c-2.1,5.7,4.1,4,8.5,10.1c3.5,4.9-3.2,1.3-6.9,0
			c-2.6,10.8,12.5,17.5,17.7,20.7C137.2,179.1,137.2,198,153.7,191.1z"/>
		<path class="st97" d="M238.2,194.3c-1.7,0.2-3,1.3-4.3,2.1c-4.3,2.8-8.8,5.2-13.3,7.7c-0.6,0.3-1.5,0.7-1.4,1.1
			c0.1,0.7,1,1,1.6,1.2c7.3,2.6,15.2-1.7,17.2-8.9C238.3,196.5,238.2,195.5,238.2,194.3z"/>
	</g>
</g>
</svg>
