<?xml version="1.0" encoding="utf-8"?>
<!-- Generator: Adobe Illustrator 22.0.0, SVG Export Plug-In . SVG Version: 6.00 Build 0)  -->
<svg version="1.1" id="Layer_1" xmlns="http://www.w3.org/2000/svg" xmlns:xlink="http://www.w3.org/1999/xlink" x="0px" y="0px"
	 viewBox="0 0 300 300" style="enable-background:new 0 0 300 300;" xml:space="preserve">
<style type="text/css">
	.st0{fill:#E08086;}
	.st1{fill:#B73E1D;}
	.st2{fill:#DD9225;}
	.st3{fill:#E27E3B;}
	.st4{fill:#2581A4;}
	.st5{fill:#3C9656;}
	.st6{fill:#B7533B;}
	.st7{fill:#9B5829;}
	.st8{fill:#F2E044;}
	.st9{fill:#5C3E6D;}
	.st10{fill:#CCA44C;}
	.st11{fill:#C16938;}
	.st12{fill:#2E7B45;}
	.st13{fill:#DD7258;}
	.st14{fill:#EF8379;}
	.st15{fill:#895E40;}
	.st16{fill:#90777A;}
	.st17{fill:#F9FAEB;}
	.st18{fill:#E2DCC4;}
	.st19{fill:#FFFEFE;}
	.st20{fill:#907F77;}
	.st21{fill:#51683C;}
	.st22{fill:#B8AFAC;}
	.st23{fill:#96806C;}
	.st24{fill:#C5BBB3;}
	.st25{fill:#7B6453;}
	.st26{fill:#634B36;}
	.st27{fill:#4F2E18;}
	.st28{fill:#93847E;}
	.st29{fill:#715338;}
	.st30{fill:#CABEB5;}
	.st31{fill:#6E5542;}
	.st32{fill:#BBA999;}
	.st33{fill:#7F6E68;}
	.st34{fill:#A29590;}
	.st35{fill:#513B2D;}
	.st36{fill:#637550;}
	.st37{fill:#847146;}
	.st38{fill:#6D5D3C;}
	.st39{fill:#729289;}
	.st40{fill:#359182;}
	.st41{fill:#46AC9D;}
	.st42{fill:#298777;}
	.st43{fill:#296355;}
	.st44{fill:#0E3329;}
	.st45{fill:#3F9687;}
	.st46{fill:#E48555;}
	.st47{fill:#F59159;}
	.st48{fill:#DADADA;}
	.st49{fill:#921428;}
	.st50{fill:#A8122E;}
	.st51{fill:#B21530;}
	.st52{fill:#B2B294;}
	.st53{fill:#DBD9C1;}
	.st54{fill:#D5D8BA;}
	.st55{fill:#EFEED8;}
	.st56{fill:#59AD6D;}
	.st57{fill:#83B967;}
	.st58{fill:#8FC07C;}
	.st59{fill:#86C95D;}
	.st60{fill:#94D07A;}
	.st61{fill:#9CD47C;}
	.st62{fill:#72B452;}
	.st63{fill:#7CB461;}
	.st64{fill:#419155;}
	.st65{fill:#2C8245;}
	.st66{fill:#4CA664;}
	.st67{fill:#7E4545;}
	.st68{fill:#8B4A48;}
	.st69{fill:#864646;}
	.st70{fill:#964D4D;}
	.st71{fill:#BB9F93;}
	.st72{fill:#E0B15C;}
	.st73{fill:#BB9248;}
	.st74{fill:#D3A54A;}
	.st75{fill:#F4C55F;}
	.st76{fill:#D8A745;}
	.st77{fill:#E9B94E;}
	.st78{fill:#F0CC84;}
	.st79{fill:#DDB366;}
	.st80{fill:#EBC169;}
	.st81{fill:#E2B864;}
	.st82{fill:#CDA55D;}
	.st83{fill:#ECCA8E;}
	.st84{fill:#ECDEC4;}
	.st85{fill:#D0C392;}
	.st86{fill:#EEE4D3;}
	.st87{fill:#DDCCAF;}
	.st88{fill:#7FAA52;}
	.st89{fill:#90C161;}
	.st90{fill:#AACF81;}
	.st91{fill:#E0CB90;}
	.st92{fill:#F3DF9D;}
	.st93{fill:#F7F1D6;}
	.st94{fill:#F6E8BF;}
	.st95{fill:#1E1E1E;}
	.st96{fill:#E9E6E2;}
	.st97{fill:#CB564A;}
	.st98{fill:#D86C6A;}
	.st99{fill:#CB4634;}
	.st100{fill:#CA4634;}
	.st101{fill:#9E3022;}
	.st102{fill:#DF7B60;}
	.st103{fill:#C94533;}
	.st104{fill:#9F3021;}
	.st105{fill:#E0785E;}
	.st106{fill:#E17A60;}
	.st107{fill:#E27A60;}
	.st108{fill:#CA4735;}
	.st109{fill:#DD8675;}
	.st110{fill:#DC7C6D;}
	.st111{fill:#C94A36;}
	.st112{fill:#C94634;}
	.st113{fill:#CA4633;}
	.st114{fill:#C94834;}
	.st115{fill:#DF765C;}
	.st116{fill:#9D3122;}
	.st117{fill:#E07B60;}
	.st118{fill:#B53A2A;}
	.st119{fill:#C94734;}
	.st120{fill:#A03021;}
	.st121{fill:#DD806B;}
	.st122{fill:#DE8170;}
	.st123{fill:#EAA7A4;}
	.st124{fill:#E5D6D2;}
	.st125{fill:#F0A7B4;}
	.st126{fill:#A06267;}
	.st127{fill:#9F6467;}
	.st128{fill:#BA544F;}
	.st129{fill:#D69578;}
	.st130{fill:#DDA792;}
	.st131{fill:#91443A;}
	.st132{fill:#9B5148;}
	.st133{fill:#E7A2A9;}
	.st134{fill:#8C411D;}
	.st135{fill:#9E5029;}
	.st136{fill:#6F2913;}
	.st137{fill:#A9594A;}
	.st138{fill:#C07161;}
	.st139{fill:#5F801B;}
	.st140{fill:#409658;}
	.st141{fill:#AF665A;}
	.st142{fill:#712912;}
	.st143{fill:#CE847C;}
	.st144{fill:#B05932;}
	.st145{fill:#C97D71;}
	.st146{fill:#DF8551;}
	.st147{fill:#E58751;}
	.st148{fill:#834023;}
	.st149{fill:#8B431F;}
	.st150{fill:#E68751;}
	.st151{fill:#9E5A51;}
	.st152{fill:#EED4C6;}
	.st153{fill:#E1C5B0;}
	.st154{fill:#CDB3A1;}
	.st155{fill:#ECC0A2;}
	.st156{fill:#F4DECE;}
	.st157{fill:#F1D3BF;}
	.st158{fill:#DFBE94;}
	.st159{fill:#F1B6A8;}
	.st160{fill:#D36A74;}
	.st161{fill:#F5AEAD;}
	.st162{fill:#F1B1AE;}
	.st163{fill:#CC404E;}
	.st164{fill:#D55E66;}
	.st165{fill:#CB6A6C;}
	.st166{fill:#F4D8C3;}
	.st167{fill:#F5AEAB;}
	.st168{fill:#F27F89;}
	.st169{fill:#F4CCC0;}
	.st170{fill:#EE5A6D;}
	.st171{fill:#EDC8B4;}
	.st172{fill:#CD968B;}
	.st173{fill:#D29F93;}
	.st174{fill:#F2DCC5;}
	.st175{fill:#E2C5C5;}
	.st176{fill:#EE7D79;}
	.st177{fill:#EB6765;}
	.st178{fill:#DB4144;}
	.st179{fill:#F39E96;}
	.st180{fill:#F58A84;}
	.st181{fill:#EC6967;}
	.st182{fill:#E05656;}
	.st183{fill:#D42C2C;}
	.st184{fill:#D93435;}
	.st185{fill:#F2A19A;}
	.st186{fill:#F3AFA9;}
	.st187{fill:#E47875;}
	.st188{fill:#C94442;}
	.st189{fill:#E45F56;}
	.st190{fill:#F2E6E0;}
	.st191{fill:#F0E0D3;}
	.st192{fill:#F3D7CF;}
	.st193{fill:#F2D5CB;}
	.st194{fill:#F1D2C5;}
	.st195{fill:#EFE4DD;}
	.st196{fill:#F2DBD4;}
	.st197{fill:#F5D5C5;}
	.st198{fill:#F3C8B8;}
	.st199{fill:#F1C3B8;}
	.st200{fill:#F4CFBC;}
	.st201{fill:#F3C9BD;}
	.st202{fill:#F4C9BD;}
	.st203{fill:#F4D1C5;}
	.st204{fill:#F2B7A9;}
	.st205{fill:#F4D2C6;}
	.st206{fill:#F4CFBD;}
	.st207{fill:#F2C5B9;}
	.st208{fill:#F3C7B8;}
	.st209{fill:#F4CCBF;}
	.st210{fill:#F2CEBE;}
	.st211{fill:#F3BDAD;}
	.st212{fill:#F2B2A2;}
	.st213{fill:#F4B8A7;}
	.st214{fill:#F5B3A1;}
	.st215{fill:#F0B6A8;}
	.st216{fill:#F3B7AD;}
	.st217{fill:#F19787;}
	.st218{fill:#F28F7C;}
	.st219{fill:#F2C9B5;}
	.st220{fill:#EEAE9A;}
	.st221{fill:#F5928B;}
	.st222{fill:#F5968C;}
	.st223{fill:#F6B5A5;}
	.st224{fill:#F38F85;}
	.st225{fill:#F5988B;}
	.st226{fill:#F2B39C;}
	.st227{fill:#F0BA9D;}
	.st228{fill:#F1B39C;}
	.st229{fill:#EF9189;}
	.st230{fill:#EF9A90;}
	.st231{fill:#E59489;}
	.st232{fill:#EEAB9A;}
	.st233{fill:#F1A195;}
	.st234{fill:#A2C5C5;}
	.st235{fill:#8AADAC;}
	.st236{fill:#B17139;}
	.st237{fill:#AB6B4B;}
	.st238{fill:#BF7D60;}
	.st239{fill:#C98426;}
	.st240{fill:#C6743C;}
	.st241{fill:#CEAA83;}
	.st242{fill:#C8662A;}
	.st243{fill:#AA6B4B;}
	.st244{fill:#EEE166;}
	.st245{fill:#CC5A40;}
	.st246{fill:#CEAA82;}
	.st247{fill:#C1573E;}
	.st248{fill:#3A9656;}
	.st249{fill:#46A35F;}
	.st250{fill:#44A160;}
	.st251{fill:#288245;}
	.st252{fill:#4C345B;}
	.st253{fill:#6F5182;}
	.st254{fill:#382447;}
	.st255{fill:#482D59;}
	.st256{fill:#56386B;}
	.st257{fill:#A85C36;}
	.st258{fill:#FAE19C;}
	.st259{fill:#B5DAD7;}
	.st260{fill:#F2E3C1;}
	.st261{fill:#F6E2AF;}
	.st262{fill:#F7D989;}
	.st263{fill:#E5A045;}
	.st264{fill:#F8E28F;}
	.st265{fill:#F9E198;}
	.st266{fill:#F2B22C;}
	.st267{fill:#F3B124;}
	.st268{fill:#C68226;}
	.st269{fill:#E09E46;}
	.st270{fill:#E2C888;}
	.st271{fill:#D3CA23;}
	.st272{fill:#DDB3B1;}
	.st273{fill:#165229;}
	.st274{fill:#E4E4E4;}
	.st275{fill:#DCDEBD;}
	.st276{fill:#DABBB4;}
	.st277{fill:#BAAF24;}
	.st278{fill:#BA5138;}
	.st279{fill:#9B3C2C;}
	.st280{fill:#D86F6A;}
	.st281{fill:#B4B3B3;}
	.st282{fill:#C8B167;}
	.st283{fill:#F8D776;}
	.st284{fill:#E34340;}
	.st285{fill:#A36720;}
	.st286{fill:#F0E3C5;}
	.st287{fill:#C17B1B;}
	.st288{fill:#E5A65C;}
	.st289{fill:#E2A14B;}
	.st290{fill:#CAE4E1;}
	.st291{fill:#97C4BF;}
	.st292{fill:#80AAA4;}
	.st293{fill:#C5DFDB;}
	.st294{fill:#ABC9C4;}
	.st295{fill:#A8453C;}
	.st296{fill:#35180D;}
	.st297{fill:#F76253;}
	.st298{fill:#69210D;}
	.st299{fill:#8E2614;}
	.st300{fill:#822914;}
	.st301{fill:#F1E99F;}
	.st302{fill:#CEBB31;}
	.st303{fill:#F7F8DB;}
	.st304{fill:#D3E8E5;}
	.st305{fill:#BFDCD6;}
	.st306{fill:#441D11;}
	.st307{fill:#726933;}
	.st308{fill:none;stroke:#726933;stroke-width:0.5;stroke-miterlimit:10;}
	.st309{fill:none;stroke:#726933;stroke-width:2;stroke-miterlimit:10;}
	.st310{fill:#736933;}
	.st311{fill:#E4955E;}
	.st312{fill:#CE763A;}
	.st313{fill:#F5AC79;}
	.st314{fill:#D3C4C1;}
	.st315{fill:#E9D8D4;}
	.st316{fill:#A8112E;}
	.st317{fill:#5E5655;}
	.st318{fill:#F2EDD3;}
	.st319{fill:#D6C7C4;}
	.st320{fill:#EBDFDC;}
</style>
<g>
	<g>
		<g>
			<g>
				<path class="st139" d="M292.2,90.7c0,0,0-0.3-0.1-0.9C292.1,89.9,292.1,90.2,292.2,90.7z"/>
			</g>
		</g>
	</g>
</g>
<g>
	<path class="st0" d="M223.9,132.6L223.9,132.6L223.9,132.6c-4-0.5-8.2,3.9-12.2,3.7c-1.3,3-187.9,54.2-192.2,57.4
		c-0.5,4.3-6.2,7.6-2.1,12.7c5.1-1.5,8.2,2.4,12,4.5c6.5-5.5,12.1-2.1,17.6,1.8c0-0.1,0.1-0.1,0.1-0.2c3.4,2.4,6.4,5.2,10.5,6.5
		c7.7-5.1,14.7-10.6,25.3-6.7c6.6,2.4,13.3-0.5,18.3-6.3c5-5.7,11.3-8.6,18.8-10.6c6.9-1.8,13.6-0.8,20.3-1.7
		c24.6-3.3,47.2-13.3,70.6-20.8c3.6-1.1,5.2-4.2,8.5-5C271.5,155.7,228,133.1,223.9,132.6z"/>
	<path class="st0" d="M223.9,132.6L223.9,132.6L223.9,132.6c-1-0.1-2,0.1-3,0.4c-0.8-0.9-2-1.4-4.1-0.6c-1.7,0.6-4.3-1.4-5.3,1.6
		c-0.4,1-0.4,1.9-0.2,2.7c-0.8,0.4-2.6,1.1-5.2,2c-1.5-1.4-3.4-2.6-5.6-3.5c-3.8-1.5-6.2-0.4-7.8,2.5c-1.2,2.2-0.1,3.4,1.5,4.8
		c-2.4,0.7-5.1,1.6-7.9,2.4c-4.1-3.1-8.3-3.3-14-1.8c1,1.8,2.2,3.4,3.5,4.9c-3.5,1-7.1,2.1-10.9,3.2c-3.4-2.5-7.7-4-13.5-4
		c1.7,2.2,3.3,4.4,4.9,6.5c-6.1,1.8-12.6,3.6-19.1,5.5c-2.3-1.5-4.8-2.9-7.4-4.1c-2.8-1.3-3.9,0-5.1,1.5c-1.9,2.2,1.1,2.5,1.7,3.7
		c0.3,0.6,0.6,1.2,1,1.7c-5.4,1.6-10.9,3.1-16.4,4.7c-4.3-4.6-9.2-3.6-16-1.8c1.7,1.6,3.2,3.3,4.7,5c-6.1,1.7-12.1,3.5-17.9,5.1
		c-1-1-2-2-3-3c-4.3-4.4-9.4-5.5-13.5-1.1c-3.5,3.9,0.8,5.9,3.4,7.8c-5,1.4-9.7,2.8-14.1,4.1c-7.3-6.7-13.1-5.4-20.3,1.1
		c1.4,1.2,2.8,2.4,4.2,3.6c-10.8,3.2-17.8,5.4-18.6,6c-0.5,4.3-6.2,7.6-2.1,12.7c5.1-1.5,8.2,2.4,12,4.5c6.5-5.5,12.1-2.1,17.6,1.8
		c0-0.1,0.1-0.1,0.1-0.2c3.4,2.4,6.4,5.2,10.5,6.5c1.8-1.2,3.5-2.4,5.3-3.5c1.1,2.4,2,5,2.7,7.8c5.1-3.4,6.8,1.7,9.2,4.1
		c4.2,4.2,7.9,2,12,0.3c5.2-2.2-0.5-4.3,0-6.5c-2.7-3.3-5.4-6.7-8.2-10c1.4,0.2,2.9,0.6,4.4,1.1c5.9,2.2,11.9,0,16.7-4.5
		c6.3-1.7,12.6-3.4,19-5.2c-4.3,0.4-7.9,0.1-11.3-1.8c3.3-2.2,7.1-3.7,11.2-4.9c0.3,0.4,0.6,0.8,0.8,1.3c1.6-0.7,3.1-1.6,4.7-2.5
		c5.5-0.7,10.9-0.3,16.3-1c24.6-3.3,47.2-13.3,70.6-20.8c3.6-1.1,5.2-4.2,8.5-5C271.5,155.7,228,133.1,223.9,132.6z"/>
	<g>
		<path class="st160" d="M40.3,205.9c-2.5-0.3-8.9,2.2-10.2,0c0,0-8-1.2-12.7,0.4c0.5,6.3-9.5,5.4-8.4,11.3
			c2,10.8,5.7,26.9,9.5,34.9c3.8,8,19.7,27.3,19.7,27.3c7.1,8.4,14.8,8.6,32,4.6c1.2-4.1-2.3-9.1,2.1-12.7c0-2.7-0.9-6.4,1.9-7.7
			C112.6,246.5,57,208.2,40.3,205.9z"/>
		<path class="st0" d="M235.5,138.4c8.3,1.9,22,19.9,26.8,25.7c-10.5,10.2-21,18.6-36.7,21.9c-16.7,3.6-33.1,10.8-48.4,19.5
			c-6.6,3.7-11.1,9.7-16.4,14.7c-12.3,11.7-21.3,26.7-36.6,35.2c-17.1,5.9-33.8,12.9-51.5,16.8c-1.4-3.2-1.7-3.3-0.1-6
			c4.1-6.7,4.1-14.8-2.1-19.3c-1.7-4.3-6.4-7.6-2.8-13.4c1.7-2.6-2.1-4.6-3.6-6.7c-2-2.9-16.8-14.8-15.8-19.6
			c7.6-4.7,14.8-9.3,24.9-5.7c6.4,2.3,12.9-0.8,17.8-6.2c8.2-9.2,19.1-11.4,30.8-12.6c22.3-2.3,43.3-9.2,64.7-15.8
			C206.2,160.8,217.8,145,235.5,138.4z"/>
		<path class="st160" d="M289.8,193.7c-11.7-1.3-20.2,2.3-27.3,12.8c-5.7,8.4-16.4,9.8-26.5,7.6c-3.2-0.7-5.8-2.1-8.6,0.9
			c2,3.5,5.6,4,10.3,4.5c-5.7,4.6-10.1,8.3-16.5,4.1c-0.6-0.4-1.4-0.3-2.1-0.3c-3.7-0.2-7.5,0.7-9,3.8c-1.5,3.4,5.2,1.9,4.4,6.4
			c-4,1.3-9.1,0.7-13.9,2.1c-8.2,2.3-9.4,4.8-3.8,10.9c-9.9,3.5-19.7,7-29.6,10.6c1.3-10.2-2.1-20.1-2.2-30.2
			c6.5-12.5,18.1-18.7,30.2-23.8c4.8-2,9.7-3.8,14.3-6.3c8.5-4.7,17.2-7.6,26.8-3.3c1.6,0.7,4,1,5.1,0c9.5-8.5,21.2-8.9,33.5-9.1
			c-4-3.7-9.3-5.4-10.4-11C263.6,168,287.2,187.4,289.8,193.7z"/>
		<path class="st171" d="M196.9,246.5c-5.3-5.7-4.8-8.7,3.5-10.9c5.1-1.3,10-1.6,14.7-1.8c2.1-4.9-8.4-3.2-4.3-7.8
			c2.5-2.8,7-4.4,12-1.6c5.5,3.1,10.2-0.4,14.3-4.5c-3.5-1.2-6.9-2.3-10.4-3.5c1.6-3.7,4.3-4.6,7.4-3.6c13.4,4.5,24,1.2,31.8-10.9
			c5.7-8.9,14.9-8.8,24-8.3c2.1,5.3,1.9,6.3-2.1,9.4c-14.7,11.3-31.9,18.2-48.3,26.3C225.8,236.3,211.1,240.9,196.9,246.5z"/>
		<path class="st154" d="M125.1,254.9c-18,4.3-33.9,8.5-52.4,11.2c-4.7,3.6-1.2,14.2-2.5,18.3c4.7-1.4,9.3-3.5,14.1-4.1
			c28.8-3.9,56.3-12.2,83.1-23.3c1.5-10.7,0.6-20.9,1.2-31.6c6.7-9.7,12.6-17.2,23.4-20.9c15.4-5.3,27.7-16.5,46.2-8.5
			c0.8,0.3,3.7-2.2,4.3-2.8c8-7.9,18-8.8,28.4-8c1.7,0.1,3.8,0.7,4.1-1.8c0.3-2.6-1.9-1.9-3.4-2.4c-5.8-1.8-7-6.7-6.9-12
			c0.1-5.1,0.6-5.1-2.1-6.2c-13.2,18-34.1,21.1-53.3,27.5c-13.1,4.4-26.3,10.5-37,19.1C155,223,116.8,234.3,125.1,254.9
			 M132.8,252.5c0,0-0.1,0-0.1,0.1C132.7,252.5,132.8,252.5,132.8,252.5z"/>
		<path class="st172" d="M228.5,199.6c-5.1,0.4-7.7,0.5-13.2,0.9c11.2,3.6,18.1-1.7,27.2-4.5c-5.7,7.9-13.7,8.1-19.9,9.9
			c-6.6,1.9-14.3,0.3-21.3,3.2C209.2,204.8,214.3,194.2,228.5,199.6z"/>
		<path class="st173" d="M183.9,218.1c0.9,2.8-1.4,4.1-3,4.8c-6,2.9-9.9,5.9-5.3,13.3c0.8,1.3,2.3,7.4-1.9,7.7
			c-4.5,0.4-2-4.3-2.1-6.6C171.2,225.3,171.3,225.3,183.9,218.1z"/>
		<path class="st169" d="M89.1,181c-2.7-1.1-6.6,2.5-8.4-2.1c5.2-3.5,11.2-5.7,17.1-4c7.3,2,12-3.5,18.2-4.7
			c15.1-2.8,29.1-10.5,45-10.1c0.3,0,0.7-0.3,0.9-0.5c9.2-8.6,21.2-9.9,32.8-12.4c1.7-2,5.6-0.8,6.3-4.2c7.8,1.3,11.8-6.4,18.6-7.9
			c1.1,4.3-2.7,6.8-4.6,7.2c-10.6,2.3-18.1,12.7-30.2,11.3c-5-0.6-10.1-0.9-12.3,5.9c-1,3.1-5.3,4.7-8.4,4.5
			c-7.7-0.3-14.7,4.7-20.8,4.9c-12.6,0.4-22.7,8.2-34.9,8C101.8,176.8,96.2,182.4,89.1,181z"/>
		<path class="st169" d="M72.3,181c1.1,0,2.2-0.3,3.1,0.1c1.2,0.5,0.9,1.5-0.2,2c-7.5,4-12.6,10.4-17.7,16.9c-5.2,3-10.4,5.8-19.4,3
			C55.2,201.6,59.3,185.1,72.3,181z"/>
		<path class="st174" d="M38.5,265.5c5.3,1.4,6.9,10.8,13.2,7.9c3.6-1.6,2.3-9.1,7.1-12c3.1,3.3-3.4,5.2-1.2,8.3
			c-1.5,3.8-2.9,7.4-8.3,6.4C43,275,39.5,271.6,38.5,265.5z"/>
		<path class="st174" d="M61.3,238.5c-4.3,7.3-11.8,7.5-16,0.7c-0.7-1.2-4.8-4.7-0.4-6.2c4.6-1.6,0.8,2.8,2.2,4.1
			C51.5,241.3,55.8,244.4,61.3,238.5z"/>
	</g>
	<g>
		<path class="st171" d="M109.8,239.7c-0.5,2.2,5.3,4.2,0,6.5c-4.1,1.7-7.8,3.9-12-0.3c-2.3-2.4-4-7.5-9.2-4.1
			c-3.5-14.7-14.1-24.4-24.9-33.6c-2.2-1.9-4.5-3.8-6.7-5.7c8-7.2,14.2-8.1,22.5,1.1C90.2,215.2,99.9,227.6,109.8,239.7z"/>
		<path class="st171" d="M142,216.3c-7.7,2.1-15.5,4.2-23.2,6.3c-7.6-10.8-16.8-20-26-29.4c-2.2-2.2-8.3-4.2-4.3-8.6
			c4.1-4.5,9.2-3.3,13.5,1.1c7.9,8,16.7,15.3,23.5,24.1C130.3,215.9,135.4,216.9,142,216.3z"/>
		<path class="st171" d="M155.4,206.6c-5-0.9-8.6,2.4-12.7,4.2c-7.3-10.9-14.3-22-24.6-32.3c8.1-2.2,13.5-3.3,18.5,5.2
			C141.5,192.1,149,199,155.4,206.6z"/>
		<path class="st171" d="M180.9,196.6c-3.5,1.4-7,2.8-10.6,4.2c-3.8-8.4-12.1-13.4-16.3-21.6c-0.6-1.2-3.6-1.6-1.7-3.7
			c1.3-1.4,2.3-2.7,5.1-1.5C168.1,178.9,176,186.2,180.9,196.6z"/>
		<path class="st171" d="M227.8,176.6c-3.9,4.4-10.4,3.1-14.8,6.3c0.6-12.7-12.2-16.4-17.4-26.3c7.5-2,12.4-1,17.8,5.6
			C217.5,167.3,219.7,175.2,227.8,176.6z"/>
		<path class="st171" d="M239,167.1c0,1.4,0.7,2.1,2.1,2.1c-0.8,3.4-4.6,2.2-6.3,4.2c-1.8-4.6-5.7-1-8.4-2.1
			c3.5-7.7-3.3-10.6-7.3-14.1c-2.2-1.9-4.5-3.1-2.9-6c1.6-2.9,4-4,7.8-2.5C232.5,152.1,234.9,160.2,239,167.1z"/>
		<path class="st171" d="M202.4,184.3c-2.8,0.7-5.6,1.4-8.4,2.1c-6.3-8.3-12.5-16.7-19.3-25.7C191.5,160.6,195.7,173.9,202.4,184.3z
			"/>
		<path class="st171" d="M247.4,154.5c-1.2,3-3.3,5.1-6.3,6.3c0.3-2.3-0.5-3.9-2.2-5.5c-2.2-2-5.4-3.8-4-7.7c1-3,3.6-0.9,5.3-1.6
			c5.1-1.8,4.9,3.4,7,5.4C247.8,151.9,247.4,153.4,247.4,154.5z"/>
	</g>
</g>
</svg>
