<?xml version="1.0" encoding="utf-8"?>
<!-- Generator: Adobe Illustrator 22.0.0, SVG Export Plug-In . SVG Version: 6.00 Build 0)  -->
<svg version="1.1" id="Layer_1" xmlns="http://www.w3.org/2000/svg" xmlns:xlink="http://www.w3.org/1999/xlink" x="0px" y="0px"
	 viewBox="0 0 300 300" style="enable-background:new 0 0 300 300;" xml:space="preserve">
<style type="text/css">
	.st0{fill:#E08086;}
	.st1{fill:#B73E1D;}
	.st2{fill:#DD9225;}
	.st3{fill:#E27E3B;}
	.st4{fill:#2581A4;}
	.st5{fill:#3C9656;}
	.st6{fill:#B7533B;}
	.st7{fill:#9B5829;}
	.st8{fill:#F2E044;}
	.st9{fill:#5C3E6D;}
	.st10{fill:#CCA44C;}
	.st11{fill:#C16938;}
	.st12{fill:#2E7B45;}
	.st13{fill:#DD7258;}
	.st14{fill:#EF8379;}
	.st15{fill:#895E40;}
	.st16{fill:#90777A;}
	.st17{fill:#F9FAEB;}
	.st18{fill:#E2DCC4;}
	.st19{fill:#FFFEFE;}
	.st20{fill:#907F77;}
	.st21{fill:#51683C;}
	.st22{fill:#B8AFAC;}
	.st23{fill:#96806C;}
	.st24{fill:#C5BBB3;}
	.st25{fill:#7B6453;}
	.st26{fill:#634B36;}
	.st27{fill:#4F2E18;}
	.st28{fill:#93847E;}
	.st29{fill:#715338;}
	.st30{fill:#CABEB5;}
	.st31{fill:#6E5542;}
	.st32{fill:#BBA999;}
	.st33{fill:#7F6E68;}
	.st34{fill:#A29590;}
	.st35{fill:#513B2D;}
	.st36{fill:#637550;}
	.st37{fill:#847146;}
	.st38{fill:#6D5D3C;}
	.st39{fill:#729289;}
	.st40{fill:#359182;}
	.st41{fill:#46AC9D;}
	.st42{fill:#298777;}
	.st43{fill:#296355;}
	.st44{fill:#0E3329;}
	.st45{fill:#3F9687;}
	.st46{fill:#E48555;}
	.st47{fill:#F59159;}
	.st48{fill:#DADADA;}
	.st49{fill:#921428;}
	.st50{fill:#A8122E;}
	.st51{fill:#B21530;}
	.st52{fill:#B2B294;}
	.st53{fill:#DBD9C1;}
	.st54{fill:#D5D8BA;}
	.st55{fill:#EFEED8;}
	.st56{fill:#59AD6D;}
	.st57{fill:#83B967;}
	.st58{fill:#8FC07C;}
	.st59{fill:#86C95D;}
	.st60{fill:#94D07A;}
	.st61{fill:#9CD47C;}
	.st62{fill:#72B452;}
	.st63{fill:#7CB461;}
	.st64{fill:#419155;}
	.st65{fill:#2C8245;}
	.st66{fill:#4CA664;}
	.st67{fill:#7E4545;}
	.st68{fill:#8B4A48;}
	.st69{fill:#864646;}
	.st70{fill:#964D4D;}
	.st71{fill:#BB9F93;}
	.st72{fill:#E0B15C;}
	.st73{fill:#BB9248;}
	.st74{fill:#D3A54A;}
	.st75{fill:#F4C55F;}
	.st76{fill:#D8A745;}
	.st77{fill:#E9B94E;}
	.st78{fill:#F0CC84;}
	.st79{fill:#DDB366;}
	.st80{fill:#EBC169;}
	.st81{fill:#E2B864;}
	.st82{fill:#CDA55D;}
	.st83{fill:#ECCA8E;}
	.st84{fill:#ECDEC4;}
	.st85{fill:#D0C392;}
	.st86{fill:#EEE4D3;}
	.st87{fill:#DDCCAF;}
	.st88{fill:#7FAA52;}
	.st89{fill:#90C161;}
	.st90{fill:#AACF81;}
	.st91{fill:#E0CB90;}
	.st92{fill:#F3DF9D;}
	.st93{fill:#F7F1D6;}
	.st94{fill:#F6E8BF;}
	.st95{fill:#1E1E1E;}
	.st96{fill:#E9E6E2;}
	.st97{fill:#CB564A;}
	.st98{fill:#D86C6A;}
	.st99{fill:#CB4634;}
	.st100{fill:#CA4634;}
	.st101{fill:#9E3022;}
	.st102{fill:#DF7B60;}
	.st103{fill:#C94533;}
	.st104{fill:#9F3021;}
	.st105{fill:#E0785E;}
	.st106{fill:#E17A60;}
	.st107{fill:#E27A60;}
	.st108{fill:#CA4735;}
	.st109{fill:#DD8675;}
	.st110{fill:#DC7C6D;}
	.st111{fill:#C94A36;}
	.st112{fill:#C94634;}
	.st113{fill:#CA4633;}
	.st114{fill:#C94834;}
	.st115{fill:#DF765C;}
	.st116{fill:#9D3122;}
	.st117{fill:#E07B60;}
	.st118{fill:#B53A2A;}
	.st119{fill:#C94734;}
	.st120{fill:#A03021;}
	.st121{fill:#DD806B;}
	.st122{fill:#DE8170;}
	.st123{fill:#EAA7A4;}
	.st124{fill:#E5D6D2;}
	.st125{fill:#F0A7B4;}
	.st126{fill:#A06267;}
	.st127{fill:#9F6467;}
	.st128{fill:#BA544F;}
	.st129{fill:#D69578;}
	.st130{fill:#DDA792;}
	.st131{fill:#91443A;}
	.st132{fill:#9B5148;}
	.st133{fill:#E7A2A9;}
	.st134{fill:#8C411D;}
	.st135{fill:#9E5029;}
	.st136{fill:#6F2913;}
	.st137{fill:#A9594A;}
	.st138{fill:#C07161;}
	.st139{fill:#5F801B;}
	.st140{fill:#409658;}
	.st141{fill:#AF665A;}
	.st142{fill:#712912;}
	.st143{fill:#CE847C;}
	.st144{fill:#B05932;}
	.st145{fill:#C97D71;}
	.st146{fill:#DF8551;}
	.st147{fill:#E58751;}
	.st148{fill:#834023;}
	.st149{fill:#8B431F;}
	.st150{fill:#E68751;}
	.st151{fill:#9E5A51;}
	.st152{fill:#EED4C6;}
	.st153{fill:#E1C5B0;}
	.st154{fill:#CDB3A1;}
	.st155{fill:#ECC0A2;}
	.st156{fill:#F4DECE;}
	.st157{fill:#F1D3BF;}
	.st158{fill:#DFBE94;}
	.st159{fill:#F1B6A8;}
	.st160{fill:#D36A74;}
	.st161{fill:#F5AEAD;}
	.st162{fill:#F1B1AE;}
	.st163{fill:#CC404E;}
	.st164{fill:#D55E66;}
	.st165{fill:#CB6A6C;}
	.st166{fill:#F4D8C3;}
	.st167{fill:#F5AEAB;}
	.st168{fill:#F27F89;}
	.st169{fill:#F4CCC0;}
	.st170{fill:#EE5A6D;}
	.st171{fill:#EDC8B4;}
	.st172{fill:#CD968B;}
	.st173{fill:#D29F93;}
	.st174{fill:#F2DCC5;}
	.st175{fill:#E2C5C5;}
	.st176{fill:#EE7D79;}
	.st177{fill:#EB6765;}
	.st178{fill:#DB4144;}
	.st179{fill:#F39E96;}
	.st180{fill:#F58A84;}
	.st181{fill:#EC6967;}
	.st182{fill:#E05656;}
	.st183{fill:#D42C2C;}
	.st184{fill:#D93435;}
	.st185{fill:#F2A19A;}
	.st186{fill:#F3AFA9;}
	.st187{fill:#E47875;}
	.st188{fill:#C94442;}
	.st189{fill:#E45F56;}
	.st190{fill:#F2E6E0;}
	.st191{fill:#F0E0D3;}
	.st192{fill:#F3D7CF;}
	.st193{fill:#F2D5CB;}
	.st194{fill:#F1D2C5;}
	.st195{fill:#EFE4DD;}
	.st196{fill:#F2DBD4;}
	.st197{fill:#F5D5C5;}
	.st198{fill:#F3C8B8;}
	.st199{fill:#F1C3B8;}
	.st200{fill:#F4CFBC;}
	.st201{fill:#F3C9BD;}
	.st202{fill:#F4C9BD;}
	.st203{fill:#F4D1C5;}
	.st204{fill:#F2B7A9;}
	.st205{fill:#F4D2C6;}
	.st206{fill:#F4CFBD;}
	.st207{fill:#F2C5B9;}
	.st208{fill:#F3C7B8;}
	.st209{fill:#F4CCBF;}
	.st210{fill:#F2CEBE;}
	.st211{fill:#F3BDAD;}
	.st212{fill:#F2B2A2;}
	.st213{fill:#F4B8A7;}
	.st214{fill:#F5B3A1;}
	.st215{fill:#F0B6A8;}
	.st216{fill:#F3B7AD;}
	.st217{fill:#F19787;}
	.st218{fill:#F28F7C;}
	.st219{fill:#F2C9B5;}
	.st220{fill:#EEAE9A;}
	.st221{fill:#F5928B;}
	.st222{fill:#F5968C;}
	.st223{fill:#F6B5A5;}
	.st224{fill:#F38F85;}
	.st225{fill:#F5988B;}
	.st226{fill:#F2B39C;}
	.st227{fill:#F0BA9D;}
	.st228{fill:#F1B39C;}
	.st229{fill:#EF9189;}
	.st230{fill:#EF9A90;}
	.st231{fill:#E59489;}
	.st232{fill:#EEAB9A;}
	.st233{fill:#F1A195;}
	.st234{fill:#A2C5C5;}
	.st235{fill:#8AADAC;}
	.st236{fill:#B17139;}
	.st237{fill:#AB6B4B;}
	.st238{fill:#BF7D60;}
	.st239{fill:#C98426;}
	.st240{fill:#C6743C;}
	.st241{fill:#CEAA83;}
	.st242{fill:#C8662A;}
	.st243{fill:#AA6B4B;}
	.st244{fill:#EEE166;}
	.st245{fill:#CC5A40;}
	.st246{fill:#CEAA82;}
	.st247{fill:#C1573E;}
	.st248{fill:#3A9656;}
	.st249{fill:#46A35F;}
	.st250{fill:#44A160;}
	.st251{fill:#288245;}
	.st252{fill:#4C345B;}
	.st253{fill:#6F5182;}
	.st254{fill:#382447;}
	.st255{fill:#482D59;}
	.st256{fill:#56386B;}
	.st257{fill:#A85C36;}
	.st258{fill:#FAE19C;}
	.st259{fill:#B5DAD7;}
	.st260{fill:#F2E3C1;}
	.st261{fill:#F6E2AF;}
	.st262{fill:#F7D989;}
	.st263{fill:#E5A045;}
	.st264{fill:#F8E28F;}
	.st265{fill:#F9E198;}
	.st266{fill:#F2B22C;}
	.st267{fill:#F3B124;}
	.st268{fill:#C68226;}
	.st269{fill:#E09E46;}
	.st270{fill:#E2C888;}
	.st271{fill:#D3CA23;}
	.st272{fill:#DDB3B1;}
	.st273{fill:#165229;}
	.st274{fill:#E4E4E4;}
	.st275{fill:#DCDEBD;}
	.st276{fill:#DABBB4;}
	.st277{fill:#BAAF24;}
	.st278{fill:#BA5138;}
	.st279{fill:#9B3C2C;}
	.st280{fill:#D86F6A;}
	.st281{fill:#B4B3B3;}
	.st282{fill:#C8B167;}
	.st283{fill:#F8D776;}
	.st284{fill:#E34340;}
	.st285{fill:#A36720;}
	.st286{fill:#F0E3C5;}
	.st287{fill:#C17B1B;}
	.st288{fill:#E5A65C;}
	.st289{fill:#E2A14B;}
	.st290{fill:#CAE4E1;}
	.st291{fill:#97C4BF;}
	.st292{fill:#80AAA4;}
	.st293{fill:#C5DFDB;}
	.st294{fill:#ABC9C4;}
	.st295{fill:#A8453C;}
	.st296{fill:#35180D;}
	.st297{fill:#F76253;}
	.st298{fill:#69210D;}
	.st299{fill:#8E2614;}
	.st300{fill:#822914;}
	.st301{fill:#F1E99F;}
	.st302{fill:#CEBB31;}
	.st303{fill:#F7F8DB;}
	.st304{fill:#D3E8E5;}
	.st305{fill:#BFDCD6;}
	.st306{fill:#441D11;}
	.st307{fill:#726933;}
	.st308{fill:none;stroke:#726933;stroke-width:0.5;stroke-miterlimit:10;}
	.st309{fill:none;stroke:#726933;stroke-width:2;stroke-miterlimit:10;}
	.st310{fill:#736933;}
	.st311{fill:#E4955E;}
	.st312{fill:#CE763A;}
	.st313{fill:#F5AC79;}
	.st314{fill:#D3C4C1;}
	.st315{fill:#E9D8D4;}
	.st316{fill:#A8112E;}
	.st317{fill:#5E5655;}
	.st318{fill:#F2EDD3;}
	.st319{fill:#D6C7C4;}
	.st320{fill:#EBDFDC;}
</style>
<g>
	<path class="st0" d="M7.6,114c0.6-4,3.7-6.2,6.5-8.5c5.7-4.8,12.7-8,18.4-12.8c2.7-2.3,4.8-5.4,6.9-8.3c1.5-2,3.1-4,5.3-5.2
		c4.1-2.2,7.7-5.5,12.5-6c3.7-0.3,7.5-0.4,11.2-0.1c3.8,0.3,7.6,1.3,11.4,1.9c6.4,1.1,12.7,2.8,18.9,4.6c9.2,2.7,18.4,5.6,27.4,8.9
		c7.8,2.9,15.6,5.9,23.3,9c14.7,5.9,29,12.6,43.3,19.5c14.8,7.1,29.7,14.3,44.3,21.9c11,5.7,21.7,11.9,31.6,19.2
		c8.4,6.2,15.3,13.9,19.7,23.5c2.9,6.3,4.7,12.9,4.5,19.9c-0.1,2.8,0,5.7,0,8.5c-1.7,2.1-1.6,4.8-2.5,7.1c-2.3,6-5.5,11.6-9.5,16.6
		c-6.6,8.2-14.7,14.7-23.9,20c-6.7,3.9-13.6,6.9-20.8,9.5c-3.3,1.2-6.7,1.7-10.2,1.1c2.9-1,6-1.5,9-2.3c7.3-2.1,14.1-5,20.6-9
		c8.5-5.2,15.9-11.7,22.5-19.1c5.2-5.7,8.5-12.5,10-20.2c0.8-4.2,1.5-8.5,1.4-12.7c-0.4-10.2-3.1-19.7-9.5-27.9
		c-1.3-1.6-2.4-3.4-3.6-5.1c-3.2-4.6-8-7.4-12.2-10.8c-5.8-4.7-12.5-7.9-19-11.7c-2-1.1-2.8-0.8-3.4,1.4c-0.8,3,0.3,5.7,1.3,8.4
		c1.4,4,3.7,7.6,6.8,10.6c2.5,2.5,3.3,5.8,3.6,9.1c0.4,3.6,1.6,6.7,3.6,9.6c2.5,3.9,3.9,8.2,4,12.9c0,6-2.6,11.1-6.2,15.7
		c-3.1,4-6.4,7.8-9.1,12.1c-2.3,3.7-6.1,5.6-9.6,7.7c-10.8,6.3-22.5,10.5-34.3,14.3c-7.2,2.3-14.4,4.7-21.2,8.2
		c-1.6,0.8-3,1.8-4.4,2.7c-0.6,0.4-1.2,0.7-1,1.5c0.2,0.7,1,1,1.6,1c1.7,0,3.4,0.4,5.2,0.5c4.2,0.2,8.3,1.1,12.5,1.1
		c0.4,0,0.6,0.1,0.6,0.6c-5.5,0.5-11.1-0.4-16.6-0.7c-7.1-0.4-14.3-1.3-21.3-2.7c-8-1.6-15.8-3.6-23.1-7.1
		c-4.9-2.4-9.1-5.5-12.6-9.8c-5-6.2-10-12.4-15-18.7c-3.3-4.2-6.5-8.4-9.8-12.6c-0.4-0.5-0.7-1.1-1.4-1.3c-0.4-0.5,0.4-1.3-0.6-1.6
		c-0.3-4-1.5-7.6-4.6-10.4c-3.8-3.4-6-7.9-7.9-12.6c-2.2-5.1-5.3-9.6-8.7-14c-4.5-5.9-9.4-11.3-14.9-16.3c-3.7-3.4-7.6-6.5-11.5-9.5
		c-0.9-0.7-2.2-1-3.4-1.2c-1.1-0.1,0.1,1.6-1.1,1.4c0.4-1-0.2-1.8-0.8-2.4c-4.6-4.9-8.4-10.5-13.2-15.3c-4.1-4.1-9.1-6.1-14.7-7.1
		c-0.6-0.1-1.1-0.3-1.6-0.5c-4-1.3-4-1.3-4.1-5.4C8.1,114.7,8.3,114.1,7.6,114z"/>
	<path class="st160" d="M95,209.9c2.8,2.7,5.1,5.9,7.5,9c3.9,5,7.9,10.1,11.9,15.1c2.7,3.4,5.3,6.8,8.1,10.1
		c4.5,5.3,10.7,8.3,17,10.7c7.3,2.8,14.9,4.4,22.7,5.5c4.5,0.6,9.1,1.1,13.6,1.6c4.6,0.4,9.2-0.1,13.7,0.7c1.9,0.3,3.6,0.2,5.4,0.2
		c2.4,0.8,5,0.8,7.5,1.4c2.6,0.6,5.3,0.7,8,0.6c1,1,2.3,0.5,3.4,0.5c2-0.1,4,0.5,5.9-0.4c2-0.2,4.1,0.1,6.1-0.6
		c4.2,0.5,8.2-0.4,12.1-1.8c5.1-1.9,10.2-3.9,15-6.6c5.7-3.2,11.2-6.5,16.3-10.7c6.1-5,11.4-10.7,15.6-17.3
		c3.2-4.9,5.5-10.4,6.9-16.1c0.2-0.8,0.3-1.5,1-1.9c0,3.3,0,6.7,0,10c-1,0.4-0.5,1.3-0.5,1.9c-0.1,4.3,0,8.7,0,13.1
		c-0.2,4.4-1.5,8.7-3.1,12.7c-3.9,9.6-10.1,17.6-17.8,24.4c-7.6,6.6-16.4,11.6-25.5,15.9c-9.2,4.4-18.8,6.8-29,6
		c-1.6-1.1-3.3-0.2-5-0.5c-6.1,0.3-12.1-0.7-18.1-1.1c-6-0.4-12.1-0.9-18.1-1.5c-8.3-0.8-16.5-1.9-24.6-3.8
		c-8.4-2-16.3-4.8-23.6-9.6c-3.9-2.6-6.6-6.4-9.5-9.9c-4.1-5-8-10.2-12-15.3c-3.8-4.9-7.7-9.8-11.5-14.7
		c-4.3-5.5-8.6-11.1-12.9-16.7c-3.8-4.9-7.7-9.8-11.6-14.7c-3.6-4.6-7.2-9.2-10.9-13.7c-5.2-6.4-10.4-12.9-15.8-19.2
		c-3.4-4-7.1-7.7-10.6-11.6c-2.3-2.6-4.6-5.3-7.4-7.3c-3.8-2.6-8.1-3.8-12.6-4.6c-2.6-0.4-4.8-2.3-5.2-4.5c0-10.3,0-20.6,0-31
		c0.8,0.1,0.5,0.7,0.5,1.1c0,1.2-0.4,3.1,0.2,3.6c1.4,1.1,3.3,2,5.1,2.2c8,1.1,14.2,5.1,19,11.5c2.7,3.6,5.8,6.9,8.8,10.4
		c0.8,0.9,1.5,1.8,1.4,3.2c-0.6,1.7-0.6,3.6-0.9,5.4c-0.3,1.9,0.7,3.8,1.2,5.8c0.4,1.5,1.3,2.8,1.2,4.4c0.1,2.2-0.3,4.4,0.2,6.5
		c0.5,4.2,3.8,6.8,6.2,9.9c3.5,4.5,7,9.2,10.9,13.4c6.4,6.8,11,15.1,18.1,21.4c4,3.6,7.2,8.1,11.1,11.9c2.1,2,4.3,1.5,4.9-1.3
		c0.5-2.4,1-4.7,0.1-7.2C94.7,214.2,95,212,95,209.9z"/>
	<path class="st188" d="M7.6,114c0,10.3,0,20.6,0,31c-0.6-0.1-0.5-0.5-0.5-0.9c0-9.7,0-19.5,0-29.2C7.1,114.4,7,114.1,7.6,114z"/>
	<path class="st188" d="M292.3,234.9c0-4.5,0-9.1,0-13.6c0-0.5-0.5-1.2,0.5-1.4c0,4.5,0,9.1,0,13.6
		C292.8,234,293.3,234.7,292.3,234.9z"/>
	<path class="st188" d="M211.9,293.3c1.7,0.3,3.4-0.6,5,0.5C215.3,293.6,213.5,294.4,211.9,293.3z"/>
	<path class="st169" d="M225.9,264.4c-2,0.6-4,0.5-6,0.5c-3.2,0-6.3,0-9.5,0c-5.3,0.2-10.4-1-15.5-2c-1.5-1.1-3.4-0.8-4.9-0.8
		c-4.3-0.2-8.5-1.1-12.8-1.2c-0.9,0-1.8-0.1-2.2-1c-0.4-1,0.7-1.2,1.3-1.7c7.3-5,15.5-7.8,23.8-10.3c11.3-3.5,22.4-7.7,32.9-13
		c3.5-1.8,7-3.9,10.1-6.5c2.6-2.2,4-5.4,6-8c3.1-4.1,6.6-7.9,9.1-12.5c4.2-7.8,3.2-15.4-0.9-22.6c-2-3.5-3.6-6.8-3.9-10.9
		c-0.4-4.9-3.8-8.3-6.7-12c-3.1-4-5-8.7-5.2-13.8c-0.1-1.3,0.1-2.8,1.3-3.4c1.1-0.6,2.2,0.4,3.2,1c2.7,1.5,5.5,2.8,8.2,4.3
		c4.6,2.6,8.8,5.9,13.1,9c8.4,6.1,14,14.4,18.5,23.5c2,4.2,2.8,8.8,3.3,13.4c0.3,2.4,0.6,4.8,0.5,7.3c-0.8,12.4-4.3,23.5-13.4,32.5
		c-5.2,5.1-10.4,10.2-16.4,14.2c-6.3,4.2-12.7,7.9-20.1,10.1c-3.5,1-7,2-10.4,3.2C227.9,264,226.6,263.1,225.9,264.4z"/>
	<path class="st169" d="M139.4,239.5c-0.8-0.5-2,0.5-2.4-0.6c-0.4-1.1,0.1-2,1-2.8c5.1-4.4,5-10,4-16c-0.2-1.3-0.3-2.7,0-4
		c1.4-5.8-0.8-11-2.3-16.4c-1.8-6.1-6.5-9.2-11.3-12.1c-4.1-2.4-6.8-5.7-7.8-10.3c-0.9-4.3-3.6-7.3-6.3-10.4
		c-2.4-2.8-4.5-5.7-6.3-8.9c-0.3-0.5-1.1-1.3-0.3-1.9c0.5-0.3,1.5-0.3,2.1,0c2.6,1.1,5.1,2.3,7.6,3.5c4.3,2.1,8.4,4.7,13,6.2
		c5.3,1.7,10.6,3.5,15.9,5.2c3.1,1,6.2,2.2,9.1,3.9c1,0.6,2.2,1.1,2.1,2.4c-0.1,1.3-1.5,1.3-2.5,1.7c-4.1,1.3-8.7,1.4-12.4,4
		c-1.6,1.1-2.1,2.4-0.9,4.5c1.7,2.9,4.7,3.9,7.3,5.5c4.7,2.8,9.7,5,13.4,9.2c1.7,1.9,3.2,3.8,4.8,5.8c3,3.6,7.2,5.7,11.2,8
		c0.9,0.5,1.6,1.1,2.1,1.9c0.6,0.9,0.9,2,0,3.1c-0.9,1.1-2,0.7-2.8,0.4c-6.9-2.8-13.4-6.3-18.7-11.6c-0.6-0.6-1.3-1.5-2.1-1.7
		c-1.4-0.3-3-1.4-4.3,0.1c-1.3,1.5-0.8,3.2-0.4,4.9c0.7,2.9,2.8,5,4.1,7.6c2.7,5.7,1.5,11.2-3.8,14.5
		C148.5,237.4,144.1,239,139.4,239.5z"/>
	<path class="st175" d="M95,209.9c0,2.5,0.2,4.9,0.9,7.4c0.6,2.1,0.3,4.6-0.8,6.8c-1.2,2.4-2.4,2.6-4.3,0.8
		c-6.7-6.5-12.7-13.6-19.1-20.3c-4-4.2-6.7-9.6-10.8-13.9c-3.7-3.9-6.7-8.3-10.2-12.3c-2-2.3-3.8-4.7-5.6-7.2
		c-0.6-0.8-0.8-1.7-0.6-2.7c-0.3-2.3,0.6-4.7-0.5-7c0.1-2.2-1-4.2-1.6-6c-1.2-3.3-0.1-6.3,0.1-9.4c1.1,0-0.1-1.5,1-1.5
		c5,6.2,10.3,12.3,15.3,18.6c3.4,4.4,6.9,8.7,10.3,13.1c4.2,5.3,8.3,10.6,12.5,15.8c3,3.7,5.8,7.5,8.7,11.2c1.4,1.8,2.8,3.4,4.1,5.2
		C95.5,208.6,94.8,209.4,95,209.9z"/>
	<path class="st169" d="M134.9,110c-2.7,0.3-5.1-0.5-7.2-2c-2.4-1.7-5.4-2.1-8-2.3c-4.8-0.4-8.9-3-13.5-3.7
		c-2.5-0.4-5.1-0.9-7.6-0.9c-9.4,0.1-18.3-2.3-26.9-5.7c-4-1.6-8.2-2.5-12.6-2.9c-3-0.3-6-0.5-9-0.4c-2.6,0.1-5.1,0.6-7.5,1.7
		c-2.2,1-1.9,3.1-2.3,4.8c-0.3,1.3,1,1.6,2.1,2.1c1.7,0.6,1.8,2.1,0.2,3.2c-2.4,1.6-5,2.9-7.7,3.7c-0.4,0.1-0.9,0.1-1.2,0
		c-4.8-1.6-8.5,1-12.3,3.1c-3,1.7-5.9,3.8-9.6,3.4c-0.5-0.1-1.2,0.5-1.5-0.4c-0.3-0.7,0.2-1.1,0.6-1.5c2.3-2.6,5.6-4,8.2-6.1
		c1.9-1.5,4.2-2.3,6.4-3.1c4.1-1.5,6.6-4.9,9.2-8.3c1.7-2.3,3.4-4.6,5.1-6.9c2.1-2.9,5.4-3,8.4-3.9c2.7-0.8,5.4-1.4,8.1-2.3
		c3.6-1.1,6.8-0.1,10,1.4c5.4,2.5,10.6,5.5,16.4,6.9c1.4,0.3,2.9,0.5,4.1,0.1c1.4-0.5,2.7-0.6,3.9,0.1c2.3,1.5,5,1,7.5,1.4
		c0.8,0.2,1.7,0.4,2.1,1c2.9,3.9,7.7,4.1,11.5,6.1c5.1,2.6,11,2.7,16.2,5C130.9,104.8,133.9,106.3,134.9,110z"/>
	<path class="st169" d="M185.3,133.9c1.2,3.4,1.4,7.2,2.3,10.9c0.3,1.3,1.4,2,2.6,2.6c4.3,2.2,9.1,2.9,13.6,4.5
		c1.8,0.6,3.3,1.3,3.8,3.4c0.3,1.5,1.7,2.3,2.4,3.8c2,4.5-0.4,12.3-4.6,14.6c-2.4,1.3-4,0.1-5.7-1.2c-3.9-3.4-6.9-7.6-9.3-12.1
		c-2.3-4.2-5.7-7.2-9.8-9.6c-7.5-4.4-15.5-7.8-22.3-13.2c-2.1-1.7-4.8-1.9-7.4-2.1c-3.8-0.2-6.9-1.7-8.8-5.2
		c-0.4-0.8-1.2-1.9-0.3-2.6c0.6-0.5,1.8-0.4,2.8,0.1c2.1,1.1,4.3,2.2,6.4,3.2c4.1,1.9,8.4,3.6,13.1,2.5c4.8-1.1,6.7,2.6,8.9,5.4
		c1.5,2,3.4,3.1,5.5,4c1.4,0.6,3.1,0.1,4.2-1.2c1.1-1.4,1.3-3,0.7-4.7c-0.8-1.9-1.6-3.7-2.5-5.5c-0.3-0.6-0.3-1,0.1-1.5
		c0.5-0.7,1.4-0.6,1.8-0.4C184.2,130.4,186.1,131.2,185.3,133.9z"/>
	<path class="st169" d="M94.5,208.4c-7-8.9-14.1-17.9-21.1-26.8c-5.9-7.5-11.6-15.3-17.7-22.6c-4-4.8-8-9.7-12.1-14.5
		c3.6,0.5,5.8,3.2,8.3,5.2c4.9,3.9,9.6,8,13.7,12.7c6,6.7,12,13.5,15.7,21.8c1.8,4,3.8,7.8,6.2,11.4c1.3,1.9,3.2,3.2,4.6,5.1
		C93.9,203,94.1,205.7,94.5,208.4z"/>
	<path class="st188" d="M210.4,264.9c3.2,0,6.3,0,9.5,0C216.7,265.7,213.6,265.7,210.4,264.9z"/>
	<path class="st188" d="M44,161.4c1.1,2.3,0.2,4.7,0.5,7C43.4,166.2,44.4,163.8,44,161.4z"/>
</g>
</svg>
