<?xml version="1.0" encoding="utf-8"?>
<!-- Generator: Adobe Illustrator 22.0.0, SVG Export Plug-In . SVG Version: 6.00 Build 0)  -->
<svg version="1.1" id="Layer_1" xmlns="http://www.w3.org/2000/svg" xmlns:xlink="http://www.w3.org/1999/xlink" x="0px" y="0px"
	 viewBox="0 0 300 300" style="enable-background:new 0 0 300 300;" xml:space="preserve">
<style type="text/css">
	.st0{fill:#E08086;}
	.st1{fill:#B73E1D;}
	.st2{fill:#DD9225;}
	.st3{fill:#E27E3B;}
	.st4{fill:#2581A4;}
	.st5{fill:#3C9656;}
	.st6{fill:#B7533B;}
	.st7{fill:#9B5829;}
	.st8{fill:#F2E044;}
	.st9{fill:#5C3E6D;}
	.st10{fill:#CCA44C;}
	.st11{fill:#C16938;}
	.st12{fill:#2E7B45;}
	.st13{fill:#DD7258;}
	.st14{fill:#EF8379;}
	.st15{fill:#895E40;}
	.st16{fill:#90777A;}
	.st17{fill:#F9FAEB;}
	.st18{fill:#E2DCC4;}
	.st19{fill:#FFFEFE;}
	.st20{fill:#907F77;}
	.st21{fill:#51683C;}
	.st22{fill:#B8AFAC;}
	.st23{fill:#96806C;}
	.st24{fill:#C5BBB3;}
	.st25{fill:#7B6453;}
	.st26{fill:#634B36;}
	.st27{fill:#4F2E18;}
	.st28{fill:#93847E;}
	.st29{fill:#715338;}
	.st30{fill:#CABEB5;}
	.st31{fill:#6E5542;}
	.st32{fill:#BBA999;}
	.st33{fill:#7F6E68;}
	.st34{fill:#A29590;}
	.st35{fill:#513B2D;}
	.st36{fill:#637550;}
	.st37{fill:#847146;}
	.st38{fill:#6D5D3C;}
	.st39{fill:#729289;}
	.st40{fill:#359182;}
	.st41{fill:#46AC9D;}
	.st42{fill:#298777;}
	.st43{fill:#296355;}
	.st44{fill:#0E3329;}
	.st45{fill:#3F9687;}
	.st46{fill:#E48555;}
	.st47{fill:#F59159;}
	.st48{fill:#DADADA;}
	.st49{fill:#921428;}
	.st50{fill:#A8122E;}
	.st51{fill:#B21530;}
	.st52{fill:#B2B294;}
	.st53{fill:#DBD9C1;}
	.st54{fill:#D5D8BA;}
	.st55{fill:#EFEED8;}
	.st56{fill:#59AD6D;}
	.st57{fill:#83B967;}
	.st58{fill:#8FC07C;}
	.st59{fill:#86C95D;}
	.st60{fill:#94D07A;}
	.st61{fill:#9CD47C;}
	.st62{fill:#72B452;}
	.st63{fill:#7CB461;}
	.st64{fill:#419155;}
	.st65{fill:#2C8245;}
	.st66{fill:#4CA664;}
	.st67{fill:#7E4545;}
	.st68{fill:#8B4A48;}
	.st69{fill:#864646;}
	.st70{fill:#964D4D;}
	.st71{fill:#BB9F93;}
	.st72{fill:#E0B15C;}
	.st73{fill:#BB9248;}
	.st74{fill:#D3A54A;}
	.st75{fill:#F4C55F;}
	.st76{fill:#D8A745;}
	.st77{fill:#E9B94E;}
	.st78{fill:#F0CC84;}
	.st79{fill:#DDB366;}
	.st80{fill:#EBC169;}
	.st81{fill:#E2B864;}
	.st82{fill:#CDA55D;}
	.st83{fill:#ECCA8E;}
	.st84{fill:#ECDEC4;}
	.st85{fill:#D0C392;}
	.st86{fill:#EEE4D3;}
	.st87{fill:#DDCCAF;}
	.st88{fill:#7FAA52;}
	.st89{fill:#90C161;}
	.st90{fill:#AACF81;}
	.st91{fill:#E0CB90;}
	.st92{fill:#F3DF9D;}
	.st93{fill:#F7F1D6;}
	.st94{fill:#F6E8BF;}
	.st95{fill:#1E1E1E;}
	.st96{fill:#E9E6E2;}
	.st97{fill:#CB564A;}
	.st98{fill:#D86C6A;}
	.st99{fill:#CB4634;}
	.st100{fill:#CA4634;}
	.st101{fill:#9E3022;}
	.st102{fill:#DF7B60;}
	.st103{fill:#C94533;}
	.st104{fill:#9F3021;}
	.st105{fill:#E0785E;}
	.st106{fill:#E17A60;}
	.st107{fill:#E27A60;}
	.st108{fill:#CA4735;}
	.st109{fill:#DD8675;}
	.st110{fill:#DC7C6D;}
	.st111{fill:#C94A36;}
	.st112{fill:#C94634;}
	.st113{fill:#CA4633;}
	.st114{fill:#C94834;}
	.st115{fill:#DF765C;}
	.st116{fill:#9D3122;}
	.st117{fill:#E07B60;}
	.st118{fill:#B53A2A;}
	.st119{fill:#C94734;}
	.st120{fill:#A03021;}
	.st121{fill:#DD806B;}
	.st122{fill:#DE8170;}
	.st123{fill:#EAA7A4;}
	.st124{fill:#E5D6D2;}
	.st125{fill:#F0A7B4;}
	.st126{fill:#A06267;}
	.st127{fill:#9F6467;}
	.st128{fill:#BA544F;}
	.st129{fill:#D69578;}
	.st130{fill:#DDA792;}
	.st131{fill:#91443A;}
	.st132{fill:#9B5148;}
	.st133{fill:#E7A2A9;}
	.st134{fill:#8C411D;}
	.st135{fill:#9E5029;}
	.st136{fill:#6F2913;}
	.st137{fill:#A9594A;}
	.st138{fill:#C07161;}
	.st139{fill:#5F801B;}
	.st140{fill:#409658;}
	.st141{fill:#AF665A;}
	.st142{fill:#712912;}
	.st143{fill:#CE847C;}
	.st144{fill:#B05932;}
	.st145{fill:#C97D71;}
	.st146{fill:#DF8551;}
	.st147{fill:#E58751;}
	.st148{fill:#834023;}
	.st149{fill:#8B431F;}
	.st150{fill:#E68751;}
	.st151{fill:#9E5A51;}
	.st152{fill:#EED4C6;}
	.st153{fill:#E1C5B0;}
	.st154{fill:#CDB3A1;}
	.st155{fill:#ECC0A2;}
	.st156{fill:#F4DECE;}
	.st157{fill:#F1D3BF;}
	.st158{fill:#DFBE94;}
	.st159{fill:#F1B6A8;}
	.st160{fill:#D36A74;}
	.st161{fill:#F5AEAD;}
	.st162{fill:#F1B1AE;}
	.st163{fill:#CC404E;}
	.st164{fill:#D55E66;}
	.st165{fill:#CB6A6C;}
	.st166{fill:#F4D8C3;}
	.st167{fill:#F5AEAB;}
	.st168{fill:#F27F89;}
	.st169{fill:#F4CCC0;}
	.st170{fill:#EE5A6D;}
	.st171{fill:#EDC8B4;}
	.st172{fill:#CD968B;}
	.st173{fill:#D29F93;}
	.st174{fill:#F2DCC5;}
	.st175{fill:#E2C5C5;}
	.st176{fill:#EE7D79;}
	.st177{fill:#EB6765;}
	.st178{fill:#DB4144;}
	.st179{fill:#F39E96;}
	.st180{fill:#F58A84;}
	.st181{fill:#EC6967;}
	.st182{fill:#E05656;}
	.st183{fill:#D42C2C;}
	.st184{fill:#D93435;}
	.st185{fill:#F2A19A;}
	.st186{fill:#F3AFA9;}
	.st187{fill:#E47875;}
	.st188{fill:#C94442;}
	.st189{fill:#E45F56;}
	.st190{fill:#F2E6E0;}
	.st191{fill:#F0E0D3;}
	.st192{fill:#F3D7CF;}
	.st193{fill:#F2D5CB;}
	.st194{fill:#F1D2C5;}
	.st195{fill:#EFE4DD;}
	.st196{fill:#F2DBD4;}
	.st197{fill:#F5D5C5;}
	.st198{fill:#F3C8B8;}
	.st199{fill:#F1C3B8;}
	.st200{fill:#F4CFBC;}
	.st201{fill:#F3C9BD;}
	.st202{fill:#F4C9BD;}
	.st203{fill:#F4D1C5;}
	.st204{fill:#F2B7A9;}
	.st205{fill:#F4D2C6;}
	.st206{fill:#F4CFBD;}
	.st207{fill:#F2C5B9;}
	.st208{fill:#F3C7B8;}
	.st209{fill:#F4CCBF;}
	.st210{fill:#F2CEBE;}
	.st211{fill:#F3BDAD;}
	.st212{fill:#F2B2A2;}
	.st213{fill:#F4B8A7;}
	.st214{fill:#F5B3A1;}
	.st215{fill:#F0B6A8;}
	.st216{fill:#F3B7AD;}
	.st217{fill:#F19787;}
	.st218{fill:#F28F7C;}
	.st219{fill:#F2C9B5;}
	.st220{fill:#EEAE9A;}
	.st221{fill:#F5928B;}
	.st222{fill:#F5968C;}
	.st223{fill:#F6B5A5;}
	.st224{fill:#F38F85;}
	.st225{fill:#F5988B;}
	.st226{fill:#F2B39C;}
	.st227{fill:#F0BA9D;}
	.st228{fill:#F1B39C;}
	.st229{fill:#EF9189;}
	.st230{fill:#EF9A90;}
	.st231{fill:#E59489;}
	.st232{fill:#EEAB9A;}
	.st233{fill:#F1A195;}
	.st234{fill:#A2C5C5;}
	.st235{fill:#C98426;}
	.st236{fill:#8AADAC;}
	.st237{fill:#B17139;}
	.st238{fill:#AB6B4B;}
	.st239{fill:#BF7D60;}
	.st240{fill:#C6743C;}
	.st241{fill:#CEAA83;}
	.st242{fill:#C8662A;}
	.st243{fill:#AA6B4B;}
	.st244{fill:#EEE166;}
	.st245{fill:#CC5A40;}
	.st246{fill:#CEAA82;}
	.st247{fill:#C1573E;}
	.st248{fill:#3A9656;}
	.st249{fill:#46A35F;}
	.st250{fill:#44A160;}
	.st251{fill:#288245;}
	.st252{fill:#4C345B;}
	.st253{fill:#6F5182;}
	.st254{fill:#382447;}
	.st255{fill:#482D59;}
	.st256{fill:#56386B;}
	.st257{fill:#A85C36;}
	.st258{fill:#FAE19C;}
	.st259{fill:#B5DAD7;}
	.st260{fill:#F2E3C1;}
	.st261{fill:#F6E2AF;}
	.st262{fill:#F7D989;}
	.st263{fill:#E5A045;}
	.st264{fill:#F8E28F;}
	.st265{fill:#F9E198;}
	.st266{fill:#F2B22C;}
	.st267{fill:#F3B124;}
	.st268{fill:#C68226;}
	.st269{fill:#E09E46;}
	.st270{fill:#E2C888;}
	.st271{fill:#D3CA23;}
	.st272{fill:#DDB3B1;}
	.st273{fill:#165229;}
	.st274{fill:#E4E4E4;}
	.st275{fill:#DCDEBD;}
	.st276{fill:#DABBB4;}
	.st277{fill:#BAAF24;}
	.st278{fill:#BA5138;}
	.st279{fill:#9B3C2C;}
	.st280{fill:#D86F6A;}
	.st281{fill:#CAE4E1;}
	.st282{fill:#97C4BF;}
	.st283{fill:#80AAA4;}
	.st284{fill:#C5DFDB;}
	.st285{fill:#ABC9C4;}
	.st286{fill:#A8453C;}
	.st287{fill:#35180D;}
	.st288{fill:#F76253;}
	.st289{fill:#69210D;}
	.st290{fill:#8E2614;}
	.st291{fill:#822914;}
	.st292{fill:#F1E99F;}
	.st293{fill:#CEBB31;}
	.st294{fill:#F7F8DB;}
	.st295{fill:#D3E8E5;}
	.st296{fill:#BFDCD6;}
	.st297{fill:#441D11;}
	.st298{fill:#726933;}
	.st299{fill:none;stroke:#726933;stroke-width:0.5;stroke-miterlimit:10;}
	.st300{fill:none;stroke:#726933;stroke-width:2;stroke-miterlimit:10;}
	.st301{fill:#736933;}
	.st302{fill:#E4955E;}
	.st303{fill:#CE763A;}
	.st304{fill:#F5AC79;}
	.st305{fill:#D3C4C1;}
	.st306{fill:#E9D8D4;}
	.st307{fill:#A8112E;}
	.st308{fill:#5E5655;}
	.st309{fill:#F2EDD3;}
	.st310{fill:#D6C7C4;}
	.st311{fill:#EBDFDC;}
</style>
<g>
	<path class="st234" d="M291.3,187.6c0,48.9-54.8,102.1-142.8,102.1s-142-52.8-142-101.7s60.8-56.7,148.8-56.7
		S291.3,138.7,291.3,187.6z"/>
	<g>
		<path class="st2" d="M236.3,207.5c4.5-4.7-35.4-21.2-34.7-24.8c-4.1,2-7.2-0.4-11.3,1.6c-4.2,2-7.3-0.8-11.4-2.3
			c-5.5-2-8.1-1.7-13.1-4.8c-1.7-1.1-9.2-6.2-10.3-7.8c-1.6-2.4-4.3-0.9-5.8-5.3c-1.5-4.4,1.9-9.5-5.1-11.6
			c-17.8-5.4-50.8,5.2-52.5,5.9c-1.5,0.6-1.8,1.5-1.4,3.1c0.7,2.8,2.6,1.8,1,1.8c-0.1,0.6-0.1,1.2,0.1,1.8c-0.5,1.6-0.9,1.5-2.3,3.3
			c-1.2,1.5-27.7,14.9-28.6,15.9c-1.2,1.4-28.4,24.5-27.7,26.1c3.8,7.5,13.9,17.2,31.9,11.3c9.1-2.9,20.4-6.5,29.8-2.1
			c7.8,3.6-1.5,15.2,8.7,17.8c0.4-0.8,12.1,0.6,6.5-0.5c2.3,2.2,8,0.9,10.9,1.4c0.1-3.1,0.2-6.4,3.8-7.4c1.2-0.3,2.8,0.5,3.8,0.3
			c2-0.5,52.3-1.7,53.6,5.7c3.5-2,10.1-1.9,14.2-0.5c2.2,0.8,4.8-0.1,7,0.7c3,1.1,6.6,0.1,9.6-1.3
			C211.6,235.7,235.8,208,236.3,207.5z M99.8,164.5"/>
		<path class="st235" d="M195.1,202.1c-1.3-4.7-0.7-9.1,2.1-13.3c1.4-2.1,3.8-3.5,4.4-6.2c1.5-2.6,4.3-3.9,6.3-5.9
			c3.8-3.9,6.9-8.4,9.4-13.4c1.5,2.5,19.3,6.1,20,6.8c1.8,1.8,4.3,4.2,3.2,5.1c-2.2,1.8-3.2,1.1-0.6,2.5c2.6,1.4,1.8,3.4,4.4,4.8
			c0,2.2,0,1.9,0.1,4.1c-3.7,2.4,2.3,11.2-1.9,12.8c-0.4,1.7-4.8-0.1-5.1,1.6c-3.8,0.5-7.6,1.3-11.4,1.3c-0.4-0.4-0.7-0.8-1-1.2
			c-1.8-2.9-4.7-4.6-8.8-2.3c0.2-0.8-0.2-1.2-0.9-1.4c-0.6-0.2-0.9,0.4-1.2,0.9c-0.5,1-0.6,2.6-1.8,2.7c-1.5,0.2-3.2,0.5-4.8-0.3
			c-1.1-0.5-1.9,0-2.8,0.3c-1,0-2.1,0-3.1,0C199.3,201,197.1,200.9,195.1,202.1z"/>
		<path class="st236" d="M185.6,115.4c7.5,0.8,14.8,2.2,22.2,3.5c5.7,1,11.3,2.7,16.9,4.4c7.8,2.3,15.4,5.1,22.8,8.5
			c9.5,4.5,18.5,9.6,26.5,16.7c6.4,5.6,11.4,12.1,14.1,19.9c2.5,7.3,2.3,15-1.1,22.2c-4.4,9.4-11,16.9-19.9,22.4
			c1.4-3.6,2.7-7.2,2.7-11.2c0-5.6-1.4-10.7-5.1-15c-0.2-0.3-0.3-0.8-0.8-0.8c-1.1-2.2-2.7-4-4.5-5.6c-3.6-3.6-7.7-6.5-12-9.1
			c-8.7-5.2-18-9-27.7-12c-0.8-0.3-1.5-0.3-2.3-0.3c-0.8-1.6-2.7-0.7-3.8-1.7c-3.4-2.4-7.3-3.5-10.9-5.4c-4.5-2.3-31.2-4.3-33.5-2.5
			c-0.4,0.3,0.9,4.6,0.5,4.4c-1.2-1.1-26.6-0.2-29.6-0.2c-0.6,0-11-3.5-12.8-5c-6.1-5.2-12.4-2.6-17,2c-1.1,1.1-2,2-3.4,2.1
			c-6.5,0.5-12.7,2.5-19.1,3.5c-5.1-0.1-9.7,1.8-14.4,3.6c-6.3,2.4-12.2,5.6-18.4,8.3c-1.2,0.5-2.2,1.2-3.2,2.1
			c-3.1,0.9-5.5,3.1-8.1,5c-5.2,3.7-9.7,8-13.1,13.5c-4.2,6.9-4.9,14.2-2.1,21.8c0.2,0.5,1.1,1-0.1,1.4c-2.4-0.1-3.6-2.1-5.1-3.3
			c-7.4-6.5-13.4-14.1-15.6-24.1c-1.5-7-0.5-13.7,2.5-20.1c4.4-9.6,11.8-16.4,20.3-22.3c9.9-6.9,20.9-11.9,32.1-15.9
			c8.9-3.2,18-5.5,27.3-7.4c7.1-1.5,14.3-2.7,21.5-3.6C115.8,114.6,177.7,114.6,185.6,115.4z"/>
		<path class="st237" d="M254.1,221.1c-9.4,5.1-19.5,8.4-29.5,11.9c-0.6,0.2-1.2,0-1.9,0c2.7-1.1-0.9-4.7,1.8-5.6
			c3.3-1.1,2.6-1.7,4.9-5c0.8-1.1-2.3-3.4-0.8-4c2.8-1.2,12.7,1,11.8-2c-0.8-2.5-4.2-7.3-5.4-9.4c3.3,0.6,14,3.7,17.3,2.8
			c1.5-0.4,2.4-1.2,3-2.3c3.1-5.7,6-11.5,8.4-17.5c0.5-1.1,0.7-2.4,0.5-3.6c4.4,4.9,5.7,10.8,5.4,17.1c-0.2,3.3-1.4,6.4-2.7,9.4
			C263.2,216.4,258.6,218.6,254.1,221.1z"/>
		<path class="st234" d="M56.6,131.2c1.6-0.3,2,0.8,2,2c0.5,7.7,2.5,15.1,5.1,22.3c0.6,1.7,0.1,2.8-1.1,3.3
			c-7.3,2.9-13.4,7.9-19.8,12.2c-4.6,3.1-8.7,7.1-12.5,11.3c-1.5,1.7-2.9,3.5-4.4,5.2c-1,1.1-1.9,1.5-3.4,0.5
			c-4.5-3-6.4-7.9-8.8-12.4c-1.1-2.2-2.2-4.5-2.8-7c-0.2-0.9-0.2-1.5,0.3-2.2c4.2-5.9,8.6-11.6,14.2-16.3c6.8-5.7,13.7-11.3,21.9-15
			c2.7-1.2,5.2-2.6,8-3.7C55.9,131.3,56.2,131.2,56.6,131.2z"/>
		<path class="st238" d="M213.5,157.2c1.1,0.9,2.9,0.1,3.8,1.6c-0.2,2.2,0.4,4.4-0.5,6.5c-1.1,3.1-3.4,5.4-5.4,7.8
			c-3,3.6-6.9,6.2-10,9.7c-3,1.5-5.4,3.8-7.7,6.1c-3.3,3.2-6.6,3.6-10.6,1.8c-6.9-3-14.1-5.2-20.9-8.5c-1.7-0.8-3.2-1.9-4.9-2.8
			c-1.3-0.6-1.7-1.8-1.7-3.1c0-2-1.8-3.1-1.7-5c0.1-1.4,1.3-2.8,0-2.9c1.3-0.2,0-0.7,0-2c0.1-1.5,0.4-5.1,2-6.4
			C159.7,161.9,211.4,159.1,213.5,157.2z"/>
		<path class="st239" d="M213.5,157.2c-2.9,2.7-6.1,4.8-10,6c-2.9,0.9-4.4,3.4-5.1,6.2c-0.8,2.9-2.7,5-4.8,6.9
			c-1.3,1.2-2.8,1.1-3.7-0.4c-1.1-2-3-1.2-3.7-0.6c-1.9,1.5-2.3,0.3-3-1c-0.5-1-1.4-1.8-2-2.7c-0.2-0.3-1-0.4-0.3-0.9
			c0.3-0.2,0.6-0.5,0.9-0.4c6,1.1,9.4-2.3,12.4-6.9c-2-0.8-3.1,0.7-4.2,1.6c-1.7,1.4-3.5,2.1-5.7,2c-3.3-0.2-6.6-0.1-9.4,2.2
			c-0.6,0.5-0.8,0.2-1.2-0.1c-0.2-0.2-0.6-0.4-0.9-0.5c-6.1-0.7-10.5-5.2-16.1-7c-0.3-0.8,0.8-1.3,0.5-2.1c3.6-3.3,7.1-6.7,10.9-9.8
			c2.7-1.5,5.4-3.1,8.1-4.6c1.1-0.6,2.2-1.2,3.3-1.9c3.1-2.2,5.7-0.7,8.2,1c6.9,4.6,14.6,7.5,22,10.9
			C211,155.7,212.5,156,213.5,157.2z"/>
		<path class="st3" d="M49.5,178.9c-0.5-3.2,0.4-6,2.2-8.7c5.8-3.9,12.2-6.4,18.5-9.2c4.4-2,8.9-3.8,13.8-4.6
			c1.1-0.2,2.3-0.1,3.4-0.3c1.4,0.9,5.7,3.2,6.2,3.8c1.6,1.6-1.2,8-2.5,8.6c-5.2,2.5-9.7,5.9-14.8,8.6c-4.3,2.3-8.6,4.5-13.1,6.3
			c-0.8,0.3-1.9-0.4-2.3,0.8c-2.8-1.6-5.5-3.3-8.4-4.7C51.6,179,50.6,178.7,49.5,178.9z"/>
		<path class="st235" d="M87.4,156.1c3.9-0.8,7.8-1.6,11.8-2.3c2.9-0.5,5.7-1.1,8.6-1.4c1-0.1,1.3-0.7,1.9-1.3
			c4.4-4.7,11.2-7.9,17.5-2.5c1.9,1.7,4.2,1.9,6.8,1.3c2-0.5,4.3-0.2,6.4-0.3c4,0,8,0,12.3,0c-1.3,2.2-4.6,2.7-4.1,5.7
			c-1.8-0.5-3.8-0.2-5.6-0.8c-0.7-0.2-1.4,0-1.8,1c-0.4,0.9-0.3,1.5,0.4,2.1c1.6,1.6,3.2,3.2,4.3,5.3c1,2,1,3.9,1,5.9
			c0,0.7-0.3,0.9-1,0.9c-0.6,0-1.5-0.4-1.8,0.6c-1.5-0.1-3,0-4.5-0.1c-1.3,0.1-2.7-0.2-3.9,0.7c-1.9-0.1-3.6-0.2-5.5,0.2
			c-2.8,0.6-4.8-1.2-6.5-3.3c-1.7-2.2-1.6-2.2-3.1,0.1c-0.8,1.2-1.8,2-3.4,1.7c-3.3-0.5-6.6,0.7-10,0.1c-1.5-0.3-3.1,0.8-4.7,0.5
			c-1.3-1-0.3-2.5-0.6-3.7c0.6-2.8,0.7-5.8,2.4-8.3c0.7-1,0.4-1.7-1-1.6c-1.2,0-2.3,0-3.5,0c-0.9,0-2.1-0.4-1.4,1.5
			c0.4,1.1-2.4,2.1-3.6,0.8C93.1,157,90.7,161.4,87.4,156.1z"/>
		<path class="st3" d="M259.5,180.5c1.7,1.6,3.4,3.2,4.3,5.4c-1.2,1.5-2.7,3-4.3,3.7c-3.2,1.2-3.2,4.9-4.7,7.5
			c-0.9,1.6-1.6,3.3-2.7,4.9c-1.2,1.9-3.6,4.5-5.9,4.1c-1.9-0.4-5.9-2.7-5.8-5c0.1-2.6,0.4-7.8,1.7-10.4c0.3-0.5-0.4-0.9-0.5-1.4
			c0.6-2.3,1.7-4.5,2.7-6.6c1.6-1.3,2.4-3.5,4.5-4.3c3.4-1.3,6.3,0.1,9.2,1.6C258.5,180.2,258.9,180.6,259.5,180.5z"/>
		<path class="st237" d="M259.5,180.5c-2-0.6-3.6-1.9-5.8-2.2c-4.2-0.6-5.9-0.1-8.2,3.4c-0.3,0.4-0.5,0.9-1.1,1
			c-2.5-1.6-5.6-1.3-8.2-2.7c-2.8-1.6-2.9-2.2-0.4-4.1c2.2-1.7,2-2.7-0.1-4.4c-1.8-1.4-3.9-1.5-5.9-1.9c-1.3-0.3,0.1,1.7-1.1,1.8
			c0-4.2-2.2-0.5-6-1.5c-2-0.5-2.7-4.8-4.2-3.9c-0.6,0-1.1,0-1.7,0c0.9-2.3,0.4-4.7,0.5-7c4,0.3,7.6,2.1,11.3,3.5
			c9.5,3.4,18.5,8,26.5,14.2C256.6,177.7,258.4,178.7,259.5,180.5z"/>
		<path class="st240" d="M241.6,189.1c0.5,0.8,0.6,1.6,0.4,2.7c-0.7,3.1-0.4,6.3,0.9,9c2.1,4.3,5.6,3.7,7.8,0.4
			c1.7-2.5,3.1-5.4,4.5-8.1c0.7-1.4,1.7-2.3,3.1-2.9c2.2-0.9,3.8-2.6,5.5-4.3c0.4,0,0.5,0.2,0.5,0.5c0.3,3.4-1.7,6.1-2.9,9
			c-1.5,3.7-3.5,7.2-5.3,10.8c-1.2,2.6-3.2,3.9-6.1,4c-2.7,0.2-5.2-0.6-7.9-0.6c-2-0.7-4-1.6-5.6-3.1c-0.1-1.8,0.8-3.6,0.7-5.4
			C239,197.3,239.4,192.9,241.6,189.1z"/>
		<path class="st8" d="M148.5,155.6c-1.9-5.6,6-6.5,8.1-8.6c2.5-2.5,5.2-1.5,7.7,0c1.3,0.8,2.4,1.8,3.6,2.7
			c-3.6,3.2-7.2,6.5-10.8,9.7c-2.4-2.4-5.3-2.7-8.2-0.6C148.4,157.8,148.6,156.7,148.5,155.6z"/>
		<path class="st239" d="M198.8,234.1c-1.1-0.9-2.8-1.5-4.3-1.1c-4.2,1.1-23.6,5.5-27.2,5.5c-9.5,0-19-0.9-28.5-0.7
			c-2,0-3.8-4.8-5.4-6.2c-0.4,0-4.7,3.7-4.7,4.1c-0.7,2.9-0.3-0.5-3,0c-2.7,0.5-1.7,0.9-3-1.4c0,0.1-4.2,3.9-5.4,3.7
			c-2.4-0.4-5,0.8-7.1-1.2c-2.1-0.1-3.7-1.3-5.1-2.7c-2.3-2.3-3-5.2-3.6-8.3c-0.7-3.8-1.8-7.3-6.2-8.4c-6.7-1.6-13.4-1.3-20.1,0
			c-6.9,1.3-13.8,3.3-20.9,2.5c-5.7-0.7-11.3-2-14.6-7.5c-0.4,0-0.9,0-1.3,0c-1.3,0.1-2.3-0.6-2.3-1.6c0-1.3,1.4-1.1,2.3-1.1
			c0.4,0,0.9,0,1.3,0c0.6-2.2,2.3-3.2,4.3-3.8c-2.8,0.2-5.5,0.1-6.5-3.2c-0.1,0-0.1-0.1-0.2-0.1c0.2-2.2,0-4.5,1.8-6.2
			c-2.5-3.3,1.3-5.9,4-7.9c3.3-2.4,2.7-7.5,6.2-9.6c-0.5-3.2,0.4-6,2.2-8.7c-0.7-0.3-1.2,0.3-1.7,0.6c-6.3,3.7-12.2,8.1-16.6,13.8
			c-5.2,6.7-10.1,18.6-5,27.3c1.7,2.6,4.5,3.9,7,5.4c3.9,2.2,7.8,4.5,12,6.3c5.1,2.2,10.2,4.5,15.6,6.1c0.6-0.6,6-7.4,9.4-9.3
			c3.3-1.8,6-1.7,9.2,0.4c3.6,2.4,6.5,5.6,10.3,7.7c3.9,2.2,5.3,10.2,5.4,10.2c8,1.1,16,2.3,24.1,3.3c6.2,0.7,12.5,0.6,18.8,1.1
			c8.8,0.7,17.7-0.5,26.5-0.6c2.9,0,5.8-0.1,8.7-0.4c7.6-0.8,15.1-1.7,22.7-2.7c2.3-0.3,4.6-0.5,6.8-1.6
			C202.8,236.6,200.7,235.5,198.8,234.1z"/>
		<path class="st1" d="M212.9,235.7c-2.2,0-4.4,0.1-6.6-0.5c-2.6-0.7-4.2-2.5-4.3-5.1c-0.4-8.7,4.9-14.2,10.8-19.3
			c1.7-0.3,2.9-1.9,4.6-2.2c2.3-0.6,4.5-1.9,7-1.6c3.9-0.6,7.9-1.4,11.7,0.5c0.3,0.1,0.4-0.2,0.5-0.5c1.8,1,3.4,2.2,5.4,2.7
			c2,1.7,3.5,3.5,4.4,6.1c1,2.8,0.2,5.2-2.5,6.4c-1.7,0.7-3,1.9-4.4,3.1c-2.7,2.5-6,3.8-9.6,4.6c-2.6,0.6-4.9,2-7.4,3.1
			C219.6,234.4,216.3,235.1,212.9,235.7z"/>
		<path class="st3" d="M63,229.7c3.1-5,7.4-8.8,13-10.8c1.2-0.4,3.2,0.2,4.3,1c4.7,3.3,9.3,6.6,13.7,10.2c2.3,2,2.7,5.2,3.1,8.1
			c-5.9-0.4-11.5-2.1-17.2-3.5c-5.4-1.3-10.8-3.1-16.2-4.6C63.3,230.2,63.1,230.2,63,229.7z"/>
		<path class="st8" d="M60.9,184.3c-0.4,2.9-0.7,5.8-1.1,8.7c-3.2,1.6-6.6,3-8.9,5.9c-0.7,0.9-1.6,0.5-2.5,0.5
			c-2.3-4.4-5.1-5.4-9.2-3.2c-2.8-4.1-2.1-7.4,1.5-10.6c2.8-2.5,5.7-4.6,8.7-6.7c2.7-0.1,4.7,1.6,6.9,2.7
			C57.9,182.4,59.4,183.4,60.9,184.3z"/>
		<path class="st5" d="M39.2,196.2c4.1-2.1,6.9-1.1,9.2,3.2c0.3,2.5-1.5,4.1-2.7,6c-0.6,0.1-0.9,0.8-1.6,0.5
			c-2.8,0.2-5.5,0.1-6.5-3.2C37.3,200.3,37.7,198.1,39.2,196.2z"/>
		<path class="st5" d="M153.9,168.6c-2.5,0.1-4.8-0.4-6-2.8c-1.3-2.5-0.4-4.8,1.1-6.9c2.7-2.3,5.9-1.8,8.1,0.5
			c-0.2,0.7-0.4,1.4-0.5,2.2c-0.6,0-1.2,0-1.1,1c0.1,1-0.1,2.1,0.1,3.1C155.9,167.2,155.2,168,153.9,168.6z"/>
		<path class="st238" d="M144.2,170.2c2.1-0.4,3,0.2,2.8,2.6c-0.2,2.1-0.3,4-1.7,5.8c-2.2,3.1-5.1,3.2-8.3,2.4
			c-5.2-1.3-10.5-2.1-15.8-1.5c-4.1,0.4-8.1,0.3-12.2,0.4c-3.6,0.1-5.3-1.1-6.3-4.6c-0.5-1.7-1.1-3.4-0.1-5.2
			c5.2-0.2,10.3-0.4,15.5-0.5c1.6,0,2.5-1.1,2.8-2.1c0.9-2.6,1.9-1.7,2.7-0.3c1.4,2.4,3.4,4,6,3.8
			C131.7,171,142.6,170.2,144.2,170.2z"/>
		<path class="st241" d="M125.9,160.5c-3.8-0.3-7.4,0-10.6,2.6c-1.7,1.4-4.1,2.5-6.6,1.2c-3.7-1.8-2.8-4.8-0.5-6.4
			c1.3-0.9,2.3-1.9,2.8-3.4c1.3-4,4.9-5.8,8.2-7.4c1.5-0.7,3.3,1.5,4.3,2.8c1.9,2.5,4.5,3.1,7.3,3.4c4,0.4,6.3,2.9,8,6.2
			c0.7,1.3-0.2,1.4-1.2,1.5c-2.9,0.3-5.8-0.8-8.7-0.6C127.9,160.5,126.9,160.5,125.9,160.5z"/>
		<path class="st237" d="M133.8,164.2c1.4,0.5,3.2,0.6,4.9,0.6c1.1,0,1.4,1.2,1.1,2.1c-0.5,1.7-1.9,1.6-3.3,1.4
			c-1.1-0.1-2-0.9-3.2-0.8c-1.2,0.1-2.7,0.5-2.7-1.6C130.7,164.9,131.7,164.3,133.8,164.2z"/>
		<path class="st5" d="M228.6,171.3c-1.3,3.1-5.1,4.8-8.4,3.7c-2.6-0.9-3.4-3.6-2.4-7.2c0.2-0.6,0.9-1.1,0.6-1.9
			c4.4-2.3,6.5-2.2,9,0.6C228.5,167.8,228.7,169.5,228.6,171.3z"/>
		<path class="st7" d="M225.4,202.1c4,0.2,8-0.5,11.9-1.1c0,2-0.9,3.9-0.5,6c-0.1,0.2-0.4,0.6-0.4,0.5c-3.9-2.1-8-1.1-12-0.5
			C225.8,205.6,225.4,203.8,225.4,202.1z"/>
		<path class="st1" d="M45.7,205.4c1.2-1.9,3-3.4,2.7-6c0.8-0.1,1.8,0.3,2.5-0.6c2.3-2.9,5.7-4.3,8.9-5.9c4.4-1.4,9-1.1,13.5-1.1
			c5.8,0.6,11,2.8,15.2,7c0.7,0.9,1.4,1.8,2.2,2.7c0.5,1.8,1.5,3.4,1.1,5.4c-0.4,2.7-3.4,4.8-7.2,5.5c-6.7,1.2-13.2,3-19.9,4
			c-5.3,0.7-10.7,1.1-15.9-0.9c-2.9-1.1-4.3-4.8-3.3-7.8C45.7,206.9,45.6,206.1,45.7,205.4z"/>
		<path class="st237" d="M109.2,208.7c-1.3,0-2.1-0.7-3-1.5c-2.8-2.8-5.4-5.7-9.1-7.5c-1.6-0.8-1.4-2.3-0.6-3.6
			c0.7-1.1,1.6-2.1,2.4-3.1c1.9-2.3,4.3-3.4,7.3-2.2c5.5,2.3,10.7,1.6,15.9-0.9c1.3-0.6,2.8-0.8,4.3-0.8c2,0.1,3.9,0.4,4.2,2.9
			c0.5,3.3-0.2,4.8-3.3,5.3c-5.4,0.8-9.7,2.9-12.8,7.6C113.4,206.7,111.6,208.3,109.2,208.7z"/>
		<path class="st3" d="M132,224.6c1.5-4,3.5-5.5,7.7-4.1c7.5,2.4,15.4,3.9,23,5.9c5.1,1.3,10.4,2.2,14.9,5.3c1,0.7,1.6,1.6,2,2.7
			c-2.5-1.2-2.7,2-4.7,3.3c-3,1.9-8.3,1.4-11.4,0.5c-6.6-1.8-13.6-3.6-20.2-5c-1.3-0.3-2.2-2.3-2.8-3.2c-1.6-2.1-3.7-3.2-6.2-3.8
			C133.4,226,132.4,225.7,132,224.6z"/>
		<path class="st242" d="M133.4,223.8c3.7,2.1,7.8,3.7,10.7,7.1c8.6,1,16.9,4,25.5,4.9c2.4,0.3,3.9-1.2,5.7-2c2-0.9,3.7-0.9,5.7-0.3
			c1.2,0.8,1.1,2,1.1,3.2c-0.1,2.2-2,2-3.2,2.1c-8.9,0.3-17.8-0.6-26.7-0.6c-2.7,0-5.4-0.3-8.1-0.3c-4,0-8,0.1-11.7-1.7
			c-0.1-2.1-1.6-3.4-2.7-4.9C130.6,228.7,131.4,226,133.4,223.8z"/>
		<path class="st8" d="M145.8,193.5c1.1,0,0.7-1.4,1.6-1.6c0,3.1,2.8,5.5,5.6,4.7c2.6-0.7,5.1-0.5,7.6,0.2c3.2,1,8.5,0.1,10.3-1.6
			c1-0.9,0.2-1.2-0.2-1.8c4.3-0.3,6.5,2.5,8.1,6c0.4,2-0.5,3.2-2.3,4.3c-3.7,2.2-7.7,2.8-11.9,1.9c-2.4-0.5-4.9-0.1-7.4-0.6
			c-4.3-0.9-8.1-2.8-11.6-5.4c-1.4-1-1.1-2.5-0.7-3.9C145.2,194.9,145.9,194.4,145.8,193.5z"/>
		<path class="st238" d="M199.9,220c2.2,1.2,1.2,2.9,0,3.6c-1.3,0.9-2.4,2-3.7,2.9c-2.7,1.9-5.6,3.1-9.1,2.8
			c-3.9-0.4-7.9,0.9-11.6-1.6c-1.7-1.1-3.5-2-5.1-3.3c-1.4-1.2-2.5-2.7-4.7-2.7c2.3-3.1,4.5-6.1,8.2-7.6c3.6,0.2,5.4,2.8,7.3,5.3
			c0.9,1.2,2.1,2.2,3.2,3.3c1.3,1.3,3.9,1.7,5.3,0.7c2.8-1.9,5.7-3,9.1-2.8C199.4,220.6,199.8,220.6,199.9,220z"/>
		<path class="st238" d="M91.7,207c0.5-2-0.6-3.6-1.1-5.4c0.8-1.6,1.8-0.2,2.3,0.1c3.7,1.9,7.9,3.3,9.8,7.5c1.2,2.7,2.2,5.6,3.6,8.2
			c0.7,1.4,2,2.6,3.7,2.6c2.8,0.1,5.6,0.4,8.2-1c0.5-0.3,1-0.7,1.4,0.1c0.5,0.7-0.1,1-0.5,1.3c-1.6,1.3-3.2,2.6-4.9,3.8
			c-2.7,1.9-8,1.2-11-1.6c-1.9-1.7-3.3-3.6-4.6-5.9C96.7,213.3,94.1,210.2,91.7,207z"/>
		<path class="st243" d="M88.5,198.9c-4.2-4.2-9.3-6.4-15.2-7c0.3-1.6-0.6-3.4,0.5-4.9c-0.2,1.2,0.4,2.2,1.5,1.5
			c1.2-0.7,2.4-0.2,3.6-0.8c0.9-0.5,2.2-0.5,3.3,0.2c2.8,1.7,6.1,1.3,9.2,1.6c2.2,0.3,4-1.5,4.6-3.6c0.6-2.3,1.3-4.3,3.4-5.7
			c-0.8-0.6-1.5-0.2-2.2-0.3c1.7-1.1,3.5-0.5,5.2-0.3c0.5,0.1,2,0.8,0.9,2.2c-0.2,0.3,0,0.9-0.1,1.3c-0.6,2.2-0.5,4.4-3.6,5.3
			c-2.4,0.7-4.2,3.1-5.5,5.4C92.7,196.1,91.1,198.1,88.5,198.9z"/>
		<path class="st239" d="M97.1,179.9c0.7,0,1.4,0,2.5,0c-2.3,1.7-3.1,3.7-3.7,6.1c-0.6,2.7-3.7,3.7-6.6,3.3
			c-2.8-0.4-5.5-0.7-8.2-1.7c-1.6-0.6-3.5,0.3-5.3,0.9c-1.3,0.4-2.3,0.3-2-1.5c-0.2-2.9,1-5.5,2.4-7.9c1-1.8,3.2-2.3,5.2-2.3
			c3.2-0.1,6.2,0.8,9.2,1.9C92.7,179.3,94.8,180.1,97.1,179.9z"/>
		<path class="st239" d="M199.9,220c-1.3,1.5-3.2,0.3-4.8,0.9c-1.6,0.6-3.3,1.2-4.8,2.1c-2.3,1.2-4.2,1.4-6.1-0.5
			c-1.9-2-4.1-3.8-5.4-6.4c-0.5-1.1-1.6-1.4-2.8-1.5c-0.7-0.1-1.6,0.7-2-0.5c1.3-2.4,3.3-4.3,4.5-6.8c1-2.1,3.6-2.5,5.6-1.2
			c3,1.8,5.1,4.5,6.6,7.5C192.7,217.3,195.7,219.5,199.9,220z"/>
		<path class="st244" d="M170.7,193.5c-0.3,0.9,1.4,0.3,0.8,1c-0.9,1-1.1,2.8-2.8,3.2c-4.4,1.1-9.1-1.4-13.4-1.5
			c-1.6,0-3.6,1.9-5.4,1.2c-2.3-0.9-2.9-2.9-2.5-5.5c2.4-4.5,3.6-4.9,9.2-2.4C161.2,191.5,165.8,192.9,170.7,193.5z"/>
		<path class="st235" d="M145.8,193.5c-1.8,5.9-2.3,4.7,4.1,8.7c4,2.5,8.4,3.4,13,3.3c1.9,0,3.8,0.5,5.7,0.6
			c3.1,0.1,5.6-1.3,8.2-2.5c1.9-0.9,2.2-2.3,2-4c1.4,0.5,3.3,1,3.1,2.7c-0.2,1.7-1.6,3-3.5,3.2c-3.7,0.4-7.2,1.8-10.8,2.8
			c-3.1,0.9-6.1,0.5-9-0.2c-4.9-1.1-9.7-2.7-14.1-5.3c-5-2.9-5-5.5,0.1-8.7C145.1,193.8,145.5,193.7,145.8,193.5z"/>
		<path class="st5" d="M113.4,225.9c3.4,0,6.4,2.9,6.4,6c0,2.4-3.6,5.4-6.4,5.4c-3.2,0-5.7-2.1-5.4-5.1
			C108.4,228.3,109.4,226,113.4,225.9z"/>
		<path class="st5" d="M146.2,219.5c-3,0-5.3-2.1-5.2-4.9c0.1-3.1,2.6-5.9,5.3-5.9c3.4,0,6,2.5,6,5.8
			C152.3,217.8,150.3,219.5,146.2,219.5z"/>
		<path class="st5" d="M129.6,231.4c1.1,1.5,2.8,2.7,2.7,4.9c0.1,3.3-2.5,4.4-4.8,5.4c-2.3,1-4.7-0.4-6.6-3.2c0.2-1.5-0.4-3,0.4-4.4
			C123.1,230.7,124.3,230.1,129.6,231.4z"/>
		<path class="st245" d="M206.4,224.2c-0.2-1.3,0.7-2.4,1.3-3.8c2.3-4.6,6.2-7.6,10.4-10.2c3.2-2,7.2-1.4,8.7,1.3
			c0.9,1.6,1,3.4,0.3,5.2c-2.8,6.6-7.9,10.8-14.6,12.8C209.1,230.7,206.6,229.2,206.4,224.2z"/>
		<path class="st5" d="M217.3,208.6c-3.8-2.5-4.3-6-1.1-9.7c3.3-2.6,7.6-0.8,9.2,3.2c0,1.7,0.4,3.5-1.1,4.9
			C221.7,206.6,219.6,208.2,217.3,208.6z"/>
		<path class="st237" d="M230.1,192.4c-3.8-1-7.8-0.4-11.7-1c-3.3-0.5-6.5,0.3-9.2,2.6c-2,1.8-4.4,1.9-7,1.6
			c-1.5-0.2-2.6-0.7-3.1-2.2c-0.5-1.4,0.2-2.6,0.9-3.5c1.7-2,3.3-4,4.6-6.5c1.3-2.5,4.4-4.2,7.4-5.1c1.4-0.4,2.6,0.8,3.3,1.7
			c2.5,3.5,6.2,4.1,10,4.8c3.5,0.6,4.7,3.7,6.5,6C232.4,191.5,231.3,192.5,230.1,192.4z"/>
		<path class="st237" d="M228.1,195.6c1.2,0.1,2.7-0.2,4,0.6c0.8,0.5,1,1.2,0.9,2c-0.2,0.9-0.8,1.1-1.7,1.2
			c-2.2,0.2-4.3-0.8-6.5-0.6c-0.6,0.1-1.6-0.8-1.5-1.9c0.1-1.1,0.8-1.4,1.9-1.3C226,195.7,226.9,195.6,228.1,195.6z"/>
		<path class="st238" d="M216.2,198.9c0.1-0.9-0.3-1.5-1-1.6c-0.6-0.1-1,0.5-1.2,1.2c-0.7,2.3-2.3,2.7-4.5,2.6
			c-1.5-0.1-3.1-1.5-4.7-0.1c-1.1,0-2.2,0-3.2,0c0.2,0.3,0.4,0.7,0.5,1c-0.1-0.4-0.3-0.7-0.5-1c-2.2,0-4.5-0.3-6.5,1.1
			c-0.3,1.4,0.4,2.7,0.6,4.1c0.3,2.9,2.8,5,5.7,5.2c3.9,0.2,7.7-0.6,11.6-0.6c1.4-0.7,2.9-1.4,4.3-2.2
			C213.5,206.1,213,202.7,216.2,198.9z"/>
		<path class="st245" d="M73.8,199.5c-0.4,3.4-3.7,5.8-7.2,8c-2.9,1.9-6.3,2.6-9.5,3.8c-2.1,0.7-5.5-1.1-6.6-3.3
			c-1.1-2.2-0.2-3.9,1.2-5.8c3.8-5.1,9.2-7.3,15-8.8C70.4,192.6,73.9,195.1,73.8,199.5z"/>
		<path class="st246" d="M95.6,181.5c-0.7,1.2-1.5,1.8-1.9,2.7c-1.5,3-2.1,3.3-5,1.6c-2.5-1.6-5.5-2.7-7.6-5.4
			C86.4,177.7,90.7,182,95.6,181.5z"/>
		<path class="st241" d="M182.5,209.2c5.6,1.4,6.3,7.4,10.8,10.1c-2.3,0.7-4.1,1.2-5.9,1.8c-0.8,0.2-1.3-0.4-1.5-0.9
			C184.7,216.7,182.7,213.3,182.5,209.2z"/>
	</g>
</g>
</svg>
