<svg id="Layer_1" data-name="Layer 1" xmlns="http://www.w3.org/2000/svg" viewBox="0 0 362.95 317.97"><defs><style>.cls-1{fill:#e06c6d;}.cls-2{fill:#da5f5a;}.cls-3{fill:#ef8f84;}.cls-4{fill:#e8948d;}</style></defs><title>Icon</title><path class="cls-1" d="M56.06,210.15c-6,.84-10.74-1.64-14.32-6.17a11.46,11.46,0,0,0-7.3-4.44c-9.35-1.86-10.48-3.56-10-13A84.47,84.47,0,0,0,23,166.44l2.27-8.7c4.63-5.59,9.07-11.36,14-16.73,12.49-13.74,27.6-24.33,42.76-34.82,17.2-11.9,34.41-23.81,53-33.57,3.18-1.68,6.54-3,9.81-4.54a3.7,3.7,0,0,1,.54,1.44,12.5,12.5,0,0,1-4.6,9.59c-2.75,2.41-5.22,5.17-8.33,7.13-11.79,7.44-14.89,19.1-14.86,31.84,0,15.46-5.83,27.33-20.7,32a7.29,7.29,0,0,0-1.83.79c-9.52,6.36-18.48,13.55-25.78,22.28-3.71,4.44-7.48,7.69-12.82,9.58-7.55,2.66-8.34,4.95-4.9,12.33a85,85,0,0,1,4.8,11.49C56.68,207.75,57.5,209,56.06,210.15Z"/><path class="cls-1" d="M144.61,69c0-.3.12-.61.18-.91,20.62-10,42.37-11.72,64.72-8.86,28.88,3.68,56.6,11.69,83.51,22.62,12.89,5.24,24,12.87,31.31,25.07,1.1,1.82,2.74,3.37,2.95,5.66,3,14.75-2.15,27.81-8.91,40.27-14.27,26.3-30.46,51.47-46.3,76.84-6.95,11.12-16.12,19-30.17,19-3.41,0-4.22,1.56-3.53,4.78.84,3.88,3.14,7.36,3.07,11.46-3.78,2.5-8.24,2.48-12.07,1.42-9-2.49-18.13-2.93-27.33-3.21-1,0-2.24.07-2.92-.46-6.91-5.49-16.37-4.67-23.49-9.57-1.66-1.13-3.54-.68-5.34-.73-6.95-.17-13.57-1.43-19.14-5.95a7.16,7.16,0,0,0-4.12-1.34c-4.32-.45-8.64-1.08-12-4.28-1.43-1.38-3-.86-4.66-.68-4.1.43-8-.26-11-3.4-2.6-2.72-6-3.51-9.48-3.8a18.42,18.42,0,0,1-7.16-1.91c-5.43-2.87-10.36-6.66-17.4-5.22-3.62.74-6.74-2.33-9-5.4-.89-1.2-1.62-2.76-3.38-2.52-5.32.71-8.66-2.69-12.25-5.63C57.56,206.54,55,200.62,54.25,194c-.66-6,.38-8.28,5.89-10.57a15.5,15.5,0,0,0,8.42-8.09,17.74,17.74,0,0,1,10-9.21c5-2,9-4.82,11.58-9.68,2-3.81,5.74-5.67,9.82-6.14,8.71-1,13.64-6.12,16.35-14,1.86-5.4,5-10.16,8.23-14.78A37.64,37.64,0,0,1,145,107.13c11.1-3.32,21.43-7.86,30.53-15.33A48.17,48.17,0,0,1,193.34,83c3.58-1,6.11-3.22,8.3-6.55-2.38,2.61-4.28,5.28-7.87,5.46-.59,0-.47-1.94-1.83-.21-2.42,3.07-6.15,4.36-10,5.14-3.12.63-4.4-.74-4.33-3.69.07-3.14.28-6.29-.6-8.32,3.35,9.82-4.28,19.65-13.56,25.06a56.62,56.62,0,0,1-14.87,5.72c-1.43.36-3.08,1-4.09-.54-.82-1.28.16-2.52.79-3.7,2.66-5,5.76-9.8,7.75-15.16-3.43,7.6-6.94,15.13-13.13,21-2,1.95-3.79,4.27-6.89,4.6-1.56.17-2.06,1.53-2.89,2.54-3.27,4-6.62,7.91-9.81,12-.63.81-1.44,1.54-2.54,1.11s-1.26-1.46-1.14-2.52c.84-7.42,1-14.93,3.34-22.15a26.37,26.37,0,0,1,12.11-15.25C141.41,82,151,77.06,158.88,72c-2.6,1.52-6.52,3.78-10.39,6.1-1.18.71-2.48,1.3-3.73.43s-.55-2.12-.58-3.25C144.13,73.19,145.76,71.18,144.61,69Z"/><path class="cls-2" d="M241.44,264.93c-2.83-4.23-3.78-9.12-4.89-14-.56-2.44-.21-3.42,2.82-3.54,6.23-.25,12.59-.49,18.13-4.1A40.1,40.1,0,0,0,268.13,233c8-11.15,14.67-23.17,21.87-34.83,7.37-11.93,14.63-23.93,21.9-35.93,4.72-7.77,9.2-15.85,11.78-24.45,2.25-7.5,4.63-15.46,2.83-23.65a1.23,1.23,0,0,1,.77-1.59c9.78,15.73,10.73,32.36,6.88,50.25-6,27.74-21.67,49.61-39.83,70.21-3.31,3.75-6.82,7.27-9,11.81-7.45,15.18-20.6,20.23-36.42,20.48C246.39,265.36,243.91,265.07,241.44,264.93Z"/><path class="cls-3" d="M144.61,69c3.29,2.79-.58,6.12.67,8.72l18.65-10.39c-.44,3.37-2.31,4.32-4.07,5.35-8.3,4.87-16.37,10.2-25,14.49-10.7,5.34-14.45,14.7-15.88,25.37-.62,4.58-2.19,9.25-.92,14.78,3.92-6.21,9.46-10.32,12.47-16.44.21-.44.42-1,.79-1.2,9.6-4.46,11-5.75,15.69-14,2.3-4.1,4.59-8.2,7.19-12.15-1.65,7.68-5.9,14.24-9.58,21.74,9.44-2.09,17.93-4.8,24.6-11.15,7-6.66,9.49-14.83,6.29-24.49,2.88,5.18,3,10.7,3.49,16.41,5.75-.7,10.88-2.28,14.26-7.71,0,2.18.2,3.77,2.82,1.9a16.53,16.53,0,0,0,6.17-8.57c1.11,6.06-1.74,10.75-7.64,12.28-9.59,2.49-17.54,7.88-25.14,13.81a47.5,47.5,0,0,1-15,7.53c-10,3.21-20.1,6.15-27.13,14.68a67.32,67.32,0,0,0-11.15,19.7c-2.58,7.05-7.43,10.63-14.6,11.59-5.47.73-9.56,3.12-11.93,8.49-1.75,4-5.8,5.76-9.63,7.23-4.86,1.87-8.54,4.64-10.67,9.6A13.74,13.74,0,0,1,60,184.77c-3.73,1-5.18,3.59-4.72,7.6.6,5.18,1.68,10.16,4.26,14.73.93,1.62,1.84,3.19,1.18,5.15l-4.68-2.1c-1.19-5.35-3.67-10.18-6-15.09-3.79-8-2.45-11.4,5.16-13.34a20.2,20.2,0,0,0,13.84-10.94c1.41-2.81,3.83-4.43,6.4-6.07a33.46,33.46,0,0,0,9.3-8.05,23,23,0,0,1,11.85-8c15.08-4.61,19.67-16.9,19.61-30.14-.06-13.66,3.38-25.62,15.78-33.81C137.65,81,143.77,76.91,144.61,69Z"/><path class="cls-4" d="M259.14,138.57a57.24,57.24,0,0,0-16.53,30.71c4.16-2.27,8.29-2.72,10.17-6.69,1.49-3.15,3.7-4.94,7.31-4.81a4.59,4.59,0,0,0,2.39-.6c1.47-.9,2.76-2.17,2.44-4s-2-1-3.25-1.22-3.56.27-3.33-1.87c.17-1.61,2.06-1.25,3.36-1,5.4,1,7.88-1.43,8.52-6.69a12,12,0,0,1,2.83-7.19c.19,5.12-1.28,8.85-2.66,12.58-.33.89-1.57,2.26-.83,2.6,6.27,2.94.83,6.66.76,10s-1.7,6.37-1.45,9.81c.1,1.54-.27,4.4-3.05,1.65-1.13-1.12-2.58-.64-3.79-.49-2.45.31-5.22.08-6.71-1.31-5-4.71-8.42-1-10.2,2.5-3.27,6.35-8.52,8.92-14.76,10.58a117,117,0,0,1-13,2.84c2.27-2.3,5.27-2.71,8.16-3.28,7.34-1.43,11.74-5.22,13.9-12.91,2.56-9.11,5.24-18.42,12.15-25.76C253.85,141.56,256.45,140.29,259.14,138.57Z"/><path class="cls-4" d="M190.09,193.27a57.16,57.16,0,0,0-34.62-4.22c3.63,3,5.55,6.73,9.93,7,3.47.25,5.95,1.65,7.15,5.07a4.43,4.43,0,0,0,1.43,2c1.36,1,3,1.78,4.62.82s.24-2.28,0-3.48-1.53-3.21.53-3.78c1.57-.42,1.93,1.47,2.18,2.76,1,5.39,4.2,6.82,9.33,5.5a11.94,11.94,0,0,1,7.72,0c-4.69,2-8.7,2-12.68,2.1-.95,0-2.67-.64-2.72.17-.46,6.91-5.9,3.2-9,4.32s-6.56.75-9.67,2.22c-1.39.66-4.19,1.36-2.65-2.23.64-1.47-.34-2.63-.92-3.71-1.17-2.17-2-4.84-1.22-6.72,2.56-6.39-2.18-8.2-6-8.6-7.1-.73-11.41-4.7-15.22-9.9a114.85,114.85,0,0,1-7.35-11c3,1.28,4.44,3.92,6,6.41,4,6.32,9.14,9,17.08,8.25,9.43-.93,19.07-1.82,28.42,1.95C185.37,189.43,187.51,191.39,190.09,193.27Z"/><path class="cls-4" d="M162.5,76.53a7,7,0,0,0-.48-1.75A14.74,14.74,0,0,1,162.5,76.53Z"/><path class="cls-4" d="M130,107.13c3.58-1.07,7.08-2.27,10.49-3.65-2.26.81-4.58,1.49-6.93,2.08-1.43.36-3.08,1-4.09-.54-.82-1.28.16-2.52.79-3.7s1.4-2.56,2.11-3.83a43.68,43.68,0,0,1-7.49,9.69c-2,1.95-3.79,4.27-6.89,4.6h0l-.18,1.32A40.2,40.2,0,0,1,130,107.13Z"/><path class="cls-4" d="M149.18,99.41a72.14,72.14,0,0,0,11.38-7.61,43.12,43.12,0,0,1,9.18-5.7c-.91.28-1.85.5-2.79.69-3.12.63-4.4-.74-4.33-3.69l0-1.22C161.6,88.87,155.9,95.29,149.18,99.41Z"/><path class="cls-4" d="M133.8,95A65.62,65.62,0,0,0,138,86.16C136.69,89.15,135.33,92.12,133.8,95Z"/><path class="cls-4" d="M178.77,81.86c-.59,0-.47-1.94-1.83-.21a11.41,11.41,0,0,1-3.28,2.81c1.22-.45,2.47-.85,3.73-1.23.1-.44.19-.9.26-1.35l0,1.22v.06l.72-.21c3.58-1,6.11-3.22,8.3-6.55C184.26,79,182.36,81.68,178.77,81.86Z"/><path class="cls-4" d="M327.28,112.57c-.21-2.29-1.85-3.84-2.95-5.66C317,94.71,305.91,87.08,293,81.84c-26.91-10.93-54.63-18.94-83.51-22.62a138.08,138.08,0,0,0-25.94-1q5.44.3,10.94,1c28.88,3.68,56.6,11.69,83.51,22.62,12.89,5.24,24,12.87,31.31,25.07,1.1,1.82,2.74,3.37,2.95,5.66,3,14.75-2.15,27.81-8.91,40.27-14.27,26.3-30.46,51.47-46.3,76.84-6.95,11.12-16.12,19-30.17,19-3.41,0-4.22,1.56-3.53,4.78.84,3.88,3.14,7.36,3.07,11.46-.28.18-.56.35-.84.5,1.26.28,2.52.58,3.77.92,3.83,1.06,8.29,1.08,12.07-1.42.07-4.1-2.23-7.58-3.07-11.46-.69-3.22.12-4.78,3.53-4.78,14,0,23.22-7.89,30.17-19,15.84-25.37,32-50.54,46.3-76.84C325.13,140.38,330.31,127.32,327.28,112.57Z"/></svg>