<?xml version="1.0" encoding="utf-8"?>
<!-- Generator: Adobe Illustrator 22.0.0, SVG Export Plug-In . SVG Version: 6.00 Build 0)  -->
<svg version="1.1" id="Layer_1" xmlns="http://www.w3.org/2000/svg" xmlns:xlink="http://www.w3.org/1999/xlink" x="0px" y="0px"
	 viewBox="0 0 300 300" style="enable-background:new 0 0 300 300;" xml:space="preserve">
<style type="text/css">
	.st0{fill:#E08086;}
	.st1{fill:#B73E1D;}
	.st2{fill:#DD9225;}
	.st3{fill:#E27E3B;}
	.st4{fill:#2581A4;}
	.st5{fill:#3C9656;}
	.st6{fill:#B7533B;}
	.st7{fill:#9B5829;}
	.st8{fill:#F2E044;}
	.st9{fill:#5C3E6D;}
	.st10{fill:#CCA44C;}
	.st11{fill:#C16938;}
	.st12{fill:#2E7B45;}
	.st13{fill:#DD7258;}
	.st14{fill:#EF8379;}
	.st15{fill:#895E40;}
	.st16{fill:#90777A;}
	.st17{fill:#F9FAEB;}
	.st18{fill:#E2DCC4;}
	.st19{fill:#FFFEFE;}
	.st20{fill:#907F77;}
	.st21{fill:#51683C;}
	.st22{fill:#B8AFAC;}
	.st23{fill:#96806C;}
	.st24{fill:#C5BBB3;}
	.st25{fill:#7B6453;}
	.st26{fill:#634B36;}
	.st27{fill:#4F2E18;}
	.st28{fill:#93847E;}
	.st29{fill:#715338;}
	.st30{fill:#CABEB5;}
	.st31{fill:#6E5542;}
	.st32{fill:#BBA999;}
	.st33{fill:#7F6E68;}
	.st34{fill:#A29590;}
	.st35{fill:#513B2D;}
	.st36{fill:#637550;}
	.st37{fill:#847146;}
	.st38{fill:#6D5D3C;}
	.st39{fill:#729289;}
	.st40{fill:#359182;}
	.st41{fill:#46AC9D;}
	.st42{fill:#298777;}
	.st43{fill:#296355;}
	.st44{fill:#0E3329;}
	.st45{fill:#3F9687;}
	.st46{fill:#E48555;}
	.st47{fill:#F59159;}
	.st48{fill:#DADADA;}
	.st49{fill:#921428;}
	.st50{fill:#A8122E;}
	.st51{fill:#B21530;}
	.st52{fill:#B2B294;}
	.st53{fill:#DBD9C1;}
	.st54{fill:#D5D8BA;}
	.st55{fill:#EFEED8;}
	.st56{fill:#59AD6D;}
	.st57{fill:#83B967;}
	.st58{fill:#8FC07C;}
	.st59{fill:#86C95D;}
	.st60{fill:#94D07A;}
	.st61{fill:#9CD47C;}
	.st62{fill:#72B452;}
	.st63{fill:#7CB461;}
	.st64{fill:#419155;}
	.st65{fill:#2C8245;}
	.st66{fill:#4CA664;}
	.st67{fill:#7E4545;}
	.st68{fill:#8B4A48;}
	.st69{fill:#864646;}
	.st70{fill:#964D4D;}
	.st71{fill:#BB9F93;}
	.st72{fill:#E0B15C;}
	.st73{fill:#BB9248;}
	.st74{fill:#D3A54A;}
	.st75{fill:#F4C55F;}
	.st76{fill:#D8A745;}
	.st77{fill:#E9B94E;}
	.st78{fill:#F0CC84;}
	.st79{fill:#DDB366;}
	.st80{fill:#EBC169;}
	.st81{fill:#E2B864;}
	.st82{fill:#CDA55D;}
	.st83{fill:#ECCA8E;}
	.st84{fill:#ECDEC4;}
	.st85{fill:#D0C392;}
	.st86{fill:#EEE4D3;}
	.st87{fill:#DDCCAF;}
	.st88{fill:#7FAA52;}
	.st89{fill:#90C161;}
	.st90{fill:#AACF81;}
	.st91{fill:#E0CB90;}
	.st92{fill:#F3DF9D;}
	.st93{fill:#F7F1D6;}
	.st94{fill:#F6E8BF;}
	.st95{fill:#1E1E1E;}
	.st96{fill:#E9E6E2;}
	.st97{fill:#CB564A;}
	.st98{fill:#D86C6A;}
	.st99{fill:#CB4634;}
	.st100{fill:#CA4634;}
	.st101{fill:#9E3022;}
	.st102{fill:#DF7B60;}
	.st103{fill:#C94533;}
	.st104{fill:#9F3021;}
	.st105{fill:#E0785E;}
	.st106{fill:#E17A60;}
	.st107{fill:#E27A60;}
	.st108{fill:#CA4735;}
	.st109{fill:#DD8675;}
	.st110{fill:#DC7C6D;}
	.st111{fill:#C94A36;}
	.st112{fill:#C94634;}
	.st113{fill:#CA4633;}
	.st114{fill:#C94834;}
	.st115{fill:#DF765C;}
	.st116{fill:#9D3122;}
	.st117{fill:#E07B60;}
	.st118{fill:#B53A2A;}
	.st119{fill:#C94734;}
	.st120{fill:#A03021;}
	.st121{fill:#DD806B;}
	.st122{fill:#DE8170;}
	.st123{fill:#EAA7A4;}
	.st124{fill:#E5D6D2;}
	.st125{fill:#F0A7B4;}
	.st126{fill:#A06267;}
	.st127{fill:#9F6467;}
	.st128{fill:#BA544F;}
	.st129{fill:#D69578;}
	.st130{fill:#DDA792;}
	.st131{fill:#91443A;}
	.st132{fill:#9B5148;}
	.st133{fill:#E7A2A9;}
	.st134{fill:#8C411D;}
	.st135{fill:#9E5029;}
	.st136{fill:#6F2913;}
	.st137{fill:#A9594A;}
	.st138{fill:#C07161;}
	.st139{fill:#5F801B;}
	.st140{fill:#409658;}
	.st141{fill:#AF665A;}
	.st142{fill:#712912;}
	.st143{fill:#CE847C;}
	.st144{fill:#B05932;}
	.st145{fill:#C97D71;}
	.st146{fill:#DF8551;}
	.st147{fill:#E58751;}
	.st148{fill:#834023;}
	.st149{fill:#8B431F;}
	.st150{fill:#E68751;}
	.st151{fill:#9E5A51;}
	.st152{fill:#EED4C6;}
	.st153{fill:#E1C5B0;}
	.st154{fill:#CDB3A1;}
	.st155{fill:#ECC0A2;}
	.st156{fill:#F4DECE;}
	.st157{fill:#F1D3BF;}
	.st158{fill:#DFBE94;}
	.st159{fill:#F1B6A8;}
	.st160{fill:#D36A74;}
	.st161{fill:#F5AEAD;}
	.st162{fill:#F1B1AE;}
	.st163{fill:#CC404E;}
	.st164{fill:#D55E66;}
	.st165{fill:#CB6A6C;}
	.st166{fill:#F4D8C3;}
	.st167{fill:#F5AEAB;}
	.st168{fill:#F27F89;}
	.st169{fill:#F4CCC0;}
	.st170{fill:#EE5A6D;}
	.st171{fill:#EDC8B4;}
	.st172{fill:#CD968B;}
	.st173{fill:#D29F93;}
	.st174{fill:#F2DCC5;}
	.st175{fill:#E2C5C5;}
	.st176{fill:#EE7D79;}
	.st177{fill:#EB6765;}
	.st178{fill:#DB4144;}
	.st179{fill:#F39E96;}
	.st180{fill:#F58A84;}
	.st181{fill:#EC6967;}
	.st182{fill:#E05656;}
	.st183{fill:#D42C2C;}
	.st184{fill:#D93435;}
	.st185{fill:#F2A19A;}
	.st186{fill:#F3AFA9;}
	.st187{fill:#E47875;}
	.st188{fill:#C94442;}
	.st189{fill:#E45F56;}
	.st190{fill:#F2E6E0;}
	.st191{fill:#F0E0D3;}
	.st192{fill:#F3D7CF;}
	.st193{fill:#F2D5CB;}
	.st194{fill:#F1D2C5;}
	.st195{fill:#EFE4DD;}
	.st196{fill:#F2DBD4;}
	.st197{fill:#F5D5C5;}
	.st198{fill:#F3C8B8;}
	.st199{fill:#F1C3B8;}
	.st200{fill:#F4CFBC;}
	.st201{fill:#F3C9BD;}
	.st202{fill:#F4C9BD;}
	.st203{fill:#F4D1C5;}
	.st204{fill:#F2B7A9;}
	.st205{fill:#F4D2C6;}
	.st206{fill:#F4CFBD;}
	.st207{fill:#F2C5B9;}
	.st208{fill:#F3C7B8;}
	.st209{fill:#F4CCBF;}
	.st210{fill:#F2CEBE;}
	.st211{fill:#F3BDAD;}
	.st212{fill:#F2B2A2;}
	.st213{fill:#F4B8A7;}
	.st214{fill:#F5B3A1;}
	.st215{fill:#F0B6A8;}
	.st216{fill:#F3B7AD;}
	.st217{fill:#F19787;}
	.st218{fill:#F28F7C;}
	.st219{fill:#F2C9B5;}
	.st220{fill:#EEAE9A;}
	.st221{fill:#F5928B;}
	.st222{fill:#F5968C;}
	.st223{fill:#F6B5A5;}
	.st224{fill:#F38F85;}
	.st225{fill:#F5988B;}
	.st226{fill:#F2B39C;}
	.st227{fill:#F0BA9D;}
	.st228{fill:#F1B39C;}
	.st229{fill:#EF9189;}
	.st230{fill:#EF9A90;}
	.st231{fill:#E59489;}
	.st232{fill:#EEAB9A;}
	.st233{fill:#F1A195;}
	.st234{fill:#A2C5C5;}
	.st235{fill:#8AADAC;}
	.st236{fill:#B17139;}
	.st237{fill:#AB6B4B;}
	.st238{fill:#BF7D60;}
	.st239{fill:#C98426;}
	.st240{fill:#C6743C;}
	.st241{fill:#CEAA83;}
	.st242{fill:#C8662A;}
	.st243{fill:#AA6B4B;}
	.st244{fill:#EEE166;}
	.st245{fill:#CC5A40;}
	.st246{fill:#CEAA82;}
	.st247{fill:#C1573E;}
	.st248{fill:#3A9656;}
	.st249{fill:#46A35F;}
	.st250{fill:#44A160;}
	.st251{fill:#288245;}
	.st252{fill:#4C345B;}
	.st253{fill:#6F5182;}
	.st254{fill:#382447;}
	.st255{fill:#482D59;}
	.st256{fill:#56386B;}
	.st257{fill:#A85C36;}
	.st258{fill:#FAE19C;}
	.st259{fill:#B5DAD7;}
	.st260{fill:#F2E3C1;}
	.st261{fill:#F6E2AF;}
	.st262{fill:#F7D989;}
	.st263{fill:#E5A045;}
	.st264{fill:#F8E28F;}
	.st265{fill:#F9E198;}
	.st266{fill:#F2B22C;}
	.st267{fill:#F3B124;}
	.st268{fill:#C68226;}
	.st269{fill:#E09E46;}
	.st270{fill:#E2C888;}
	.st271{fill:#D3CA23;}
	.st272{fill:#DDB3B1;}
	.st273{fill:#165229;}
	.st274{fill:#E4E4E4;}
	.st275{fill:#DCDEBD;}
	.st276{fill:#DABBB4;}
	.st277{fill:#BAAF24;}
	.st278{fill:#BA5138;}
	.st279{fill:#9B3C2C;}
	.st280{fill:#D86F6A;}
	.st281{fill:#B4B3B3;}
	.st282{fill:#C8B167;}
	.st283{fill:#F8D776;}
	.st284{fill:#E34340;}
	.st285{fill:#A36720;}
	.st286{fill:#F0E3C5;}
	.st287{fill:#C17B1B;}
	.st288{fill:#E5A65C;}
	.st289{fill:#E2A14B;}
	.st290{fill:#CAE4E1;}
	.st291{fill:#97C4BF;}
	.st292{fill:#80AAA4;}
	.st293{fill:#C5DFDB;}
	.st294{fill:#ABC9C4;}
	.st295{fill:#A8453C;}
	.st296{fill:#35180D;}
	.st297{fill:#F76253;}
	.st298{fill:#69210D;}
	.st299{fill:#8E2614;}
	.st300{fill:#822914;}
	.st301{fill:#F1E99F;}
	.st302{fill:#CEBB31;}
	.st303{fill:#F7F8DB;}
	.st304{fill:#D3E8E5;}
	.st305{fill:#BFDCD6;}
	.st306{fill:#441D11;}
	.st307{fill:#726933;}
	.st308{fill:none;stroke:#726933;stroke-width:0.5;stroke-miterlimit:10;}
	.st309{fill:none;stroke:#726933;stroke-width:2;stroke-miterlimit:10;}
	.st310{fill:#736933;}
	.st311{fill:#E4955E;}
	.st312{fill:#CE763A;}
	.st313{fill:#F5AC79;}
	.st314{fill:#D3C4C1;}
	.st315{fill:#E9D8D4;}
	.st316{fill:#A8112E;}
	.st317{fill:#5E5655;}
	.st318{fill:#F2EDD3;}
	.st319{fill:#D6C7C4;}
	.st320{fill:#EBDFDC;}
</style>
<g>
	<path class="st129" d="M290.1,183.2c2,2.1-9.8,17.1-11.9,19.6c-5.9,7.1-12.9,13.2-20,19.2c-14.3,12-32,19.9-54.7,18.8
		c5.9,0.3,3.1-10.3,4.6-15.7c0.8-3,3.4-7.3-1.7-8.7c2.2,1.9-6.6,12.5-7.7,13.7c-5.7,6.3-10.2,9.1-17.2,10l4.3-1.9l-50.3-6.9l-41-9.8
		c-20.1-13.3-35-33.2-22.8-58.1c-1.1,0.5-2.1,1.2-3,2.2l-19.2,5.7l-38.1,17.4l3.2,8c-0.4-0.1-0.7-0.3-1.1-0.4
		c0,6.1,11.5,10,16.7,11.7l4,5.8l8.1,6.1l14.4-2.7c6.2,5,11.9,11.9,17.9,16.7c6.8,5.5,14.3,11.8,22.3,15.5
		c12.1,5.6,27,8.5,41.1,10.2l0,0l0,0c5.1,0.6,10.1,1,14.8,1.4c9.2,0.6,18.6,0.7,27.8,0.3c8.7-0.4,22,0.3,29.9-3.7c0-0.2,0-0.2,0.1,0
		c1.3,0,42-3.3,64.8-30.2c5.7-6.8,6.6-12.1,9.9-20.3C287.1,202.9,293.5,186.8,290.1,183.2z M253.9,238.5
		c-14.3,8.9-27.7,11.3-44,14.2c0.2,0.6-22.5,2.8-29.9,2.7c-9.7-0.1-19.4-0.8-29.1-1.8l10.7-4.8c21.1,1.3,43.2-0.1,63.4-3.8
		c12.3-2.2,19.1-2.3,31.8-11.2c5.6-3.9,10.4-11,14.1-15.5C273.6,215.2,257.4,236.3,253.9,238.5z"/>
	<g>
		<path class="st130" d="M70.6,163.9c-4,5.1-6,11.1-7.1,17.3c-2.1,12.2,3.3,21.9,10.2,31c8,10.5,18.3,18.3,30.3,23.6
			c10,4.4,20.4,7.5,31.2,9.6c9.6,1.8,19.2,2.9,29,3.2c4.9,0.2,9.7-0.4,14.5-0.2c5.2,0.3,10.6,0.5,15.8,0c9.3-0.9,18.6-1.1,27.8-3
			c5-1,9.9-2,14.8-3.2c14.4-3.8,24.7-13,34-24c2.9-3.4,5.8-6.8,8.1-10.6c0.4-0.6,0.9-1.5,2.2-1.3c-2.3,6.3-5.7,11.8-9.7,17.1
			c-5.9,7.6-13.5,13.1-21.7,17.7c-9.3,5.2-19.3,8.5-29.7,10.7c-4.2,0.9-8.5,1-12.6,2.4c-11.6,1.1-23.1,1.8-34.7,1.2
			c-9.1-0.5-18.2-1.2-27.3-2.3c-10.5-1.3-20.9-3.1-31.1-5.8c-14.4-3.9-28.3-9.1-40-18.7c-6-5-11.5-10.7-13.9-18.6
			c-0.4-1.4-1.1-1.9-2.4-1.8c-6.5,0.3-12.9-0.2-19.4,0.4c-3.6,0.3-7.1-1.5-8.9-5.2c0,0,0.1-0.1,0.2-0.1c0.1,0,0.2,0,0.3-0.1
			c2.8-0.1,5.4,1,8.1,1.4c12.9,1.8,16.3-5.1,18.9-13.2c1.7-5.5,1.9-11.2,2.6-16.9c0.4-3,0.8-6.1,2.3-8.9c-1-0.5-2-0.1-3-0.2
			c-1.3,0-2.5,0-3.8,0C55.9,163.7,66.7,164.9,70.6,163.9z"/>
		<path class="st131" d="M256.1,242.8c19.9-9.8,36.1-39,29.9-59.9c-2.6-8.8,6.5-24.7-19.7-49.1c-0.1-0.1,0.3-0.2,0.5-0.2
			c42.4,23.4,31.7,108.8-7.6,131.9C251,262.2,255.9,249,256.1,242.8z"/>
		<path class="st0" d="M286,161.2c-1.3-13.2-20.2-26.4-19.1-27.5c-3.7-3-8-4.6-12.3-6.4c-9-3.7-18.4-5.5-28.1-6.2
			c-0.8,0.2-1.9-0.5-2.6,0.6c3.4,4.9,6,10.4,8.5,15.8c1.4,3.1,2.8,6.2,2.9,9.7c0.3,4.9-2.1,8.8-4.4,12.7c-3.7,6.2-39.6,16.4-35.6,9
			c2.6-4.9,5.8-9.5,8.6-14.2c1.8-2.9,1.6-5-0.7-7.3c-3.3-3.4-7.6-5.5-11.4-8.2c-2.6-1.8-4.6-3.8-5.3-6.9c-0.7,0.1-1.1,0.5-1.6,0.9
			c-3.1,2.1-5.2,5.5-8.6,7.4c-7.3,4-16.1,7.9-23.8,11.2c-1.9,0.8,0,1.7,1.1,2.9c1.1,1.2,2.7,2.1,3.2,3.9c-1.1-0.6-2.1-1.4-2.8-2.4
			c-1.8-2.6-5.6-4.6-8.1-3.4c-11.1,5.2-21.2,10.5-33.1,13.1c-6.8,1.5-13.5,3.4-19.5,7.1c-5.4,3.3-6.3,9.5-3.8,14.5
			c2.8,5.7,7.2,10.3,12.1,14.2c6.9,5.5,14.7,9.5,22.9,12.7c11.7,4.6,46.8,20,46.5,20.2c-1.4,1-30.4-1.4-35.6-2.5
			c-10.6-2.3-21.9-7.2-31.1-12.8c-7-4.2-13.5-9-19.7-14.2c-4.2-3.5-8.6-7.3-10.6-12.6c-3.2-8.1-3.6-16.4-1.5-24.9
			c0.3-1.2,2.1-2.9,0.1-4.3c-0.2,0-0.4,0-0.6,0c-1,2.4-2.3,4.8-3.1,7.3c-3.5,10.9-2.8,21.4,4.2,30.7c5.6,7.5,12,14.6,19.8,19.8
			c11,7.3,23,12.9,36.2,15.6c9.2,1.9,16.1,3.7,27.9,3.5c8.4-0.1,16.8,0.2,25.2,0.1c3-0.1,5.9-0.6,8.4-2.7c9.5-4.1,17.1-18.2,17.1-20
			c0.1,0,0.1,0,0.1,0c2.9,0.5-2.8,5.6-1.2,7.9c2.5,3.5-3,11-4.6,15c-1.2,2.8,2.5,2.5,5.6,3.1c0.7,0.1,11.9-2.6,16.9-3.8
			c7.3-1.8,14.3-3.9,20.7-7.9c31.7-19.6,23-20.3,35.2-29.1C292.1,194.2,288.5,166.7,286,161.2z"/>
		<path class="st0" d="M221.4,194.2c0.2,0.7,0.6,1.1,1.3,1.3c-1,1.6-2.5,0-2.7-0.2c-6.2-4.9-13-9.3-17.4-16.2
			c-3.7-5.7-1.8-11.6,2.7-17.7c2.4-3.2,5.3-6.1,7.9-9.2c1.7-2.1,1.8-3.8-0.1-5.8c-3.8-4-8-7.6-12.2-11.2c-2.9-2.5-6.3-5.4-4.1-10.3
			c0.4-0.9-0.6-0.8-1.2-0.8c3.7-1.8,7.8-2.2,11.7-3.1c2.4-0.5,4.8-0.8,7.3-0.6c-0.6,2.6-2.1,5-1.4,8c0.4,1.6,1,2.9,2.2,3.9
			c2.8,2.4,5,5.3,7.4,8.1c5,5.8,4.7,10.8-0.7,16.4c-4.4,4.6-9.2,8.8-12.9,14c-2.1,3-2.2,6-0.9,8.7
			C211.2,185.5,215.7,190.5,221.4,194.2z"/>
		<path class="st132" d="M94.5,270.6c10.1,9,26.3,18.3,5.1,14.5c-18-3.2-46.7-33.5-46.7-33.5s0.3-6.8,1.3-8.8
			C72.8,240.2,76.1,272.3,94.5,270.6z"/>
		<g>
			<g>
				<path class="st133" d="M234.9,144.9c-1.9-7.9-6-14.9-10.1-21.8c-2.1-3.5,0.6-1.8,1.6-2.1c-0.1-1-0.9-0.6-1.4-0.6
					c-3.5,0-7,0-10.6,0c0.1,0.7-0.3,1.1-0.6,1.7c-1.5,3.6-1.3,7.7,1.4,10.3c2.6,2.4,4.8,5.1,7.2,7.7c4.6,5.1,4.8,8.9,1.1,14.5
					c-0.8,1.2-1.8,2.2-2.7,3.3c-3.6,3.7-7.4,7.3-10.7,11.3c-2.6,3.1-3.7,6.6-1.9,10.3c3,6.1,7.5,11.1,13.2,14.8
					c0.2-0.9-0.5-1.3-0.9-1.9c-2.1-3-4.2-6-4.2-10c0-4.4,3.1-7.1,5.4-10.1c4.4-5.8,9.2-11.3,12.2-18.1
					C235.2,151.2,235.7,148.2,234.9,144.9z"/>
				<path class="st133" d="M219.5,195c-4.8-3.8-10-7.2-14-12c-5.4-6.4-7.2-10.7-1.4-19.8c2.5-3.9,5.9-7,8.8-10.5
					c1.7-2.1,2.3-4,0.4-6.1c-3.9-4-8-7.7-12.3-11.3c-2.9-2.5-6.3-5.4-4.2-10.3c0.4-0.9-0.6-0.8-1.2-0.8c-2.6,0.5-5.2,1.1-7.6,2.5
					c-8.6,2.1-16.9,4.9-24.9,8.4c-7.4,3.2-15.1,5.3-22.7,7.9c-7,2.4-14.3,4.2-21.4,6.3c-8.5,2.5-17.1,4.6-26,5.2
					c-3,0.2-6,0.7-8.8,2.3c-3.8,2.3-8.7,4.9-12.6,7c1.2,0.4,1.7,0.9,1.4,1.5c-2.2,5.4-3.7,11.3-3.4,16.8c0.2,4.5,1.1,9.1,3.4,13.1
					c3.3,5.7,10.2,10.4,15.1,14.4c10.2,8.3,21.6,13.6,33.8,18.6c4.3,1.8,8.8,3,13.4,3.8c5.2,0.8,10.4,1.8,15.7,2
					c6.7,0.2,13.4,2,20.2,0.6c1.2-0.3,29.9-6,23-7.4c-11.8,3.5-19.2-1.4-24.2-2c-8-0.9-15.9-2.3-23.6-4.1
					c-11.5-2.6-22.8-6.3-33.3-12c-9.4-5.1-17.6-11.5-23.2-20.7c-2.6-4.4-2.6-12,3.2-15.4c5.4-3.2,11.2-5.2,17.2-6.6
					c11.6-2.8,23.3-5.2,34.3-10.4c6.3-3,6.4-2.8,11.5,2.1c0.3,0.2,0.5,0.5,1.5,1.3c-1.1-2.7-2.8-3.8-4.2-5.2c-1.2-1.2-0.6-2,0.4-2.4
					c6.9-2.5,13.2-6.3,19.6-9.8c3.3-1.8,6.7-3.4,9-6.7c0.9-1.3,2.4-2.8,4.4-3c0.2,2,1.1,3.6,2.7,4.9c3.6,2.9,7.5,5.2,11.3,7.7
					c4,2.6,5.4,6.2,3.6,9.2c-2.3,3.7-4.9,7.2-7,11c-2.4,4.2-4.9,8.5-3,13.7c2,5.5,6.3,8.9,11.2,11.6c4.3,2.3,8.9,3.9,13.5,5.6
					c2.1,0.8,4.3,2.1,7.4,2c-1.5-1.1-2.6-1.8-3.7-2.5C221.4,196.9,220.1,195.5,219.5,195z"/>
			</g>
		</g>
		<path class="st133" d="M55.4,165.2c1.3,0,2.5,0,3.8,0c-1.4,2.4-2.5,4.9-3.1,7.6c-0.2,0.9-0.5,1.6-1.2,2.1
			c-5.5-0.6-10.9,0.3-16.4,0.9c-4.3,0.4-8.4,1-12.3,2.8c-3.8,1.7-5.9,4.5-5.5,7.1c0.4,3.1,3.4,5.3,7.6,6.1c2.4,0.5,4.9,0.3,7.3,1
			c0.3,2.5,0.9,4.9,3.1,6.6c0.5,0.4,1,1.1,0,1.3c-1.5,0.3-4.2,1.3-5.7-0.8c-0.8-1,0.4-1.4,0.4-2.4c0-0.6,1.1-1.4,0.1-1.9
			c-1.2-0.5-1.1,0.8-1.5,1.3c-1.3,1.6-0.7,2.8,0,4.2c-5.4-0.9-10.9-4.3-15.9-5.8c-0.8-0.2-1.7-1.2-2.2,0.4c0,0.3,0,0.6,0.1,0.9
			c-2-1.7-3-4.1-3.8-6.4c-1.2-3.7,0.9-6.3,3.5-8.7c0.1-0.1,0.1-0.2,0-0.3c0-0.2-0.2-0.3-0.4-0.3c2.2-2.1,5.1-2.9,7.8-3.7
			c5.5-1.7,10.5-4.6,15.9-6.6C42.9,168.4,49,166.3,55.4,165.2z"/>
		<path class="st134" d="M56.5,232.9c-0.8-0.2-1-0.8-1.1-1.6c-0.9-3.9-0.3-8-1-11.9c-0.3-0.3-0.6-0.6-0.9-0.9l0.7,0.3
			c0-1,0-2.1,0-3.1c-0.9-2-2.7-2.6-4.6-3.2c-5.8-2-12.2-1.8-17.9-4.2c-6.6-2-12.8-4.7-17.2-10.2c0,0-0.1,0-0.1,0c0,0,0-0.1,0-0.1
			c0.1-0.6-0.7-0.7-0.6-1.3c-0.6-0.8-1.4-1.6-1.9-2.5c-3.1-5.4-2.8-7.9,1.4-12.4c0.3-0.4,1-0.7-0.1-0.9c-0.5,0.2-1.1,0.4-1.6,0.7
			c-3.1,2.1-6.4,4.5-5.3,8.7c2.1,8.3,15.6,33.3,16.5,35.6c0.4,1,1.5,2,2.5,2.3c2.2,0.7,4.5,0.9,6.7,1.3c2.4,0.4,5,0.9,6.4,2.8
			c4.6,6.6,9.6,13,14.7,19.3c1.7-1.8,1-4.3,1.9-6.3c0-2.1,0-4.1,0.5-6.1c0.3-1.1,0.5-1.9,1.7-1.3c1.5,0.8,1.5,0,1.6-1.1
			C58.7,235.1,58.5,233.5,56.5,232.9z"/>
		<path class="st135" d="M99.5,285.1c2.1,0,3.7,1,5.1,2.5C102.7,287.2,101,286.4,99.5,285.1z"/>
		<path class="st136" d="M176.6,261.1c0.9,5.5,3.3,10.6,4,16.1c0.6,4.5,3,8.7,1.1,13c-0.6,1.4-12.5,1.9-12.8,0.4
			c-0.5-3.7-0.6-6.8-3.1-9.3c0.5-3.5-0.9-6.9-0.7-10.5c0-0.7-0.2-1.8-1.6-2.2c-3.4-0.9-3.9-2-2.9-5.6c-4.7-0.2-10.1,1.6-14.7,1.3
			c-9.3-0.7-19.4-2.7-28.4-5c-6.5-1.6-18-5.4-20.6-11.4C96.9,247.9,138.1,263,176.6,261.1z"/>
		<g>
			<path class="st137" d="M256.1,242.8c-4.6,2.8-9.3,5.6-14.5,6.9c-7.3,1.9-60.9,11.8-66.6,11.4c3.7,5.1,4.6,24.2,1.2,30.7
				c19.3-1.3,36.7-3.6,43.8-6.1c12.1-4.2,41.3-21.8,41.8-21.5C262.4,264.7,256.8,249,256.1,242.8z"/>
			<path class="st137" d="M170.1,262.4c-39.4,3.2-68.7-8.9-70.8-13.3c0,0-47.2-35.6-47.2-35.6s2.8,21,0.7,32.9
				c17.5-1.7,20.2,31.1,54.9,42.4c8.8,4.6,38.7,4.8,65.9,3.1C174.7,285.4,177.4,261.9,170.1,262.4z"/>
		</g>
		<path class="st0" d="M30.1,203.1c-1.3-1-2.8-1.2-4.4-1.3c-3.8-2.3-8.2-3.4-12-5.7c0-1.8,0.9-1.3,2-0.9c5.1,1.7,10.1,3.7,15.5,4.8
			c0.2-1.1-1.5-2.2-0.9-2.2c1.7-0.1,1.5-1.9,2.5-2.3c0.6-0.2,1.5,0,1.1,0.8c-0.8,1.4-1.2,3.1,0.2,3.8c1.6,0.8,1.9,0.4,4-0.4
			c-2.2-2.1-2.6-3.5-2.2-6.8c0.2,0,0.3,0,0.5,0c0.4,0.1,0.7,0.3,0.9,0.7c1.5,3.3,1.5,3.3,4.4,0.8c0.2-0.2,0.5-0.3,1.1,0
			c-0.8,1.3-2.1,2.1-3,3.3c3.1,2.6,4.5,1.4,6.5-1.7c1.1-1.7,3.4-0.2,4-1.9c3.1-2.9,2.2-5.4,2.6-9.2c0.4-3.5,1.1-7.8,1.5-11.3
			c1.1-3.2,2.8-5.7,4.8-8.6c1,0,2.1,0,3.2,0c-1.9,2.7-2,5.8-2.5,8.6c-0.8,4.2-0.5,8.6-1.5,12.6c-1.4,5.5-2.3,11.4-7.1,15.3
			c-3.5,2.8-7.4,3.6-11.8,2.9C36.4,204.1,33.2,203.6,30.1,203.1z"/>
		<path class="st133" d="M34.4,193.9c0.4,0.1,4.9,4.3,5.7,4.8c1.8,1,3.7,1.7,5.3,0c1.2-1.3,2.4-2.4,4.3-2.6c1.2-1.7,2.7-3.2,3.2-5.4
			c1.2-5.3,1.4-10.7,2.5-16c-5.8-0.1-11.5-0.7-17.3,0c-4.5,0.5-14.4,1.7-16.4,4c-2.1,2.4-2.3,3.4-2.4,6.3c0,3.3,3.9,5.1,6.6,6.1"/>
	</g>
</g>
</svg>
