<?xml version="1.0" encoding="utf-8"?>
<!-- Generator: Adobe Illustrator 22.0.0, SVG Export Plug-In . SVG Version: 6.00 Build 0)  -->
<svg version="1.1" id="Layer_1" xmlns="http://www.w3.org/2000/svg" xmlns:xlink="http://www.w3.org/1999/xlink" x="0px" y="0px"
	 viewBox="0 0 300 300" style="enable-background:new 0 0 300 300;" xml:space="preserve">
<style type="text/css">
	.st0{fill:#E08086;}
	.st1{fill:#B73E1D;}
	.st2{fill:#DD9225;}
	.st3{fill:#E27E3B;}
	.st4{fill:#2581A4;}
	.st5{fill:#3C9656;}
	.st6{fill:#B7533B;}
	.st7{fill:#9B5829;}
	.st8{fill:#F2E044;}
	.st9{fill:#5C3E6D;}
	.st10{fill:#CCA44C;}
	.st11{fill:#C16938;}
	.st12{fill:#2E7B45;}
	.st13{fill:#DD7258;}
	.st14{fill:#EF8379;}
	.st15{fill:#895E40;}
	.st16{fill:#90777A;}
	.st17{fill:#F9FAEB;}
	.st18{fill:#E2DCC4;}
	.st19{fill:#FFFEFE;}
	.st20{fill:#907F77;}
	.st21{fill:#51683C;}
	.st22{fill:#B8AFAC;}
	.st23{fill:#96806C;}
	.st24{fill:#C5BBB3;}
	.st25{fill:#7B6453;}
	.st26{fill:#634B36;}
	.st27{fill:#4F2E18;}
	.st28{fill:#93847E;}
	.st29{fill:#715338;}
	.st30{fill:#CABEB5;}
	.st31{fill:#6E5542;}
	.st32{fill:#BBA999;}
	.st33{fill:#7F6E68;}
	.st34{fill:#A29590;}
	.st35{fill:#513B2D;}
	.st36{fill:#637550;}
	.st37{fill:#847146;}
	.st38{fill:#6D5D3C;}
	.st39{fill:#729289;}
	.st40{fill:#359182;}
	.st41{fill:#46AC9D;}
	.st42{fill:#298777;}
	.st43{fill:#296355;}
	.st44{fill:#0E3329;}
	.st45{fill:#3F9687;}
	.st46{fill:#E48555;}
	.st47{fill:#F59159;}
	.st48{fill:#DADADA;}
	.st49{fill:#921428;}
	.st50{fill:#A8122E;}
	.st51{fill:#B21530;}
	.st52{fill:#B2B294;}
	.st53{fill:#DBD9C1;}
	.st54{fill:#D5D8BA;}
	.st55{fill:#EFEED8;}
	.st56{fill:#59AD6D;}
	.st57{fill:#83B967;}
	.st58{fill:#8FC07C;}
	.st59{fill:#86C95D;}
	.st60{fill:#94D07A;}
	.st61{fill:#9CD47C;}
	.st62{fill:#72B452;}
	.st63{fill:#7CB461;}
	.st64{fill:#419155;}
	.st65{fill:#2C8245;}
	.st66{fill:#4CA664;}
	.st67{fill:#7E4545;}
	.st68{fill:#8B4A48;}
	.st69{fill:#864646;}
	.st70{fill:#964D4D;}
	.st71{fill:#BB9F93;}
	.st72{fill:#E0B15C;}
	.st73{fill:#BB9248;}
	.st74{fill:#D3A54A;}
	.st75{fill:#F4C55F;}
	.st76{fill:#D8A745;}
	.st77{fill:#E9B94E;}
	.st78{fill:#F0CC84;}
	.st79{fill:#DDB366;}
	.st80{fill:#EBC169;}
	.st81{fill:#E2B864;}
	.st82{fill:#CDA55D;}
	.st83{fill:#ECCA8E;}
	.st84{fill:#ECDEC4;}
	.st85{fill:#D0C392;}
	.st86{fill:#EEE4D3;}
	.st87{fill:#DDCCAF;}
	.st88{fill:#7FAA52;}
	.st89{fill:#90C161;}
	.st90{fill:#AACF81;}
	.st91{fill:#E0CB90;}
	.st92{fill:#F3DF9D;}
	.st93{fill:#F7F1D6;}
	.st94{fill:#F6E8BF;}
	.st95{fill:#1E1E1E;}
	.st96{fill:#E9E6E2;}
	.st97{fill:#CB564A;}
	.st98{fill:#D86C6A;}
	.st99{fill:#CB4634;}
	.st100{fill:#CA4634;}
	.st101{fill:#9E3022;}
	.st102{fill:#DF7B60;}
	.st103{fill:#C94533;}
	.st104{fill:#9F3021;}
	.st105{fill:#E0785E;}
	.st106{fill:#E17A60;}
	.st107{fill:#E27A60;}
	.st108{fill:#CA4735;}
	.st109{fill:#DD8675;}
	.st110{fill:#DC7C6D;}
	.st111{fill:#C94A36;}
	.st112{fill:#C94634;}
	.st113{fill:#CA4633;}
	.st114{fill:#C94834;}
	.st115{fill:#DF765C;}
	.st116{fill:#9D3122;}
	.st117{fill:#E07B60;}
	.st118{fill:#B53A2A;}
	.st119{fill:#C94734;}
	.st120{fill:#A03021;}
	.st121{fill:#DD806B;}
	.st122{fill:#DE8170;}
	.st123{fill:#EAA7A4;}
	.st124{fill:#E5D6D2;}
	.st125{fill:#F0A7B4;}
	.st126{fill:#A06267;}
	.st127{fill:#9F6467;}
	.st128{fill:#BA544F;}
	.st129{fill:#D69578;}
	.st130{fill:#DDA792;}
	.st131{fill:#91443A;}
	.st132{fill:#9B5148;}
	.st133{fill:#E7A2A9;}
	.st134{fill:#8C411D;}
	.st135{fill:#9E5029;}
	.st136{fill:#6F2913;}
	.st137{fill:#A9594A;}
	.st138{fill:#C07161;}
	.st139{fill:#5F801B;}
	.st140{fill:#409658;}
	.st141{fill:#AF665A;}
	.st142{fill:#712912;}
	.st143{fill:#CE847C;}
	.st144{fill:#B05932;}
	.st145{fill:#C97D71;}
	.st146{fill:#DF8551;}
	.st147{fill:#E58751;}
	.st148{fill:#834023;}
	.st149{fill:#8B431F;}
	.st150{fill:#E68751;}
	.st151{fill:#9E5A51;}
	.st152{fill:#EED4C6;}
	.st153{fill:#E1C5B0;}
	.st154{fill:#CDB3A1;}
	.st155{fill:#ECC0A2;}
	.st156{fill:#F4DECE;}
	.st157{fill:#F1D3BF;}
	.st158{fill:#DFBE94;}
	.st159{fill:#F1B6A8;}
	.st160{fill:#D36A74;}
	.st161{fill:#F5AEAD;}
	.st162{fill:#F1B1AE;}
	.st163{fill:#CC404E;}
	.st164{fill:#D55E66;}
	.st165{fill:#CB6A6C;}
	.st166{fill:#F4D8C3;}
	.st167{fill:#F5AEAB;}
	.st168{fill:#F27F89;}
	.st169{fill:#F4CCC0;}
	.st170{fill:#EE5A6D;}
	.st171{fill:#EDC8B4;}
	.st172{fill:#CD968B;}
	.st173{fill:#D29F93;}
	.st174{fill:#F2DCC5;}
	.st175{fill:#E2C5C5;}
	.st176{fill:#EE7D79;}
	.st177{fill:#EB6765;}
	.st178{fill:#DB4144;}
	.st179{fill:#F39E96;}
	.st180{fill:#F58A84;}
	.st181{fill:#EC6967;}
	.st182{fill:#E05656;}
	.st183{fill:#D42C2C;}
	.st184{fill:#D93435;}
	.st185{fill:#F2A19A;}
	.st186{fill:#F3AFA9;}
	.st187{fill:#E47875;}
	.st188{fill:#C94442;}
	.st189{fill:#E45F56;}
	.st190{fill:#F2E6E0;}
	.st191{fill:#F0E0D3;}
	.st192{fill:#F3D7CF;}
	.st193{fill:#F2D5CB;}
	.st194{fill:#F1D2C5;}
	.st195{fill:#EFE4DD;}
	.st196{fill:#F2DBD4;}
	.st197{fill:#F5D5C5;}
	.st198{fill:#F3C8B8;}
	.st199{fill:#F1C3B8;}
	.st200{fill:#F4CFBC;}
	.st201{fill:#F3C9BD;}
	.st202{fill:#F4C9BD;}
	.st203{fill:#F4D1C5;}
	.st204{fill:#F2B7A9;}
	.st205{fill:#F4D2C6;}
	.st206{fill:#F4CFBD;}
	.st207{fill:#F2C5B9;}
	.st208{fill:#F3C7B8;}
	.st209{fill:#F4CCBF;}
	.st210{fill:#F2CEBE;}
	.st211{fill:#F3BDAD;}
	.st212{fill:#F2B2A2;}
	.st213{fill:#F4B8A7;}
	.st214{fill:#F5B3A1;}
	.st215{fill:#F0B6A8;}
	.st216{fill:#F3B7AD;}
	.st217{fill:#F19787;}
	.st218{fill:#F28F7C;}
	.st219{fill:#F2C9B5;}
	.st220{fill:#EEAE9A;}
	.st221{fill:#F5928B;}
	.st222{fill:#F5968C;}
	.st223{fill:#F6B5A5;}
	.st224{fill:#F38F85;}
	.st225{fill:#F5988B;}
	.st226{fill:#F2B39C;}
	.st227{fill:#F0BA9D;}
	.st228{fill:#F1B39C;}
	.st229{fill:#EF9189;}
	.st230{fill:#EF9A90;}
	.st231{fill:#E59489;}
	.st232{fill:#EEAB9A;}
	.st233{fill:#F1A195;}
	.st234{fill:#A2C5C5;}
	.st235{fill:#8AADAC;}
	.st236{fill:#B17139;}
	.st237{fill:#AB6B4B;}
	.st238{fill:#BF7D60;}
	.st239{fill:#C98426;}
	.st240{fill:#C6743C;}
	.st241{fill:#CEAA83;}
	.st242{fill:#C8662A;}
	.st243{fill:#AA6B4B;}
	.st244{fill:#EEE166;}
	.st245{fill:#CC5A40;}
	.st246{fill:#CEAA82;}
	.st247{fill:#C1573E;}
	.st248{fill:#3A9656;}
	.st249{fill:#46A35F;}
	.st250{fill:#44A160;}
	.st251{fill:#288245;}
	.st252{fill:#4C345B;}
	.st253{fill:#6F5182;}
	.st254{fill:#382447;}
	.st255{fill:#482D59;}
	.st256{fill:#56386B;}
	.st257{fill:#A85C36;}
	.st258{fill:#FAE19C;}
	.st259{fill:#B5DAD7;}
	.st260{fill:#F2E3C1;}
	.st261{fill:#F6E2AF;}
	.st262{fill:#F7D989;}
	.st263{fill:#E5A045;}
	.st264{fill:#F8E28F;}
	.st265{fill:#F9E198;}
	.st266{fill:#F2B22C;}
	.st267{fill:#F3B124;}
	.st268{fill:#C68226;}
	.st269{fill:#E09E46;}
	.st270{fill:#E2C888;}
	.st271{fill:#D3CA23;}
	.st272{fill:#DDB3B1;}
	.st273{fill:#165229;}
	.st274{fill:#E4E4E4;}
	.st275{fill:#DCDEBD;}
	.st276{fill:#DABBB4;}
	.st277{fill:#BAAF24;}
	.st278{fill:#BA5138;}
	.st279{fill:#9B3C2C;}
	.st280{fill:#D86F6A;}
	.st281{fill:#B4B3B3;}
	.st282{fill:#C8B167;}
	.st283{fill:#F8D776;}
	.st284{fill:#E34340;}
	.st285{fill:#A36720;}
	.st286{fill:#F0E3C5;}
	.st287{fill:#C17B1B;}
	.st288{fill:#E5A65C;}
	.st289{fill:#E2A14B;}
	.st290{fill:#CAE4E1;}
	.st291{fill:#97C4BF;}
	.st292{fill:#80AAA4;}
	.st293{fill:#C5DFDB;}
	.st294{fill:#ABC9C4;}
	.st295{fill:#A8453C;}
	.st296{fill:#35180D;}
	.st297{fill:#F76253;}
	.st298{fill:#69210D;}
	.st299{fill:#8E2614;}
	.st300{fill:#822914;}
	.st301{fill:#F1E99F;}
	.st302{fill:#CEBB31;}
	.st303{fill:#F7F8DB;}
	.st304{fill:#D3E8E5;}
	.st305{fill:#BFDCD6;}
	.st306{fill:#441D11;}
	.st307{fill:#726933;}
	.st308{fill:none;stroke:#726933;stroke-width:0.5;stroke-miterlimit:10;}
	.st309{fill:none;stroke:#726933;stroke-width:2;stroke-miterlimit:10;}
	.st310{fill:#736933;}
	.st311{fill:#E4955E;}
	.st312{fill:#CE763A;}
	.st313{fill:#F5AC79;}
	.st314{fill:#D3C4C1;}
	.st315{fill:#E9D8D4;}
	.st316{fill:#A8112E;}
	.st317{fill:#5E5655;}
	.st318{fill:#F2EDD3;}
	.st319{fill:#D6C7C4;}
	.st320{fill:#EBDFDC;}
</style>
<g>
	<g>
		<g>
			<path class="st152" d="M82.5,249.2c-1.9-15,3.8-12.7,11.4-24.4c8.1-12.5,16.9-24.2,28.9-33.1c10.2-7.6,21.9-12.4,33.6-17.1
				c13.4-5.3,25.9-11.9,37.2-21.1c11.7-9.5,24.1-18.2,40.5-17.2c17.8,1.2,32.1,9.1,43.1,23c9.9,12.4,13.7,27.2,16.4,42.6
				c1.7,9.9,0.3,19.8,1,29.7c0,0.3-0.7,0.6-1.1,1c-0.1-2.1,0.1-4.3-0.6-6.5c-0.2,9.8-5.9,15.5-13.8,19.6c-6.5,2.1-13.1,3.7-19.2,6.7
				c-6.5,3.1-11.4,11.6-18.3,12.7c-12.1,1.8-20.6,7.4-32.8,8.2c-13.9,0.9-18.6,6-42.4,8.8c-12.6,1.5-12.3-6.1-25-5.5
				c-13.8,0.6-31.5-4.1-41.7-14C96.8,259.7,86.1,247.4,82.5,249.2z"/>
			<path class="st153" d="M82.2,247.7c3.8-1.9,14.7,11.7,17.4,14.7c6.6,7.4,12.4,7.6,21.5,8.5c13.4,1.3,53.1,9.7,66.1,6.9
				c4.5-1,53.4-19.6,69.5-24.5c7.7-2.3,15.2-5.4,22.8-7.9c-2.9,7.9-7.7,14.5-13.9,20.3c-1.9,1.7-1.8,1.8-1.2,4.1
				c-8.4,4-17.6,5.3-26.7,6.8c-4.2,0.7-34.3,13.4-46.3,15.9c-14.4,3-48-4.5-53.6-4c-16.3,1.5-36-6.1-49.5-17.5
				C81,264.7,84,254.9,82.2,247.7z"/>
			<path class="st154" d="M264.4,269.6c-3.2-2.8,0.8-3.5,1.6-4.3c5.9-5.8,10.6-12.2,13.4-20c7.9-4.1,13.2-10,13.9-19.5
				c0,2.3,0,4.5,0,6.8c0.1,6.4-0.7,12.5-2.1,18.8c-1.7,7.7-7.4,10.5-13.3,13.3C273.6,266.6,269.3,268.9,264.4,269.6z"/>
			<path class="st0" d="M198.6,198.9c-2.1-1.8-6.4-11.2-7.2-13.3c-2.8-7-19.9,2.1-19.8-5.9c0-3.8,6.3-3.6,9.2-5.4
				c13.5-8.2,19.7-23.1,33.8-30.3c10.9-5.6,22.5-5.1,33.9-0.7c15.8,6.1,27.6,16.4,33.4,32.9c2.8,8-3.6,11.8-6.7,17.2
				c-1.5,2.5-5,2.6-6.1,5.5c-11.6,5.6-20.2,15.2-30.3,22.7c-8.1,6-9.2-1.6-15.5-9.1C211.2,198.4,204.3,204,198.6,198.9z"/>
			<path class="st0" d="M128.3,262.7c-11.3-0.7-22.2-2.8-29.7-11.3c-4.5-5-8.2-7.3-5.6-12.1c12.9-23.4,29.6-37.1,54.9-49.7
				c12.1-6,16.6-5.2,22.7,5.8c4,7.2,18,5.2,18.1,13.3c-2.2,2.3-13.1,15.5-14.7,17.9c-5.3,8.1-13.1,14.5-15.7,24.4
				c-1.2,4.5,0.6,6.9-3,10.6c-6.2,6.5-4.9,4-13.3,4.4C136.9,266.1,133.3,262.7,128.3,262.7z"/>
			<path class="st0" d="M243.6,248.7c-0.6,6-5.9,4.5-9.3,5.7c-1.7,0.6-5.2,2.3-7.1,2.3c-6.2,0-9.9,4-16.2,4.1
				c-1.2,0-17.6,3.6-19.5,4.1c-19.3,4.8-19.3,4.8-30.1,4.7c-7.6-0.1,1.8-19.4,6.3-25.1c4.3-5.5,19.1-27.5,23.8-28.3
				c9.5-0.6,19-0.3,26.7,5.9c8.5,6.9,15.8,15.2,23.6,22.9C242.9,246.2,241.3,248.4,243.6,248.7z"/>
			<path class="st0" d="M270.2,200c3.1-0.1,5-2.7,7.7-3.8c6.8-2.9,10.7-1.6,10.7,5.5c0,9.2,1.2,18.5-0.9,27.8
				c-0.9,3.7-2.3,6.5-5.3,8.8c-7,5.3-15.5,7.4-23.5,10.3c-5.3,1.9-10.1-1-14.2-4.5c-1.5-3.5-5.4-4.6-7.9-7.1
				c-3.4-3.3-2.6-5.7-0.1-8.7c3.8-4.6,8.7-7.8,13.5-11c3.4-2.3,6.4-5,8.9-8C262.3,205.5,266.9,203.6,270.2,200z"/>
			<path class="st155" d="M270.2,200c-9.6,5.7-15.4,16-25.7,21c-3.5,1.7-6,5.4-8.7,8.4c-2.1,2.4-2,4.6,0.6,7.2
				c2.6,2.7,6.6,3.8,8.3,7.4c-2.5,1-0.6,3.1-1.2,4.6c-10.4-12.7-20.1-26.3-36.9-31.7c-5.1-1.6-10.2-0.3-15.2-0.8
				c1.4-2.5,3.7-0.5,5.5-1.2c1.6-0.6,3.8,1.5,4.9-1.2c7.2-0.6,13.1,3,18.5,6.7c9.4,6.3,12.4,7.1,21-0.7c8.7-7.8,17.3-15.5,27.7-21.1
				C269,199.7,269.4,200.1,270.2,200z"/>
		</g>
		<g>
			<path class="st152" d="M148.8,198.3c-3-6.1-0.6-11.7,3.9-16.5c7.3-7.7,16.4-12.3,27.8-12.5c6.8-0.1,13.8,0.6,16.6,7.4
				c2.8,6.6,6.3,25,1.4,30.5C191.2,215.3,151.7,204.4,148.8,198.3z"/>
			<path class="st155" d="M158.1,194.3c-1.7-4.2,0.1-7.4,3.4-10.3c4.9-4.3,10.3-7.5,17.7-7.2c7.7,0.3,16,18.7,13.5,25
				C190,208.4,159.9,199,158.1,194.3z"/>
		</g>
	</g>
	<g>
		<g>
			<path class="st156" d="M5.7,161.2c-1.4-10.8,2.7-9.2,8.2-17.6c5.8-9,12.2-17.5,20.9-23.9c7.4-5.5,15.8-9,24.3-12.3
				c9.7-3.8,18.7-8.6,26.9-15.2c8.4-6.9,17.4-13.2,29.2-12.4c12.9,0.9,23.2,6.6,31.1,16.6c7.1,9,9.9,19.7,11.8,30.8
				c1.3,7.2,0.2,14.3,0.7,21.4c0,0.2-0.5,0.5-0.8,0.7c0-1.5,0.1-3.1-0.5-4.7c-0.1,7.1-4.2,11.2-10,14.2c-4.7,1.5-9.4,2.7-13.9,4.8
				c-4.7,2.3-8.2,8.4-13.2,9.1c-8.7,1.3-14.9,5.3-23.7,5.9c-10,0.7-13.4,4.4-30.6,6.4c-9.1,1.1-8.8-4.4-18.1-4
				c-10,0.4-22.8-3-30.1-10.1C16,168.8,8.3,159.9,5.7,161.2z"/>
			<path class="st157" d="M5.4,160.1c2.7-1.3,10.6,8.5,12.6,10.6c4.8,5.3,9,5.5,15.5,6.1c9.7,0.9,38.4,7,47.7,5
				c3.3-0.7,38.5-14.2,50.2-17.7c5.5-1.7,10.9-3.9,16.5-5.7c-2.1,5.7-5.6,10.5-10,14.6c-1.3,1.2-1.3,1.3-0.9,2.9
				c-6.1,2.9-12.7,3.8-19.3,4.9c-3,0.5-24.8,9.7-33.5,11.5c-10.4,2.1-34.6-3.2-38.7-2.9c-11.8,1.1-26-4.4-35.8-12.6
				C4.6,172.4,6.8,165.3,5.4,160.1z"/>
			<path class="st155" d="M137.1,175.9c-2.3-2,0.6-2.5,1.2-3.1c4.2-4.2,7.7-8.8,9.7-14.4c5.7-3,9.5-7.2,10-14.1c0,1.6,0,3.3,0,4.9
				c0.1,4.6-0.5,9-1.5,13.6c-1.3,5.5-5.4,7.6-9.6,9.6C143.8,173.7,140.6,175.4,137.1,175.9z"/>
			<path class="st0" d="M89.6,124.9c-1.5-1.3-4.6-8.1-5.2-9.6c-2-5.1-14.4,1.5-14.3-4.2c0-2.7,4.6-2.6,6.7-3.9
				c9.8-5.9,14.2-16.7,24.4-21.9c7.9-4,16.3-3.7,24.5-0.5c11.4,4.4,19.9,11.8,24.1,23.8c2,5.8-2.6,8.5-4.8,12.4
				c-1.1,1.8-3.6,1.9-4.4,4c-8.3,4.1-14.6,11-21.9,16.4c-5.9,4.3-6.6-1.2-11.2-6.5C98.6,124.5,93.7,128.6,89.6,124.9z"/>
			<path class="st0" d="M38.8,171c-8.1-0.5-16-2-21.5-8.1c-3.2-3.6-5.9-5.3-4-8.7c9.3-16.9,21.4-26.8,39.7-35.9
				c8.7-4.3,12-3.8,16.4,4.2c2.9,5.2,13,3.7,13.1,9.6c-1.6,1.7-9.5,11.2-10.6,12.9c-3.8,5.8-9.5,10.5-11.4,17.6
				c-0.9,3.2,0.4,5-2.2,7.7c-4.5,4.7-3.5,2.9-9.6,3.2C45,173.4,42.4,171,38.8,171z"/>
			<path class="st0" d="M122,160.9c-0.4,4.3-4.3,3.2-6.7,4.1c-1.2,0.4-3.8,1.6-5.1,1.6c-4.5,0-7.2,2.9-11.7,3
				c-0.8,0-12.7,2.6-14.1,3c-14,3.5-14,3.5-21.7,3.4c-5.5,0,1.3-14,4.5-18.1c3.1-3.9,13.8-19.8,17.2-20.4c6.9-0.4,13.7-0.2,19.3,4.3
				c6.2,5,11.4,11,17,16.5C121.6,159,120.4,160.6,122,160.9z"/>
			<path class="st0" d="M141.3,125.7c2.3,0,3.6-1.9,5.5-2.8c4.9-2.1,7.7-1.1,7.8,4c0,6.7,0.9,13.4-0.6,20.1
				c-0.6,2.7-1.7,4.7-3.8,6.4c-5.1,3.9-11.2,5.4-17,7.4c-3.8,1.3-7.3-0.7-10.3-3.2c-1.1-2.6-3.9-3.3-5.7-5.1
				c-2.4-2.4-1.8-4.1-0.1-6.3c2.7-3.3,6.3-5.7,9.8-8c2.5-1.6,4.6-3.6,6.4-5.8C135.5,129.6,138.9,128.3,141.3,125.7z"/>
			<path class="st157" d="M141.3,125.7c-6.9,4.1-11.1,11.5-18.6,15.2c-2.5,1.2-4.4,3.9-6.3,6.1c-1.5,1.7-1.4,3.3,0.5,5.2
				c1.9,1.9,4.8,2.7,6,5.4c-1.8,0.7-0.4,2.3-0.8,3.3c-7.5-9.2-14.5-19-26.7-22.9c-3.6-1.2-7.4-0.2-11-0.6c1-1.8,2.7-0.3,4-0.8
				c1.1-0.5,2.8,1.1,3.6-0.8c5.2-0.5,9.5,2.2,13.4,4.8c6.8,4.6,9,5.1,15.2-0.5c6.3-5.6,12.5-11.2,20-15.2
				C140.4,125.4,140.7,125.7,141.3,125.7z"/>
		</g>
		<g>
			<path class="st156" d="M53.6,124.4c-2.1-4.4-0.4-8.5,2.8-11.9c5.2-5.5,11.8-8.9,20.1-9c4.9-0.1,10,0.4,12,5.3
				c2,4.8,4.6,18.1,1,22C84.2,136.7,55.7,128.8,53.6,124.4z"/>
			<path class="st158" d="M60.3,121.5c-1.2-3,0.1-5.4,2.4-7.4c3.6-3.1,7.5-5.4,12.8-5.2c5.6,0.2,11.5,13.5,9.8,18.1
				C83.4,131.8,61.6,124.9,60.3,121.5z"/>
		</g>
	</g>
</g>
</svg>
