<?xml version="1.0" encoding="utf-8"?>
<!-- Generator: Adobe Illustrator 23.0.3, SVG Export Plug-In . SVG Version: 6.00 Build 0)  -->
<svg version="1.1" id="Layer_1" xmlns="http://www.w3.org/2000/svg" xmlns:xlink="http://www.w3.org/1999/xlink" x="0px" y="0px"
	 viewBox="0 0 300 300" style="enable-background:new 0 0 300 300;" xml:space="preserve">
<style type="text/css">
	.st0{fill:#EC998E;}
	.st1{fill:#E28881;}
	.st2{fill:#E58876;}
	.st3{fill:#B73E1D;}
	.st4{fill:#DD7258;}
	.st5{fill:#9F381F;}
	.st6{fill:#CC4E3A;}
</style>
<title>ICON 3</title>
<path class="st0" d="M294.8,171.7v39.6c0,47.1-52.9,85.3-118.1,85.3c-20.7,0.1-41.1-3.9-60.2-12c-19.7-8.5-40.4-14.2-60.7-20.9
	c-29.5-9.8-49.7-29.6-49.7-52.4v-39.4c0-0.7,0-1.4,0.1-2.1c0-0.5,0.1-1,0.1-1.5c0-0.3,0.1-0.6,0.1-1c0-0.4,0.1-0.8,0.1-1.1
	c0-0.3,0.1-0.7,0.2-1c0-0.1,0-0.2,0-0.2c0.1-0.3,0.1-0.6,0.2-1c0.1-0.3,0.1-0.7,0.2-1c0.2-0.8,0.4-1.6,0.6-2.3
	c0.1-0.3,0.2-0.6,0.3-1c0-0.1,0.1-0.2,0.1-0.3c0.2-0.6,0.5-1.3,0.7-1.9c0.3-0.7,0.6-1.4,0.9-2.1c0.2-0.3,0.3-0.7,0.5-1
	c0.2-0.3,0.3-0.7,0.5-1c0.4-0.7,0.7-1.4,1.1-2c0.2-0.3,0.4-0.7,0.6-1c0.6-1,1.3-2,2-3c2.3-3.3,5.1-6.4,8.3-9.3c1-0.9,1.9-1.7,3-2.6
	c3.8-3.1,8-5.9,12.6-8.4c2.9-1.6,6-3.1,9.3-4.5c0.9-0.4,1.9-0.8,2.8-1.1c1.4-0.5,2.9-1.1,4.3-1.6c0.3-0.1,0.6-0.2,1-0.3
	c12.3-4.1,24.8-7.8,37-12c8-2.7,15.9-5.6,23.7-9c3.5-1.5,7-2.8,10.5-4c0.1,0,0.2-0.1,0.3-0.1c0.6-0.2,1.1-0.4,1.7-0.6
	c0.9-0.3,1.8-0.6,2.7-0.8c14.6-4.4,29.7-6.6,45-6.5C241.9,86.6,294.7,124.7,294.8,171.7z"/>
<path class="st1" d="M185.1,289.4c-20.7,0.1-41.1-3.9-60.2-11.9c-19.7-8.5-40.4-14.2-60.7-20.9c-29.5-9.8-49.6-29.6-49.7-52.4v-39.4
	c0-11.6,5.3-22.5,14.3-31.6C14.8,143.4,6.2,157,6.2,171.9v39.4c0,22.8,20.2,42.6,49.7,52.4c20.3,6.8,41,12.4,60.7,20.9
	c19,8,39.5,12.1,60.2,11.9c38.6,0,72.9-13.4,94.4-34C249.6,279,219,289.4,185.1,289.4z"/>
<path class="st2" d="M176.8,86.6c-18.8-0.1-37.4,3.2-55,9.8c-19.6,7.5-39.1,15.5-59.3,21.1c-33,9-56.3,29.9-56.3,54.4
	s23.2,45.4,56.2,54.4c20.3,5.5,39.7,13.6,59.3,21.1c17.6,6.6,36.2,9.9,55,9.8c65.2,0,118.1-38.2,118.1-85.3S241.9,86.6,176.8,86.6z"
	/>
<path class="st3" d="M280.9,181c1.3-7.2-3.4-14.1-10.6-15.5c-0.8-0.1-1.6-0.2-2.4-0.2h-38.7c-26.3,0-25.1,9.9-25.1,13.1
	c0,3.2,1.3,6.2,3.5,8.5c8.7,8.7,12.3,17.1,13.9,33c0.8,6.8,6.9,11.7,13.6,10.9c1.5-0.2,3-0.6,4.4-1.3
	C261.7,218.2,277.2,200.9,280.9,181z"/>
<path class="st4" d="M294.8,171.7v25c-3.6,9.1-9.3,17.7-16.8,25.4l-0.3,0.3c-0.1,0.1-0.2,0.2-0.3,0.3c-8,8-17.2,14.6-27.3,19.7
	c-3.6,1.9-7.6,2.8-11.7,2.8c-0.4,0-0.8,0-1.2,0c-12.6-0.5-22.9-10.2-24.2-22.8c-0.4-4.3-1-7.9-1.8-10.9c-0.8-3-1.8-5.5-3.1-7.6
	c-1.8-3.1-0.8-7.1,2.3-9c0.9-0.6,2-0.9,3-0.9c2.4-0.1,4.7,1,6,3.2c1.4,2.3,2.5,4.8,3.4,7.4l0.1,0.2v1.5c0,0,0,0,0,0c0,0,0,0,0,0v0.1
	c0,0,0,0,0,0c0,0,0,0,0,0v2c0,0,0,0.1,0,0.1v0.1c0,0.1,0.1,0.2,0.1,0.2v1c0,0,0,0,0,0c0,0,0,0,0,0c0,0.1,0,0.1,0,0.1v0.4
	c0.1,0.1,0.1,0.2,0.1,0.3v0.1c0,0,0,0.1,0,0.1v0.1c0,0.1,0,0.1,0,0.1v1.1c0,0,0,0,0,0.1s0,0,0,0v0.1c0,0.1,0,0.1,0,0.1c0,0,0,0,0,0
	c0,0,0,0,0,0v5.6c0,0,0,0,0,0v0.2c0.6,6.3,6,11.1,12.3,11c1.8,0,3.6-0.4,5.3-1.2c0.1-0.1,0.3-0.1,0.4-0.2h0.5l0.1-0.1h0.1l0.1-0.1
	l0.1-0.1h0.1l0.2-0.1l0.2-0.1h0.1l0.2-0.1h0.1l0.4-0.2l0.2-0.1l0.2-0.2h0.1l0.2-0.1h0.1l0.3-0.2c2-1.1,3.9-2.3,5.7-3.6
	c5.5-3.7,10.5-8,15.1-12.8l0.3-0.2l0.2-0.3c0.3-0.3,0.6-0.6,0.9-0.9c0.1-0.1,0.1-0.1,0.2-0.2c0.1-0.1,0.1-0.1,0.2-0.2l0.1-0.1
	l0.1-0.1c0.1-0.1,0.2-0.2,0.3-0.3c0.1-0.1,0.1-0.1,0.2-0.2c3.3-3.7,6.1-7.7,8.3-12c2.3-4.4,4-9,5.2-13.9l0.1-0.3v-2.6c0,0,0,0,0,0
	c0,0,0,0,0,0v-0.1c0-0.1,0-0.1,0-0.1v-0.3c0-0.1,0-0.2,0-0.3v-1.1c0-0.1,0-0.2,0-0.3c-0.2-3.5,2.4-6.5,5.9-6.9c0.2,0,0.4,0,0.6,0
	l4.6,1C293.1,171.1,294,171.3,294.8,171.7L294.8,171.7z"/>
<path class="st3" d="M176.8,124.9c8.7,7.3,18.2,13.5,28.4,18.6c21.5,10.5,52.1,8.8,52.1,8.8c9.9,0,14.7-11.7,7.9-19
	c-16.4-17.7-43.7-30.2-75.4-32.9C163.6,99.8,163.6,112.9,176.8,124.9z"/>
<path class="st4" d="M192.5,137.5c-3.6,0-6.6,2.9-6.6,6.5c0,2.3,1.2,4.5,3.2,5.7c3.4,2,6.8,3.8,10.3,5.6
	c18.1,8.9,40.8,10.2,52.7,10.2c2.8,0,4.8-0.1,5.6-0.1c1,0,2-0.1,3-0.2c0.5-0.1,1-0.2,1.5-0.3c9.7-1.9,17.2-9.6,18.9-19.4
	c0.7-3.6-1.7-7-5.3-7.6c-3.6-0.7-7,1.7-7.6,5.3l0,0c0,0,0,0,0,0.1l0,0l0,0l0,0l0,0l0,0l0,0l0,0l0,0l0,0l0,0l0,0l0,0l0,0l0,0l0,0
	c0,0.1-0.1,0.3-0.1,0.4c-0.5,1.8-1.4,3.4-2.6,4.8l0,0l0,0l0,0l0,0l0,0l0,0l0,0l0,0l0,0l-0.1,0.1l0,0l0,0l0,0l0,0l0,0l0,0l0,0
	l-0.1,0.1l0,0l0,0l0,0l0,0l0,0l0,0l0,0l0,0l0,0l0,0h-0.6l0,0l0,0l0,0h-0.1l0,0l0,0l-0.3,0.3l0,0l0,0l0,0l0,0c-1.3,1-2.8,1.6-4.3,1.9
	l-0.3,0.1c-0.1,0-0.2,0-0.4,0c-0.2,0-0.5,0-0.7,0.1h-0.9c0,0-1.9,0.1-5.2,0.1c-9.6,0-30.8-1-46.9-8.9h-0.1l0,0l0,0l-0.1-0.1l0,0
	h-0.1l0,0L205,142h-0.1l-0.1-0.1h-0.1l0,0l-0.2-0.1l0,0l-0.1-0.1l0,0l0,0l0,0l-0.1-0.1l0,0h-0.1l0,0h-0.1l0,0h-0.1l0,0H204l0,0h-0.1
	l0,0h-0.1h-0.1l0,0l0,0l0,0l0,0l0,0l0,0l0,0l0,0l0,0l0,0l0,0h-0.1l0,0l0,0h-0.1l0,0l0,0l0,0l0,0l0,0h-0.1l0,0l0,0l0,0l0,0l0,0
	l-0.2-0.1l0,0h-0.1l0,0c-1.3-0.7-2.7-1.4-4-2.2l0,0l0,0l0,0l0,0l0,0h-0.1l0,0l0,0h-0.1l0,0l0,0h-0.1l0,0l0,0l0,0
	c-0.6-0.3-1.2-0.7-1.8-1C195.9,137.4,194.1,137.1,192.5,137.5z"/>
<path class="st3" d="M191,178.5c0-4,1-7.9,2.9-11.4c3.4-6.3,1.2-14.1-5-17.6c-9-5.4-17.5-11.6-25.3-18.6c-0.6-0.5-1.8-1.7-3.4-3.2
	c-14.2-13.7-35-18.1-53.6-11.3c-16.8,4.8-16.3,20.8-8.6,28.3c21,20.1,25.2,52.1,26,73.2c0,13.1,9.6,19.8,13.3,20.9
	c12.8,3.6,26.1,5.4,39.4,5.4c1.9,0,3.7,0,5.5-0.1c14.5-0.5,25.9-12.7,25.3-27.2c-0.1-1.6-0.3-3.2-0.6-4.8c-1.2-6-4.2-11.6-8.7-15.8
	C193.7,191.6,191,185.2,191,178.5z"/>
<path class="st4" d="M208.5,191.7c-3.6,0-6.6,3-6.5,6.6c0,1.3,0.4,2.5,1,3.5l0,0v0.1l0,0l0,0l0,0l0,0l0,0l0,0c0,0,0,0.1,0,0.1l0,0
	l0,0l0,0l0,0l0,0l0,0l0,0c0,0,0,0.1,0.1,0.1l0,0l0,0l0,0c1,1.5,1.8,3.2,2.4,4.9l0,0c0,0.1,0,0.2,0.1,0.2l0,0l0,0l0,0l0.1,0.2l0,0
	l0,0l0,0l0,0l0,0v0.1l0,0l0,0l0,0l0,0l0,0v0.1l0,0l0,0l0,0l0,0l0,0l0,0l0,0v0.1l0,0l0,0v0.1l0,0l0,0c0,0,0,0,0,0.1l0,0v0.1v0.1v0.1
	l0,0l0,0l0,0l0,0l0,0v0.2l0,0v0.1l0,0l0,0l0,0v0.1l0,0v0.1l0,0l0,0l0,0l0,0l0,0l0,0l0,0l0,0l0,0v0.1l0,0l0,0l0,0l0,0l0,0v0.1l0,0
	l0,0l0,0l0,0l0,0l0,0l0,0l0,0l0,0l0,0l0,0l0,0l0,0l0,0l0,0c0,0,0,0.1,0,0.1l0,0l0,0l0,0l0,0l0,0l0,0l0,0l0,0l0,0c0,0,0,0.1,0,0.1
	l0,0l0,0l0,0v0.1l0,0l0,0l0,0l0,0l0,0l0,0l0,0l0,0l0,0l0,0l0,0l0,0c0,0,0,0.1,0,0.1l0,0l0,0l0,0l0,0l0,0l0,0l0,0c0,0,0,0.1,0,0.1
	l0,0l0,0l0,0l0,0l0,0l0,0l0,0l0,0l0,0c0,0,0,0,0,0.1l0,0l0,0l0,0v0.1l0,0l0,0l0,0l0,0l0,0l0,0l0,0l0,0l0,0l0,0l0,0l0,0l0,0l0,0
	c0,0,0,0.1,0,0.1l0,0l0,0l0,0l0,0l0,0l0,0l0,0l0,0l0,0l0,0l0,0l0,0l0,0l0,0l0,0l0,0l0,0l0,0l0,0l0,0l0,0l0,0l0,0l0,0l0,0l0,0l0,0
	l0,0l0,0l0,0l0,0l0,0l0,0l0,0l0,0l0,0l0,0l0,0l0,0l0,0l0,0l0,0l0,0l0,0l0,0l0,0l0,0l0,0l0,0l0,0l0,0l0,0l0,0l0,0l0,0l0,0l0,0l0,0
	l0,0l0,0l0,0l0,0l0,0l0,0l0,0l0,0l0,0l0,0l0,0l0,0l0,0l0,0l0,0l0,0l0,0l0,0l0,0l0,0l0,0l0,0l0,0l0,0l0,0l0,0l0,0l0,0l0,0v0.1l0,0
	l0,0l0,0v0.1l0,0v0.1l0,0l0,0l0,0l0,0l0,0v0.1l0,0l0,0c0.8,6.8-1.1,13.6-5.2,18.9c-0.4,0.5-0.8,1.1-1.3,1.6l0,0l0,0l0,0l0,0l0,0l0,0
	l0,0l0,0l0,0l0,0l0,0l0,0l0,0l0,0l0,0l0,0l0,0l0,0l0,0l0,0l0,0l0,0l0,0l0,0l0,0l0,0l0,0l0,0l0,0l0,0l0,0l0,0l0,0l0,0l0,0l0,0l0,0
	l0,0l0,0l0,0l0,0l-0.1,0.1l0,0l0,0l0,0l0,0l0,0l-0.1,0.1l0,0l0,0l0,0l0,0l0,0l0,0l-0.1,0.1l0,0l-0.1,0.1l0,0l0,0l0,0l0,0l0,0l0,0
	l0,0l0,0l0,0l0,0l0,0l0,0l0,0l0,0l0,0l0,0l0,0l0,0l0,0l0,0l0,0l0,0l0,0l0,0l0,0l0,0l0,0l0,0l0,0c0,0,0,0-0.1,0.1l0,0l0,0l0,0
	c0,0,0,0,0,0.1l0,0c-0.4,0.4-0.9,0.8-1.4,1.2l0,0l-0.1,0.1l0,0h-0.1l0,0l0,0l0,0l0,0l0,0l0,0l0,0l0,0l0,0l0,0l0,0l0,0l0,0l0,0l0,0
	l0,0l0,0l0,0l0,0l0,0l0,0l0,0l0,0l0,0l0,0l0,0l0,0l0,0l0,0l0,0l0,0l0,0h-0.1l0,0l0,0l0,0l0,0l0,0l0,0l0,0l0,0l0,0l0,0l0,0l0,0l0,0
	l0,0l0,0h-0.1l0,0l0,0l0,0l0,0l0,0l0,0l0,0l0,0l0,0l0,0l0,0h-0.3l0,0l0,0l0,0l0,0l0,0l0,0l0,0l0,0l0,0l0,0l0,0l0,0l0,0l0,0l0,0l0,0
	l0,0l0,0l0,0l0,0l0,0l0,0l0,0l0,0l0,0l0,0l0,0l0,0l0,0h-0.3h-0.1l0,0l0,0l0,0l0,0H196l0,0h-1.8l0,0h-0.1c-0.6,0.3-1.2,0.6-1.7,0.9
	l0,0c-2.5,1.2-5.3,1.9-8.1,2.2h-1.9c-1.8,0.1-3.7,0.1-5.5,0.1h-6c-6.4-0.3-12.9-0.9-19.2-2h-0.2l0,0h-0.2h-0.1H151l0,0H151h-0.3
	h-0.1H150h-0.2l0,0h-0.2l0,0l-1.8,8h-0.4l-0.3-0.1l-1.6-0.3h-0.1h-0.2h-0.5l-1.2-0.3l0,0l-0.3-0.1h-0.1H143l0,0h-0.2l0,0l-0.3-0.1
	l0,0h-0.1l0,0h-0.2l0,0l-1.7-0.4h-0.1h-0.1h-0.5h-0.1h-0.2l0,0h-2l0,0h-0.1h-0.3l-0.2-0.1c-0.9-0.4-1.8-0.8-2.7-1.4l0,0l-0.2-0.1
	l-0.1-0.1l0,0l-0.2-0.1l0,0l0,0l0,0l0,0l0,0l0,0l0,0l0,0l0,0h-0.1l0,0l0,0l0,0h-0.5l0,0l0,0l0,0l0,0l0,0h-0.1l0,0l0,0l0,0l0,0l0,0
	h-0.1l0,0l0,0l0,0H133l0,0h-0.1l0,0h-0.1l0,0h-0.1l0,0h-0.1l0,0l0,0l0,0l0,0l0,0l0,0l0,0l0,0l0,0l0,0l0,0l0,0l0,0l0,0l0,0l0,0l0,0
	l0,0l0,0l0,0l0,0l0,0l0,0l0,0l0,0l0,0l0,0l0,0l0,0l0,0l0,0l0,0l0,0l0,0l0,0l0,0l-0.1-0.1l0,0l0,0l0,0l0,0l0,0l0,0l0,0l0,0l0,0l0,0
	l-0.1-0.1l0,0l-0.1-0.1l0,0l-0.1-0.1l0,0l-0.1-0.1l0,0l-0.3-0.3l0,0l-0.1-0.1l0,0l-0.2-0.2l0,0l-0.1-0.1l0,0l-0.1-0.1v-0.1l0,0l0,0
	l-0.1-0.1l0,0l-0.1-0.1l0,0v-0.1l0,0l0,0l0,0v-0.1v-0.1l0,0c0,0,0,0,0-0.1l0,0l-0.1-0.1l0,0c-0.1-0.1-0.2-0.2-0.3-0.3l-0.1-0.1
	l-0.2-0.2v-0.1l-2.2-3.9l0,0l-0.1-0.1l0,0l0,0l0,0v-0.1l0,0c0,0,0-0.1-0.1-0.1l0,0l0,0l0,0l0,0l0,0c0,0,0-0.1,0-0.1l0,0l0,0l0,0l0,0
	l0,0l0,0l0,0l0,0l0,0l0,0v-0.1l0,0l0,0l0,0l0,0l0,0v-0.1l0,0v-0.1l0,0l0,0l0,0l0,0l0,0l0,0l0,0l0,0l0,0l0,0l0,0l0,0l0,0l0,0l0,0l0,0
	l0,0V231l0,0l0,0l0,0l0,0l0,0l0,0l0,0l0,0l0,0l0,0l0,0l0,0l0,0l0,0l0,0l0,0l0,0l0,0l0,0l0,0l0,0l0,0l0,0l0,0l0,0l0,0l0,0l0,0l0,0
	l0,0l0,0l0,0l0,0l0,0l0,0l0,0l0,0l0,0l0,0l0,0l0,0l0,0l0,0v-0.1l0,0l0,0l0,0l0,0l0,0l0,0l0,0l0,0l0,0l0,0l0,0l0,0l0,0l0,0l0,0l0,0
	v-0.1l0,0l0,0l0,0l0,0l0,0l0,0l0,0l0,0l0,0v-0.1l0,0v-0.1l0,0v-0.1l0,0V228l0,0l0,0l0,0l0,0l0,0l0,0l0,0l0,0l0,0l0,0l0,0l0,0l0,0
	l0,0l0,0l0,0l0,0l0,0c-1.7-3.2-5.6-4.5-8.8-2.8c-3,1.5-4.3,5.1-3.1,8.2c4.5,10.1,13.1,16.5,19.7,18.3c3.5,1,7,1.8,10.6,2.6h0.4
	l0.4,0.1c10.4,2.1,20.9,3.1,31.5,3.1c2,0,4,0,6-0.1c11.8-0.5,22.7-6.1,29.9-15.5c7.1-9.2,9.8-21.1,7.2-32.5
	c-1.1-5.1-3.1-9.9-5.9-14.3C214.8,192.2,211.5,190.8,208.5,191.7z"/>
<path class="st5" d="M273.4,177.9c-2.9,0-5.5,1.9-6.3,4.7l-0.2,0.5c0,0.1,0,0.2-0.1,0.3c0,0.1-0.1,0.2-0.1,0.3
	c-4,12.4-14.7,24-30,32.7c-3.2,1.8-4.3,5.8-2.5,8.9c1.8,3.2,5.8,4.3,8.9,2.5c17.9-10.1,30.8-24.1,36-40.1c0-0.1,0.1-0.2,0.1-0.3
	c0-0.1,0.1-0.2,0.1-0.3V187l0,0c0.1-0.2,0.1-0.5,0.2-0.7l0,0c0,0,0-0.1,0-0.1c1-3.4-1-7-4.4-8C274.6,178,274,177.9,273.4,177.9z"/>
<path class="st5" d="M267.4,136.6L267.4,136.6L267.4,136.6L267.4,136.6L267.4,136.6L267.4,136.6L267.4,136.6L267.4,136.6
	L267.4,136.6L267.4,136.6L267.4,136.6L267.4,136.6c-0.1-0.4-0.3-0.7-0.4-0.9l0,0l0,0l0,0l0,0l0,0l0,0l0,0l0,0l0,0l0,0l0,0l0,0l0,0
	l0,0h-0.1l0,0l0,0l0,0l0,0l0,0l0,0l0,0l0,0l0,0l0,0l0,0l0,0l0,0l0,0l0,0l0,0l0,0l0,0l0,0l0,0l0,0l0,0l0,0l0,0l0,0l0,0
	c-0.1-0.1-0.2-0.2-0.3-0.4l0,0l0,0l0,0l0,0l0,0l0,0l0,0l0,0l0,0l0,0h-0.7l0,0l0,0l0,0h-0.2l0,0h-0.1l0,0h-0.1l0,0h-0.1l0,0l0,0l0,0
	l0,0l0,0l0,0l0,0l0,0l0,0l0,0l0,0l0,0l0,0l-0.6-0.6l0,0l0,0l0,0l0,0l0,0l-0.3-0.4l-0.2-0.2l-0.2-0.2c-2.7-2.7-5.5-5.2-8.6-7.6l0,0
	l-0.3-0.2l0,0l-0.2-0.1l0,0l-0.2-0.1l0,0h-0.1l0,0l-0.2-0.1l0,0h-0.1l0,0h-0.1l0,0h-0.1l0,0h-0.1l0,0c0,0,0,0-0.1,0l0,0h-0.1l0,0
	c-2.9-2.2-7-1.5-9.2,1.4c-2.2,2.9-1.5,7,1.4,9.2c2.4,1.8,4.7,3.7,6.9,5.8h-0.6c-7.8,0-27.3-0.7-41.2-7.5c-2.8-1.4-5.6-2.9-8.5-4.6
	c-3.1-1.9-7.1-0.9-9,2.2c-1.9,3.1-0.9,7.1,2.2,9l0,0h0.1l1.8,1l0,0l0,0l0,0h0.1l0,0l0,0l0,0l0,0l0,0l0,0h0.1l0,0l0,0l0,0l0,0l0,0
	c1.3,0.8,2.7,1.5,4,2.2l0,0l0,0l0,0l0.2,0.1l0,0h0.1l0,0l0,0h0.1l0,0l0,0l0,0l0,0l0,0l0,0l0,0l0,0h0.1l0,0l0,0l0,0l0,0l0,0l0,0l0,0
	l0,0l0,0l0,0l0,0l0,0h0.1l0,0h0.1h0.1l0,0h0.1l0,0h0.1l0,0l0,0l0,0h0.1l0,0l0.1,0.1l0,0h0.1l0,0l0.1,0.1l0,0l0.2,0.1l0,0h0.1l0,0
	l0.1,0.1l0,0l0,0l0,0l0.1,0.1l0,0l0,0l0,0l0.1,0.1l0,0h0.1h0.1c16.1,7.9,37.3,8.9,47,8.9h0.7c2.6,0,4.2-0.1,4.4-0.1h1.5h0.2h1
	c0.2-0.1,0.5-0.1,0.7-0.2l0,0h0.1h0.1l0,0h0.1h1.1c1.6-0.6,3-1.5,4.2-2.7l0,0l0,0l0,0l0,0l0,0l0,0l0,0l0,0l0,0l0,0l0,0l0,0l0,0l0,0
	l0,0l0,0l0,0l0,0h0.1l0,0l0,0l0,0l0,0l0,0l0,0l0.1-0.1l0,0l0.1-0.1l0,0l0,0l0,0l0,0h0.1l0,0h0.1l0,0h0.1l0,0l0,0l0,0l0,0l0,0l0,0
	l0,0l0,0l0,0l0,0l0,0l0,0c0.5-0.8,0.9-1.6,1.2-2.5l0,0l0,0l0,0l0,0l0,0l0,0l0,0l0,0l0,0l0,0l0,0l0,0l0,0l0,0l0,0l0,0l0,0l0,0l0,0
	l0,0l0,0l0,0l0,0l0,0l0,0h0.1l0,0l0,0l0,0l0,0l0,0h0.1l0,0l0,0l0,0l0,0l0,0l0,0l0,0l0,0l0,0l0,0l0,0l0,0l0,0l0,0l0,0l0,0l0,0l0,0
	l0,0l0,0l0,0l0,0l0,0l0,0l0,0l0,0l0,0l0,0c0-0.3,0.1-0.5,0.1-0.7V147l0,0C269,143.7,269.1,139.9,267.4,136.6z"/>
<path class="st5" d="M188.7,156.6c-2.8,0-5.3,1.7-6.3,4.3v0.1l0,0c-2.9,5.4-4.4,11.3-4.4,17.4c0,10.1,4,19.9,11.2,27
	c2.7,2.5,4.5,5.8,5.2,9.4c0.9,3.7,0,7.7-2.4,10.7c-2.4,3.2-6.1,5.1-10,5.2c-1.7,0.1-3.3,0.1-5,0.1c-11.9,0-23.8-1.6-35.3-4.7
	c-0.8-0.5-4.3-3-4.3-8.9l-0.1-2.4c-0.2-3.5-3-6.2-6.5-6.2h-0.3c-3.6,0.2-6.4,3.3-6.3,6.9c0,0.8,0.1,1.6,0.1,2.3v0.3l0,0l0,0l0,0v0.2
	l0,0v0.2l0,0v0.1l0,0v0.1l0,0v0.1l0,0l0,0l0,0l0,0l0,0v0.1l0,0v0.1l0,0l0,0l0,0v0.1l0,0l0,0l0,0l0,0l0,0v0.1l0,0l0,0l0,0l0,0l0,0
	l0,0l0,0l0,0l0,0l0,0l0,0l0,0l0,0l0,0l0,0l0,0l0,0l0,0l0,0v0.1l0,0l0,0l0,0l0,0l0,0l0,0l0,0l0,0l0,0l0,0l0,0v0.1l0,0l0,0l0,0l0,0
	l0,0l0,0l0,0l0,0l0,0l0,0l0,0l0,0l0,0v0.1l0,0l0,0l0,0v0.1l0,0l0,0l0,0l0,0l0,0l0,0l0,0l0,0l0,0l0,0l0,0l0,0l0,0l0,0l0,0l0,0l0,0
	l0,0l0,0l0,0l0,0l0,0l0,0l0,0l0,0l0,0l0,0l0,0l0,0l0,0l0,0l0,0l0,0l0,0l0,0l0,0l0,0l0,0v0.1l0,0l0,0l0,0v0.1l0,0l0,0l0,0l0,0l0,0
	l0,0l0,0l0,0l0,0c0,0,0,0.1,0,0.1l0,0l0,0l0,0l0,0l0,0l0,0l0,0l0,0l0,0l0,0l0,0v0.1l0,0l0,0l0,0l0,0l0,0l0,0v0.2l0,0l0,0l0,0l0,0
	l0,0l0,0l0,0v0.2l0,0l0,0l0,0l0,0l0,0v0.2l0,0v0.1l0,0c0,0,0,0.1,0,0.2l0,0l0,0c0,0.2,0.1,0.3,0.1,0.5l0,0c0.9,3.7,2.8,7.1,5.4,10
	l0,0l0,0l0,0l0.1,0.1l0,0l0,0l0,0c0,0,0.1,0.1,0.1,0.1l0,0l0.1,0.1h0.1l0,0l0,0l0,0l0,0l0,0l0,0l0,0h0.1l0,0l0,0l0,0v0.1l0,0l0,0
	l0,0l0,0l0,0l0,0l0.1,0.1l0,0l0,0l0,0l0.1,0.1l0,0l0,0l0.1,0.1l0,0l0,0c1.6,1.5,3.4,2.6,5.3,3.4h0.5c12.8,3.6,26.1,5.4,39.4,5.4
	c1.9,0,3.7,0,5.5-0.1h1.9c2.8-0.3,5.5-1.1,8.1-2.2l0,0c0.6-0.3,1.2-0.6,1.8-0.9l0,0l0,0h0.1l0,0h0.2l0,0h0.2l0,0h0.1l0,0l0,0l0,0h2
	l0,0l0,0l0,0h0.5l0,0l0,0l0,0l0,0l0,0l0,0l0,0l0,0l0,0l0,0l0,0h0.2l0,0l0,0l0,0l0,0l0,0l0,0l0,0h0.1l0,0l0,0l0,0l0,0l0,0l0,0l0,0
	l0,0l0,0l0,0l0,0l0,0l0,0l0,0l0,0l0,0l0,0l0,0l0,0l0,0l0,0l0,0l0,0l0,0l0,0l0,0l0,0l0,0l0,0l0,0l0,0l0,0l0,0l0,0l0,0l0,0l0,0l0,0
	l0,0l0,0l0,0l0,0l0,0l0,0h0.1l0,0h0.1l0,0c0.5-0.4,0.9-0.8,1.4-1.2l0,0c0,0,0,0,0.1-0.1l0,0l0,0l0,0l0.1-0.1l0,0l0,0l0,0l0,0l0,0
	l0,0l0,0l0,0l0,0l0,0l0,0l0,0l0,0l0,0l0,0l0,0l0,0l0,0l0,0l0,0l0,0l0,0l0,0l0,0l0,0l0,0l0,0l0,0l0,0l0,0l0,0l0.1-0.1l0,0l0,0l0,0
	l0.1-0.1l0,0l0,0l0,0l0,0l0,0l0,0l0,0l0,0l0,0l0,0l0,0l0,0l0,0l0,0l0,0l0,0l0,0l0,0l0,0l0,0l0,0l0,0l0,0l0,0l0,0l0,0l0,0l0,0l0,0
	l0,0l0,0l0,0l0,0l0,0l0,0l0,0l0,0l0,0l0,0l0,0l0,0l0,0l0,0l0,0l0,0l0,0c5-5.6,7.4-13,6.5-20.5V215l0,0l0,0l0,0l0,0l0,0l0,0l0,0l0,0
	l0,0v-0.1l0,0v-0.1l0,0l0,0l0,0l0,0l0,0l0,0l0,0l0,0l0,0l0,0l0,0l0,0l0,0l0,0l0,0l0,0l0,0l0,0l0,0l0,0l0,0l0,0l0,0l0,0l0,0l0,0l0,0
	l0,0l0,0l0,0l0,0l0,0l0,0l0,0l0,0l0,0l0,0l0,0l0,0l0,0l0,0l0,0l0,0l0,0l0,0l0,0l0,0l0,0l0,0l0,0l0,0l0,0l0,0l0,0l0,0l0,0l0,0l0,0
	l0,0l0,0l0,0l0,0l0,0l0,0l0,0l0,0l0,0l0,0l0,0l0,0l0,0l0,0l0,0l0,0l0,0l0,0l0,0l0,0l0,0l0,0l0,0l0,0l0,0l0,0l0,0c0,0,0,0,0-0.1
	c-1.2-6-4.2-11.6-8.7-15.8c-7.8-7.6-9.6-19.5-4.4-29.1c0.1-0.1,0.1-0.3,0.2-0.4l0.1-0.2c0.1-0.2,0.2-0.5,0.3-0.7l0,0l0,0
	c0.1-0.2,0.1-0.3,0.2-0.5l0,0c0.1-0.2,0.2-0.4,0.2-0.7c0.9-3.2-0.9-6.6-4.1-7.6C188.7,158.7,188.8,157.6,188.7,156.6z"/>
<path class="st4" d="M130.8,262.9c-7.3,0.1-13.1,6-13,13.3c0.1,5.5,3.6,10.4,8.8,12.3l0.2,0.1h0.1l0,0l0,0h0.1l0,0h0.1l0,0h0.1l0,0
	h0.1l0,0h0.1l0,0h0.1l0,0h0.1l0,0h0.1l0,0h0.1l0,0h0.1l0,0h0.1l0,0h0.1l0,0h0.1l0,0h0.1l0,0h0.2l0,0h0.1l0,0h0.1l0,0h0.1l0,0h0.1
	l0,0h0.1l0,0h0.2l0,0l0.2,0.1l0,0h0.1l0,0l0.2,0.1l0,0l0.2,0.1l0,0l0.2,0.1l0,0c6.2,1.9,12.4,3.4,18.8,4.5l1.1,0.2l0,0h0.2l0,0h0.2
	l0,0h0.4l0,0h0.2l0,0h0.2h0.1h0.2l0,0h0.2l0,0c0.1,0,0.2,0,0.2,0h0.1h0.1h0.1h0.2l0,0h0.2h0.1h0.5h0.2l0,0h0.1h0.5h0.2h0.4h0.1h0.3
	h0.1h0.8h0.1h0.4h0.1h0.4h0.2h2.6h0.2h0.6h0.2h0.6h0.2l0,0h0.2h0.4h0.3l0,0h0.3h0.4h0.2h0.3h0.2c1.4,0.1,2.9,0.2,4.3,0.3h0.3h0.4
	h2.5h0.5h6.9c1.3,0,2.7,0,4-0.1c7.3-0.1,13-6.1,12.9-13.4c-0.1-7.3-6.1-13-13.4-12.9l0,0h-0.5c-1.7,0.1-3.4,0.1-5.2,0.1
	c-2,0-3.9,0-5.9-0.1h-0.3h-0.3c-12-0.5-23.8-2.7-35.2-6.5c-1.4-0.5-2.8-0.7-4.2-0.7L130.8,262.9z M269.4,231.7
	c-4.1,0-7.9,1.9-10.4,5.1c-1.9,2.4-4,4.7-6.2,6.8l-0.2,0.2l-0.2,0.2c-8.2,7.5-17.8,13.5-28.2,17.5c-6.6,3.1-9.4,10.9-6.3,17.5
	c2.8,6,9.7,9,16.1,6.9c13.5-5.3,25.9-13,36.6-22.8l0.3-0.2l0.3-0.2l0,0l0.1-0.1l0,0v-0.1l0,0l0.1-0.1l0,0l0.2-0.1l0,0l0.1-0.1l0,0
	l0.1-0.1l0,0c2.5-2.5,4.9-5.1,7.2-7.9l0,0l0.1-0.1l0,0l0.1-0.1l0.1-0.1l0,0l0.1-0.1l0,0l0.1-0.1l0,0v-0.1l0,0l0.1-0.1l0,0v-0.1l0,0
	v-0.1l0,0v-0.1l0,0l0,0l0,0l0,0l0,0l0,0l0,0c4.4-5.8,3.3-14-2.4-18.4c-2.3-1.8-5.1-2.7-8-2.7L269.4,231.7z"/>
<path class="st4" d="M58.7,165.4c0-7.3-8.8-13.1-19.7-13.1s-19.7,5.9-19.7,13.1c0,7.3,8.8,13.1,19.7,13.1S58.7,172.6,58.7,165.4z"/>
<path class="st4" d="M82.2,168.1c-2.9-2.9-7-3.6-9.2-1.5s-1.5,6.2,1.5,9.2c2.9,2.9,7,3.6,9.2,1.5S85.1,171,82.2,168.1z"/>
<path class="st6" d="M150.5,139.1c0-7.2-8.8-13.1-19.7-13.1s-19.7,5.9-19.7,13.1s8.8,13.1,19.7,13.1
	C141.7,152.2,150.5,146.4,150.5,139.1z"/>
<path class="st6" d="M176.8,158.7c0,3.6-2.9,6.6-6.6,6.6s-6.6-2.9-6.6-6.6s2.9-6.6,6.6-6.6S176.8,155.1,176.8,158.7L176.8,158.7z"/>
<path class="st6" d="M203,119.4c0,3.6-2.9,6.6-6.6,6.6c-3.6,0-6.6-2.9-6.6-6.6c0-3.6,2.9-6.6,6.6-6.6S203,115.8,203,119.4
	C203,119.4,203,119.4,203,119.4z"/>
<path class="st6" d="M229.2,185c0,3.6-2.9,6.6-6.6,6.6c-3.6,0-6.6-2.9-6.6-6.6c0-3.6,2.9-6.6,6.6-6.6l0,0
	C226.3,178.5,229.2,181.4,229.2,185z"/>
</svg>
