<svg id="Layer_1" data-name="Layer 1" xmlns="http://www.w3.org/2000/svg" viewBox="0 0 310.94 226.98"><defs><style>.cls-1{fill:#e06c6d;}.cls-2{fill:#da5f5a;}.cls-3{fill:#eaa7a4;}</style></defs><title>Icon</title><path class="cls-1" d="M57.59,88.47c-.2-2,.49-3.08,2.33-4.31,3.82-2.53,8-3.47,12.32-4a95.06,95.06,0,0,1,10.84-.89c8.87,0,17.27,2.24,25.6,4.78,11.06,3.37,21.93,3.67,33-.32,6.49-2.34,13.27-3.88,19.93-5.78,3.61,1,4.89,4.36,6.82,6.89,3.42,4.47,5.29,9.89,6.88,15.22a28.73,28.73,0,0,1,.93,7.81c0,6.48.26,13-.67,19.4-1,7.05-7.77,15.51-17.93,13.14-11.45-2.67-22.92-5.57-34.58-7.17a139.76,139.76,0,0,0-19.62-1.55c-7.31,0-17-.16-23.66-3.49-3.06-1.52-3.09-3-2.17-6.28,3.51-12.44-1.11-28-14.38-31.78-1.44-.41-3-.08-4.35-1C58.25,89.27,57.7,89.26,57.59,88.47Z"/><path class="cls-1" d="M167.86,76.61c5.26-1,10.55-1.66,15.88-2.24a219.32,219.32,0,0,1,35-1.1c9.45.5,18.88,2.2,26.06,9.48a4.7,4.7,0,0,1,.51.84,23.17,23.17,0,0,1-1.1,6.68c-1,3.2.66,6.59,2.33,9.39,2.29,3.81,5.77,7.55,8.83,10.88,1.07,1.17,2.45,2.38.54,4.51s-1,6.77,2.78,8.54c3.3,1.54,1.59,2.93.52,4.3-3.73,4.83-9,6.9-14.83,8-1.31.25-1.89-.3-1.9-1.7s.66-3.33-1.15-3.56-4.19.58-4.33,2.62c-.3,4.4-3.53,4.33-6.35,4.65-10.63,1.19-21.16,3.48-31.94,2.9a58,58,0,0,1-14.15-2.32c-4.28-1.41-6-6.16-4.78-11.13,2.9-11.62,3.84-23.2-.35-34.58a29.44,29.44,0,0,0-7.74-12C170.29,79.53,169.2,78,167.86,76.61Z"/><path class="cls-2" d="M274.64,131.05c2.77,5.49,4.57,11.15,4.26,17.47-.22,4.52-2,7.65-6,9.7-7.35,3.75-15.28,5.47-23.28,7a153.77,153.77,0,0,1-32,2.85c-13.51-.22-27.06.42-40.54-.26-6.9-.34-13.78,0-20.64-.53-9.51-.73-19-1.47-28.52-2.62-9.23-1.11-18.36-2.45-27.26-5.07a52.45,52.45,0,0,1-20-10.71,66.63,66.63,0,0,1-14.34-17.16c-1.51-1.49.51-3.31,1.16-4.38a2,2,0,0,1,3.72.4c.84,3.63,4.24,3.87,6.43,5.5,9.86,7.36,21.49,9.88,33.37,11.81,10.33,1.67,20.73,2.47,31.12,3.56,3.23.34,6.44.42,9.66.56,21.68.95,43.37.74,65.06.64,5.47,0,10.91-1.43,16.35-1.75,6.51-.39,12.63-2.33,18.73-4,8.12-2.22,16.33-5,21.43-12.68C273.68,131,274.2,131.07,274.64,131.05Z"/><path class="cls-3" d="M57.59,88.47a4.85,4.85,0,0,0-2.81,2.86c-1.62,6.6-.31,12.84,2.81,18.78,2.18,2.52,3.27,5.9,5.76,8.09,2.79,2.45,2.16,4.72.52,7.26a27.58,27.58,0,0,1,2,5c.22,1.14.84-2.24,2.47-3.72s2.82,1.19,2.88,1.95c.23,2.54,13.77,13.16,23,13.72,7.64,2.15,15.54,3.1,23.35,4.46,9.3,1.62,18.66,1.05,28,2.07,9,1,18.17.68,27.25.76,17.34.15,34.72,1,52-.62,4.62-.45,9.25-1.14,13.86-1.84a111.24,111.24,0,0,0,13.4-3.17c6.87-1.9,13.75-4.41,19-9.79,1.1-1.12,1.43-3.18,3.49-3.27l-2.79-3.49c-2.3-5.82-7.93-8.87-11.41-13.75-4-5.62-7.76-11.26-9.58-18-1.16-4.32-2.69-10-6.53-13.17,0,1.49.5,4.31-.15,5.43-2.75,4.69.95,8.41,2.84,12.21,2.18,4.37,5.66,7.88,8.35,11.92.3.45,1.22.5.78,1.49-2.24,5-1.88,7.82,2.53,9.93,3.65,1.74,1.5,3.05.41,4.47-3.67,4.81-9,6.66-14.63,7.9-1.78.4-2.11-.59-2-2.15.13-1.21.43-3.11-1-3.25a4.5,4.5,0,0,0-4.07,1.78c-.7,1-1.29,0-1.2,1.36,0,.68.43,1.84-1,1.64-2-.28-3.76,2.48-5.64,2.7-6.11.7-12.2,1.5-18.31,2.19a62.1,62.1,0,0,1-23.66-1.39c-7.5-2-8.27-6.29-6.5-12,2.39-7.7,1.52-15.66,1.24-23.46a34.86,34.86,0,0,0-3.58-13.11c-2.49-5.31-6.84-9.45-10.92-13.65-2,.71-4.35.2-6.28,1.39,3.63,1.2,5.09,4.53,6.94,7.36a41.62,41.62,0,0,1,7.14,19.41,71.76,71.76,0,0,1-2.54,27.45c-1.43,4.73-6.5,7.75-11.46,7.56-8.08-.31-15.83-2.72-23.62-4.51a170.66,170.66,0,0,0-35.1-4.47c-7.27-.16-14.35-.06-20.9-3.31-1.35-.67-4.25-1.41-3.33-3.8a23.08,23.08,0,0,0,1.23-14.29c-1.54-6.24-4.24-11.61-9.58-15.59-3.66-2.72-2.57-4.66-12.07-4.64m33.1,46.23-.73-.28Zm-31.08-36c-1.13-3.19.11-2.8,2.35-1.9,6.65,2.65,10.87,7.12,12.52,14.33C76,115.37,60.57,100.15,60.31,99.43Z"/><path class="cls-2" d="M57.59,110.11c2.6,3.38,5.76,7.07,8.52,10.36,1,1.17-1,3.52-2.24,5C61.5,120.46,58.25,115.81,57.59,110.11Z"/><path class="cls-1" d="M74.25,125.13c-2.5-1.4-3-3.45-3.69-6.31-1.2-5.27-9.67-17.06-10.48-17.09-.71-1.53-.78-3.69.15-4.66s3,.45,4.41,1.17c7.39,3.8,13,12.38,10.42,21.66A49.94,49.94,0,0,0,74.25,125.13Z"/></svg>